<svg width="18" height="22" viewBox="0 0 18 22" fill="none" xmlns="http://www.w3.org/2000/svg">
<path d="M9.00031 0.916748C7.22115 0.916748 5.51486 1.62352 4.2568 2.88157C2.99875 4.13963 2.29198 5.84592 2.29198 7.62508V11.0061C2.29212 11.1547 2.25767 11.3014 2.19135 11.4345L0.545893 14.7244C0.465514 14.8851 0.42756 15.0638 0.435635 15.2433C0.443711 15.4228 0.497547 15.5973 0.592032 15.7502C0.686517 15.903 0.818512 16.0292 0.975482 16.1167C1.13245 16.2042 1.30918 16.2501 1.48889 16.2501H16.5117C16.6914 16.2501 16.8682 16.2042 17.0251 16.1167C17.1821 16.0292 17.3141 15.903 17.4086 15.7502C17.5031 15.5973 17.5569 15.4228 17.565 15.2433C17.5731 15.0638 17.5351 14.8851 17.4547 14.7244L15.8102 11.4345C15.7436 11.3015 15.7088 11.1548 15.7086 11.0061V7.62508C15.7086 5.84592 15.0019 4.13963 13.7438 2.88157C12.4858 1.62352 10.7795 0.916748 9.00031 0.916748ZM9.00031 19.1251C8.40552 19.1254 7.82527 18.9412 7.33954 18.5979C6.8538 18.2547 6.48649 17.7692 6.28823 17.2084H11.7124C11.5141 17.7692 11.1468 18.2547 10.6611 18.5979C10.1753 18.9412 9.5951 19.1254 9.00031 19.1251Z" fill="#E8EBF0"/>
</svg>
