<svg width="17" height="20" viewBox="0 0 17 20" fill="none" xmlns="http://www.w3.org/2000/svg">
<path d="M2.9998 0.100098C2.41633 0.100098 1.85675 0.331883 1.44417 0.744463C1.03159 1.15704 0.799805 1.71662 0.799805 2.3001V17.7001C0.799805 18.2836 1.03159 18.8432 1.44417 19.2557C1.85675 19.6683 2.41633 19.9001 2.9998 19.9001H13.9998C14.5833 19.9001 15.1429 19.6683 15.5554 19.2557C15.968 18.8432 16.1998 18.2836 16.1998 17.7001V2.3001C16.1998 1.71662 15.968 1.15704 15.5554 0.744463C15.1429 0.331883 14.5833 0.100098 13.9998 0.100098H2.9998ZM2.9998 3.4001H8.4998V4.5001H2.9998V3.4001ZM2.9998 5.6001H8.4998V6.7001H2.9998V5.6001ZM2.9998 7.8001H8.4998V8.9001H2.9998V7.8001ZM13.9998 15.5001H2.9998V14.4001H13.9998V15.5001ZM13.9998 13.3001H2.9998V12.2001H13.9998V13.3001ZM13.9998 11.1001H2.9998V10.0001H13.9998V11.1001ZM13.9998 8.9001H9.5998V3.4001H13.9998V8.9001Z" fill="#E8EBF0"/>
</svg>
