<svg width="21" height="22" viewBox="0 0 21 22" fill="none" xmlns="http://www.w3.org/2000/svg">
<path d="M9.5 0C8.17392 0 6.90215 0.526784 5.96447 1.46447C5.02678 2.40215 4.5 3.67392 4.5 5C4.5 6.32608 5.02678 7.59785 5.96447 8.53553C6.90215 9.47322 8.17392 10 9.5 10C10.8261 10 12.0979 9.47322 13.0355 8.53553C13.9732 7.59785 14.5 6.32608 14.5 5C14.5 3.67392 13.9732 2.40215 13.0355 1.46447C12.0979 0.526784 10.8261 0 9.5 0ZM9.5 11C7.105 11 4.925 11.694 3.322 12.672C2.522 13.16 1.838 13.736 1.344 14.362C0.858 14.976 0.5 15.713 0.5 16.5C0.5 17.345 0.911 18.011 1.503 18.486C2.063 18.936 2.802 19.234 3.587 19.442C5.165 19.859 7.271 20 9.5 20L10.185 19.995C10.3525 19.9927 10.5167 19.9484 10.6626 19.8661C10.8085 19.7838 10.9313 19.6662 11.0199 19.524C11.1085 19.3819 11.16 19.2198 11.1696 19.0525C11.1792 18.8853 11.1467 18.7184 11.075 18.567C10.6958 17.7644 10.4994 16.8877 10.5 16C10.5 14.748 10.883 13.588 11.537 12.627C11.6342 12.4842 11.6928 12.3186 11.707 12.1465C11.7212 11.9743 11.6905 11.8014 11.618 11.6446C11.5455 11.4878 11.4336 11.3524 11.2932 11.2517C11.1528 11.151 10.9888 11.0884 10.817 11.07C10.3863 11.0233 9.94733 11 9.5 11ZM19.116 13.469C19.1827 13.3552 19.2262 13.2294 19.2441 13.0987C19.262 12.9681 19.2538 12.8352 19.2201 12.7077C19.1864 12.5802 19.1278 12.4606 19.0477 12.3558C18.9676 12.2511 18.8675 12.1632 18.7533 12.0972C18.6391 12.0313 18.513 11.9886 18.3822 11.9716C18.2514 11.9546 18.1186 11.9636 17.9913 11.9982C17.864 12.0327 17.7449 12.0921 17.6406 12.1729C17.5364 12.2537 17.4492 12.3544 17.384 12.469L17.048 13.051C16.6855 12.9832 16.3136 12.9829 15.951 13.05L15.616 12.469C15.5508 12.3544 15.4636 12.2537 15.3594 12.1729C15.2551 12.0921 15.136 12.0327 15.0087 11.9982C14.8814 11.9636 14.7486 11.9546 14.6178 11.9716C14.487 11.9886 14.3609 12.0313 14.2467 12.0972C14.1325 12.1632 14.0324 12.2511 13.9523 12.3558C13.8722 12.4606 13.8136 12.5802 13.7799 12.7077C13.7462 12.8352 13.738 12.9681 13.7559 13.0987C13.7738 13.2294 13.8173 13.3552 13.884 13.469L14.219 14.049C13.9798 14.3297 13.7943 14.6521 13.672 15H13C12.7348 15 12.4804 15.1054 12.2929 15.2929C12.1054 15.4804 12 15.7348 12 16C12 16.2652 12.1054 16.5196 12.2929 16.7071C12.4804 16.8946 12.7348 17 13 17H13.671C13.794 17.3477 13.9802 17.6698 14.22 17.95L13.884 18.531C13.8173 18.6448 13.7738 18.7706 13.7559 18.9013C13.738 19.0319 13.7462 19.1648 13.7799 19.2923C13.8136 19.4198 13.8722 19.5394 13.9523 19.6442C14.0324 19.7489 14.1325 19.8368 14.2467 19.9028C14.3609 19.9687 14.487 20.0114 14.6178 20.0284C14.7486 20.0454 14.8814 20.0364 15.0087 20.0018C15.136 19.9673 15.2551 19.9079 15.3594 19.8271C15.4636 19.7463 15.5508 19.6456 15.616 19.531L15.952 18.95C16.311 19.016 16.682 19.018 17.049 18.95L17.384 19.531C17.4492 19.6456 17.5364 19.7463 17.6406 19.8271C17.7449 19.9079 17.864 19.9673 17.9913 20.0018C18.1186 20.0364 18.2514 20.0454 18.3822 20.0284C18.513 20.0114 18.6391 19.9687 18.7533 19.9028C18.8675 19.8368 18.9676 19.7489 19.0477 19.6442C19.1278 19.5394 19.1864 19.4198 19.2201 19.2923C19.2538 19.1648 19.262 19.0319 19.2441 18.9013C19.2262 18.7706 19.1827 18.6448 19.116 18.531L18.781 17.951C19.023 17.667 19.207 17.344 19.328 17H20C20.2652 17 20.5196 16.8946 20.7071 16.7071C20.8946 16.5196 21 16.2652 21 16C21 15.7348 20.8946 15.4804 20.7071 15.2929C20.5196 15.1054 20.2652 15 20 15H19.329C19.206 14.6523 19.0198 14.3302 18.78 14.05L19.116 13.469Z" fill="#E8EBF0"/>
</svg>
