<svg width="169" height="169" viewBox="0 0 169 169" fill="none" xmlns="http://www.w3.org/2000/svg">
<path d="M169 129.251H0V129.335H169V129.251Z" fill="#EBEBEB"/>
<path d="M152.067 134.689H140.872V134.774H152.067V134.689Z" fill="#EBEBEB"/>
<path d="M111.953 135.609H109.016V135.693H111.953V135.609Z" fill="#EBEBEB"/>
<path d="M140.534 131.553H134.048V131.637H140.534V131.553Z" fill="#EBEBEB"/>
<path d="M32.3297 132.121H17.7314V132.205H32.3297V132.121Z" fill="#EBEBEB"/>
<path d="M37.4804 132.121H35.3408V132.205H37.4804V132.121Z" fill="#EBEBEB"/>
<path d="M76.1004 133.547H44.4365V133.631H76.1004V133.547Z" fill="#EBEBEB"/>
<path d="M80.1061 114.176H14.8416C14.3304 114.175 13.8403 113.972 13.4791 113.61C13.1179 113.248 12.915 112.758 12.915 112.246V20.5029C12.9195 19.9946 13.1243 19.5085 13.4851 19.1503C13.8458 18.7921 14.3333 18.5907 14.8416 18.5898H80.1061C80.6179 18.5898 81.1088 18.7932 81.4708 19.1551C81.8327 19.5171 82.036 20.008 82.036 20.5198V112.246C82.036 112.758 81.8327 113.249 81.4708 113.611C81.1088 113.973 80.6179 114.176 80.1061 114.176ZM14.8416 18.6574C14.3528 18.6583 13.8842 18.8532 13.5389 19.1992C13.1935 19.5452 12.9995 20.0141 12.9995 20.5029V112.246C12.9995 112.735 13.1935 113.204 13.5389 113.55C13.8842 113.896 14.3528 114.091 14.8416 114.092H80.1061C80.5952 114.091 81.0641 113.896 81.41 113.55C81.7559 113.204 81.9507 112.735 81.9516 112.246V20.5029C81.9507 20.0137 81.7559 19.5449 81.41 19.199C81.0641 18.8531 80.5952 18.6583 80.1061 18.6574H14.8416Z" fill="#EBEBEB"/>
<path d="M153.219 114.176H87.9515C87.4399 114.175 86.9495 113.972 86.5878 113.61C86.226 113.248 86.0224 112.758 86.0215 112.246V20.5029C86.0268 19.9943 86.2324 19.5082 86.5937 19.1501C86.9549 18.792 87.4428 18.5907 87.9515 18.5898H153.219C153.727 18.5916 154.214 18.7934 154.574 19.1515C154.934 19.5096 155.138 19.9952 155.142 20.5029V112.246C155.142 112.757 154.94 113.247 154.58 113.609C154.219 113.97 153.73 114.174 153.219 114.176ZM87.9515 18.6574C87.4623 18.6583 86.9934 18.8531 86.6475 19.199C86.3016 19.5449 86.1069 20.0137 86.106 20.5029V112.246C86.1069 112.735 86.3016 113.204 86.6475 113.55C86.9934 113.896 87.4623 114.091 87.9515 114.092H153.219C153.708 114.091 154.177 113.896 154.523 113.55C154.869 113.204 155.064 112.735 155.065 112.246V20.5029C155.064 20.0137 154.869 19.5449 154.523 19.199C154.177 18.8531 153.708 18.6583 153.219 18.6574H87.9515Z" fill="#EBEBEB"/>
<path d="M149.048 43.541H19.9521V129.102H149.048V43.541Z" fill="#E0E0E0"/>
<path d="M84.5 128.72V41.5162C84.5 41.5162 100.95 36.1792 144.934 36.1792V128.72H84.5Z" fill="#F5F5F5"/>
<path d="M84.4998 128.72V41.5162C84.4998 41.5162 68.0494 36.1792 24.0654 36.1792V128.72H84.4998Z" fill="#F0F0F0"/>
<path d="M89.2046 50.5275C88.9805 50.5446 88.7588 50.4719 88.5883 50.3255C88.4178 50.179 88.3124 49.9709 88.2954 49.7468C88.2784 49.5227 88.3511 49.301 88.4975 49.1305C88.6439 48.9599 88.8521 48.8546 89.0762 48.8375C105.565 46.5654 122.188 45.408 138.833 45.373C139.057 45.373 139.272 45.4621 139.431 45.6205C139.589 45.779 139.678 45.9939 139.678 46.218C139.678 46.4422 139.589 46.6571 139.431 46.8156C139.272 46.974 139.057 47.063 138.833 47.063C122.274 47.1009 105.737 48.2549 89.3331 50.5174C89.2906 50.5241 89.2476 50.5275 89.2046 50.5275Z" fill="#E6E6E6"/>
<path d="M89.2047 56.7841C88.9806 56.798 88.7601 56.7223 88.5918 56.5736C88.4235 56.425 88.3212 56.2156 88.3073 55.9915C88.2934 55.7674 88.3691 55.5469 88.5177 55.3786C88.6664 55.2103 88.8758 55.108 89.0999 55.0941C89.35 55.0637 114.406 51.9507 138.833 51.9507C139.057 51.9507 139.272 52.0397 139.431 52.1982C139.589 52.3566 139.678 52.5716 139.678 52.7957C139.678 53.0198 139.589 53.2347 139.431 53.3932C139.272 53.5517 139.057 53.6407 138.833 53.6407C114.514 53.6407 89.5596 56.7401 89.3095 56.7706L89.2047 56.7841Z" fill="#E6E6E6"/>
<path d="M89.2047 63.0537C88.9806 63.0649 88.7612 62.9867 88.5948 62.8361C88.4284 62.6856 88.3287 62.4751 88.3175 62.251C88.3063 62.0269 88.3845 61.8075 88.5351 61.6411C88.6856 61.4747 88.8961 61.3749 89.1202 61.3637C89.394 61.3333 116.853 58.5347 138.833 58.5347C139.057 58.5347 139.272 58.6237 139.431 58.7822C139.589 58.9406 139.678 59.1556 139.678 59.3797C139.678 59.6038 139.589 59.8187 139.431 59.9772C139.272 60.1356 139.057 60.2247 138.833 60.2247C116.941 60.2247 89.5664 63.0166 89.2926 63.0436L89.2047 63.0537Z" fill="#E6E6E6"/>
<path d="M89.2055 69.3205C88.9814 69.3299 88.7627 69.2499 88.5976 69.0981C88.4324 68.9463 88.3344 68.7351 88.325 68.511C88.3156 68.2869 88.3956 68.0682 88.5474 67.9031C88.6992 67.7379 88.9104 67.6399 89.1345 67.6305C89.4353 67.6068 119.301 65.1191 138.82 65.1191C139.045 65.1191 139.26 65.2082 139.418 65.3666C139.576 65.5251 139.665 65.74 139.665 65.9641C139.665 66.1882 139.576 66.4032 139.418 66.5616C139.26 66.7201 139.045 66.8091 138.82 66.8091C119.358 66.8091 89.5637 69.2901 89.2629 69.3171L89.2055 69.3205Z" fill="#E6E6E6"/>
<path d="M89.2053 75.5833C88.9812 75.5909 88.7632 75.5092 88.5994 75.3561C88.4355 75.203 88.3392 74.9911 88.3315 74.767C88.3239 74.5429 88.4056 74.325 88.5587 74.1611C88.7118 73.9972 88.9237 73.9009 89.1478 73.8933C89.4858 73.873 121.745 71.6963 138.834 71.6963C139.058 71.6963 139.273 71.7853 139.431 71.9438C139.59 72.1023 139.679 72.3172 139.679 72.5413C139.679 72.7654 139.59 72.9803 139.431 73.1388C139.273 73.2973 139.058 73.3863 138.834 73.3863C121.802 73.3863 89.5872 75.5596 89.2627 75.5799L89.2053 75.5833Z" fill="#E6E6E6"/>
<path d="M89.2051 81.8466C88.981 81.8524 88.7638 81.769 88.6012 81.6146C88.4386 81.4603 88.344 81.2477 88.3382 81.0236C88.3323 80.7994 88.4158 80.5822 88.5701 80.4196C88.7245 80.257 88.9371 80.1624 89.1612 80.1566C89.4992 80.1397 124.188 78.2739 138.847 78.2739C139.071 78.2739 139.286 78.363 139.445 78.5214C139.603 78.6799 139.692 78.8948 139.692 79.1189C139.692 79.343 139.603 79.558 139.445 79.7164C139.286 79.8749 139.071 79.9639 138.847 79.9639C124.246 79.9639 89.6141 81.8263 89.266 81.8466H89.2051Z" fill="#E6E6E6"/>
<path d="M89.2048 88.1099C88.9807 88.1144 88.764 88.0296 88.6024 87.8743C88.4407 87.719 88.3474 87.5059 88.3429 87.2818C88.3385 87.0577 88.4232 86.841 88.5785 86.6793C88.7338 86.5177 88.9469 86.4244 89.171 86.4199C89.5428 86.4199 126.628 84.8516 138.833 84.8516C139.057 84.8516 139.272 84.9406 139.431 85.0991C139.589 85.2575 139.678 85.4725 139.678 85.6966C139.678 85.9207 139.589 86.1356 139.431 86.2941C139.272 86.4525 139.057 86.5416 138.833 86.5416C126.665 86.5416 89.6138 88.093 89.242 88.1099H89.2048Z" fill="#E6E6E6"/>
<path d="M89.2053 94.3727C89.0943 94.3744 88.9841 94.3543 88.8809 94.3135C88.7777 94.2727 88.6836 94.2119 88.6038 94.1347C88.5241 94.0575 88.4604 93.9654 88.4163 93.8635C88.3722 93.7617 88.3486 93.6521 88.3468 93.5412C88.345 93.4302 88.3651 93.32 88.4059 93.2168C88.4468 93.1136 88.5075 93.0194 88.5847 92.9397C88.6619 92.86 88.7541 92.7963 88.8559 92.7522C88.9578 92.708 89.0673 92.6844 89.1783 92.6827C89.5771 92.6827 129.062 91.4253 138.834 91.4253C139.058 91.4253 139.273 91.5143 139.431 91.6728C139.59 91.8313 139.679 92.0462 139.679 92.2703C139.679 92.4944 139.59 92.7093 139.431 92.8678C139.273 93.0263 139.058 93.1153 138.834 93.1153C129.099 93.1153 89.6312 94.3591 89.2323 94.3693L89.2053 94.3727Z" fill="#E6E6E6"/>
<path d="M89.2051 100.639C88.981 100.642 88.7651 100.555 88.6051 100.398C88.445 100.241 88.3538 100.027 88.3516 99.8028C88.3494 99.5787 88.4362 99.3629 88.5931 99.2028C88.75 99.0428 88.964 98.9516 89.1882 98.9494C89.6107 98.9494 131.513 98.0063 138.834 98.0063C139.058 98.0063 139.273 98.0954 139.431 98.2538C139.59 98.4123 139.679 98.6272 139.679 98.8513C139.679 99.0755 139.59 99.2904 139.431 99.4489C139.273 99.6073 139.058 99.6963 138.834 99.6963C131.533 99.6963 89.6478 100.629 89.2253 100.639H89.2051Z" fill="#E6E6E6"/>
<path d="M89.2054 106.903C88.9812 106.903 88.7663 106.814 88.6078 106.655C88.4494 106.497 88.3604 106.282 88.3604 106.058C88.3604 105.834 88.4494 105.619 88.6078 105.46C88.7663 105.302 88.9812 105.213 89.2054 105.213C89.6515 105.213 133.963 104.584 138.844 104.584C139.068 104.584 139.283 104.673 139.442 104.831C139.6 104.99 139.689 105.205 139.689 105.429C139.689 105.653 139.6 105.868 139.442 106.026C139.283 106.185 139.068 106.274 138.844 106.274C133.977 106.274 89.6752 106.896 89.229 106.903H89.2054Z" fill="#E6E6E6"/>
<path d="M89.2054 113.165C88.9812 113.165 88.7663 113.076 88.6078 112.918C88.4494 112.76 88.3604 112.545 88.3604 112.32C88.3604 112.096 88.4494 111.881 88.6078 111.723C88.7663 111.564 88.9812 111.475 89.2054 111.475C89.6752 111.475 136.397 111.161 138.837 111.161C139.061 111.161 139.276 111.25 139.435 111.409C139.593 111.567 139.682 111.782 139.682 112.006C139.682 112.23 139.593 112.445 139.435 112.604C139.276 112.762 139.061 112.851 138.837 112.851C136.404 112.851 89.6853 113.162 89.2155 113.165H89.2054Z" fill="#E6E6E6"/>
<path d="M138.834 119.429H89.2054C88.9812 119.429 88.7663 119.34 88.6078 119.181C88.4494 119.023 88.3604 118.808 88.3604 118.584C88.3604 118.36 88.4494 118.145 88.6078 117.986C88.7663 117.828 88.9812 117.739 89.2054 117.739H138.834C139.058 117.739 139.273 117.828 139.431 117.986C139.59 118.145 139.679 118.36 139.679 118.584C139.679 118.808 139.59 119.023 139.431 119.181C139.273 119.34 139.058 119.429 138.834 119.429Z" fill="#E6E6E6"/>
<path d="M79.7948 50.5277C80.0189 50.5447 80.2406 50.472 80.4111 50.3256C80.5817 50.1792 80.687 49.971 80.7041 49.7469C80.7211 49.5228 80.6484 49.3011 80.502 49.1306C80.3555 48.9601 80.1474 48.8547 79.9233 48.8377C63.4341 46.5689 46.8107 45.4149 30.1663 45.3833C29.9422 45.3833 29.7273 45.4723 29.5688 45.6308C29.4103 45.7893 29.3213 46.0042 29.3213 46.2283C29.3213 46.4524 29.4103 46.6673 29.5688 46.8258C29.7273 46.9843 29.9422 47.0733 30.1663 47.0733C46.725 47.1078 63.2625 48.2584 79.6664 50.5175C79.7089 50.5243 79.7518 50.5276 79.7948 50.5277Z" fill="#E0E0E0"/>
<path d="M79.7948 56.7841C80.0189 56.798 80.2394 56.7223 80.4077 56.5736C80.576 56.425 80.6783 56.2156 80.6922 55.9915C80.7061 55.7674 80.6304 55.5469 80.4818 55.3786C80.3331 55.2103 80.1237 55.108 79.8996 55.0941C79.6495 55.0637 54.5935 51.9507 30.1663 51.9507C29.9422 51.9507 29.7273 52.0397 29.5688 52.1982C29.4103 52.3566 29.3213 52.5716 29.3213 52.7957C29.3213 53.0198 29.4103 53.2347 29.5688 53.3932C29.7273 53.5517 29.9422 53.6407 30.1663 53.6407C54.4854 53.6407 79.4399 56.7401 79.6901 56.7706L79.7948 56.7841Z" fill="#E0E0E0"/>
<path d="M79.7948 63.0537C80.0189 63.0649 80.2383 62.9867 80.4047 62.8361C80.5711 62.6856 80.6709 62.4751 80.6821 62.251C80.6933 62.0269 80.615 61.8075 80.4645 61.6411C80.3139 61.4747 80.1034 61.3749 79.8793 61.3637C79.6056 61.3333 52.1464 58.5347 30.1663 58.5347C29.9422 58.5347 29.7273 58.6237 29.5688 58.7822C29.4103 58.9406 29.3213 59.1556 29.3213 59.3797C29.3213 59.6038 29.4103 59.8187 29.5688 59.9772C29.7273 60.1356 29.9422 60.2247 30.1663 60.2247C52.0585 60.2247 79.4332 63.0166 79.707 63.0436L79.7948 63.0537Z" fill="#E0E0E0"/>
<path d="M79.795 69.3205C80.0191 69.3299 80.2378 69.2499 80.4029 69.0981C80.568 68.9463 80.6661 68.7351 80.6755 68.511C80.6849 68.2869 80.6049 68.0682 80.4531 67.9031C80.3013 67.7379 80.0901 67.6399 79.866 67.6305C79.5651 67.6068 49.6995 65.1191 30.18 65.1191C29.9559 65.1191 29.7409 65.2082 29.5825 65.3666C29.424 65.5251 29.335 65.74 29.335 65.9641C29.335 66.1882 29.424 66.4032 29.5825 66.5616C29.7409 66.7201 29.9559 66.8091 30.18 66.8091C49.642 66.8091 79.4367 69.2901 79.7375 69.3171L79.795 69.3205Z" fill="#E0E0E0"/>
<path d="M79.7948 75.5833C79.9058 75.5871 80.0164 75.5689 80.1204 75.53C80.2243 75.491 80.3196 75.4319 80.4007 75.3561C80.4819 75.2803 80.5473 75.1893 80.5932 75.0882C80.6392 74.9871 80.6648 74.878 80.6686 74.767C80.6723 74.6561 80.6542 74.5454 80.6152 74.4415C80.5763 74.3375 80.5172 74.2422 80.4414 74.1611C80.3656 74.08 80.2745 74.0146 80.1735 73.9686C80.0724 73.9227 79.9633 73.8971 79.8523 73.8933C79.5143 73.873 47.2556 71.6963 30.1663 71.6963C29.9422 71.6963 29.7273 71.7853 29.5688 71.9438C29.4103 72.1023 29.3213 72.3172 29.3213 72.5413C29.3213 72.7654 29.4103 72.9803 29.5688 73.1388C29.7273 73.2973 29.9422 73.3863 30.1663 73.3863C47.1981 73.3863 79.4129 75.5596 79.7374 75.5799L79.7948 75.5833Z" fill="#E0E0E0"/>
<path d="M79.7947 81.8466C80.0188 81.8524 80.236 81.769 80.3986 81.6146C80.5612 81.4603 80.6558 81.2477 80.6617 81.0236C80.6675 80.7994 80.584 80.5822 80.4297 80.4196C80.2753 80.257 80.0627 80.1624 79.8386 80.1566C79.5006 80.1397 44.8117 78.2739 30.1526 78.2739C29.9285 78.2739 29.7136 78.363 29.5551 78.5214C29.3966 78.6799 29.3076 78.8948 29.3076 79.1189C29.3076 79.343 29.3966 79.558 29.5551 79.7164C29.7136 79.8749 29.9285 79.9639 30.1526 79.9639C44.7542 79.9639 79.3857 81.8263 79.7338 81.8466H79.7947Z" fill="#E0E0E0"/>
<path d="M79.7948 88.1099C79.9058 88.1121 80.0161 88.0924 80.1195 88.052C80.2228 88.0116 80.3172 87.9512 80.3973 87.8743C80.4773 87.7974 80.5414 87.7055 80.5859 87.6039C80.6305 87.5022 80.6545 87.3928 80.6567 87.2818C80.6589 87.1708 80.6393 87.0605 80.5989 86.9571C80.5585 86.8538 80.4981 86.7594 80.4212 86.6793C80.3443 86.5993 80.2524 86.5352 80.1507 86.4907C80.049 86.4462 79.9396 86.4221 79.8286 86.4199C79.4568 86.4199 42.3715 84.8516 30.1663 84.8516C29.9422 84.8516 29.7273 84.9406 29.5688 85.0991C29.4103 85.2575 29.3213 85.4725 29.3213 85.6966C29.3213 85.9207 29.4103 86.1356 29.5688 86.2941C29.7273 86.4525 29.9422 86.5416 30.1663 86.5416C42.3343 86.5416 79.3858 88.093 79.7576 88.1099H79.7948Z" fill="#E0E0E0"/>
<path d="M79.7948 94.3727C80.0189 94.3762 80.2353 94.2907 80.3963 94.1347C80.5573 93.9788 80.6498 93.7653 80.6533 93.5412C80.6569 93.3171 80.5713 93.1007 80.4154 92.9397C80.2595 92.7787 80.046 92.6862 79.8219 92.6827C79.423 92.6827 39.9379 91.4253 30.1663 91.4253C29.9422 91.4253 29.7273 91.5143 29.5688 91.6728C29.4103 91.8313 29.3213 92.0462 29.3213 92.2703C29.3213 92.4944 29.4103 92.7093 29.5688 92.8678C29.7273 93.0263 29.9422 93.1153 30.1663 93.1153C39.9007 93.1153 79.3689 94.3591 79.7678 94.3693L79.7948 94.3727Z" fill="#E0E0E0"/>
<path d="M79.7951 100.639C80.0192 100.639 80.2342 100.55 80.3926 100.392C80.5511 100.233 80.6401 100.018 80.6401 99.7944C80.6401 99.5703 80.5511 99.3553 80.3926 99.1969C80.2342 99.0384 80.0192 98.9494 79.7951 98.9494C79.3726 98.9494 37.4708 98.0063 30.1497 98.0063C29.9256 98.0063 29.7107 98.0954 29.5522 98.2538C29.3937 98.4123 29.3047 98.6272 29.3047 98.8513C29.3047 99.0755 29.3937 99.2904 29.5522 99.4489C29.7107 99.6073 29.9256 99.6963 30.1497 99.6963C37.4505 99.6963 79.3354 100.629 79.7579 100.639H79.7951Z" fill="#E0E0E0"/>
<path d="M79.7952 106.903C80.0193 106.903 80.2342 106.814 80.3927 106.655C80.5512 106.497 80.6402 106.282 80.6402 106.058C80.6402 105.834 80.5512 105.619 80.3927 105.46C80.2342 105.302 80.0193 105.213 79.7952 105.213C79.349 105.213 35.0372 104.584 30.1565 104.584C29.9324 104.584 29.7175 104.673 29.559 104.831C29.4005 104.99 29.3115 105.205 29.3115 105.429C29.3115 105.653 29.4005 105.868 29.559 106.026C29.7175 106.185 29.9324 106.274 30.1565 106.274C35.0237 106.274 79.3254 106.896 79.7715 106.903H79.7952Z" fill="#E0E0E0"/>
<path d="M79.7953 113.165C80.0194 113.165 80.2343 113.076 80.3928 112.918C80.5513 112.76 80.6403 112.545 80.6403 112.32C80.6403 112.096 80.5513 111.881 80.3928 111.723C80.2343 111.564 80.0194 111.475 79.7953 111.475C79.3255 111.475 32.6037 111.161 30.1634 111.161C29.9393 111.161 29.7243 111.25 29.5659 111.409C29.4074 111.567 29.3184 111.782 29.3184 112.006C29.3184 112.23 29.4074 112.445 29.5659 112.604C29.7243 112.762 29.9393 112.851 30.1634 112.851C32.597 112.851 79.3119 113.162 79.7851 113.165H79.7953Z" fill="#E0E0E0"/>
<path d="M30.1663 119.429H79.7948C80.0189 119.429 80.2339 119.34 80.3923 119.181C80.5508 119.023 80.6398 118.808 80.6398 118.584C80.6398 118.36 80.5508 118.145 80.3923 117.986C80.2339 117.828 80.0189 117.739 79.7948 117.739H30.1663C29.9422 117.739 29.7273 117.828 29.5688 117.986C29.4103 118.145 29.3213 118.36 29.3213 118.584C29.3213 118.808 29.4103 119.023 29.5688 119.181C29.7273 119.34 29.9422 119.429 30.1663 119.429Z" fill="#E0E0E0"/>
<path d="M89.9449 71.4833L87.1631 68.7793L84.3848 71.4833V40.6746L89.9449 39.6606V71.4833Z" fill="#E0E0E0"/>
<path d="M84.4997 144.515C120.694 144.515 150.034 142.802 150.034 140.689C150.034 138.576 120.694 136.863 84.4997 136.863C48.3058 136.863 18.9648 138.576 18.9648 140.689C18.9648 142.802 48.3058 144.515 84.4997 144.515Z" fill="#F5F5F5"/>
<path d="M25.4914 139.969C25.3569 139.969 25.228 139.916 25.1329 139.821C25.0378 139.726 24.9844 139.597 24.9844 139.462V76.6348C24.982 72.7845 26.1569 69.0256 28.3515 65.8619C30.546 62.6983 33.6553 60.2812 37.2625 58.9348C40.8697 57.5883 44.8023 57.3769 48.533 58.3288C52.2638 59.2807 55.6143 61.3505 58.1354 64.2606C58.1798 64.311 58.2138 64.3696 58.2356 64.4332C58.2573 64.4967 58.2663 64.5639 58.2621 64.6309C58.2578 64.6979 58.2404 64.7634 58.2109 64.8237C58.1813 64.884 58.1402 64.9379 58.0898 64.9823C58.0394 65.0267 57.9808 65.0607 57.9173 65.0824C57.8537 65.1041 57.7865 65.1131 57.7195 65.1089C57.6525 65.1047 57.587 65.0873 57.5267 65.0577C57.4664 65.0282 57.4125 64.987 57.3682 64.9366C54.9824 62.1852 51.8127 60.2286 48.2838 59.3292C44.7549 58.4297 41.0354 58.6303 37.6237 59.9041C34.212 61.1779 31.2711 63.464 29.1952 66.4561C27.1192 69.4481 26.0073 73.0032 26.0085 76.645V139.462C26.0085 139.53 25.9951 139.596 25.969 139.659C25.9429 139.721 25.9046 139.777 25.8565 139.824C25.8083 139.872 25.7512 139.909 25.6885 139.934C25.6258 139.958 25.5588 139.971 25.4914 139.969Z" fill="#263238"/>
<path d="M36.4734 140.571H21.7568L22.6458 138.165H35.5844L36.4734 140.571Z" fill="black"/>
<path opacity="0.2" d="M36.4734 140.571H21.7568L22.6458 138.165H35.5844L36.4734 140.571Z" fill="white"/>
<path opacity="0.2" d="M36.4738 140.571H27.0977V138.165H35.5848L36.4738 140.571Z" fill="white"/>
<path d="M56.9109 63.2164L57.0833 63.1676C58.1995 62.8518 59.3954 62.9923 60.408 63.5582C61.4205 64.1241 62.1668 65.0691 62.4827 66.1852L62.6456 66.7609L54.053 69.1923L53.8901 68.6167C53.7336 68.0637 53.6877 67.4854 53.7548 66.9147C53.822 66.344 54.0009 65.7921 54.2815 65.2906C54.562 64.789 54.9386 64.3477 55.3898 63.9918C55.841 63.6359 56.3579 63.3724 56.9109 63.2164Z" fill="#263238"/>
<path opacity="0.2" d="M62.5032 66.2753L62.6418 66.7654L54.0498 69.199L53.9112 68.7089C53.5917 67.5705 53.7368 66.3518 54.3147 65.3202C54.8926 64.2886 55.8561 63.5284 56.9938 63.2063C57.3127 63.1178 57.6402 63.0634 57.9706 63.044C58.9818 62.9897 59.9814 63.281 60.8052 63.8701C61.6289 64.4592 62.2277 65.311 62.5032 66.2854V66.2753Z" fill="white"/>
<path opacity="0.2" d="M62.5027 66.2752L62.6413 66.7653L57.1521 68.3201L57.0136 67.83C56.4322 65.7817 56.8648 63.8112 57.9701 63.0338C58.9813 62.9795 59.9809 63.2708 60.8047 63.8599C61.6284 64.4489 62.2272 65.3007 62.5027 66.2752Z" fill="white"/>
<path d="M95.6539 91.7502C95.36 91.5761 95.1029 91.3465 94.8967 91.0742C94.3357 90.3069 94.1464 86.6295 93.2067 85.6662C93.0411 85.4972 92.4023 85.2741 91.4627 85.0206C88.4511 84.2161 82.3367 83.1143 78.8215 82.5059L78.4023 82.4315V79.7681L78.7403 79.8661C81.8837 80.7449 88.3328 82.5701 91.8818 83.8004C93.2169 84.2601 94.1362 84.6285 94.3221 84.8144C94.9981 85.5208 95.8803 89.6275 96.2318 91.3378C96.2453 91.4111 96.2376 91.4867 96.2096 91.5557C96.1816 91.6248 96.1346 91.6844 96.0739 91.7277C96.0133 91.7709 95.9415 91.796 95.8672 91.8C95.7928 91.804 95.7188 91.7867 95.6539 91.7502Z" fill="#263238"/>
<path opacity="0.4" d="M91.8883 83.7937L91.4591 85.0071C88.4475 84.2027 82.3331 83.1008 78.8179 82.4924L78.6455 80.3089C78.6379 80.2 78.6529 80.0907 78.6894 79.9878C78.7059 79.9438 78.7251 79.901 78.7469 79.8594C81.8903 80.7382 88.3393 82.5803 91.8883 83.7937Z" fill="white"/>
<path d="M78.4158 79.7679L77.8007 79.5955C77.6857 79.5651 78.1015 78.7979 78.1015 78.7979L76.4622 79.386C76.3616 79.4199 76.2745 79.4851 76.2137 79.5721C76.1529 79.659 76.1215 79.7632 76.1242 79.8693L76.158 81.6303C76.1603 81.7475 76.2034 81.8603 76.2799 81.9491C76.3564 82.038 76.4615 82.0974 76.5771 82.117L78.4091 82.428L78.4158 79.7679Z" fill="#263238"/>
<path opacity="0.1" d="M78.078 78.7876C77.9331 78.937 77.7473 79.0404 77.544 79.085C77.0968 79.2238 76.6634 79.4037 76.2495 79.6225C76.121 79.7306 76.2495 81.5626 76.2495 81.7383C76.2495 81.9141 77.8178 82.127 77.8178 82.127L77.7772 79.5853L78.078 78.7876Z" fill="white"/>
<path opacity="0.1" d="M77.7402 79.1899C77.2683 79.3323 76.8045 79.5004 76.351 79.6936C76.3335 79.9186 76.3335 80.1446 76.351 80.3696C76.351 80.3696 76.5268 79.9268 76.689 80.0316C76.8513 80.1363 76.7702 80.4405 77.0744 80.3696C77.3786 80.2986 77.5374 80.6636 77.5374 80.6636C77.5374 80.6636 77.48 79.4299 77.7402 79.1899Z" fill="white"/>
<path d="M134.804 84.8177C133.962 83.9186 116.931 79.217 116.931 79.217C116.931 79.217 115.173 78.683 114.358 78.5005L114.095 81.9515H116.461C116.461 81.9515 132.746 84.6893 133.682 85.6695C134.618 86.6497 134.804 90.317 135.372 91.0775C135.564 91.3312 135.798 91.5496 136.065 91.723C136.135 91.7671 136.216 91.7897 136.299 91.7878C136.382 91.786 136.462 91.7599 136.53 91.7127C136.598 91.6655 136.651 91.5994 136.682 91.5225C136.713 91.4456 136.72 91.3614 136.704 91.2803C136.339 89.5193 135.456 85.514 134.804 84.8177Z" fill="#263238"/>
<path d="M94.3927 80.9814C94.4517 81.7803 94.4074 82.5835 94.2609 83.3711C94.0209 84.3276 93.3415 84.4966 92.6047 85.8182C91.8678 87.1398 93.8316 80.204 94.3927 80.9814Z" fill="#263238"/>
<path d="M99.9091 80.8867C100.278 81.6571 100.558 82.4667 100.744 83.3C100.893 84.2667 100.278 84.4357 100.068 85.7674C99.8584 87.0992 99.0337 80.1059 99.9091 80.8867Z" fill="#263238"/>
<path d="M115.508 79.2169C115.497 79.0797 115.443 78.9496 115.353 78.8451C115.268 78.7573 113.21 76.6786 107.366 76.6786C102.032 76.6786 99.0679 78.7066 98.9429 78.8113C98.9226 78.8282 98.9023 78.8553 98.882 78.8756C98.2466 78.4733 96.6918 77.794 94.6773 78.8756C94.6606 78.847 94.6402 78.8209 94.6165 78.7978C94.5117 78.7099 91.997 76.665 86.6667 76.665C80.8193 76.665 78.308 78.7437 78.2167 78.8316C78.1051 78.932 78.0223 79.0604 77.9767 79.2034C77.942 79.3126 77.9272 79.427 77.9328 79.5414L78.5175 87.3492C78.717 90.0059 80.2785 91.8581 82.3167 91.8581H86.0009C88.7049 91.8581 91.3142 89.5428 92.5141 86.0885C92.5141 86.0885 94.5049 81.0928 94.5827 81.0455C96.8236 79.6394 98.4156 80.9644 98.4798 81.0219C98.544 81.0793 99.4634 86.0919 99.4634 86.0919C99.9028 89.5462 102.012 91.8615 104.706 91.8615H108.39C110.418 91.8615 112.402 90.0093 113.183 87.3526L115.488 79.5448C115.515 79.4377 115.522 79.3265 115.508 79.2169ZM99.8183 79.9166C99.8643 79.761 99.9684 79.6291 100.109 79.5482C102.331 78.5162 104.758 78.0009 107.207 78.0407C111.023 78.0407 113.125 78.9634 114.051 79.5313C114.11 79.572 114.158 79.6254 114.194 79.6874C114.229 79.7494 114.249 79.8185 114.254 79.8896C114.271 80.0028 114.262 80.1184 114.227 80.2276L112.199 87.0518C111.598 89.0967 110.073 90.5332 108.505 90.5332H104.821C102.576 90.5332 100.805 88.5829 100.427 85.7133L99.7507 80.285C99.741 80.1584 99.7643 80.0315 99.8183 79.9166ZM79.055 79.8896C79.1036 79.739 79.2058 79.6115 79.3423 79.5313C80.3934 78.9634 82.6986 78.0407 86.518 78.0407C90.0095 78.0407 92.2403 78.9702 93.278 79.5482C93.3401 79.5887 93.3919 79.6431 93.4294 79.707C93.4669 79.7709 93.4892 79.8427 93.4943 79.9166C93.5119 80.0384 93.4991 80.1626 93.4571 80.2783L91.5981 85.7032C90.601 88.5762 88.3973 90.5264 86.153 90.5264H82.4688C80.9004 90.5264 79.6904 89.0899 79.5383 87.045L79.0279 80.2208C79.0163 80.1097 79.0255 79.9973 79.055 79.8896Z" fill="#263238"/>
<path d="M115.14 79.3354C115.128 79.2006 115.072 79.0735 114.981 78.9737C114.896 78.8858 112.835 76.8612 106.991 76.8612C101.657 76.8612 98.6995 78.852 98.5744 78.9365C98.5524 78.9563 98.5321 78.9777 98.5136 79.0008C97.8747 78.6121 96.3199 77.9462 94.3088 79.0008L94.248 78.9264C94.1432 78.8419 91.6217 76.8511 86.2915 76.8511C80.4441 76.8511 77.9361 78.8791 77.8415 78.9636C77.7295 79.0595 77.6464 79.1847 77.6015 79.3252C77.5664 79.4343 77.5526 79.549 77.5609 79.6632L78.166 87.2716C78.3721 89.8607 79.9405 91.6656 81.9786 91.6656H85.6628C88.3668 91.6656 90.9694 89.4112 92.1592 86.0447C92.1592 86.0447 94.1365 81.1741 94.2108 81.1302C96.4518 79.7613 98.0471 81.0524 98.1113 81.1099C98.1756 81.1673 99.1084 86.0447 99.1084 86.0447C99.558 89.4247 101.67 91.6656 104.368 91.6656H108.052C110.08 91.6656 112.057 89.8607 112.831 87.2716L115.113 79.6632C115.144 79.5569 115.153 79.4454 115.14 79.3354ZM99.4498 80.0114C99.4986 79.8589 99.6038 79.7307 99.7439 79.6531C101.971 78.6424 104.396 78.1402 106.842 78.1828C110.658 78.1828 112.764 79.0853 113.69 79.6362C113.747 79.6741 113.795 79.724 113.83 79.7824C113.866 79.8408 113.888 79.9062 113.896 79.9742C113.912 80.0875 113.903 80.2029 113.869 80.3122L111.878 86.9607C111.283 88.9515 109.762 90.3407 108.19 90.3407H104.506C102.262 90.3407 100.487 88.4411 100.112 85.6458L99.4093 80.3595C99.3953 80.243 99.4092 80.1248 99.4498 80.0148V80.0114ZM78.6899 79.9843C78.7413 79.8415 78.842 79.7217 78.9738 79.6463C80.025 79.0954 82.3267 78.1929 86.1461 78.1929C89.6377 78.1929 91.8719 79.0988 92.9061 79.6632C92.9684 79.7014 93.0208 79.7537 93.059 79.816C93.0972 79.8783 93.1201 79.9487 93.1258 80.0215C93.1433 80.1411 93.1305 80.2631 93.0887 80.3764L91.2195 85.6594C90.2292 88.458 88.0322 90.3576 85.7879 90.3576H82.1341C80.5658 90.3576 79.3523 88.9582 79.1935 86.9776L78.6628 80.3291C78.6491 80.2146 78.6583 80.0986 78.6899 79.9877V79.9843Z" fill="#263238"/>
<path opacity="0.1" d="M94.5049 80.6603C94.5049 80.6603 94.7516 79.6463 94.6468 79.359C94.5421 79.0717 95.4885 78.7168 96.0495 78.6999C96.3805 78.6545 96.7174 78.6822 97.0365 78.781C97.1244 78.8554 96.5971 78.7607 96.249 79.0615C95.9008 79.3624 96.2726 79.6057 95.8569 79.8795C95.4411 80.1533 95.6642 80.1871 95.5561 80.2716C95.2135 80.4213 94.8625 80.5511 94.5049 80.6603Z" fill="white"/>
<path opacity="0.1" d="M92.9967 78.3823C92.9967 78.3823 90.8099 76.9897 85.9427 76.9897C81.0755 76.9897 78.3715 78.7609 77.9625 79.2172C77.5535 79.6735 77.78 80.5928 78.074 84.081C78.3681 87.5691 78.4729 89.4045 80.0074 90.5266C80.0074 90.5266 78.8954 88.7251 78.9697 88.039C79.0441 87.3528 78.6723 85.4499 78.5438 83.2056C78.4154 80.9612 78.1416 79.6397 78.5438 79.3828C78.9461 79.1259 80.9943 77.757 84.7529 77.6184C88.5115 77.4798 90.5192 78.362 90.9113 78.1863C91.3033 78.0105 92.2903 78.4296 92.5235 78.4296C92.6823 78.4272 92.8406 78.4114 92.9967 78.3823Z" fill="white"/>
<g opacity="0.4">
<path d="M85.7811 90.6108H82.0969C80.4779 90.6108 79.2408 89.1472 79.082 87.0516L78.5716 80.2274C78.5654 80.1039 78.5815 79.9802 78.6189 79.8624C78.6773 79.6899 78.7978 79.5453 78.9569 79.4568C79.998 78.8957 82.3166 77.9561 86.1732 77.9561C89.7155 77.9561 91.9598 78.9092 92.9839 79.4737C93.0582 79.5195 93.1205 79.5823 93.1658 79.6569C93.211 79.7316 93.2379 79.8159 93.2442 79.9029C93.2642 80.0383 93.2503 80.1765 93.2036 80.3052L91.3176 85.7132C90.2934 88.6504 88.0728 90.6108 85.7811 90.6108ZM86.1631 78.1251C82.3437 78.1251 80.052 79.0512 79.0279 79.6055C78.9078 79.6741 78.8193 79.7869 78.7812 79.9198C78.7475 80.014 78.7336 80.1141 78.7406 80.2139L79.251 87.0381C79.3997 89.0425 80.5726 90.4418 82.0969 90.4418H85.7811C87.9984 90.4418 90.1549 88.5253 91.1452 85.6726L93.0312 80.2646C93.0711 80.1566 93.0827 80.0403 93.065 79.9266C93.0616 79.8656 93.0442 79.8062 93.0144 79.7529C92.9845 79.6996 92.9429 79.6538 92.8927 79.619C91.882 79.0647 89.6648 78.1251 86.1631 78.1251Z" fill="white"/>
<path d="M108.16 90.6109H104.476C102.181 90.6109 100.386 88.6437 100.007 85.7167L99.3312 80.2884C99.3134 80.1525 99.3297 80.0143 99.3785 79.8862C99.4327 79.7097 99.5541 79.5615 99.7165 79.4738C101.952 78.4313 104.396 77.9123 106.862 77.9562C110.715 77.9562 112.831 78.8958 113.75 79.4603C113.82 79.5075 113.877 79.5697 113.92 79.6422C113.962 79.7147 113.987 79.7958 113.994 79.8794C114.01 80.0018 114 80.1264 113.963 80.2444L111.935 87.0687C111.334 89.1541 109.782 90.6109 108.16 90.6109ZM106.848 78.1252C104.409 78.0812 101.992 78.5945 99.7807 79.6259C99.6577 79.6943 99.5666 79.8084 99.5272 79.9436C99.4851 80.051 99.4711 80.1673 99.4867 80.2816L100.163 85.7099C100.528 88.5491 102.255 90.4419 104.462 90.4419H108.16C109.694 90.4419 111.181 89.0358 111.773 87.0213L113.801 80.1971C113.83 80.102 113.839 80.0016 113.825 79.9031C113.821 79.8446 113.805 79.7875 113.777 79.7361C113.749 79.6846 113.71 79.6401 113.662 79.6056C112.76 79.0513 110.674 78.1252 106.862 78.1252H106.848Z" fill="white"/>
</g>
<path opacity="0.1" d="M98.6962 79.1291C98.49 79.315 98.5813 79.5448 98.5982 80.0349C98.5977 80.3769 98.5546 80.7176 98.4697 81.0489C98.4697 81.0489 99.4635 86.6124 99.6257 87.0552C99.7879 87.4979 99.8758 87.312 99.9333 87.2411C99.9907 87.1701 100.325 87.7041 100.325 87.7041C99.8805 86.1956 99.5862 84.6468 99.4466 83.0803C99.1424 80.1735 99.024 79.7611 99.2201 79.4772C99.4161 79.1933 101.85 78.1049 103.912 77.8717C105.941 77.6491 107.989 77.6491 110.019 77.8717C111.469 78.0813 111.52 77.6114 111.743 77.7061C112.021 77.7797 112.307 77.8194 112.595 77.8244C112.595 77.8244 108.637 76.5941 104.483 77.1484C100.329 77.7027 98.6962 79.1291 98.6962 79.1291Z" fill="white"/>
<path d="M104.996 80.0823C105.645 78.8723 104.888 79.3827 104.381 80.1736C103.874 80.9645 101.992 87.4271 102.316 88.9143C101.918 88.1247 101.467 87.3635 100.964 86.6362C100.809 86.4638 100.646 85.5681 100.504 84.4898C100.376 83.513 100.264 82.3875 100.19 81.5053C100.129 80.7482 100.092 80.1736 100.102 80.0316C100.119 79.5483 102.843 78.5005 106.68 78.5005C106.68 78.5005 104.375 83.2629 103.736 85.2875C103.726 85.2875 104.351 81.289 104.996 80.0823Z" fill="white"/>
<path opacity="0.2" d="M100.494 84.4997C100.366 83.5229 100.254 82.3973 100.18 81.5151C100.431 82.0917 100.62 82.6933 100.744 83.3099C100.807 83.7237 100.719 84.1464 100.494 84.4997Z" fill="black"/>
<path opacity="0.1" d="M116.748 79.2644C116.748 79.2644 115.396 78.8554 114.635 78.6729V78.6999C113.851 78.1253 111.593 76.8612 106.973 76.8612C101.639 76.8612 98.6819 78.852 98.5568 78.9365C98.5348 78.9563 98.5145 78.9777 98.496 79.0008C97.8572 78.6121 96.3024 77.9462 94.2913 79.0008C94.271 78.9771 94.2541 78.9501 94.2304 78.9264C94.1256 78.8419 91.6042 76.8511 86.2739 76.8511C80.4265 76.8511 77.9185 78.8791 77.8239 78.9636C77.7119 79.0595 77.6288 79.1847 77.5839 79.3252C77.5488 79.4343 77.5351 79.549 77.5434 79.6632L78.1484 87.2716C78.3546 89.8607 79.9229 91.6656 81.961 91.6656H85.6452C88.3492 91.6656 90.9518 89.4112 92.1416 86.0447C92.1416 86.0447 94.1189 81.1741 94.1932 81.1302C96.4342 79.7613 98.0295 81.0524 98.0938 81.1099C98.158 81.1673 99.0909 86.0447 99.0909 86.0447C99.5404 89.4247 101.653 91.6656 104.35 91.6656H108.034C110.062 91.6656 112.04 89.8607 112.814 87.2716L114.75 80.8158L114.625 81.6439H116.315C116.315 81.6439 116.538 81.6034 116.579 81.4817C116.62 81.36 116.917 79.7917 116.917 79.6024C116.902 79.4734 116.842 79.3538 116.748 79.2644ZM93.088 80.3697L91.2188 85.6526C90.2285 88.4512 88.0315 90.3508 85.7872 90.3508H82.1334C80.5651 90.3508 79.3517 88.9515 79.1928 86.9708L78.6621 80.3223C78.6543 80.2079 78.6693 80.093 78.7061 79.9843C78.7576 79.8415 78.8582 79.7217 78.99 79.6463C80.0412 79.0954 82.343 78.1929 86.1624 78.1929C89.6539 78.1929 91.8881 79.0988 92.9224 79.6632C92.9846 79.7014 93.037 79.7537 93.0752 79.816C93.1134 79.8783 93.1363 79.9487 93.1421 80.0215C93.1573 80.1391 93.1434 80.2587 93.1015 80.3697H93.088ZM113.858 80.3122L111.877 86.9607C111.283 88.9515 109.762 90.3407 108.19 90.3407H104.506C102.261 90.3407 100.487 88.4411 100.112 85.6458L99.4086 80.3595C99.3929 80.2397 99.4069 80.1178 99.4491 80.0046C99.498 79.8521 99.6031 79.724 99.7432 79.6463C101.971 78.6357 104.395 78.1334 106.841 78.176C110.657 78.176 112.763 79.0785 113.689 79.6294C113.746 79.6674 113.794 79.7173 113.83 79.7757C113.865 79.834 113.888 79.8995 113.895 79.9674C113.914 80.0827 113.905 80.2005 113.872 80.3122H113.858Z" fill="white"/>
<path opacity="0.1" d="M114.92 78.9668C115.153 79.0952 115.2 79.1797 115.136 79.5752C115.072 79.9707 114.92 80.6399 114.92 80.6399C114.92 80.6399 115.025 80.1836 115.424 80.2073C115.821 80.2341 116.221 80.1742 116.593 80.0315C116.664 79.9402 116.769 79.5346 116.708 79.4975C116.647 79.4603 115.694 79.1088 115.424 79.0378C115.259 78.9948 115.09 78.971 114.92 78.9668Z" fill="white"/>
<path d="M86.0816 78.5005C86.0816 78.5005 85.2805 79.8897 84.3916 81.4783C84.0536 82.0799 83.7156 82.712 83.3776 83.3068C82.7895 84.3817 82.296 85.3349 82.127 85.7743C82.1507 85.6424 82.394 84.4898 82.7084 83.1885C82.8774 82.5125 83.0633 81.7825 83.2559 81.1605C83.3793 80.7248 83.5259 80.2961 83.6953 79.8762C83.6683 79.9167 83.4249 80.231 83.0193 80.6738C82.9396 80.7872 82.8737 80.9098 82.8233 81.0389C82.6306 81.4681 82.3467 82.2185 82.0425 83.0669C81.2347 85.3315 80.2444 88.3667 80.2444 88.3667C79.989 88.1338 79.836 87.8094 79.8185 87.4642C79.8185 87.4642 79.6022 84.74 79.4467 82.6072C79.3554 81.3126 79.2844 80.2412 79.3013 80.1026C79.3067 80.0766 79.3183 80.0522 79.3351 80.0316C79.7036 79.6159 82.4244 78.5444 86.0816 78.5005Z" fill="white"/>
<path opacity="0.2" d="M82.8467 81.0253C82.6541 81.4546 82.3701 82.2049 82.0659 83.0533C81.1364 82.8877 80.2576 82.7153 79.4701 82.5936C79.3788 81.2991 79.3079 80.2276 79.3248 80.089C79.3302 80.063 79.3418 80.0387 79.3586 80.0181C80.3388 80.3054 81.5488 80.6501 82.8467 81.0253Z" fill="black"/>
<path opacity="0.2" d="M84.398 81.4784C84.06 82.08 83.722 82.7121 83.384 83.3069L82.708 83.1886C82.877 82.5126 83.0629 81.7826 83.2556 81.1606L84.398 81.4784Z" fill="black"/>
<path d="M79.2883 120.639H99.6494V111.807H79.2883V120.639Z" fill="#4D96B9"/>
<path opacity="0.8" d="M79.2883 120.639H99.6494V111.807H79.2883V120.639Z" fill="white"/>
<path opacity="0.2" d="M98.0128 112.672H79.2842V111.811H97.9959L98.0128 112.672Z" fill="black"/>
<path opacity="0.2" d="M98.0167 113.426L81.1201 113.788L98.0167 114.146V113.426Z" fill="black"/>
<path opacity="0.2" d="M98.0168 116.691L80.123 116.996L98.0168 117.249V116.691Z" fill="black"/>
<path opacity="0.2" d="M98.0161 118.601L80.2812 118.959L98.0161 119.321V118.601Z" fill="black"/>
<path opacity="0.2" d="M79.2842 114.684L96.4411 115.204L79.2842 115.562V114.684Z" fill="black"/>
<path d="M124.722 116.181C124.722 116.706 124.619 117.226 124.418 117.712C124.217 118.197 123.922 118.638 123.55 119.009C123.179 119.38 122.737 119.675 122.251 119.875C121.766 120.075 121.245 120.177 120.72 120.176H78.3449C78.2666 120.177 78.1918 120.209 78.1367 120.264C78.0817 120.32 78.0508 120.395 78.0508 120.473V120.788C78.0504 120.827 78.0576 120.865 78.0722 120.901C78.0868 120.937 78.1084 120.97 78.1357 120.998C78.1631 121.026 78.1956 121.048 78.2315 121.063C78.2674 121.078 78.306 121.085 78.3449 121.085H120.933C121.581 121.084 122.222 120.955 122.82 120.706C123.418 120.457 123.96 120.091 124.417 119.632C124.873 119.172 125.234 118.626 125.479 118.027C125.724 117.427 125.848 116.785 125.844 116.137C125.812 114.826 125.266 113.581 124.324 112.67C123.382 111.759 122.119 111.254 120.808 111.266H78.3449C78.2669 111.266 78.1921 111.297 78.1369 111.352C78.0818 111.408 78.0508 111.482 78.0508 111.56V111.878C78.0504 111.917 78.0576 111.956 78.0722 111.992C78.0868 112.028 78.1084 112.061 78.1357 112.088C78.1631 112.116 78.1956 112.138 78.2315 112.153C78.2674 112.168 78.306 112.176 78.3449 112.176H120.595C121.67 112.172 122.703 112.589 123.475 113.337C124.246 114.086 124.694 115.106 124.722 116.181Z" fill="#263238"/>
<path opacity="0.4" d="M124.722 116.181C124.722 116.706 124.619 117.226 124.418 117.712C124.217 118.197 123.922 118.638 123.55 119.009C123.179 119.38 122.737 119.675 122.251 119.875C121.766 120.075 121.245 120.177 120.72 120.176H78.3449C78.2666 120.177 78.1918 120.209 78.1367 120.264C78.0817 120.32 78.0508 120.395 78.0508 120.473V120.788C78.0504 120.827 78.0576 120.865 78.0722 120.901C78.0868 120.937 78.1084 120.97 78.1357 120.998C78.1631 121.026 78.1956 121.048 78.2315 121.063C78.2674 121.078 78.306 121.085 78.3449 121.085H120.933C121.581 121.084 122.222 120.955 122.82 120.706C123.418 120.457 123.96 120.091 124.417 119.632C124.873 119.172 125.234 118.626 125.479 118.027C125.724 117.427 125.848 116.785 125.844 116.137C125.812 114.826 125.266 113.581 124.324 112.67C123.382 111.759 122.119 111.254 120.808 111.266H78.3449C78.2669 111.266 78.1921 111.297 78.1369 111.352C78.0818 111.408 78.0508 111.482 78.0508 111.56V111.878C78.0504 111.917 78.0576 111.956 78.0722 111.992C78.0868 112.028 78.1084 112.061 78.1357 112.088C78.1631 112.116 78.1956 112.138 78.2315 112.153C78.2674 112.168 78.306 112.176 78.3449 112.176H120.595C121.67 112.172 122.703 112.589 123.475 113.337C124.246 114.086 124.694 115.106 124.722 116.181Z" fill="white"/>
<path d="M140.185 116.232C140.187 116.813 140.074 117.39 139.852 117.928C139.631 118.466 139.306 118.955 138.895 119.366C138.484 119.778 137.996 120.105 137.459 120.328C136.922 120.551 136.346 120.666 135.764 120.666H98.0195V111.811H135.764C136.937 111.811 138.061 112.276 138.89 113.105C139.719 113.935 140.185 115.059 140.185 116.232Z" fill="#4D96B9"/>
<path opacity="0.7" d="M98.0195 111.811V120.666H135.764C136.916 120.634 138.01 120.154 138.813 119.328C139.617 118.502 140.066 117.396 140.066 116.243C140.066 115.091 139.617 113.984 138.813 113.158C138.01 112.332 136.916 111.853 135.764 111.821L98.0195 111.811Z" fill="white"/>
<path opacity="0.2" d="M98.0166 114.146V113.426L135.643 113.73L98.0166 114.146Z" fill="black"/>
<path opacity="0.2" d="M98.0166 117.249V116.691L114.906 117.296L98.0166 117.249Z" fill="black"/>
<path opacity="0.2" d="M98.0166 119.321V118.601L125.249 119.017L98.0166 119.321Z" fill="black"/>
<path opacity="0.2" d="M135.825 112.672C136.552 112.673 137.252 112.943 137.792 113.43C137.558 113.887 137.372 114.367 137.238 114.863L99.4898 115.16L137.15 115.255C137.018 115.92 137.029 116.606 137.184 117.266L111.763 117.82L137.424 118.118C137.643 118.731 137.929 119.32 138.275 119.872C139.052 119.337 139.637 118.567 139.945 117.675C140.253 116.784 140.268 115.817 139.987 114.917C139.707 114.016 139.146 113.229 138.386 112.67C137.626 112.111 136.707 111.81 135.764 111.811H98.0195V112.672H135.825Z" fill="black"/>
<path d="M139.837 116.181C139.837 116.706 139.733 117.226 139.531 117.712C139.33 118.197 139.034 118.637 138.662 119.008C138.29 119.379 137.849 119.674 137.363 119.874C136.878 120.074 136.357 120.177 135.832 120.176H97.381C97.3027 120.177 97.2279 120.209 97.1729 120.264C97.1178 120.32 97.0869 120.395 97.0869 120.473V120.788C97.0865 120.827 97.0938 120.865 97.1083 120.901C97.1229 120.937 97.1445 120.97 97.1719 120.998C97.1992 121.026 97.2318 121.048 97.2677 121.063C97.3036 121.078 97.3421 121.085 97.381 121.085H136.055C136.703 121.085 137.344 120.956 137.942 120.707C138.54 120.458 139.083 120.092 139.539 119.632C139.995 119.173 140.356 118.627 140.6 118.027C140.844 117.427 140.968 116.785 140.963 116.137C140.931 114.826 140.385 113.581 139.442 112.67C138.5 111.759 137.237 111.254 135.927 111.266H97.3945C97.3165 111.266 97.2417 111.297 97.1866 111.352C97.1314 111.408 97.1005 111.482 97.1005 111.56V111.878C97.1 111.917 97.1073 111.956 97.1219 111.992C97.1364 112.028 97.158 112.061 97.1854 112.088C97.2127 112.116 97.2453 112.138 97.2812 112.153C97.3171 112.168 97.3556 112.176 97.3945 112.176H135.717C136.791 112.173 137.823 112.591 138.592 113.339C139.362 114.088 139.809 115.108 139.837 116.181Z" fill="#263238"/>
<path d="M135.643 115.055V118.601L134.358 117.32L133.114 118.564V115.055H135.643Z" fill="#263238"/>
<path d="M137.313 131.296H82.3574V140.142H137.313V131.296Z" fill="#4D96B9"/>
<path opacity="0.7" d="M137.313 131.296H82.3574V140.142H137.313V131.296Z" fill="white"/>
<path opacity="0.2" d="M137.316 133.635V132.915L99.6865 133.216L137.316 133.635Z" fill="black"/>
<path opacity="0.2" d="M137.316 136.735V136.18L120.423 136.782L137.316 136.735Z" fill="black"/>
<path opacity="0.2" d="M137.316 138.806V138.09L110.08 138.506L137.316 138.806Z" fill="black"/>
<path opacity="0.2" d="M94.6396 131.296L93.8486 137.904L94.7883 136.89C95.1052 138.094 95.6963 139.208 96.5154 140.145C97.1041 139.374 97.5724 138.518 97.9046 137.607L123.569 137.313L98.1446 136.758C98.2253 136.4 98.2672 136.034 98.2697 135.667C98.2684 135.357 98.2379 135.048 98.1784 134.744L135.842 134.649L98.0905 134.355C97.9599 133.858 97.774 133.378 97.5362 132.922C98.076 132.436 98.7767 132.166 99.5034 132.165H137.315V131.3L94.6396 131.296Z" fill="black"/>
<path d="M95.4916 135.667C95.4934 136.728 95.9162 137.745 96.6671 138.494C97.4181 139.244 98.4358 139.665 99.4969 139.665H137.948C137.987 139.665 138.025 139.672 138.061 139.687C138.097 139.701 138.13 139.723 138.158 139.75C138.186 139.777 138.208 139.81 138.223 139.846C138.238 139.882 138.245 139.92 138.245 139.959V140.27C138.245 140.309 138.238 140.348 138.223 140.383C138.208 140.419 138.186 140.452 138.158 140.479C138.13 140.507 138.097 140.528 138.061 140.543C138.025 140.557 137.987 140.565 137.948 140.564H78.1218C77.474 140.565 76.8326 140.437 76.2345 140.188C75.6364 139.939 75.0936 139.574 74.6373 139.115C74.181 138.655 73.8203 138.109 73.576 137.509C73.3317 136.909 73.2087 136.267 73.214 135.619C73.2459 134.308 73.7919 133.063 74.734 132.151C75.6762 131.239 76.9391 130.734 78.2502 130.745H137.948C137.987 130.745 138.025 130.752 138.061 130.767C138.097 130.781 138.13 130.803 138.158 130.83C138.186 130.858 138.208 130.89 138.223 130.926C138.238 130.962 138.245 131 138.245 131.039V131.357C138.245 131.396 138.238 131.434 138.223 131.47C138.208 131.506 138.186 131.539 138.158 131.566C138.13 131.594 138.097 131.615 138.061 131.63C138.025 131.644 137.987 131.652 137.948 131.651H99.6152C98.5398 131.65 97.5065 132.069 96.736 132.819C95.9656 133.57 95.519 134.591 95.4916 135.667Z" fill="#4D96B9"/>
<path opacity="0.4" d="M95.4916 135.667C95.4934 136.728 95.9162 137.745 96.6671 138.494C97.4181 139.244 98.4358 139.665 99.4969 139.665H137.948C137.987 139.665 138.025 139.672 138.061 139.687C138.097 139.701 138.13 139.723 138.158 139.75C138.186 139.777 138.208 139.81 138.223 139.846C138.238 139.882 138.245 139.92 138.245 139.959V140.27C138.245 140.309 138.238 140.348 138.223 140.383C138.208 140.419 138.186 140.452 138.158 140.479C138.13 140.507 138.097 140.528 138.061 140.543C138.025 140.557 137.987 140.565 137.948 140.564H78.1218C77.474 140.565 76.8326 140.437 76.2345 140.188C75.6364 139.939 75.0936 139.574 74.6373 139.115C74.181 138.655 73.8203 138.109 73.576 137.509C73.3317 136.909 73.2087 136.267 73.214 135.619C73.2459 134.308 73.7919 133.063 74.734 132.151C75.6762 131.239 76.9391 130.734 78.2502 130.745H137.948C137.987 130.745 138.025 130.752 138.061 130.767C138.097 130.781 138.13 130.803 138.158 130.83C138.186 130.858 138.208 130.89 138.223 130.926C138.238 130.962 138.245 131 138.245 131.039V131.357C138.245 131.396 138.238 131.434 138.223 131.47C138.208 131.506 138.186 131.539 138.158 131.566C138.13 131.594 138.097 131.615 138.061 131.63C138.025 131.644 137.987 131.652 137.948 131.651H99.6152C98.5398 131.65 97.5065 132.069 96.736 132.819C95.9656 133.57 95.519 134.591 95.4916 135.667Z" fill="black"/>
<path d="M95.4919 135.667C95.4937 136.728 95.9164 137.745 96.6674 138.494C97.4183 139.244 98.4361 139.665 99.4972 139.665H137.948C137.987 139.665 138.026 139.672 138.062 139.687C138.098 139.701 138.131 139.723 138.158 139.75C138.186 139.777 138.208 139.81 138.223 139.846C138.238 139.882 138.245 139.92 138.245 139.959V140.27C138.245 140.309 138.238 140.348 138.223 140.383C138.208 140.419 138.186 140.452 138.158 140.479C138.131 140.507 138.098 140.528 138.062 140.543C138.026 140.557 137.987 140.565 137.948 140.564H99.2775C98.6297 140.564 97.9883 140.436 97.3902 140.187C96.7922 139.938 96.2492 139.573 95.7928 139.114C95.3363 138.654 94.9752 138.109 94.7304 137.509C94.4856 136.909 94.3619 136.267 94.3663 135.619C94.3982 134.308 94.9442 133.063 95.8863 132.151C96.8285 131.239 98.0914 130.734 99.4025 130.745H137.935C137.973 130.745 138.012 130.752 138.048 130.767C138.084 130.781 138.117 130.803 138.145 130.83C138.172 130.858 138.194 130.89 138.209 130.926C138.224 130.962 138.232 131 138.232 131.039V131.357C138.232 131.396 138.224 131.434 138.209 131.47C138.194 131.506 138.172 131.539 138.145 131.566C138.117 131.594 138.084 131.615 138.048 131.63C138.012 131.644 137.973 131.652 137.935 131.651H99.6155C98.54 131.65 97.5068 132.069 96.7363 132.819C95.9658 133.57 95.5192 134.591 95.4919 135.667Z" fill="#4D96B9"/>
<path d="M99.6865 134.544V138.09L100.971 136.806L102.215 138.049V134.544H99.6865Z" fill="#263238"/>
<path opacity="0.1" d="M95.4919 135.667C95.4937 136.728 95.9164 137.745 96.6674 138.494C97.4183 139.244 98.4361 139.665 99.4972 139.665H137.948C137.987 139.665 138.026 139.672 138.062 139.687C138.098 139.701 138.131 139.723 138.158 139.75C138.186 139.777 138.208 139.81 138.223 139.846C138.238 139.882 138.245 139.92 138.245 139.959V140.27C138.245 140.309 138.238 140.348 138.223 140.383C138.208 140.419 138.186 140.452 138.158 140.479C138.131 140.507 138.098 140.528 138.062 140.543C138.026 140.557 137.987 140.565 137.948 140.564H99.2775C98.6297 140.564 97.9883 140.436 97.3902 140.187C96.7922 139.938 96.2492 139.573 95.7928 139.114C95.3363 138.654 94.9752 138.109 94.7304 137.509C94.4856 136.909 94.3619 136.267 94.3663 135.619C94.3982 134.308 94.9442 133.063 95.8863 132.151C96.8285 131.239 98.0914 130.734 99.4025 130.745H137.935C137.973 130.745 138.012 130.752 138.048 130.767C138.084 130.781 138.117 130.803 138.145 130.83C138.172 130.858 138.194 130.89 138.209 130.926C138.224 130.962 138.232 131 138.232 131.039V131.357C138.232 131.396 138.224 131.434 138.209 131.47C138.194 131.506 138.172 131.539 138.145 131.566C138.117 131.594 138.084 131.615 138.048 131.63C138.012 131.644 137.973 131.652 137.935 131.651H99.6155C98.54 131.65 97.5068 132.069 96.7363 132.819C95.9658 133.57 95.5192 134.591 95.4919 135.667Z" fill="white"/>
<path opacity="0.1" d="M92.5883 139.135C93.5103 140.055 94.7601 140.572 96.063 140.571H94.4304C93.7824 140.572 93.1407 140.444 92.5424 140.195C91.9441 139.946 91.401 139.58 90.9447 139.12C90.4883 138.66 90.1277 138.114 89.8836 137.514C89.6395 136.914 89.5169 136.271 89.5227 135.623C89.5537 134.312 90.0995 133.066 91.0419 132.155C91.9844 131.243 93.2478 130.739 94.5589 130.752H96.188C94.8772 130.74 93.6143 131.244 92.672 132.156C91.7298 133.067 91.1837 134.312 91.1518 135.623C91.1458 136.274 91.2698 136.92 91.5164 137.523C91.7631 138.126 92.1275 138.674 92.5883 139.135Z" fill="white"/>
<path opacity="0.1" d="M89.3266 139.134C90.249 140.054 91.4985 140.571 92.8012 140.571H91.1687C90.5206 140.571 89.8789 140.443 89.2806 140.194C88.6823 139.945 88.1393 139.58 87.683 139.12C87.2266 138.66 86.866 138.114 86.6219 137.513C86.3778 136.913 86.2551 136.27 86.2609 135.622C86.2928 134.312 86.8389 133.067 87.7812 132.155C88.7234 131.244 89.9863 130.74 91.2971 130.752H92.9263C91.6137 130.737 90.3483 131.24 89.4038 132.152C88.4593 133.063 87.9119 134.31 87.88 135.622C87.8753 136.275 88.0008 136.921 88.2493 137.524C88.4977 138.127 88.8639 138.675 89.3266 139.134Z" fill="white"/>
<path d="M141.621 121.552H86.666V130.397H141.621V121.552Z" fill="#4D96B9"/>
<path opacity="0.8" d="M141.621 121.552H86.666V130.397H141.621V121.552Z" fill="white"/>
<path opacity="0.2" d="M141.622 123.891V123.171L103.996 123.472L141.622 123.891Z" fill="black"/>
<path opacity="0.2" d="M141.622 126.99V126.436L124.729 127.041L141.622 126.99Z" fill="black"/>
<path opacity="0.2" d="M141.622 129.062V128.345L114.386 128.761L141.622 129.062Z" fill="black"/>
<path opacity="0.2" d="M98.953 121.552L98.1553 128.146L99.0949 127.132C99.4143 128.336 100.006 129.449 100.825 130.387C101.412 129.616 101.879 128.762 102.211 127.852L127.876 127.555L102.451 127C102.604 126.34 102.617 125.655 102.488 124.989L140.148 124.895L102.414 124.607C102.28 124.112 102.094 123.631 101.86 123.174C102.399 122.687 103.1 122.417 103.827 122.417H141.622V121.552H98.953Z" fill="black"/>
<path d="M99.8016 125.922C99.8034 126.982 100.226 127.999 100.976 128.748C101.726 129.498 102.743 129.92 103.803 129.92H142.258C142.336 129.92 142.411 129.951 142.466 130.007C142.521 130.062 142.552 130.136 142.552 130.214V130.532C142.552 130.61 142.521 130.685 142.466 130.74C142.411 130.795 142.336 130.826 142.258 130.826H85.4738C84.826 130.826 84.1846 130.698 83.5865 130.449C82.9884 130.2 82.4455 129.836 81.989 129.376C81.5326 128.916 81.1715 128.371 80.9267 127.771C80.6819 127.171 80.5582 126.529 80.5626 125.881C80.5936 124.573 81.1368 123.329 82.0754 122.417C83.0141 121.505 84.2731 120.997 85.5819 121.004H142.258C142.297 121.004 142.335 121.012 142.371 121.027C142.407 121.042 142.44 121.064 142.467 121.091C142.494 121.119 142.516 121.152 142.53 121.188C142.545 121.224 142.552 121.263 142.552 121.301V121.616C142.552 121.694 142.521 121.769 142.466 121.824C142.411 121.879 142.336 121.91 142.258 121.91H103.922C101.718 121.913 99.7982 123.708 99.8016 125.922Z" fill="#263238"/>
<path opacity="0.4" d="M99.8016 125.922C99.8034 126.982 100.226 127.999 100.976 128.748C101.726 129.498 102.743 129.92 103.803 129.92H142.258C142.336 129.92 142.411 129.951 142.466 130.007C142.521 130.062 142.552 130.136 142.552 130.214V130.532C142.552 130.61 142.521 130.685 142.466 130.74C142.411 130.795 142.336 130.826 142.258 130.826H85.4738C84.826 130.826 84.1846 130.698 83.5865 130.449C82.9884 130.2 82.4455 129.836 81.989 129.376C81.5326 128.916 81.1715 128.371 80.9267 127.771C80.6819 127.171 80.5582 126.529 80.5626 125.881C80.5936 124.573 81.1368 123.329 82.0754 122.417C83.0141 121.505 84.2731 120.997 85.5819 121.004H142.258C142.297 121.004 142.335 121.012 142.371 121.027C142.407 121.042 142.44 121.064 142.467 121.091C142.494 121.119 142.516 121.152 142.53 121.188C142.545 121.224 142.552 121.263 142.552 121.301V121.616C142.552 121.694 142.521 121.769 142.466 121.824C142.411 121.879 142.336 121.91 142.258 121.91H103.922C101.718 121.913 99.7982 123.708 99.8016 125.922Z" fill="white"/>
<path d="M99.8009 125.922C99.8027 126.982 100.225 127.999 100.975 128.749C101.725 129.498 102.742 129.92 103.803 129.921H142.257C142.335 129.921 142.41 129.952 142.465 130.007C142.52 130.062 142.551 130.137 142.551 130.215V130.532C142.551 130.61 142.52 130.685 142.465 130.74C142.41 130.795 142.335 130.826 142.257 130.826H103.583C102.935 130.826 102.294 130.698 101.696 130.449C101.098 130.2 100.555 129.836 100.098 129.376C99.6419 128.916 99.2809 128.371 99.0361 127.771C98.7913 127.171 98.6675 126.529 98.672 125.881C98.703 124.57 99.2486 123.324 100.191 122.411C101.133 121.498 102.397 120.993 103.708 121.004H142.257C142.296 121.004 142.335 121.012 142.37 121.027C142.406 121.042 142.439 121.064 142.466 121.091C142.494 121.119 142.515 121.152 142.53 121.188C142.544 121.224 142.552 121.263 142.551 121.302V121.616C142.551 121.694 142.52 121.769 142.465 121.824C142.41 121.879 142.335 121.91 142.257 121.91H103.921C101.717 121.913 99.7975 123.708 99.8009 125.922Z" fill="#263238"/>
<path d="M107.041 123.539V127.088L108.325 125.804L109.569 127.048V123.539H107.041Z" fill="#4D96B9"/>
<path opacity="0.6" d="M99.8009 125.922C99.8027 126.982 100.225 127.999 100.975 128.749C101.725 129.498 102.742 129.92 103.803 129.921H142.257C142.335 129.921 142.41 129.952 142.465 130.007C142.52 130.062 142.551 130.137 142.551 130.215V130.532C142.551 130.61 142.52 130.685 142.465 130.74C142.41 130.795 142.335 130.826 142.257 130.826H103.583C102.935 130.826 102.294 130.698 101.696 130.449C101.098 130.2 100.555 129.836 100.098 129.376C99.6419 128.916 99.2809 128.371 99.0361 127.771C98.7913 127.171 98.6675 126.529 98.672 125.881C98.703 124.57 99.2486 123.324 100.191 122.411C101.133 121.498 102.397 120.993 103.708 121.004H142.257C142.296 121.004 142.335 121.012 142.37 121.027C142.406 121.042 142.439 121.064 142.466 121.091C142.494 121.119 142.515 121.152 142.53 121.188C142.544 121.224 142.552 121.263 142.551 121.302V121.616C142.551 121.694 142.52 121.769 142.465 121.824C142.41 121.879 142.335 121.91 142.257 121.91H103.921C101.717 121.913 99.7975 123.708 99.8009 125.922Z" fill="white"/>
<path opacity="0.2" d="M96.8911 123.61H84.3411C84.0216 123.88 83.7648 124.216 83.5887 124.596C83.4125 124.975 83.3213 125.389 83.3213 125.807C83.3213 126.225 83.4125 126.639 83.5887 127.018C83.7648 127.397 84.0216 127.734 84.3411 128.004H96.8911C96.0799 126.895 96.0799 124.722 96.8911 123.61Z" fill="black"/>
<path d="M136.708 92.3213H116.347V101.153H136.708V92.3213Z" fill="#4D96B9"/>
<path opacity="0.7" d="M136.708 92.3213H116.347V101.153H136.708V92.3213Z" fill="white"/>
<path opacity="0.2" d="M117.979 93.1866H136.707V92.3213H117.999L117.979 93.1866Z" fill="black"/>
<path opacity="0.2" d="M117.979 93.9404L134.875 94.2987L117.979 94.6604V93.9404Z" fill="black"/>
<path opacity="0.2" d="M117.979 97.2056L135.872 97.5064L117.979 97.7599V97.2056Z" fill="black"/>
<path opacity="0.2" d="M117.979 99.1152L135.71 99.4735L117.979 99.8318V99.1152Z" fill="black"/>
<path opacity="0.2" d="M136.707 95.1978L119.554 95.7149L136.707 96.0732V95.1978Z" fill="black"/>
<path d="M91.2599 96.6917C91.2617 97.7523 91.684 98.7688 92.4342 99.5184C93.1844 100.268 94.2013 100.689 95.2618 100.69H137.647C137.725 100.69 137.8 100.721 137.855 100.776C137.91 100.832 137.941 100.906 137.941 100.984V101.302C137.941 101.38 137.91 101.455 137.855 101.51C137.8 101.565 137.725 101.596 137.647 101.596H95.059C94.4116 101.598 93.7701 101.472 93.1715 101.225C92.573 100.978 92.0293 100.615 91.5718 100.157C91.1143 99.6992 90.752 99.155 90.5059 98.5561C90.2597 97.9572 90.1346 97.3156 90.1378 96.6681C90.1688 95.3576 90.714 94.1119 91.6556 93.2C92.5972 92.2881 93.8598 91.7831 95.1706 91.7941H137.647C137.725 91.7941 137.8 91.8251 137.855 91.8803C137.91 91.9354 137.941 92.0102 137.941 92.0882V92.4059C137.941 92.4839 137.91 92.5587 137.855 92.6138C137.8 92.669 137.725 92.7 137.647 92.7H95.397C93.1798 92.6831 91.2599 94.488 91.2599 96.6917Z" fill="#4D96B9"/>
<path opacity="0.4" d="M91.2599 96.6917C91.2617 97.7523 91.684 98.7688 92.4342 99.5184C93.1844 100.268 94.2013 100.689 95.2618 100.69H137.647C137.725 100.69 137.8 100.721 137.855 100.776C137.91 100.832 137.941 100.906 137.941 100.984V101.302C137.941 101.38 137.91 101.455 137.855 101.51C137.8 101.565 137.725 101.596 137.647 101.596H95.059C94.4116 101.598 93.7701 101.472 93.1715 101.225C92.573 100.978 92.0293 100.615 91.5718 100.157C91.1143 99.6992 90.752 99.155 90.5059 98.5561C90.2597 97.9572 90.1346 97.3156 90.1378 96.6681C90.1688 95.3576 90.714 94.1119 91.6556 93.2C92.5972 92.2881 93.8598 91.7831 95.1706 91.7941H137.647C137.725 91.7941 137.8 91.8251 137.855 91.8803C137.91 91.9354 137.941 92.0102 137.941 92.0882V92.4059C137.941 92.4839 137.91 92.5587 137.855 92.6138C137.8 92.669 137.725 92.7 137.647 92.7H95.397C93.1798 92.6831 91.2599 94.488 91.2599 96.6917Z" fill="white"/>
<path d="M75.8066 96.7457C75.8075 97.9186 76.2741 99.043 77.1037 99.8721C77.9334 100.701 79.0582 101.167 80.2311 101.167H117.979V92.3213H80.2311C79.0576 92.3213 77.9323 92.7874 77.1025 93.6172C76.2728 94.4469 75.8066 95.5723 75.8066 96.7457Z" fill="#4D96B9"/>
<path opacity="0.5" d="M117.979 92.3213V101.167H80.2279C79.0761 101.135 77.9822 100.655 77.1787 99.829C76.3753 99.0031 75.9258 97.8963 75.9258 96.744C75.9258 95.5918 76.3753 94.485 77.1787 93.659C77.9822 92.8331 79.0761 92.3531 80.2279 92.3213H117.979Z" fill="white"/>
<path opacity="0.2" d="M117.979 94.6604V93.9404L80.3496 94.2413L117.979 94.6604Z" fill="black"/>
<path opacity="0.2" d="M117.979 97.7599V97.2056L101.086 97.8106L117.979 97.7599Z" fill="black"/>
<path opacity="0.2" d="M117.979 99.8318V99.1152L90.7432 99.531L117.979 99.8318Z" fill="black"/>
<path opacity="0.2" d="M80.1668 93.1866C79.4409 93.1885 78.741 93.4567 78.1996 93.9403C78.4365 94.3977 78.6235 94.8794 78.7573 95.3768L116.505 95.6709L78.8452 95.7655C78.903 96.0698 78.9336 96.3786 78.9365 96.6882C78.9333 97.0546 78.8902 97.4196 78.808 97.7766L104.232 98.3343L78.5681 98.6317C78.3489 99.2458 78.0633 99.834 77.7163 100.386C76.9404 99.85 76.3561 99.0801 76.0485 98.1886C75.741 97.2971 75.7263 96.3306 76.0067 95.4302C76.2871 94.5298 76.8478 93.7426 77.6072 93.1833C78.3665 92.624 79.2846 92.322 80.2276 92.3213H117.979V93.1866H80.1668Z" fill="black"/>
<path d="M76.1583 96.6917C76.1583 97.2171 76.2619 97.7374 76.463 98.2227C76.6642 98.708 76.959 99.149 77.3307 99.5203C77.7023 99.8917 78.1435 100.186 78.629 100.387C79.1145 100.588 79.6349 100.691 80.1602 100.69H118.615C118.692 100.69 118.767 100.721 118.822 100.776C118.878 100.832 118.909 100.906 118.909 100.984V101.302C118.909 101.38 118.878 101.455 118.822 101.51C118.767 101.565 118.692 101.596 118.615 101.596H79.9405C79.2947 101.595 78.6555 101.467 78.0593 101.219C77.4631 100.97 76.9218 100.607 76.4662 100.149C76.0107 99.6916 75.6499 99.1485 75.4045 98.5511C75.1591 97.9538 75.0339 97.3139 75.0362 96.6681C75.0681 95.3573 75.614 94.1116 76.5562 93.1998C77.4983 92.288 78.7612 91.7831 80.0724 91.7941H118.615C118.692 91.7941 118.767 91.8251 118.822 91.8803C118.878 91.9354 118.909 92.0102 118.909 92.0882V92.4059C118.909 92.4839 118.878 92.5587 118.822 92.6138C118.767 92.669 118.692 92.7 118.615 92.7H80.2785C79.2072 92.6977 78.1772 93.1136 77.4077 93.8591C76.6383 94.6046 76.19 95.6208 76.1583 96.6917Z" fill="#4D96B9"/>
<path d="M80.3496 95.5698V99.1154L81.634 97.831L82.8778 99.0749V95.5698H80.3496Z" fill="#263238"/>
<path d="M146.377 102.066H91.4219V110.911H146.377V102.066Z" fill="#4D96B9"/>
<path opacity="0.7" d="M146.377 102.066H91.4219V110.911H146.377V102.066Z" fill="white"/>
<path opacity="0.2" d="M146.377 104.402V103.682L108.751 103.986L146.377 104.402Z" fill="black"/>
<path opacity="0.2" d="M146.377 107.505V106.95L129.487 107.552L146.377 107.505Z" fill="black"/>
<path opacity="0.2" d="M146.377 109.576V108.86L119.145 109.276L146.377 109.576Z" fill="black"/>
<path opacity="0.2" d="M103.709 102.076L102.911 108.671L103.851 107.657C104.17 108.86 104.762 109.974 105.581 110.911C106.167 110.139 106.634 109.284 106.967 108.373L132.635 108.079L107.21 107.525C107.29 107.165 107.331 106.798 107.336 106.43C107.333 106.121 107.302 105.813 107.244 105.51L144.904 105.416L107.146 105.118C107.012 104.621 106.826 104.14 106.592 103.682C107.132 103.196 107.833 102.928 108.559 102.928H146.378V102.076H103.709Z" fill="black"/>
<path d="M104.557 106.436C104.559 107.497 104.981 108.513 105.731 109.263C106.481 110.012 107.498 110.434 108.559 110.435H147.03C147.068 110.435 147.107 110.442 147.142 110.457C147.178 110.472 147.21 110.494 147.238 110.521C147.265 110.548 147.287 110.581 147.301 110.616C147.316 110.652 147.324 110.69 147.324 110.729V111.047C147.324 111.085 147.316 111.123 147.301 111.159C147.287 111.195 147.265 111.227 147.238 111.254C147.21 111.282 147.178 111.303 147.142 111.318C147.107 111.333 147.068 111.341 147.03 111.341H87.2038C86.556 111.34 85.9147 111.212 85.3168 110.962C84.7189 110.713 84.1763 110.348 83.7201 109.888C83.2639 109.428 82.9032 108.882 82.6588 108.282C82.4144 107.682 82.2911 107.04 82.296 106.392C82.3262 105.082 82.8712 103.836 83.8132 102.924C84.7551 102.013 86.0181 101.509 87.3289 101.522H147.03C147.068 101.522 147.107 101.529 147.142 101.544C147.178 101.559 147.21 101.581 147.238 101.608C147.265 101.635 147.287 101.668 147.301 101.703C147.316 101.739 147.324 101.777 147.324 101.816V102.134C147.324 102.172 147.316 102.21 147.301 102.246C147.287 102.282 147.265 102.314 147.238 102.341C147.21 102.369 147.178 102.39 147.142 102.405C147.107 102.42 147.068 102.428 147.03 102.428H108.677C107.603 102.425 106.57 102.844 105.8 103.593C105.03 104.342 104.584 105.362 104.557 106.436Z" fill="#263238"/>
<path opacity="0.2" d="M104.557 106.436C104.559 107.497 104.981 108.513 105.731 109.263C106.481 110.012 107.498 110.434 108.559 110.435H147.03C147.068 110.435 147.107 110.442 147.142 110.457C147.178 110.472 147.21 110.494 147.238 110.521C147.265 110.548 147.287 110.581 147.301 110.616C147.316 110.652 147.324 110.69 147.324 110.729V111.047C147.324 111.085 147.316 111.123 147.301 111.159C147.287 111.195 147.265 111.227 147.238 111.254C147.21 111.282 147.178 111.303 147.142 111.318C147.107 111.333 147.068 111.341 147.03 111.341H87.2038C86.556 111.34 85.9147 111.212 85.3168 110.962C84.7189 110.713 84.1763 110.348 83.7201 109.888C83.2639 109.428 82.9032 108.882 82.6588 108.282C82.4144 107.682 82.2911 107.04 82.296 106.392C82.3262 105.082 82.8712 103.836 83.8132 102.924C84.7551 102.013 86.0181 101.509 87.3289 101.522H147.03C147.068 101.522 147.107 101.529 147.142 101.544C147.178 101.559 147.21 101.581 147.238 101.608C147.265 101.635 147.287 101.668 147.301 101.703C147.316 101.739 147.324 101.777 147.324 101.816V102.134C147.324 102.172 147.316 102.21 147.301 102.246C147.287 102.282 147.265 102.314 147.238 102.341C147.21 102.369 147.178 102.39 147.142 102.405C147.107 102.42 147.068 102.428 147.03 102.428H108.677C107.603 102.425 106.57 102.844 105.8 103.593C105.03 104.342 104.584 105.362 104.557 106.436Z" fill="white"/>
<path d="M104.557 106.436C104.559 107.497 104.981 108.513 105.731 109.263C106.481 110.012 107.498 110.434 108.559 110.435H147.03C147.068 110.435 147.107 110.442 147.142 110.457C147.178 110.472 147.21 110.494 147.238 110.521C147.265 110.548 147.287 110.581 147.302 110.616C147.316 110.652 147.324 110.69 147.324 110.729V111.047C147.324 111.085 147.316 111.123 147.302 111.159C147.287 111.195 147.265 111.227 147.238 111.254C147.21 111.282 147.178 111.303 147.142 111.318C147.107 111.333 147.068 111.341 147.03 111.341H108.339C107.691 111.341 107.049 111.212 106.451 110.963C105.853 110.714 105.31 110.349 104.853 109.889C104.397 109.429 104.036 108.883 103.791 108.283C103.546 107.683 103.423 107.04 103.428 106.392C103.459 105.082 104.004 103.837 104.946 102.925C105.888 102.014 107.15 101.51 108.461 101.522H147.03C147.068 101.522 147.107 101.529 147.142 101.544C147.178 101.559 147.21 101.581 147.238 101.608C147.265 101.635 147.287 101.668 147.302 101.703C147.316 101.739 147.324 101.777 147.324 101.816V102.133C147.324 102.172 147.316 102.21 147.302 102.246C147.287 102.282 147.265 102.314 147.238 102.341C147.21 102.369 147.178 102.39 147.142 102.405C147.107 102.42 147.068 102.428 147.03 102.428H108.677C107.603 102.425 106.57 102.844 105.8 103.593C105.031 104.342 104.584 105.362 104.557 106.436Z" fill="#263238"/>
<path d="M108.751 105.314V108.86L110.035 107.575L111.279 108.819V105.314H108.751Z" fill="#4D96B9"/>
<path opacity="0.4" d="M104.557 106.436C104.559 107.497 104.981 108.513 105.731 109.263C106.481 110.012 107.498 110.434 108.559 110.435H147.03C147.068 110.435 147.107 110.442 147.142 110.457C147.178 110.472 147.21 110.494 147.238 110.521C147.265 110.548 147.287 110.581 147.302 110.616C147.316 110.652 147.324 110.69 147.324 110.729V111.047C147.324 111.085 147.316 111.123 147.302 111.159C147.287 111.195 147.265 111.227 147.238 111.254C147.21 111.282 147.178 111.303 147.142 111.318C147.107 111.333 147.068 111.341 147.03 111.341H108.339C107.691 111.341 107.049 111.212 106.451 110.963C105.853 110.714 105.31 110.349 104.853 109.889C104.397 109.429 104.036 108.883 103.791 108.283C103.546 107.683 103.423 107.04 103.428 106.392C103.459 105.082 104.004 103.837 104.946 102.925C105.888 102.014 107.15 101.51 108.461 101.522H147.03C147.068 101.522 147.107 101.529 147.142 101.544C147.178 101.559 147.21 101.581 147.238 101.608C147.265 101.635 147.287 101.668 147.302 101.703C147.316 101.739 147.324 101.777 147.324 101.816V102.133C147.324 102.172 147.316 102.21 147.302 102.246C147.287 102.282 147.265 102.314 147.238 102.341C147.21 102.369 147.178 102.39 147.142 102.405C147.107 102.42 147.068 102.428 147.03 102.428H108.677C107.603 102.425 106.57 102.844 105.8 103.593C105.031 104.342 104.584 105.362 104.557 106.436Z" fill="white"/>
<path opacity="0.2" d="M90.2457 109.901C90.7016 110.358 91.2432 110.72 91.8394 110.967C92.4357 111.214 93.0749 111.341 93.7204 111.341H90.4587C89.8109 111.34 89.1696 111.212 88.5717 110.962C87.9738 110.713 87.4311 110.348 86.975 109.888C86.5188 109.428 86.1581 108.882 85.9137 108.282C85.6693 107.682 85.546 107.04 85.5509 106.392C85.5811 105.082 86.1261 103.836 87.068 102.924C88.01 102.013 89.273 101.509 90.5837 101.522H93.8421C92.5316 101.51 91.2691 102.014 90.3273 102.925C89.3856 103.837 88.8403 105.082 88.8092 106.392C88.8031 107.043 88.927 107.689 89.1737 108.291C89.4204 108.894 89.7849 109.441 90.2457 109.901Z" fill="white"/>
<path d="M42.2839 73.1465H48.9019C49.4398 73.1465 49.9556 73.3601 50.3359 73.7405C50.7162 74.1208 50.9299 74.6366 50.9299 75.1745V80.9205C50.9299 81.4583 50.7162 81.9742 50.3359 82.3545C49.9556 82.7348 49.4398 82.9485 48.9019 82.9485H48.6011L48.9154 84.5202L47.2254 82.9485H42.2839C41.746 82.9485 41.2302 82.7348 40.8498 82.3545C40.4695 81.9742 40.2559 81.4583 40.2559 80.9205V75.1745C40.2559 74.6366 40.4695 74.1208 40.8498 73.7405C41.2302 73.3601 41.746 73.1465 42.2839 73.1465Z" fill="#4D96B9"/>
<path d="M48.8783 78.0407C48.8783 78.6905 48.6857 79.3257 48.3247 79.866C47.9637 80.4063 47.4506 80.8273 46.8502 81.076C46.2499 81.3247 45.5893 81.3897 44.952 81.263C44.3147 81.1362 43.7293 80.8233 43.2699 80.3638C42.8104 79.9044 42.4975 79.319 42.3707 78.6817C42.244 78.0444 42.309 77.3838 42.5577 76.7835C42.8064 76.1832 43.2275 75.6701 43.7677 75.3091C44.308 74.9481 44.9432 74.7554 45.593 74.7554C46.4643 74.7554 47.3 75.1015 47.9161 75.7176C48.5322 76.3338 48.8783 77.1694 48.8783 78.0407Z" fill="white"/>
<path d="M45.248 79.5075C45.2045 79.5069 45.1617 79.4972 45.1221 79.4792C45.0825 79.4612 45.0472 79.4351 45.0182 79.4027L43.727 77.8817C43.6755 77.8203 43.6504 77.7409 43.6574 77.6611C43.6644 77.5812 43.7028 77.5074 43.7642 77.4558C43.8256 77.4043 43.905 77.3793 43.9848 77.3862C44.0647 77.3932 44.1385 77.4316 44.1901 77.493L45.248 78.7402L46.9955 76.6784C47.0478 76.618 47.1218 76.5805 47.2015 76.5742C47.2812 76.5679 47.3602 76.5932 47.4213 76.6446C47.4517 76.6703 47.4766 76.7017 47.4948 76.737C47.5129 76.7724 47.5238 76.8109 47.527 76.8505C47.5301 76.8901 47.5254 76.93 47.5131 76.9677C47.5007 77.0055 47.481 77.0404 47.4551 77.0705L45.4778 79.4027C45.4489 79.4351 45.4135 79.4612 45.3739 79.4792C45.3344 79.4972 45.2915 79.5069 45.248 79.5075Z" fill="#4D96B9"/>
<path d="M81.232 111.783H67.9284C66.6142 111.783 65.5488 112.849 65.5488 114.163V136.356C65.5488 137.67 66.6142 138.735 67.9284 138.735H81.232C82.5462 138.735 83.6115 137.67 83.6115 136.356V114.163C83.6115 112.849 82.5462 111.783 81.232 111.783Z" fill="#4D96B9"/>
<path opacity="0.5" d="M81.232 111.783H67.9284C66.6142 111.783 65.5488 112.849 65.5488 114.163V136.356C65.5488 137.67 66.6142 138.735 67.9284 138.735H81.232C82.5462 138.735 83.6115 137.67 83.6115 136.356V114.163C83.6115 112.849 82.5462 111.783 81.232 111.783Z" fill="white"/>
<path opacity="0.1" d="M79.9071 138.735H67.8405C67.5392 138.735 67.241 138.676 66.9627 138.561C66.6845 138.445 66.4317 138.276 66.2188 138.063C66.006 137.85 65.8373 137.597 65.7223 137.318C65.6073 137.04 65.5484 136.742 65.5488 136.44V114.075C65.5484 113.774 65.6074 113.476 65.7224 113.197C65.8374 112.919 66.0062 112.666 66.219 112.453C66.4319 112.241 66.6847 112.072 66.963 111.957C67.2412 111.842 67.5394 111.783 67.8405 111.783H79.9071C79.2993 111.783 78.7164 112.025 78.2866 112.454C77.8569 112.884 77.6154 113.467 77.6154 114.075V136.44C77.6154 137.048 77.8568 137.632 78.2864 138.062C78.7161 138.492 79.299 138.734 79.9071 138.735Z" fill="black"/>
<path d="M42.2436 140.571H80.8398V138.036H42.2436V140.571Z" fill="#263238"/>
<path opacity="0.2" d="M42.2436 140.571H80.8398V138.036H42.2436V140.571Z" fill="white"/>
<path opacity="0.2" d="M58.9577 140.571H80.8398V138.036H58.9577V140.571Z" fill="white"/>
<path d="M69.0978 123.61H40.6146L36.2747 101.194C36.1624 100.619 36.1789 100.025 36.323 99.4572C36.4671 98.889 36.7352 98.3597 37.1081 97.9073C37.481 97.455 37.9493 97.0908 38.4796 96.8409C39.0099 96.5909 39.589 96.4615 40.1752 96.4619H60.5667C61.4894 96.4616 62.3835 96.7827 63.0952 97.3698C63.807 97.957 64.2921 98.7737 64.4672 99.6797L69.0978 123.61Z" fill="#4D96B9"/>
<path opacity="0.6" d="M69.0978 123.61H40.6146L36.2747 101.194C36.1624 100.619 36.1789 100.025 36.323 99.4572C36.4671 98.889 36.7352 98.3597 37.1081 97.9073C37.481 97.455 37.9493 97.0908 38.4796 96.8409C39.0099 96.5909 39.589 96.4615 40.1752 96.4619H60.5667C61.4894 96.4616 62.3835 96.7827 63.0952 97.3698C63.807 97.957 64.2921 98.7737 64.4672 99.6797L69.0978 123.61Z" fill="white"/>
<path opacity="0.1" d="M48.7063 123.61H40.6146L36.2747 101.194C36.1624 100.619 36.1789 100.025 36.323 99.4572C36.4671 98.889 36.7352 98.3597 37.1081 97.9073C37.481 97.455 37.9493 97.0908 38.4796 96.8409C39.0099 96.5909 39.589 96.4615 40.1752 96.4619C41.0973 96.4624 41.9905 96.7838 42.7016 97.3709C43.4127 97.958 43.8973 98.7743 44.0723 99.6797L48.7063 123.61Z" fill="black"/>
<path d="M81.8875 123.336H41.5371C40.432 123.336 39.5361 124.232 39.5361 125.337V136.734C39.5361 137.839 40.432 138.735 41.5371 138.735H81.8875C82.9926 138.735 83.8885 137.839 83.8885 136.734V125.337C83.8885 124.232 82.9926 123.336 81.8875 123.336Z" fill="#4D96B9"/>
<path opacity="0.6" d="M81.8875 123.336H41.5371C40.432 123.336 39.5361 124.232 39.5361 125.337V136.734C39.5361 137.839 40.432 138.735 41.5371 138.735H81.8875C82.9926 138.735 83.8885 137.839 83.8885 136.734V125.337C83.8885 124.232 82.9926 123.336 81.8875 123.336Z" fill="white"/>
<path opacity="0.1" d="M58.8055 123.336H41.5371C40.432 123.336 39.5361 124.232 39.5361 125.337V136.734C39.5361 137.839 40.432 138.735 41.5371 138.735H58.8055C59.9106 138.735 60.8065 137.839 60.8065 136.734V125.337C60.8065 124.232 59.9106 123.336 58.8055 123.336Z" fill="black"/>
<path d="M63.0846 92.0644C66.0083 92.7674 67.9112 95.6201 70.3516 96.8133C70.382 96.8403 70.3246 96.8809 70.3516 96.9113L69.2193 97.834C69.0412 98.0872 68.9402 98.3866 68.9286 98.6959C68.9286 98.8683 68.9692 98.9122 68.9827 98.8886C68.9922 98.6959 68.9564 98.5037 68.8779 98.3275C68.4453 97.087 67.6071 95.6979 66.8939 94.4912C66.4815 93.7949 66.032 93.0851 65.6297 92.3922C65.4499 92.0819 65.3807 91.7198 65.4332 91.365C65.4858 91.0103 65.6571 90.6838 65.9192 90.439C66.1813 90.1942 66.5186 90.0455 66.8762 90.0172C67.2337 89.9888 67.5902 90.0826 67.8876 90.2831C68.6067 90.7727 69.2963 91.3043 69.9528 91.8751C71.9537 93.7003 74.5496 96.1542 74.4853 99.1488C74.4853 100.136 73.7891 101.667 72.6703 102.076C68.594 104.06 64.7374 100.508 61.8171 98.3343C61.7022 98.2565 61.6042 98.1991 61.5535 98.1686C61.5028 98.1382 61.4994 98.1382 61.6177 98.1686C57.6158 97.0296 59.0117 91.2532 63.0947 92.0846L63.0846 92.0644Z" fill="#263238"/>
<path opacity="0.2" d="M68.3106 100.048C67.932 100.014 67.5771 99.9634 67.2256 99.9026C66.8741 99.8418 66.4617 99.764 66.0899 99.6829C65.7181 99.6018 65.3666 99.5038 65.0117 99.4091C64.3019 99.2198 63.6157 98.9866 62.9397 98.7331L62.8789 98.7095C63.2276 98.0106 63.7804 97.4342 64.4641 97.0566C64.4641 97.0566 66.5361 97.709 68.3106 100.048Z" fill="black"/>
<path d="M81.3574 133.916L85.4945 134.22L85.3661 139.111L81.9117 138.864L81.3574 133.916Z" fill="#E4897B"/>
<path opacity="0.2" d="M81.3604 133.919L85.4941 134.22L85.4231 136.961L81.6679 136.687L81.3604 133.919Z" fill="black"/>
<path d="M81.418 140.571H82.3204L82.5638 140.206L83.037 140.574H88.4754C88.5086 140.146 88.4281 139.717 88.2422 139.33C88.2422 139.33 86.613 139.185 85.9877 138.374C85.9648 138.343 85.9335 138.319 85.8976 138.305C85.8617 138.292 85.8226 138.288 85.7849 138.296C85.2441 138.411 83.0809 138.82 81.9114 138.397C81.8823 138.386 81.8508 138.382 81.8197 138.385C81.7886 138.388 81.7587 138.399 81.7326 138.416C81.7064 138.434 81.6848 138.457 81.6694 138.484C81.6541 138.511 81.6455 138.542 81.6444 138.573C81.6199 139.244 81.5442 139.912 81.418 140.571Z" fill="#263238"/>
<path d="M58.6977 112.777C58.6977 112.777 52.5427 124.269 59.8435 124.269C69.0337 124.269 77.7845 121.954 77.7845 121.954C77.7845 121.954 77.2843 126.855 80.8265 136.15L85.7918 136.109C85.7918 136.109 87.7251 116.137 84.0206 112.787C81.0395 110.083 70.4533 110.952 70.4533 110.952L58.6977 112.777Z" fill="#4D96B9"/>
<path opacity="0.2" d="M78.8763 128.578C78.8121 128.822 78.7512 129.058 78.687 129.292C77.5277 124.451 77.7846 121.94 77.7846 121.94C77.7846 121.94 69.0337 124.255 59.8435 124.255C55.4022 124.255 55.9396 120.01 57.0449 116.681C60.1748 114.693 63.4669 112.892 65.8329 111.665L70.4533 110.945C70.4533 110.945 72.3563 110.786 74.7797 110.813C78.3625 112.412 81.7966 116.819 78.8763 128.578Z" fill="black"/>
<path d="M70.1825 111.104C64.8421 114.055 51.2072 113.233 48.7736 112.821C48.4728 108.799 48.0976 102.37 46.8301 97.611C46.6893 97.1016 46.6537 96.5687 46.7256 96.0451C46.7976 95.5215 46.9754 95.018 47.2484 94.5653C47.5214 94.1127 47.8837 93.7204 48.3133 93.4125C48.7429 93.1046 49.2307 92.8874 49.747 92.7742C53.5307 92.0322 57.3848 91.7114 61.239 91.8177C62.591 91.865 64.0377 92.5207 64.4703 93.8018C66.4476 99.71 69.6045 104.499 70.1825 111.104Z" fill="#263238"/>
<path d="M57.886 94.9035C55.6451 95.0184 53.6982 93.1087 52.6504 92.4462C53.7827 91.6553 54.3404 90.2357 54.5499 89.4481C54.648 89.1101 54.6885 88.8735 54.6885 88.8735L58.4944 90.5635C58.28 91.0428 58.2394 91.5819 58.3795 92.0879C58.8559 92.2999 59.2324 92.6872 59.4307 93.1695C59.4293 93.1807 59.4293 93.1921 59.4307 93.2033C59.7247 93.9807 60.0965 94.7919 57.886 94.9035Z" fill="#E4897B"/>
<path opacity="0.2" d="M59.444 93.2067C57.1761 94.143 54.9554 91.4052 54.5498 89.4481C54.6478 89.1101 54.6884 88.8735 54.6884 88.8735L58.4943 90.5635C58.2799 91.0428 58.2392 91.5819 58.3793 92.0879C58.8558 92.2999 59.2322 92.6872 59.4305 93.1695C59.4333 93.1825 59.4378 93.195 59.444 93.2067Z" fill="black"/>
<path d="M58.0218 94.8968L57.1768 94.1431L55.8721 94.7954C55.8721 94.7954 56.5886 95.5255 58.0218 94.8968Z" fill="#4D96B9"/>
<path opacity="0.5" d="M58.0218 94.8968L57.1768 94.1431L55.8721 94.7954C55.8721 94.7954 56.5886 95.5255 58.0218 94.8968Z" fill="white"/>
<path d="M53.1914 91.8887C53.1914 91.8887 54.7969 94.0823 57.1765 94.1431C56.7303 94.3761 56.336 94.6972 56.0177 95.0871C55.6993 95.4769 55.4634 95.9274 55.3242 96.4111C54.4651 96.1222 53.7101 95.5867 53.1535 94.8714C52.5969 94.1561 52.2633 93.2927 52.1943 92.3889C52.3139 92.2377 52.4651 92.1145 52.6374 92.0281C52.8096 91.9417 52.9988 91.8941 53.1914 91.8887Z" fill="#4D96B9"/>
<path d="M58.0215 94.8969L59.1504 93.9302L60.4416 94.2986C60.4416 94.2986 59.3329 95.4647 58.0215 94.8969Z" fill="#4D96B9"/>
<path opacity="0.5" d="M58.0215 94.8969L59.1504 93.9302L60.4416 94.2986C60.4416 94.2986 59.3329 95.4647 58.0215 94.8969Z" fill="white"/>
<path d="M58.3799 92.0917C58.3799 92.0917 59.1978 93.153 59.164 93.9304C60.249 94.2244 60.6208 95.857 60.6208 95.857C60.6208 95.857 61.0636 93.491 59.4378 92.2708C59.1125 92.1021 58.7426 92.0394 58.3799 92.0917Z" fill="#4D96B9"/>
<path opacity="0.8" d="M53.1914 91.8887C53.1914 91.8887 54.7969 94.0823 57.1765 94.1431C56.7303 94.3761 56.336 94.6972 56.0177 95.0871C55.6993 95.4769 55.4634 95.9274 55.3242 96.4111C54.4651 96.1222 53.7101 95.5867 53.1535 94.8714C52.5969 94.1561 52.2633 93.2927 52.1943 92.3889C52.3139 92.2377 52.4651 92.1145 52.6374 92.0281C52.8096 91.9417 52.9988 91.8941 53.1914 91.8887Z" fill="white"/>
<path opacity="0.8" d="M58.3799 92.0917C58.3799 92.0917 59.1978 93.153 59.164 93.9304C60.249 94.2244 60.6208 95.857 60.6208 95.857C60.6208 95.857 61.0636 93.491 59.4378 92.2708C59.1125 92.1021 58.7426 92.0394 58.3799 92.0917Z" fill="white"/>
<path d="M73.4346 134.308L77.5582 133.882L78.2883 138.719L74.844 139.08L73.4346 134.308Z" fill="#E4897B"/>
<path opacity="0.2" d="M73.4346 134.311L77.5616 133.882L77.9705 136.593L74.2255 136.981L73.4346 134.311Z" fill="black"/>
<path d="M74.2451 140.571H75.1442L75.3909 140.206L75.8641 140.574H81.3026C81.3353 140.146 81.2536 139.717 81.066 139.331C81.066 139.331 79.4402 139.185 78.8115 138.374C78.7891 138.343 78.7584 138.32 78.7231 138.306C78.6878 138.292 78.6493 138.289 78.6121 138.296C78.0713 138.411 75.9081 138.82 74.7352 138.398C74.7063 138.386 74.6749 138.382 74.644 138.385C74.613 138.388 74.5833 138.399 74.5573 138.416C74.5314 138.434 74.5101 138.457 74.4951 138.484C74.4802 138.512 74.4721 138.542 74.4716 138.573C74.447 139.244 74.3713 139.912 74.2451 140.571Z" fill="#263238"/>
<path d="M48.916 112.777C48.916 112.777 46.3438 121.261 53.2627 123.593C60.1816 125.925 67.0159 121.805 67.0159 121.805C67.0159 121.805 67.0159 123.593 73.181 136.724L78.2882 135.761C78.2882 135.761 76.4867 116.106 74.2322 112.777C71.9778 109.448 60.6615 110.942 60.6615 110.942L48.916 112.777Z" fill="#4D96B9"/>
<path d="M67.0831 89.8439L65.9474 91.1689C64.3385 92.0477 63.5645 89.7831 63.5645 89.7831L62.368 88.4311C62.2356 88.256 62.1698 88.0396 62.1821 87.8204C62.1945 87.6013 62.2843 87.3937 62.4356 87.2346L63.2197 86.3017C63.3701 86.1006 63.5929 85.966 63.8408 85.9263C64.0887 85.8865 64.3424 85.9448 64.5481 86.0888L65.7682 87.1839C66.0105 87.3844 66.1987 87.6424 66.3158 87.9342L67.0831 89.8439Z" fill="#E4897B"/>
<path opacity="0.2" d="M58.4369 104.885C58.4369 104.885 55.3104 111.263 48.7735 112.821C48.5132 109.34 48.2192 103.725 47.2998 99.5511C48.6011 98.7703 52.194 97.9287 52.194 97.9287C52.2068 99.4912 52.538 101.035 53.1675 102.465C54.913 101.781 56.74 101.326 58.6025 101.113C59.5557 100.991 58.4369 104.885 58.4369 104.885Z" fill="black"/>
<path d="M51.8596 98.2905C52.0449 98.1472 52.2058 97.9748 52.3362 97.7802C52.3733 97.7193 52.37 97.7261 52.3632 97.7531C52.3564 97.7802 52.2956 97.9424 52.2551 98.0911C51.7683 100.089 51.4776 102.539 52.0658 104.513C52.1165 104.658 52.1063 104.638 51.9745 104.598L52.8634 105.409C52.7207 105.218 52.5443 105.056 52.3429 104.929C52.059 104.702 51.3087 104.554 51.1464 104.675C51.0653 104.74 51.2918 104.713 51.5148 104.635C53.3941 103.942 55.3275 102.556 57.1121 101.539C57.4206 101.365 57.7784 101.299 58.1286 101.351C58.4789 101.403 58.8018 101.571 59.0461 101.827C59.2905 102.084 59.4424 102.414 59.4777 102.767C59.5131 103.119 59.43 103.473 59.2415 103.773C57.4974 106.332 53.8943 110.854 50.3352 110.07C49.502 109.866 48.7658 109.378 48.2531 108.691L49.1421 109.502C47.4216 108.539 46.5868 106.964 46.1001 105.348C45.3029 102.37 45.3356 99.2303 46.1947 96.2693C46.5327 95.235 46.9653 94.1805 47.905 93.4132C48.5526 92.916 49.3686 92.691 50.1796 92.7859C50.9905 92.8808 51.7325 93.2882 52.2478 93.9215C52.7632 94.5548 53.0113 95.3641 52.9394 96.1774C52.8675 96.9907 52.4814 97.7439 51.863 98.277L51.8596 98.2905Z" fill="#263238"/>
<path d="M65.302 92.3111L64.626 91.554C65.5982 90.9998 66.4842 90.3063 67.2556 89.4956L68.4724 89.8133C68.4724 89.8133 67.3739 92.1455 65.302 92.3111Z" fill="#4D96B9"/>
<path opacity="0.5" d="M65.302 92.3111L64.626 91.554C65.5982 90.9998 66.4842 90.3063 67.2556 89.4956L68.4724 89.8133C68.4724 89.8133 67.3739 92.1455 65.302 92.3111Z" fill="white"/>
<path opacity="0.9" d="M73.7148 92.8047L72.7346 95.8129L69.2701 101.934C69.2701 101.934 60.8404 103.117 60.6511 100.636C60.4788 98.4121 61.0534 94.7921 61.175 94.0654L61.1953 93.9336C65.9104 94.3933 68.9152 96.1475 68.9152 96.1475C70.3788 93.7984 73.7148 92.8047 73.7148 92.8047Z" fill="white"/>
<path opacity="0.1" d="M73.7148 92.8047L72.7346 95.8129L69.2701 101.934C69.2701 101.934 60.8404 103.117 60.6511 100.636C60.4788 98.4121 61.0534 94.7921 61.175 94.0654C64.6125 94.3798 68.9186 96.4652 68.9186 96.4652C69.3884 94.978 73.7148 92.8047 73.7148 92.8047Z" fill="black"/>
<path d="M72.6464 102.752C72.6464 102.752 71.0849 103.479 68.4316 105.557C68.2796 105.679 68.1049 105.768 67.9178 105.821C67.6686 105.896 67.4039 105.904 67.1505 105.845C64.8772 105.299 62.5687 104.913 60.2418 104.689C60.2418 104.689 59.9444 98.9426 60.5595 94.6703C60.5595 94.6703 65.2915 95.0793 68.9149 96.4718C69.0197 96.3873 72.3726 93.6732 74.5054 93.3082C74.5088 93.2879 71.8251 98.8311 72.6464 102.752Z" fill="#4D96B9"/>
<path opacity="0.1" d="M72.6466 102.752C72.6466 102.752 71.085 103.479 68.4317 105.557C68.2798 105.679 68.1051 105.768 67.918 105.821C68.0734 103.489 68.5095 97.4419 68.9151 96.4718C69.0198 96.3873 72.3728 93.6732 74.5056 93.3082C74.509 93.2879 71.8252 98.8311 72.6466 102.752Z" fill="black"/>
<path d="M68.6147 96.3501C68.8537 96.3798 69.0951 96.3182 69.2907 96.1777C69.2907 96.1777 68.8243 100.504 68.3883 105.598C68.3075 105.757 68.1683 105.88 67.9996 105.94C67.831 105.999 67.6457 105.992 67.4824 105.919C67.4824 105.919 67.9624 99.4158 68.6147 96.3501Z" fill="#4D96B9"/>
<path opacity="0.2" d="M68.6147 96.3501C68.8537 96.3798 69.0951 96.3182 69.2907 96.1777C69.2907 96.1777 68.8243 100.504 68.3883 105.598C68.3075 105.757 68.1683 105.88 67.9996 105.94C67.831 105.999 67.6457 105.992 67.4824 105.919C67.4824 105.919 67.9624 99.4158 68.6147 96.3501Z" fill="white"/>
<path opacity="0.7" d="M70.0142 97.5097C70.0142 97.5097 71.6028 96.1578 72.9345 95.8569L72.7283 96.685C71.6557 97.1243 70.6762 97.7632 69.8418 98.5677L70.0142 97.5097Z" fill="white"/>
<path opacity="0.1" d="M61.3842 102.218C61.3842 102.218 65.4402 102.894 66.5556 103.276V104.915C66.5556 104.915 63.1756 104.165 61.3369 103.969L61.3842 102.218Z" fill="black"/>
<path opacity="0.7" d="M70.8286 96.0831L70.7441 96.4685C71.2786 96.1127 71.8443 95.8061 72.4341 95.5525L72.5829 95.0522C71.9532 95.313 71.3628 95.6599 70.8286 96.0831Z" fill="white"/>
<path d="M57.8867 101.515L58.2011 103.141C59.1137 104.625 60.8172 103.12 60.8172 103.12L61.9258 102.728C62.1164 102.646 62.2719 102.5 62.3647 102.314C62.4575 102.128 62.4816 101.916 62.4328 101.714L62.2233 100.575C62.1952 100.338 62.0755 100.122 61.8897 99.9721C61.704 99.8224 61.467 99.7514 61.2295 99.7742L60.2155 99.9534C59.9212 100.007 59.6441 100.131 59.4077 100.315L57.8867 101.515Z" fill="#E4897B"/>
<path d="M57.4064 101.163L58.5488 101.004C58.5157 102.044 58.6975 103.08 59.0829 104.046L58.3393 105.534C58.3393 105.534 56.4667 103.022 57.4064 101.163Z" fill="#4D96B9"/>
<path opacity="0.5" d="M57.4064 101.163L58.5488 101.004C58.5157 102.044 58.6975 103.08 59.0829 104.046L58.3393 105.534C58.3393 105.534 56.4667 103.022 57.4064 101.163Z" fill="white"/>
<path d="M62.7538 87.2582L61.662 87.0892C61.651 87.088 61.6404 87.0845 61.6307 87.079C61.6211 87.0735 61.6127 87.0661 61.6061 87.0573C61.5994 87.0484 61.5947 87.0383 61.5921 87.0275C61.5895 87.0167 61.5891 87.0055 61.5911 86.9946C61.5927 86.9834 61.5966 86.9727 61.6024 86.9631C61.6083 86.9534 61.616 86.945 61.6251 86.9384C61.6342 86.9318 61.6446 86.9271 61.6556 86.9245C61.6666 86.922 61.678 86.9217 61.6891 86.9236L62.7774 87.0926C62.7885 87.0938 62.7991 87.0973 62.8087 87.1028C62.8184 87.1083 62.8268 87.1157 62.8334 87.1246C62.8401 87.1334 62.8448 87.1436 62.8474 87.1543C62.85 87.1651 62.8503 87.1763 62.8484 87.1872C62.8451 87.2091 62.8333 87.2288 62.8156 87.2421C62.7979 87.2553 62.7757 87.2611 62.7538 87.2582Z" fill="#263238"/>
<path d="M62.8477 85.7268C62.5097 86.849 61.6951 87.9002 60.9143 87.2208C60.7611 87.0627 60.6535 86.8662 60.603 86.652C60.5524 86.4378 60.5607 86.2138 60.627 86.004C60.8568 84.8413 61.9452 83.4521 61.9452 83.4521C61.9452 83.4521 62.7091 83.0735 62.9829 84.2836C63.0536 84.7685 63.0072 85.2634 62.8477 85.7268Z" fill="#263238"/>
<path opacity="0.5" d="M62.8477 85.7268C62.5097 86.849 61.6951 87.9002 60.9143 87.2208C60.7611 87.0627 60.6535 86.8662 60.603 86.652C60.5524 86.4378 60.5607 86.2139 60.627 86.004C61.0094 85.704 61.4152 85.435 61.8404 85.1996C61.8404 85.1996 62.3238 85.0137 62.8477 85.7268Z" fill="white"/>
<path d="M60.5025 82.5599C58.0959 81.0017 55.0235 82.3301 54.6449 84.8921C54.2664 87.4542 54.067 89.2016 55.4054 90.6381C58.0655 93.4604 60.2355 92.5073 61.4286 90.1277C62.4832 87.9713 62.9226 84.1418 60.5025 82.5599Z" fill="#E4897B"/>
<path opacity="0.2" d="M58.397 86.5786C58.1174 86.3873 57.774 86.3133 57.4404 86.3724C57.7428 86.5029 58.0677 86.573 58.397 86.5786Z" fill="black"/>
<path opacity="0.2" d="M58.3328 86.805C58.1916 86.7461 58.0392 86.7186 57.8863 86.7244C57.7334 86.7302 57.5836 86.7693 57.4473 86.8388C57.7415 86.8912 58.0435 86.8796 58.3328 86.805Z" fill="black"/>
<path d="M61.9486 84.4999C61.2726 85.4632 59.5387 83.8239 58.065 83.2054C57.9464 83.1545 57.8178 83.1312 57.6888 83.1372C57.5599 83.1433 57.434 83.1786 57.3207 83.2404C57.2074 83.3023 57.1097 83.3891 57.0348 83.4943C56.96 83.5995 56.9101 83.7203 56.8888 83.8476C56.8671 83.9592 56.8671 84.074 56.8888 84.1856C57.1423 85.2503 56.2703 85.7911 56.3852 86.3995C56.659 87.8123 55.5402 87.8766 54.1983 86.9978C54.0023 86.8945 53.8376 86.7404 53.7217 86.5516C53.0288 86.1257 52.8801 85.2503 53.1133 84.1856C53.2547 83.5741 53.4633 82.9801 53.7352 82.4145C54.6005 80.569 57.7372 80.3054 57.7372 80.3054C57.7372 80.3054 60.7014 79.8186 61.756 81.5898C62.8106 83.3609 61.9486 84.4999 61.9486 84.4999Z" fill="#263238"/>
<path d="M58.8124 86.7643C58.7617 86.984 58.8394 87.1902 58.9848 87.2206C59.1301 87.251 59.2856 87.0955 59.3228 86.8826C59.3599 86.6697 59.2924 86.4567 59.147 86.4263C59.0017 86.3959 58.8631 86.5446 58.8124 86.7643Z" fill="#263238"/>
<path d="M61.3976 87.3562C61.3503 87.5759 61.4281 87.7787 61.5734 87.8091C61.7187 87.8395 61.8742 87.6874 61.9114 87.4711C61.9486 87.2548 61.8844 87.0486 61.739 87.0182C61.5937 86.9878 61.4483 87.1331 61.3976 87.3562Z" fill="#263238"/>
<path d="M58.1841 85.9805C58.1611 85.9777 58.1391 85.9696 58.1199 85.9568C58.0921 85.9354 58.0738 85.904 58.0688 85.8693C58.0637 85.8347 58.0724 85.7994 58.0928 85.7709C58.2126 85.5968 58.3724 85.454 58.5589 85.3546C58.7453 85.2552 58.953 85.2021 59.1643 85.1997C59.1818 85.2001 59.199 85.2041 59.2148 85.2114C59.2307 85.2186 59.245 85.2291 59.2567 85.2421C59.2684 85.255 59.2773 85.2703 59.2829 85.2868C59.2886 85.3033 59.2907 85.3209 59.2894 85.3383C59.2885 85.3556 59.2842 85.3726 59.2768 85.3882C59.2693 85.4039 59.2589 85.418 59.246 85.4296C59.2331 85.4412 59.2181 85.4501 59.2018 85.4559C59.1854 85.4617 59.1681 85.4643 59.1508 85.4633C58.9834 85.4687 58.8197 85.5134 58.6729 85.5938C58.5261 85.6743 58.4003 85.7882 58.3058 85.9264C58.2924 85.9457 58.2739 85.9609 58.2525 85.9704C58.231 85.98 58.2074 85.9835 58.1841 85.9805Z" fill="#263238"/>
<path d="M62.5578 86.7172C62.5369 86.7101 62.5181 86.6981 62.5028 86.6822C62.4875 86.6664 62.4762 86.6471 62.4699 86.626C62.4294 86.4648 62.3509 86.3156 62.2409 86.1909C62.131 86.0662 61.9928 85.9697 61.8378 85.9094C61.8212 85.9045 61.8057 85.8962 61.7923 85.885C61.779 85.8739 61.768 85.8602 61.7601 85.8447C61.7522 85.8292 61.7475 85.8123 61.7464 85.7949C61.7452 85.7776 61.7476 85.7602 61.7533 85.7438C61.7584 85.7271 61.7666 85.7116 61.7777 85.6981C61.7888 85.6846 61.8024 85.6735 61.8178 85.6653C61.8332 85.6571 61.8501 85.6521 61.8674 85.6505C61.8848 85.6489 61.9023 85.6507 61.919 85.6559C62.1153 85.7299 62.2911 85.8498 62.4316 86.0057C62.5722 86.1615 62.6734 86.3487 62.7268 86.5516C62.7362 86.5857 62.732 86.6221 62.7149 86.653C62.6979 86.684 62.6694 86.707 62.6355 86.7172C62.61 86.724 62.5833 86.724 62.5578 86.7172Z" fill="#263238"/>
<path opacity="0.5" d="M56.3959 86.4199C56.6697 87.8327 55.5509 87.897 54.2091 87.0182C54.013 86.9149 53.8484 86.7608 53.7325 86.572C53.0396 86.1461 52.8909 85.2707 53.1241 84.206C54.0831 84.3772 55.0719 84.2225 55.9329 83.7666C55.8361 83.9554 55.6756 84.1038 55.4799 84.1857C55.7231 84.2499 55.9782 84.2546 56.2235 84.1993C56.4689 84.1439 56.6973 84.0303 56.8894 83.868C56.8677 83.9796 56.8677 84.0944 56.8894 84.206C57.153 85.2707 56.281 85.8115 56.3959 86.4199Z" fill="white"/>
<path d="M60.5022 87.0078L59.958 88.8262C60.1054 88.9119 60.2695 88.965 60.4392 88.9819C60.6088 88.9988 60.7802 88.9792 60.9416 88.9243C60.9638 88.2582 60.8124 87.5977 60.5022 87.0078Z" fill="#DE5753"/>
<path d="M59.7963 90.1784H59.7557C59.7084 90.1784 58.6403 89.7863 58.2854 89.0799C58.2702 89.0503 58.2673 89.0159 58.2775 88.9842C58.2876 88.9525 58.3099 88.9261 58.3395 88.9109C58.3691 88.8957 58.4035 88.8928 58.4352 88.9029C58.4669 88.9131 58.4933 88.9354 58.5085 88.965C58.8195 89.5801 59.8267 89.935 59.8368 89.9384C59.8528 89.9437 59.8675 89.9522 59.8801 89.9633C59.8927 89.9744 59.9029 89.9879 59.9101 90.003C59.9174 90.0182 59.9215 90.0346 59.9223 90.0514C59.923 90.0682 59.9204 90.0849 59.9146 90.1007C59.9046 90.1238 59.8881 90.1435 59.8671 90.1573C59.8461 90.1711 59.8214 90.1785 59.7963 90.1784Z" fill="#263238"/>
<path d="M56.3989 87.123C56.3989 87.123 56.3482 88.6407 56.9465 89.364C56.9465 89.364 57.8793 88.2384 58.677 88.2452C59.4747 88.252 59.7958 89.2153 59.7958 89.2153L59.5051 89.364C59.5051 89.364 59.1029 88.644 58.677 88.5933C58.2511 88.5426 57.2202 89.533 57.4467 90.0535C57.6732 90.574 58.677 90.0535 58.677 90.0535L59.0759 90.2766C59.0759 90.2766 58.4776 91.2669 59.6403 91.1757C60.803 91.0844 60.9044 89.6682 59.7958 89.5262L59.958 89.2085C59.958 89.2085 61.0971 89.2524 61.31 90.3171C61.523 91.3818 60.972 93.0211 58.3187 92.7338C56.916 92.5817 54.3574 91.0134 55.5539 87.4982L56.3989 87.123Z" fill="#263238"/>
<path d="M60.9419 86.866C60.9221 86.8659 60.9029 86.8587 60.8878 86.8458C60.8064 86.7754 60.7093 86.7255 60.6046 86.7002C60.5 86.6749 60.3908 86.675 60.2862 86.7004C60.2755 86.704 60.2643 86.7054 60.2531 86.7044C60.2419 86.7034 60.231 86.7001 60.2212 86.6947C60.2113 86.6893 60.2027 86.6819 60.1958 86.673C60.189 86.6641 60.1841 86.6539 60.1814 86.643C60.175 86.6219 60.177 86.5992 60.1871 86.5796C60.1972 86.56 60.2146 86.5452 60.2355 86.5382C60.3674 86.506 60.505 86.5055 60.6372 86.5366C60.7694 86.5678 60.8923 86.6297 60.996 86.7173C61.0041 86.7249 61.0105 86.7341 61.0149 86.7442C61.0193 86.7544 61.0216 86.7654 61.0216 86.7765C61.0216 86.7876 61.0193 86.7985 61.0149 86.8087C61.0105 86.8189 61.0041 86.828 60.996 86.8356C60.9825 86.8523 60.9631 86.8631 60.9419 86.866Z" fill="#263238"/>
<path d="M57.7412 86.0616H57.7243L55.0947 85.4937C55.0287 85.4777 54.9603 85.4748 54.8933 85.4853C54.8262 85.4959 54.7619 85.5196 54.7041 85.5551C54.6463 85.5906 54.5961 85.6372 54.5564 85.6922C54.5167 85.7473 54.4882 85.8096 54.4728 85.8757V85.9264C54.4674 85.9483 54.4535 85.9673 54.4342 85.979C54.4148 85.9907 54.3916 85.9943 54.3697 85.9889C54.3477 85.9835 54.3288 85.9697 54.317 85.9503C54.3053 85.931 54.3018 85.9078 54.3071 85.8858V85.8351C54.327 85.7471 54.3642 85.6639 54.4167 85.5905C54.4691 85.5171 54.5357 85.455 54.6126 85.4077C54.6895 85.3605 54.775 85.3291 54.8642 85.3154C54.9534 85.3018 55.0444 85.3061 55.1319 85.3281L57.7581 85.8926C57.769 85.895 57.7793 85.8995 57.7885 85.9059C57.7976 85.9123 57.8054 85.9205 57.8114 85.9299C57.8173 85.9393 57.8214 85.9498 57.8233 85.9608C57.8251 85.9718 57.8248 85.9831 57.8223 85.994C57.818 86.0125 57.8077 86.0291 57.7931 86.0413C57.7784 86.0535 57.7602 86.0606 57.7412 86.0616Z" fill="#263238"/>
<path d="M61.9257 88.4949C61.8943 88.4984 61.8625 88.4984 61.8311 88.4949L61.4255 88.3969C61.2584 88.3351 61.1172 88.2187 61.0246 88.0665C60.9319 87.9144 60.8934 87.7355 60.9151 87.5587V86.7678C60.9154 86.7514 60.9204 86.7354 60.9293 86.7216C60.9383 86.7079 60.9509 86.697 60.9658 86.69C61.2817 86.5745 61.6263 86.5626 61.9494 86.6562C62.2872 86.7061 62.5951 86.878 62.8147 87.1396C62.8204 87.1517 62.8233 87.165 62.8233 87.1784C62.8233 87.1919 62.8204 87.2051 62.8147 87.2173L62.4395 88.0826C62.4007 88.1923 62.3321 88.289 62.2413 88.3619C62.1505 88.4348 62.0412 88.4808 61.9257 88.4949ZM61.0942 86.8049V87.5418C61.0942 87.8798 61.243 88.1569 61.4762 88.2178L61.8784 88.3158C62.0339 88.353 62.2164 88.2212 62.311 88.0015L62.6659 87.1835C62.4625 86.9888 62.2062 86.8583 61.9291 86.8083C61.6554 86.7348 61.3667 86.7371 61.0942 86.8151V86.8049Z" fill="#263238"/>
<path d="M59.0156 87.7817C58.9372 87.781 58.859 87.772 58.7824 87.7547L58.2112 87.6161C58.0582 87.58 57.9216 87.4939 57.8231 87.3715C57.7245 87.249 57.6696 87.0972 57.667 86.9401V85.9835C57.6666 85.9661 57.6715 85.9489 57.6812 85.9344C57.6909 85.9199 57.7048 85.9087 57.7211 85.9024C57.7211 85.9024 58.1537 85.7402 59.0731 85.9599C59.5159 86.0436 59.932 86.2326 60.2865 86.5108C60.2989 86.5255 60.3057 86.544 60.3057 86.5632C60.3057 86.5824 60.2989 86.6009 60.2865 86.6156L59.8674 87.3119C59.7781 87.4571 59.6527 87.5767 59.5034 87.659C59.3542 87.7413 59.1861 87.7836 59.0156 87.7817ZM57.8259 86.041V86.9299C57.8258 87.0514 57.8668 87.1693 57.9423 87.2644C58.0178 87.3596 58.1233 87.4263 58.2416 87.4538L58.8128 87.589C58.9818 87.6305 59.1596 87.6167 59.3201 87.5498C59.4807 87.4829 59.6156 87.3664 59.7052 87.2172L60.0871 86.5852C59.7603 86.3579 59.3915 86.1981 59.0021 86.1153C58.6203 86.0044 58.2187 85.979 57.8259 86.041Z" fill="#263238"/>
<path d="M53.2387 86.7884C53.3217 87.0785 53.4612 87.3493 53.6491 87.5854C53.8371 87.8215 54.0698 88.0181 54.3339 88.164C55.0437 88.5493 55.5845 87.9578 55.5439 87.194C55.5033 86.518 55.0876 85.4769 54.3001 85.4059C54.1278 85.3937 53.9552 85.4244 53.7977 85.4952C53.6403 85.566 53.5028 85.6748 53.3976 85.8117C53.2925 85.9487 53.2229 86.1096 53.1952 86.28C53.1675 86.4505 53.1824 86.6251 53.2387 86.7884Z" fill="#E4897B"/>
<path d="M51.8834 111.783H38.5797C37.2655 111.783 36.2002 112.849 36.2002 114.163V136.356C36.2002 137.67 37.2655 138.735 38.5797 138.735H51.8834C53.1976 138.735 54.2629 137.67 54.2629 136.356V114.163C54.2629 112.849 53.1976 111.783 51.8834 111.783Z" fill="#4D96B9"/>
<path opacity="0.6" d="M51.8834 111.783H38.5797C37.2655 111.783 36.2002 112.849 36.2002 114.163V136.356C36.2002 137.67 37.2655 138.735 38.5797 138.735H51.8834C53.1976 138.735 54.2629 137.67 54.2629 136.356V114.163C54.2629 112.849 53.1976 111.783 51.8834 111.783Z" fill="white"/>
<path opacity="0.2" d="M50.5584 138.735H38.4952C37.8865 138.735 37.3028 138.494 36.8724 138.063C36.442 137.633 36.2002 137.049 36.2002 136.44V114.075C36.2002 113.774 36.2596 113.475 36.375 113.197C36.4903 112.919 36.6594 112.666 36.8726 112.453C37.0858 112.24 37.3388 112.072 37.6172 111.957C37.8956 111.842 38.194 111.783 38.4952 111.783H50.5584C49.9507 111.783 49.3678 112.025 48.938 112.454C48.5082 112.884 48.2668 113.467 48.2668 114.075V136.44C48.2668 137.048 48.5081 137.632 48.9378 138.062C49.3675 138.492 49.9503 138.734 50.5584 138.735Z" fill="black"/>
</svg>
