<svg width="175" height="175" viewBox="0 0 175 175" fill="none" xmlns="http://www.w3.org/2000/svg">
<path d="M96.474 16.457H23.352C21.9603 16.457 20.832 17.5853 20.832 18.977V120.96C20.832 122.352 21.9603 123.48 23.352 123.48H96.474C97.8658 123.48 98.994 122.352 98.994 120.96V18.977C98.994 17.5853 97.8658 16.457 96.474 16.457Z" fill="#F5F5F5"/>
<path d="M155.834 22.834L155.978 23.576L154.508 31.5385C153.987 31.9206 153.395 32.1925 152.766 32.3375C152.137 32.4826 151.485 32.4977 150.85 32.382L142.52 30.842C142.52 30.842 141.194 30.5445 141.565 28.826C141.565 28.826 141.628 27.9195 142.405 27.86C142.405 27.86 140.791 27.202 140.97 25.9595C141.148 24.717 142.065 24.731 142.065 24.731C142.065 24.731 140.553 24.3495 140.711 22.9495C140.868 21.5495 141.684 21.5495 141.684 21.5495C141.684 21.5495 139.934 21.1225 140.364 19.572C140.414 19.3661 140.504 19.172 140.63 19.0013C140.755 18.8305 140.914 18.6864 141.095 18.5773C141.277 18.4682 141.479 18.3963 141.688 18.3658C141.898 18.3353 142.112 18.3467 142.317 18.3995L148.243 19.495L153.437 20.454C154.028 20.5667 154.572 20.8535 154.999 21.2775C155.426 21.7016 155.717 22.2436 155.834 22.834Z" fill="#EBEBEB"/>
<path d="M154.349 20.7972C154.349 20.7972 152.526 19.1452 151.899 17.3497C151.609 16.4546 151.462 15.5189 151.465 14.5777C151.465 14.5077 151.584 13.8777 151.672 13.3667C151.705 13.1645 151.659 12.9572 151.544 12.7878C151.429 12.6184 151.253 12.4998 151.052 12.4567C150.424 12.3662 149.784 12.5088 149.253 12.8576C148.723 13.2064 148.338 13.7373 148.172 14.3502C147.472 16.7372 148.07 18.3647 148.091 19.0892L148.109 19.8172L154.349 20.7972Z" fill="#EBEBEB"/>
<path d="M153.221 32.7357L159.037 33.8105L161.222 21.9882L155.405 20.9133L153.221 32.7357Z" fill="#EBEBEB"/>
<path d="M153.223 32.7287C153.223 32.7287 153.688 30.0792 154.29 26.8172C154.892 23.5552 155.4 20.9057 155.4 20.9092C155.4 20.9127 154.934 23.5587 154.329 26.8242C153.723 30.0897 153.233 32.7322 153.223 32.7287Z" fill="#E0E0E0"/>
<path d="M159.04 33.8069C159.04 33.8069 159.506 31.1539 160.111 27.8919C160.717 24.6299 161.214 21.9839 161.224 21.9839C161.235 21.9839 160.759 24.6369 160.157 27.8989C159.555 31.1609 159.054 33.8069 159.04 33.8069Z" fill="#E0E0E0"/>
<path d="M156.96 23.996C156.922 24.2112 156.949 24.4327 157.037 24.6327C157.125 24.8328 157.27 25.0023 157.454 25.1199C157.638 25.2376 157.853 25.2981 158.071 25.2938C158.289 25.2896 158.502 25.2207 158.681 25.096C158.86 24.9712 158.999 24.7961 159.079 24.5928C159.159 24.3896 159.177 24.1671 159.13 23.9536C159.084 23.7402 158.975 23.5452 158.818 23.3932C158.662 23.2413 158.463 23.1393 158.248 23.1C158.105 23.0738 157.957 23.0762 157.815 23.1072C157.672 23.1381 157.537 23.1968 157.418 23.2801C157.298 23.3634 157.196 23.4695 157.117 23.5924C157.039 23.7152 156.985 23.8524 156.96 23.996Z" fill="white"/>
<path d="M146.863 19.25C146.863 19.25 147.504 19.3445 148.284 19.488C149.065 19.6315 149.702 19.761 149.684 19.7715C149.667 19.782 149.044 19.677 148.263 19.5335C147.483 19.39 146.863 19.25 146.863 19.25Z" fill="#E0E0E0"/>
<path d="M141.921 24.7661C141.921 24.7661 142.33 24.8186 142.831 24.9096C143.135 24.9587 143.436 25.0229 143.734 25.1021C143.734 25.1021 143.324 25.0496 142.824 24.9551C142.52 24.9082 142.218 24.8451 141.921 24.7661Z" fill="#E0E0E0"/>
<path d="M141.561 21.4971C141.561 21.4971 142.138 21.5811 142.849 21.7106C143.559 21.8401 144.133 21.9591 144.13 21.9731C144.126 21.9871 143.552 21.8891 142.842 21.7561C142.131 21.6231 141.557 21.5111 141.561 21.4971Z" fill="#E0E0E0"/>
<path d="M142.026 27.8076C142.026 27.8076 142.604 27.8916 143.314 28.0211C144.025 28.1506 144.599 28.2696 144.595 28.2801C144.592 28.2906 144.018 28.1996 143.307 28.0666C142.597 27.9336 142.023 27.8181 142.026 27.8076Z" fill="#E0E0E0"/>
<path d="M156.716 21.4971C156.716 21.4971 157.535 21.6266 158.536 21.8121C159.537 21.9976 160.349 22.1621 160.349 22.1621C160.349 22.1621 159.53 22.0361 158.529 21.8506C157.528 21.6651 156.716 21.5111 156.716 21.4971Z" fill="white"/>
<path d="M141.253 23.548C141.24 23.5276 141.23 23.5051 141.225 23.4815C141.207 23.4185 141.194 23.3541 141.186 23.289C141.177 23.1924 141.177 23.0951 141.186 22.9985C141.199 22.8794 141.225 22.762 141.263 22.6485C141.304 22.5357 141.357 22.4277 141.421 22.3265C141.473 22.2451 141.534 22.1699 141.603 22.1025C141.649 22.0554 141.699 22.0132 141.753 21.9765L141.813 21.938C141.813 21.938 141.736 22.0045 141.627 22.1235C141.563 22.1934 141.505 22.2696 141.456 22.351C141.395 22.4489 141.346 22.5534 141.309 22.6625C141.27 22.776 141.243 22.8933 141.228 23.0125C141.22 23.1068 141.22 23.2017 141.228 23.296C141.232 23.45 141.26 23.5445 141.253 23.548Z" fill="white"/>
<path d="M140.945 20.3948C140.895 20.3549 140.855 20.3032 140.829 20.2443C140.756 20.1078 140.719 19.9548 140.721 19.7998C140.726 19.6452 140.768 19.494 140.843 19.3588C140.872 19.3021 140.914 19.253 140.966 19.2153C140.966 19.2153 140.924 19.2748 140.875 19.3763C140.809 19.5084 140.773 19.6536 140.77 19.8014C140.767 19.9491 140.797 20.0956 140.857 20.2303C140.889 20.2837 140.918 20.3386 140.945 20.3948Z" fill="white"/>
<path d="M141.687 26.95C141.621 26.9148 141.564 26.8644 141.522 26.803C141.413 26.6607 141.355 26.4855 141.358 26.306C141.362 26.1276 141.424 25.9554 141.536 25.816C141.624 25.711 141.701 25.669 141.704 25.676C141.654 25.7254 141.607 25.778 141.564 25.8335C141.464 25.972 141.41 26.1386 141.41 26.3095C141.41 26.4805 141.464 26.6471 141.564 26.7855C141.624 26.8835 141.69 26.95 141.687 26.95Z" fill="white"/>
<path d="M142.351 29.9639C142.303 29.9203 142.265 29.8665 142.239 29.8064C142.17 29.6635 142.134 29.5068 142.134 29.3479C142.134 29.1891 142.17 29.0323 142.239 28.8894C142.266 28.8301 142.304 28.7765 142.351 28.7319C142.351 28.7319 142.313 28.7984 142.267 28.9034C142.208 29.0442 142.178 29.1953 142.178 29.3479C142.178 29.5006 142.208 29.6516 142.267 29.7924C142.313 29.9009 142.358 29.9604 142.351 29.9639Z" fill="white"/>
<path d="M148.235 17.1291C148.218 17.0874 148.205 17.044 148.196 16.9996C148.18 16.948 148.167 16.8954 148.158 16.8421C148.158 16.7791 148.13 16.7091 148.119 16.6286C148.091 16.4456 148.076 16.2608 148.074 16.0756C148.07 15.8416 148.084 15.6076 148.116 15.3756C148.151 15.1505 148.202 14.9282 148.27 14.7106C148.325 14.5321 148.393 14.3578 148.473 14.1891C148.504 14.1191 148.539 14.0561 148.567 14.0001L148.648 13.8601C148.671 13.8199 148.696 13.7813 148.725 13.7446C148.71 13.7878 148.69 13.8289 148.665 13.8671L148.592 14.0106C148.564 14.0666 148.532 14.1296 148.501 14.2031C148.438 14.3466 148.371 14.5251 148.308 14.7211C148.247 14.9387 148.198 15.1595 148.161 15.3826C148.131 15.6066 148.116 15.8322 148.116 16.0581C148.117 16.2418 148.129 16.4253 148.151 16.6076C148.151 16.6881 148.172 16.7581 148.182 16.8176C148.193 16.8771 148.203 16.9331 148.214 16.9751C148.227 17.0254 148.234 17.0771 148.235 17.1291Z" fill="white"/>
<path d="M146.825 95.6516L147.22 96.1031L149.362 102.148C149.156 102.617 148.856 103.038 148.48 103.387C148.104 103.735 147.661 104.003 147.178 104.174L140.857 106.4C140.857 106.4 139.832 106.722 139.405 105.399C139.405 105.399 139.09 104.752 139.601 104.402C139.601 104.402 138.232 104.591 137.851 103.667C137.469 102.743 138.117 102.393 138.117 102.393C138.117 102.393 136.927 102.743 136.482 101.693C136.038 100.643 136.594 100.345 136.594 100.345C136.594 100.345 135.219 100.748 134.907 99.5121C134.86 99.351 134.845 99.1821 134.863 99.0152C134.882 98.8483 134.933 98.6867 135.014 98.5398C135.096 98.3929 135.206 98.2637 135.337 98.1596C135.469 98.0555 135.62 97.9787 135.782 97.9336L140.276 96.3411L144.217 94.9411C144.673 94.7812 145.166 94.7635 145.631 94.8904C146.097 95.0173 146.513 95.2827 146.825 95.6516Z" fill="#EBEBEB"/>
<path d="M145.015 94.8503C145.015 94.8503 143.111 94.4408 141.959 93.4503C141.403 92.9523 140.931 92.3686 140.559 91.7213L140.209 90.8078C140.153 90.6554 140.04 90.5306 139.894 90.4595C139.748 90.3884 139.58 90.3765 139.425 90.4263C138.958 90.6157 138.576 90.9692 138.351 91.4203C138.126 91.8714 138.074 92.3892 138.204 92.8763C138.676 94.7873 139.723 95.6763 140.024 96.1593L140.325 96.6493L145.015 94.8503Z" fill="#EBEBEB"/>
<path d="M148.95 103.481L153.364 101.917L150.184 92.947L145.771 94.5117L148.95 103.481Z" fill="#EBEBEB"/>
<path d="M148.953 103.471C148.953 103.471 148.225 101.468 147.346 98.9905C146.468 96.5125 145.764 94.5 145.775 94.5C145.785 94.5 146.503 96.502 147.381 98.98C148.26 101.458 148.963 103.467 148.953 103.471Z" fill="#E0E0E0"/>
<path d="M153.366 101.906C153.366 101.906 152.638 99.904 151.759 97.426C150.881 94.948 150.177 92.9391 150.188 92.9356C150.198 92.9321 150.916 94.9375 151.794 97.4155C152.673 99.8935 153.376 101.903 153.366 101.906Z" fill="#E0E0E0"/>
<path d="M148.049 96.0016C148.108 96.1644 148.213 96.3063 148.352 96.4093C148.491 96.5123 148.657 96.5719 148.83 96.5805C149.002 96.5891 149.174 96.5463 149.322 96.4576C149.47 96.3689 149.589 96.2382 149.663 96.082C149.738 95.9258 149.764 95.7511 149.739 95.58C149.714 95.4089 149.639 95.2491 149.523 95.1207C149.407 94.9922 149.256 94.901 149.088 94.8584C148.921 94.8159 148.744 94.824 148.581 94.8816C148.363 94.96 148.184 95.1218 148.084 95.3317C147.984 95.5417 147.972 95.7825 148.049 96.0016Z" fill="white"/>
<path d="M139.254 96.7368C139.254 96.7368 139.73 96.5478 140.325 96.3378C140.92 96.1278 141.403 95.9633 141.406 95.9878C141.41 96.0123 140.93 96.1768 140.335 96.3868C139.74 96.5968 139.257 96.7438 139.254 96.7368Z" fill="#E0E0E0"/>
<path d="M138.054 102.48C138.054 102.48 138.355 102.354 138.736 102.221C138.965 102.132 139.199 102.056 139.436 101.994C139.213 102.093 138.986 102.18 138.754 102.256C138.525 102.343 138.291 102.418 138.054 102.48Z" fill="#E0E0E0"/>
<path d="M136.5 100.384C136.5 100.384 136.93 100.212 137.469 100.034C138.008 99.8554 138.446 99.6839 138.45 99.7049C138.453 99.7259 138.019 99.8764 137.48 100.055C136.941 100.233 136.518 100.394 136.5 100.384Z" fill="#E0E0E0"/>
<path d="M139.327 104.524C139.327 104.524 139.758 104.353 140.297 104.174C140.836 103.996 141.273 103.824 141.277 103.849C141.28 103.873 140.846 104.02 140.307 104.199C139.768 104.377 139.331 104.535 139.327 104.524Z" fill="#E0E0E0"/>
<path d="M146.905 94.388C146.905 94.388 147.514 94.15 148.277 93.8805C149.04 93.611 149.656 93.401 149.677 93.4115C149.698 93.422 149.068 93.646 148.305 93.9155C147.542 94.185 146.909 94.395 146.905 94.388Z" fill="white"/>
<path d="M137.112 101.91L137.066 101.875C137.03 101.839 136.996 101.801 136.965 101.759C136.919 101.697 136.881 101.63 136.849 101.56C136.81 101.474 136.781 101.383 136.762 101.29C136.745 101.198 136.738 101.104 136.741 101.01C136.747 100.934 136.759 100.857 136.779 100.783C136.792 100.732 136.809 100.683 136.832 100.636C136.832 100.604 136.856 100.587 136.86 100.587C136.863 100.587 136.832 100.664 136.804 100.786C136.788 100.86 136.779 100.935 136.776 101.01C136.775 101.102 136.782 101.193 136.797 101.283C136.816 101.373 136.843 101.461 136.877 101.546C136.909 101.615 136.945 101.681 136.986 101.745C137.059 101.85 137.115 101.906 137.112 101.91Z" fill="white"/>
<path d="M135.653 99.8692C135.604 99.8616 135.557 99.8424 135.516 99.8132C135.413 99.7481 135.327 99.6578 135.268 99.5507C135.207 99.444 135.176 99.3233 135.177 99.2007C135.172 99.1504 135.181 99.0998 135.201 99.0537C135.201 99.0537 135.201 99.1097 135.201 99.2007C135.21 99.3172 135.244 99.4305 135.299 99.5332C135.357 99.6352 135.436 99.7235 135.53 99.7922C135.604 99.8447 135.656 99.8657 135.653 99.8692Z" fill="white"/>
<path d="M138.754 104.066C138.695 104.067 138.636 104.053 138.583 104.027C138.451 103.973 138.342 103.877 138.271 103.754C138.204 103.629 138.179 103.485 138.201 103.345C138.207 103.287 138.228 103.231 138.261 103.184C138.261 103.184 138.24 103.247 138.229 103.348C138.213 103.482 138.24 103.618 138.306 103.737C138.373 103.853 138.473 103.947 138.593 104.006C138.688 104.048 138.754 104.059 138.754 104.066Z" fill="white"/>
<path d="M140.406 105.875C140.355 105.864 140.308 105.842 140.266 105.812C140.16 105.742 140.073 105.649 140.01 105.539C139.947 105.433 139.91 105.313 139.902 105.189C139.89 105.139 139.89 105.086 139.902 105.035C139.902 105.035 139.902 105.095 139.902 105.186C139.916 105.309 139.956 105.428 140.017 105.536C140.079 105.639 140.16 105.731 140.255 105.805C140.307 105.825 140.357 105.849 140.406 105.875Z" fill="white"/>
<path d="M139.362 94.7487L139.282 94.6717C139.251 94.6431 139.222 94.6127 139.194 94.5808C139.159 94.5423 139.121 94.5002 139.082 94.4512C138.992 94.3402 138.909 94.2233 138.834 94.1012C138.742 93.946 138.662 93.7847 138.592 93.6183C138.526 93.45 138.474 93.2768 138.435 93.1003C138.402 92.9563 138.379 92.8101 138.368 92.6628C138.368 92.6033 138.368 92.5437 138.368 92.4947C138.368 92.4457 138.368 92.4038 138.368 92.3688C138.365 92.3326 138.365 92.2964 138.368 92.2603C138.374 92.2962 138.374 92.3328 138.368 92.3688C138.368 92.4038 138.368 92.4457 138.368 92.4947C138.368 92.5437 138.368 92.5998 138.368 92.6628C138.368 92.7853 138.407 92.9323 138.442 93.0933C138.559 93.5838 138.776 94.0449 139.079 94.4478C139.117 94.5003 139.152 94.5423 139.184 94.5808L139.268 94.6788C139.302 94.6987 139.333 94.7221 139.362 94.7487Z" fill="white"/>
<path d="M92.1795 138.684H75.138C72.5652 138.684 70.4795 140.77 70.4795 143.343V160.384C70.4795 162.957 72.5652 165.043 75.138 165.043H92.1795C94.7523 165.043 96.838 162.957 96.838 160.384V143.343C96.838 140.77 94.7523 138.684 92.1795 138.684Z" fill="#E0E0E0"/>
<path d="M87.4432 138.684H70.4017C67.8288 138.684 65.7432 140.77 65.7432 143.343V160.384C65.7432 162.957 67.8288 165.043 70.4017 165.043H87.4432C90.016 165.043 92.1017 162.957 92.1017 160.384V143.343C92.1017 140.77 90.016 138.684 87.4432 138.684Z" fill="#EBEBEB"/>
<path d="M69.8242 152.243L72.4772 149.587L77.5977 154.14L86.1517 145.555L88.6157 148.208L77.2197 159.261L69.8242 152.243Z" fill="white"/>
<path d="M31.3145 144.34H20.181C17.6081 144.34 15.5225 146.426 15.5225 148.999V160.132C15.5225 162.705 17.6081 164.791 20.181 164.791H31.3145C33.8873 164.791 35.973 162.705 35.973 160.132V148.999C35.973 146.426 33.8873 144.34 31.3145 144.34Z" fill="#E0E0E0"/>
<path d="M27.6426 144.34H16.5091C13.9363 144.34 11.8506 146.426 11.8506 148.999V160.132C11.8506 162.705 13.9363 164.791 16.5091 164.791H27.6426C30.2154 164.791 32.3011 162.705 32.3011 160.132V148.999C32.3011 146.426 30.2154 144.34 27.6426 144.34Z" fill="#EBEBEB"/>
<path d="M15.0146 154.861L17.0761 152.8L21.0486 156.331L27.6811 149.671L29.5956 151.732L20.7546 160.304L15.0146 154.861Z" fill="white"/>
<path d="M156.418 164.189C156.418 164.238 124.918 164.28 86.1033 164.28C47.2883 164.28 15.7812 164.238 15.7812 164.189C15.7812 164.14 47.2603 164.098 86.1033 164.098C124.946 164.098 156.418 164.15 156.418 164.189Z" fill="#263238"/>
<path d="M142.324 154.161C142.324 154.161 140.864 144.134 140.987 138.296C141.109 132.458 140.987 125.895 140.987 125.895H141.659C141.659 125.895 141.204 137.48 141.701 144.466C142.198 151.452 143.5 154.161 143.5 154.161H142.331" fill="#263238"/>
<path d="M146.67 114.611C146.565 114.256 146.351 113.942 146.058 113.715C145.631 113.446 145.071 113.558 144.595 113.715C142.565 114.433 140.762 118.22 139.943 120.211L142.638 129.311C147.507 124.793 148.35 118.871 146.67 114.611Z" fill="#455A64"/>
<path d="M145.901 114.1C145.892 114.141 145.879 114.181 145.862 114.219L145.729 114.548C145.61 114.835 145.446 115.248 145.246 115.766C144.851 116.816 144.343 118.241 143.892 119.868C143.44 121.496 143.132 122.99 142.94 124.068C142.842 124.614 142.772 125.055 142.726 125.36C142.702 125.503 142.684 125.619 142.667 125.71C142.662 125.751 142.653 125.793 142.639 125.832C142.635 125.79 142.635 125.748 142.639 125.706C142.639 125.612 142.66 125.496 142.674 125.356C142.709 125.048 142.768 124.604 142.856 124.054C143.084 122.629 143.391 121.217 143.776 119.826C144.167 118.435 144.635 117.067 145.176 115.728C145.386 115.213 145.561 114.804 145.694 114.524C145.754 114.391 145.803 114.286 145.845 114.198C145.86 114.163 145.878 114.131 145.901 114.1Z" fill="#263238"/>
<path d="M141.442 131.488C140.215 130.79 139.188 129.787 138.46 128.577C137.731 127.367 137.327 125.991 137.284 124.579C137.189 122.563 137.809 120.586 138.509 118.692C138.552 118.521 138.653 118.369 138.796 118.265C138.912 118.221 139.037 118.208 139.16 118.226C139.282 118.245 139.398 118.294 139.496 118.37C141.33 119.42 142.443 121.412 143.038 123.442C143.461 124.787 143.601 126.205 143.451 127.607C143.22 129.082 142.519 130.443 141.452 131.488" fill="#455A64"/>
<path d="M141.441 131.488C141.437 131.447 141.437 131.406 141.441 131.366C141.441 131.275 141.441 131.159 141.441 131.016C141.441 130.715 141.441 130.277 141.403 129.735C141.331 128.327 141.175 126.924 140.934 125.535C140.654 123.907 140.314 122.451 140.062 121.398L139.765 120.148C139.733 120.012 139.705 119.9 139.688 119.798C139.672 119.767 139.659 119.734 139.649 119.7C139.667 119.737 139.681 119.776 139.691 119.816C139.716 119.903 139.747 120.015 139.789 120.148C139.873 120.442 139.985 120.848 140.139 121.387C140.409 122.437 140.762 123.893 141.046 125.528C141.287 126.916 141.433 128.319 141.483 129.728C141.483 130.267 141.483 130.708 141.483 131.009L141.466 131.359C141.463 131.403 141.455 131.446 141.441 131.488Z" fill="#263238"/>
<g opacity="0.3">
<path d="M141.442 131.488C140.215 130.79 139.188 129.787 138.46 128.577C137.731 127.367 137.327 125.991 137.284 124.579C137.189 122.563 137.809 120.586 138.509 118.692C138.552 118.521 138.653 118.369 138.796 118.265C138.912 118.221 139.037 118.208 139.16 118.226C139.282 118.245 139.398 118.294 139.496 118.37C141.33 119.42 142.443 121.412 143.038 123.442C143.461 124.787 143.601 126.205 143.451 127.607C143.22 129.082 142.519 130.443 141.452 131.488" fill="black"/>
</g>
<path d="M144.294 146.832C146.779 147.381 148.844 149.135 151.227 149.982C152.816 150.545 154.612 150.745 155.879 151.854C155.574 151.088 154.853 150.577 154.153 150.139C152.174 148.903 150.06 147.896 147.853 147.136C146.723 146.748 145.498 146.436 144.353 146.741" fill="#455A64"/>
<path d="M140.7 149.051C137.585 148.998 134.305 146.345 131.204 146.188C134.449 145.138 139.093 145.995 140.7 149.051Z" fill="#455A64"/>
<path d="M141.914 141.575C143.519 141.045 145.231 140.924 146.895 141.225C148.549 141.529 150.175 141.97 151.756 142.545C151.595 141.463 150.706 140.651 149.898 139.934C149.297 139.372 148.645 138.869 147.948 138.432C147.247 137.993 146.434 137.763 145.607 137.771C145.11 137.803 144.625 137.935 144.181 138.158C143.736 138.382 143.342 138.693 143.02 139.073C142.391 139.76 142.003 140.634 141.914 141.561" fill="#455A64"/>
<path d="M135.52 138.138C133.56 136.461 130.588 136.626 128.009 136.685C132.15 138.659 136.055 141.093 139.65 143.941C139.762 142.117 137.998 140.252 135.52 138.138Z" fill="#455A64"/>
<g opacity="0.3">
<path d="M135.52 138.138C133.56 136.461 130.588 136.626 128.009 136.685C132.15 138.659 136.055 141.093 139.65 143.941C139.762 142.117 137.998 140.252 135.52 138.138Z" fill="black"/>
</g>
<path d="M142.8 135.824C143.757 135.162 144.766 134.576 145.817 134.074C146.846 133.605 147.812 132.86 148.806 132.324C150.101 131.624 151.221 130.651 152.407 129.783C153.594 128.915 154.896 128.131 156.348 127.9C155.153 127.688 153.924 127.76 152.761 128.11C151.602 128.459 150.473 128.898 149.383 129.423C147.854 130.123 146.3 130.823 145.047 131.936C143.794 133.049 142.667 134.158 142.8 135.831" fill="#455A64"/>
<path d="M151.172 149.051L151.074 149.009L150.801 148.865C150.566 148.743 150.23 148.557 149.807 148.344C149.597 148.232 149.362 148.116 149.107 147.994C148.851 147.871 148.585 147.749 148.298 147.623C147.679 147.347 147.037 147.123 146.38 146.954C145.728 146.775 145.042 146.758 144.382 146.905C144.094 146.968 143.81 147.052 143.535 147.157C142.951 147.392 142.424 147.75 141.991 148.207C141.813 148.4 141.725 148.519 141.715 148.512C141.731 148.48 141.75 148.45 141.771 148.421C141.83 148.337 141.893 148.257 141.96 148.179C142.207 147.892 142.493 147.641 142.81 147.434C143.031 147.288 143.266 147.164 143.51 147.063C143.789 146.951 144.075 146.861 144.368 146.793C145.043 146.637 145.747 146.651 146.415 146.835C147.079 147.005 147.727 147.234 148.351 147.518C148.638 147.647 148.911 147.773 149.159 147.903C149.408 148.032 149.642 148.144 149.859 148.253C150.279 148.477 150.612 148.669 150.839 148.809L151.102 148.967C151.144 149.026 151.175 149.047 151.172 149.051Z" fill="#263238"/>
<path d="M138.372 147.507C138.44 147.515 138.506 147.534 138.568 147.563C138.742 147.626 138.911 147.7 139.076 147.784C140.171 148.341 141.078 149.211 141.68 150.283C141.77 150.444 141.849 150.611 141.918 150.783C141.948 150.844 141.971 150.909 141.984 150.976C141.967 150.976 141.851 150.72 141.61 150.325C141.296 149.812 140.919 149.342 140.486 148.925C140.051 148.514 139.563 148.161 139.037 147.875C138.635 147.63 138.365 147.525 138.372 147.507Z" fill="#263238"/>
<path d="M131.48 137.98L131.613 138.019L131.984 138.152L132.576 138.369C132.807 138.456 133.055 138.582 133.335 138.719C134.797 139.396 136.161 140.266 137.392 141.305C138.069 141.876 138.706 142.493 139.299 143.15C139.776 143.693 140.223 144.261 140.64 144.851C140.99 145.355 141.266 145.775 141.452 146.062L141.665 146.412C141.691 146.45 141.713 146.49 141.732 146.531C141.699 146.499 141.67 146.464 141.644 146.426C141.592 146.352 141.511 146.244 141.413 146.1C141.217 145.817 140.941 145.4 140.577 144.91C140.213 144.42 139.758 143.839 139.222 143.23C138.635 142.575 138.004 141.959 137.336 141.386C136.111 140.355 134.761 139.481 133.318 138.785C133.038 138.659 132.793 138.526 132.565 138.435L131.984 138.201L131.599 138.04C131.558 138.025 131.518 138.005 131.48 137.98Z" fill="#263238"/>
<path d="M146.586 139.825C146.503 139.824 146.419 139.813 146.338 139.793L146.054 139.741C145.942 139.72 145.813 139.716 145.669 139.702C144.931 139.639 144.19 139.786 143.531 140.126C143.169 140.314 142.84 140.559 142.554 140.85C142.316 141.083 142.106 141.343 141.928 141.624C141.766 141.885 141.624 142.158 141.501 142.439C141.51 142.356 141.531 142.275 141.564 142.198C141.643 141.983 141.742 141.777 141.861 141.582C142.035 141.289 142.243 141.019 142.481 140.777C142.77 140.474 143.107 140.221 143.478 140.028C144.154 139.675 144.92 139.535 145.676 139.625C145.82 139.646 145.953 139.65 146.065 139.678L146.348 139.751C146.43 139.767 146.51 139.792 146.586 139.825Z" fill="#263238"/>
<path d="M149.72 130.112C149.683 130.141 149.643 130.164 149.601 130.182L149.251 130.371C148.95 130.536 148.512 130.777 147.984 131.089C147.455 131.4 146.839 131.789 146.181 132.261C145.462 132.764 144.787 133.329 144.165 133.948C143.845 134.266 143.568 134.625 143.343 135.016C143.136 135.408 142.944 135.786 142.762 136.15C142.44 136.792 142.152 137.449 141.897 138.12C141.729 138.578 141.589 139.046 141.477 139.52C141.397 139.853 141.369 140.042 141.358 140.038C141.348 140.035 141.358 139.993 141.358 139.902C141.358 139.811 141.39 139.678 141.425 139.51C141.52 139.034 141.65 138.566 141.813 138.11C142.056 137.431 142.339 136.767 142.66 136.122C142.839 135.754 143.031 135.373 143.234 134.981C143.464 134.58 143.747 134.211 144.074 133.885C144.701 133.261 145.383 132.694 146.111 132.191C146.776 131.722 147.403 131.341 147.935 131.033C148.467 130.725 148.911 130.501 149.219 130.333L149.569 130.165C149.617 130.141 149.668 130.124 149.72 130.112Z" fill="#263238"/>
<path d="M140.983 139.545C140.955 139.459 140.934 139.372 140.92 139.282C140.885 139.09 140.84 138.848 140.784 138.561C140.636 137.771 140.44 136.99 140.196 136.223C139.944 135.46 139.647 134.712 139.307 133.983L139.002 133.315C138.961 133.236 138.928 133.153 138.904 133.066C138.959 133.138 139.005 133.215 139.041 133.297C139.125 133.448 139.24 133.672 139.391 133.948C140.124 135.394 140.626 136.946 140.878 138.547C140.927 138.855 140.962 139.104 140.98 139.275C140.99 139.365 140.991 139.455 140.983 139.545Z" fill="#263238"/>
<path d="M140.76 132.458C140.661 131.278 140.315 130.132 139.745 129.094C138.975 127.668 137.903 126.428 136.603 125.46C135.303 124.493 133.807 123.822 132.22 123.494L139.188 133.879L140.088 135.734C140.656 134.742 140.892 133.593 140.76 132.458Z" fill="#455A64"/>
<path d="M150.751 152.922H134.55V155.792H150.751V152.922Z" fill="#4D96B9"/>
<path d="M135.762 155.225L137.141 164.133H147.896L149.541 155.225H135.762Z" fill="#4D96B9"/>
<path d="M150.745 155.796C150.745 155.827 147.087 155.855 142.583 155.855C138.078 155.855 134.421 155.827 134.421 155.796C134.421 155.764 138.075 155.74 142.583 155.74C147.091 155.74 150.745 155.75 150.745 155.796Z" fill="#263238"/>
<path d="M50.0998 140.497H35.7288C33.156 140.497 31.0703 142.583 31.0703 145.156V159.527C31.0703 162.099 33.156 164.185 35.7288 164.185H50.0998C52.6726 164.185 54.7583 162.099 54.7583 159.527V145.156C54.7583 142.583 52.6726 140.497 50.0998 140.497Z" fill="#4D96B9"/>
<g opacity="0.3">
<path d="M50.0998 140.497H35.7288C33.156 140.497 31.0703 142.583 31.0703 145.156V159.527C31.0703 162.099 33.156 164.185 35.7288 164.185H50.0998C52.6726 164.185 54.7583 162.099 54.7583 159.527V145.156C54.7583 142.583 52.6726 140.497 50.0998 140.497Z" fill="black"/>
</g>
<path d="M45.8469 140.497H31.4759C28.9031 140.497 26.8174 142.583 26.8174 145.156V159.527C26.8174 162.099 28.9031 164.185 31.4759 164.185H45.8469C48.4197 164.185 50.5054 162.099 50.5054 159.527V145.156C50.5054 142.583 48.4197 140.497 45.8469 140.497Z" fill="#4D96B9"/>
<path d="M30.4814 152.684L32.8684 150.297L37.4709 154.389L45.1534 146.675L47.3689 149.058L37.1279 158.991L30.4814 152.684Z" fill="white"/>
<path d="M62.5386 149.034H53.1481C51.5572 149.034 50.2676 150.323 50.2676 151.914V161.305C50.2676 162.896 51.5572 164.185 53.1481 164.185H62.5386C64.1294 164.185 65.4191 162.896 65.4191 161.305V151.914C65.4191 150.323 64.1294 149.034 62.5386 149.034Z" fill="#263238"/>
<path d="M59.8189 149.034H50.4283C48.8375 149.034 47.5479 150.323 47.5479 151.914V161.305C47.5479 162.896 48.8375 164.185 50.4283 164.185H59.8189C61.4097 164.185 62.6993 162.896 62.6993 161.305V151.914C62.6993 150.323 61.4097 149.034 59.8189 149.034Z" fill="#455A64"/>
<path d="M49.8926 156.828L51.4186 155.302L54.3621 157.92L59.2796 152.985L60.6971 154.511L54.1451 160.863L49.8926 156.828Z" fill="white"/>
<path d="M99.9906 11.7808H26.8686C25.4769 11.7808 24.3486 12.909 24.3486 14.3008V116.284C24.3486 117.676 25.4769 118.804 26.8686 118.804H99.9906C101.382 118.804 102.511 117.676 102.511 116.284V14.3008C102.511 12.909 101.382 11.7808 99.9906 11.7808Z" fill="white"/>
<path d="M99.991 118.804C100.307 118.798 100.618 118.735 100.912 118.618C101.273 118.473 101.594 118.244 101.85 117.95C102.207 117.549 102.427 117.045 102.48 116.511C102.497 114.061 102.48 110.477 102.48 105.847C102.48 96.5859 102.462 83.1844 102.452 66.6259C102.452 58.3449 102.452 49.2764 102.452 39.5394C102.452 34.672 102.452 29.6414 102.452 24.4474V14.5599C102.499 13.8964 102.283 13.2409 101.85 12.7364C101.638 12.4843 101.378 12.2779 101.084 12.1298C100.791 11.9818 100.47 11.8952 100.142 11.8754C99.473 11.8754 98.7835 11.8754 98.101 11.8754H26.869C26.4878 11.8766 26.1121 11.9668 25.7718 12.1387C25.4316 12.3107 25.1361 12.5597 24.909 12.8659C24.6783 13.1745 24.5269 13.5351 24.468 13.9159C24.4299 14.302 24.4182 14.6902 24.433 15.0779V29.0499C24.433 35.2029 24.433 41.2614 24.433 47.2254C24.433 59.1254 24.433 70.6334 24.433 81.5814C24.433 92.5294 24.433 102.931 24.433 112.675V116.294C24.4386 116.878 24.6506 117.441 25.0315 117.883C25.4084 118.321 25.9301 118.61 26.5015 118.695C26.7884 118.728 27.0774 118.74 27.366 118.73H33.393H46.3885L85.6095 118.758L96.274 118.776H85.6095L46.3885 118.807H27.3555C27.06 118.818 26.7641 118.807 26.47 118.776C25.8612 118.681 25.306 118.373 24.9038 117.906C24.5017 117.439 24.279 116.844 24.2755 116.228C24.2755 115.031 24.2755 113.825 24.2755 112.609C24.2755 102.868 24.2755 92.4664 24.2755 81.5149C24.2755 70.5634 24.2755 59.0729 24.2755 47.1589V15.0499C24.2606 14.6528 24.2735 14.2552 24.314 13.8599C24.3789 13.455 24.541 13.0718 24.7865 12.7434C25.0303 12.4165 25.3472 12.1513 25.7118 11.969C26.0765 11.7867 26.4788 11.6923 26.8865 11.6934H98.1185C98.8185 11.6934 99.48 11.6934 100.17 11.6934C100.52 11.7162 100.862 11.8095 101.175 11.9676C101.488 12.1258 101.767 12.3456 101.993 12.6139C102.441 13.1536 102.661 13.8467 102.606 14.5459V16.5549C102.606 19.2219 102.606 21.8515 102.606 24.4439C102.606 29.6309 102.606 34.6615 102.606 39.5359C102.606 49.2729 102.606 58.3414 102.606 66.6224C102.606 83.1809 102.581 96.5824 102.574 105.843C102.574 110.477 102.574 114.068 102.546 116.511C102.492 117.054 102.265 117.564 101.899 117.967C101.638 118.258 101.312 118.483 100.947 118.622C100.723 118.711 100.487 118.765 100.247 118.783L99.991 118.804Z" fill="#263238"/>
<path d="M88.2173 43.6133H53.5673C52.3495 43.6133 51.3623 44.6005 51.3623 45.8183V46.0318C51.3623 47.2496 52.3495 48.2368 53.5673 48.2368H88.2173C89.4351 48.2368 90.4223 47.2496 90.4223 46.0318V45.8183C90.4223 44.6005 89.4351 43.6133 88.2173 43.6133Z" fill="#E0E0E0"/>
<path d="M45.3495 40.8555H38.2375C37.2439 40.8555 36.4385 41.6609 36.4385 42.6545V49.7665C36.4385 50.76 37.2439 51.5655 38.2375 51.5655H45.3495C46.343 51.5655 47.1485 50.76 47.1485 49.7665V42.6545C47.1485 41.6609 46.343 40.8555 45.3495 40.8555Z" fill="#4D96B9"/>
<path d="M38.0938 46.3644L39.1753 45.2864L41.2543 47.1379L44.7298 43.6484L45.7308 44.7264L41.1003 49.2169L38.0938 46.3644Z" fill="white"/>
<path d="M88.2173 60.228H53.5673C52.3495 60.228 51.3623 61.2152 51.3623 62.433V62.6465C51.3623 63.8643 52.3495 64.8515 53.5673 64.8515H88.2173C89.4351 64.8515 90.4223 63.8643 90.4223 62.6465V62.433C90.4223 61.2152 89.4351 60.228 88.2173 60.228Z" fill="#E0E0E0"/>
<path d="M45.3495 57.4731H38.2375C37.2439 57.4731 36.4385 58.2786 36.4385 59.2721V66.3841C36.4385 67.3777 37.2439 68.1831 38.2375 68.1831H45.3495C46.343 68.1831 47.1485 67.3777 47.1485 66.3841V59.2721C47.1485 58.2786 46.343 57.4731 45.3495 57.4731Z" fill="#4D96B9"/>
<path d="M38.0938 62.9826L39.1753 61.9046L41.2543 63.7526L44.7298 60.2666L45.7308 61.3446L41.1003 65.8351L38.0938 62.9826Z" fill="white"/>
<path d="M88.2173 76.8457H53.5673C52.3495 76.8457 51.3623 77.8329 51.3623 79.0507V79.2642C51.3623 80.482 52.3495 81.4692 53.5673 81.4692H88.2173C89.4351 81.4692 90.4223 80.482 90.4223 79.2642V79.0507C90.4223 77.8329 89.4351 76.8457 88.2173 76.8457Z" fill="#E0E0E0"/>
<path d="M45.3495 74.0879H38.2375C37.2439 74.0879 36.4385 74.8933 36.4385 75.8869V82.9989C36.4385 83.9925 37.2439 84.7979 38.2375 84.7979H45.3495C46.343 84.7979 47.1485 83.9925 47.1485 82.9989V75.8869C47.1485 74.8933 46.343 74.0879 45.3495 74.0879Z" fill="#4D96B9"/>
<path d="M38.0938 79.5969L39.1753 78.5189L41.2543 80.3704L44.7298 76.8809L45.7308 77.9589L41.1003 82.4494L38.0938 79.5969Z" fill="white"/>
<path d="M88.2173 93.4604H53.5673C52.3495 93.4604 51.3623 94.4477 51.3623 95.6654V95.879C51.3623 97.0967 52.3495 98.0839 53.5673 98.0839H88.2173C89.4351 98.0839 90.4223 97.0967 90.4223 95.879V95.6654C90.4223 94.4477 89.4351 93.4604 88.2173 93.4604Z" fill="#E0E0E0"/>
<path d="M45.3495 90.7061H38.2375C37.2439 90.7061 36.4385 91.5115 36.4385 92.505V99.6171C36.4385 100.611 37.2439 101.416 38.2375 101.416H45.3495C46.343 101.416 47.1485 100.611 47.1485 99.6171V92.505C47.1485 91.5115 46.343 90.7061 45.3495 90.7061Z" fill="#4D96B9"/>
<path d="M38.0938 96.2151L39.1753 95.1371L41.2543 96.9851L44.7298 93.4956L45.7308 94.5771L41.1003 99.0676L38.0938 96.2151Z" fill="white"/>
<path d="M46.2385 29.5261H44.5515L44.2365 30.3031H43.085L44.835 26.3096H45.948L47.7155 30.3031H46.55L46.2385 29.5261ZM45.9095 28.7001L45.395 27.4191L44.8805 28.7001H45.9095Z" fill="#263238"/>
<path d="M48.0479 26.3096H49.9344C51.2574 26.3096 52.1638 27.0796 52.1638 28.3081C52.1638 29.5366 51.2574 30.3031 49.9344 30.3031H48.0479V26.3096ZM49.8888 29.4001C50.1794 29.4001 50.458 29.2847 50.6635 29.0792C50.8689 28.8738 50.9844 28.5951 50.9844 28.3046C50.9844 28.014 50.8689 27.7354 50.6635 27.5299C50.458 27.3245 50.1794 27.2091 49.8888 27.2091H49.1888V29.4001H49.8888Z" fill="#263238"/>
<path d="M56.6714 26.3096L54.9494 30.3031H53.8364L52.1494 26.3096H53.3674L54.4524 28.9101L55.5584 26.3096H56.6714Z" fill="#263238"/>
<path d="M59.4437 29.5261H57.7497L57.4382 30.3031H56.2832L58.0332 26.3096H59.1497L60.9172 30.3031H59.7412L59.4437 29.5261ZM59.0937 28.6966L58.5792 27.4156L58.0997 28.7001L59.0937 28.6966Z" fill="#263238"/>
<path d="M65.0475 26.3096V30.3031H64.12L62.37 28.1751V30.3031H61.25V26.3096H62.181L63.931 28.4376V26.3096H65.0475Z" fill="#263238"/>
<path d="M66.6957 27.2056H65.4707V26.3096H69.0477V27.2056H67.8262V30.3031H66.6957V27.2056Z" fill="#263238"/>
<path d="M71.9416 29.5261H70.2546L69.9396 30.3031H68.7881L70.5381 26.3096H71.6511L73.4186 30.3031H72.2426L71.9416 29.5261ZM71.6126 28.7001L71.0981 27.4191L70.5871 28.7001H71.6126Z" fill="#263238"/>
<path d="M76.3698 28.2204H77.3673V29.8759C76.8716 30.2085 76.2877 30.3853 75.6908 30.3834C74.4203 30.3834 73.4893 29.5224 73.4893 28.3079C73.4893 27.0934 74.4203 26.2499 75.7118 26.2499C76.0394 26.2318 76.367 26.2878 76.67 26.4138C76.973 26.5399 77.2437 26.7327 77.4618 26.9779L76.7443 27.6289C76.6255 27.4879 76.4769 27.3749 76.3093 27.298C76.1417 27.2212 75.9591 27.1824 75.7748 27.1844C75.4721 27.1844 75.1819 27.3046 74.968 27.5186C74.754 27.7326 74.6338 28.0228 74.6338 28.3254C74.6338 28.628 74.754 28.9183 74.968 29.1322C75.1819 29.3462 75.4721 29.4664 75.7748 29.4664C75.9862 29.4675 76.1953 29.4221 76.3873 29.3334L76.3698 28.2204Z" fill="#263238"/>
<path d="M81.291 29.4316V30.3031H78.085V26.3096H81.235V27.1846H79.205V27.8566H80.976V28.7001H79.205V29.4316H81.291Z" fill="#263238"/>
<path d="M81.6367 29.9422L82.0077 29.1127C82.4033 29.362 82.8598 29.4976 83.3272 29.5047C83.7927 29.5047 83.9782 29.3717 83.9782 29.1792C83.9782 28.5457 81.7067 29.0077 81.7067 27.5237C81.7067 26.8237 82.2877 26.2322 83.4742 26.2322C83.979 26.225 84.4774 26.3454 84.9232 26.5822L84.5732 27.4187C84.2338 27.2276 83.8531 27.1219 83.4637 27.1107C82.9912 27.1107 82.8197 27.2717 82.8197 27.4607C82.8197 28.0732 85.0842 27.6147 85.0842 29.0882C85.0842 29.7882 84.5032 30.3762 83.3167 30.3762C82.7271 30.3917 82.145 30.2413 81.6367 29.9422Z" fill="#263238"/>
<path d="M116.274 151.827L115.973 159.726C115.973 159.726 123.9 162.687 123.991 164.15L108.647 164.119L108.612 151.788L116.274 151.827Z" fill="#263238"/>
<path d="M111.23 159.05C111.086 159.095 110.962 159.19 110.882 159.319C110.802 159.448 110.772 159.601 110.796 159.75C110.835 159.899 110.929 160.028 111.059 160.109C111.189 160.19 111.346 160.219 111.496 160.188C111.652 160.14 111.785 160.037 111.869 159.897C111.953 159.758 111.983 159.592 111.951 159.432C111.894 159.281 111.782 159.158 111.636 159.088C111.491 159.018 111.324 159.007 111.171 159.057" fill="#E0E0E0"/>
<path d="M108.647 164.118L108.693 162.876L123.393 163.373C123.393 163.373 124.093 163.67 123.998 164.15L108.647 164.118Z" fill="#455A64"/>
<path d="M116.221 159.649C116.221 159.722 115.843 159.757 115.475 159.999C115.108 160.24 114.908 160.552 114.838 160.52C114.768 160.489 114.884 160.058 115.335 159.778C115.787 159.498 116.238 159.579 116.221 159.649Z" fill="white"/>
<path d="M117.827 160.318C117.845 160.391 117.523 160.517 117.267 160.832C117.012 161.147 116.938 161.487 116.861 161.483C116.784 161.48 116.742 161.056 117.064 160.668C117.386 160.279 117.827 160.248 117.827 160.318Z" fill="white"/>
<path d="M118.738 162.246C118.671 162.246 118.566 161.896 118.762 161.476C118.958 161.056 119.305 160.905 119.336 160.968C119.368 161.031 119.151 161.248 118.986 161.588C118.822 161.927 118.815 162.239 118.738 162.246Z" fill="white"/>
<path d="M116.092 157.85C116.06 157.92 115.714 157.815 115.29 157.85C114.867 157.885 114.538 158.011 114.499 157.948C114.461 157.885 114.779 157.598 115.276 157.598C115.773 157.598 116.127 157.783 116.092 157.85Z" fill="white"/>
<path d="M97.4931 150.749L96.6636 160.3L98.1791 168C98.2051 168.132 98.2037 168.268 98.1749 168.399C98.1461 168.531 98.0906 168.655 98.0118 168.764C97.933 168.873 97.8326 168.964 97.7169 169.033C97.6012 169.101 97.4726 169.145 97.3391 169.162C97.1841 169.182 97.0265 169.165 96.8797 169.111C96.7329 169.058 96.6011 168.969 96.4956 168.854C95.1306 167.363 90.1256 161.854 90.2271 161.154C90.3426 160.349 90.4371 151.043 90.4371 151.043L97.4931 150.749Z" fill="#263238"/>
<path d="M97.3391 169.169L90.2691 160.524L90.2411 160.93C90.2196 161.279 90.3211 161.625 90.5281 161.906C91.0916 162.655 92.6841 164.706 96.4781 168.861C96.587 168.98 96.7235 169.07 96.8754 169.124C97.0274 169.177 97.1902 169.193 97.3496 169.169H97.3391Z" fill="#455A64"/>
<g opacity="0.6">
<path d="M92.4249 157.57C92.5365 157.664 92.6096 157.796 92.6303 157.941C92.6509 158.085 92.6177 158.232 92.5369 158.354C92.4468 158.469 92.3163 158.545 92.172 158.567C92.0276 158.589 91.8802 158.556 91.7599 158.473C91.642 158.372 91.5653 158.232 91.5447 158.078C91.524 157.924 91.5608 157.768 91.6479 157.64C91.7539 157.53 91.8984 157.465 92.0511 157.459C92.2037 157.454 92.3527 157.507 92.4669 157.609" fill="white"/>
</g>
<path d="M95.4241 164.85C95.6728 164.563 95.9732 164.326 96.3096 164.15C96.6679 164.031 97.046 163.984 97.4226 164.01C97.4226 163.985 97.3141 163.905 97.0936 163.859C96.802 163.808 96.5019 163.841 96.2284 163.955C95.955 164.068 95.7196 164.257 95.5501 164.5C95.4241 164.71 95.4031 164.85 95.4241 164.85Z" fill="white"/>
<path d="M96.0227 166.18C96.3066 166.047 96.5976 165.93 96.8942 165.83C97.2068 165.793 97.5211 165.773 97.8357 165.77C97.6944 165.67 97.5312 165.604 97.3596 165.579C97.188 165.554 97.0128 165.571 96.8487 165.627C96.2747 165.749 95.9737 166.152 96.0227 166.18Z" fill="white"/>
<path d="M94.2656 163.139C94.3041 163.188 94.8046 162.736 95.5711 162.498C96.3376 162.26 97.0026 162.323 97.0096 162.26C97.0166 162.197 96.3271 162.029 95.5081 162.299C95.007 162.421 94.5664 162.719 94.2656 163.139Z" fill="white"/>
<path d="M94.2764 160.219C94.2974 160.279 94.8364 160.093 95.5259 160.111C96.2154 160.128 96.7474 160.331 96.7719 160.272C96.3995 160.038 95.9708 159.91 95.5314 159.901C95.092 159.892 94.6583 160.002 94.2764 160.219Z" fill="white"/>
<path d="M94.4474 157.416C94.8713 157.307 95.3083 157.257 95.7459 157.269C96.4704 157.332 96.9569 157.721 96.9919 157.668C97.0269 157.616 96.9114 157.521 96.7014 157.381C96.4196 157.202 96.0994 157.091 95.7669 157.059C95.4354 157.024 95.1005 157.07 94.7904 157.192C94.5524 157.29 94.4334 157.395 94.4474 157.416Z" fill="white"/>
<path d="M95.7639 156.733C95.8026 156.621 95.8158 156.501 95.8024 156.383C95.7909 156.051 95.7136 155.723 95.5749 155.421C95.493 155.189 95.3367 154.991 95.1304 154.857C95.0585 154.821 94.9771 154.807 94.8972 154.817C94.8172 154.828 94.7423 154.863 94.6824 154.917C94.5734 155.032 94.5099 155.182 94.5039 155.34C94.5083 155.661 94.6231 155.971 94.8289 156.218C95.0348 156.465 95.3192 156.633 95.6344 156.695C95.948 156.747 96.27 156.705 96.5597 156.574C96.8494 156.443 97.0938 156.23 97.2619 155.96C97.304 155.891 97.3308 155.815 97.3405 155.735C97.3502 155.655 97.3425 155.574 97.3179 155.498C97.2858 155.423 97.2309 155.361 97.1611 155.319C97.0913 155.278 97.0102 155.259 96.9294 155.267C96.6908 155.303 96.4662 155.402 96.2784 155.554C96.005 155.743 95.7679 155.98 95.5784 156.254C95.5006 156.347 95.4433 156.455 95.4104 156.572C95.683 156.229 96.0036 155.928 96.3624 155.676C96.5298 155.551 96.726 155.471 96.9329 155.442C96.977 155.436 97.0218 155.445 97.0603 155.467C97.0989 155.489 97.1291 155.523 97.1464 155.564C97.1584 155.615 97.16 155.668 97.151 155.72C97.142 155.772 97.1225 155.821 97.0939 155.865C96.9417 156.094 96.7268 156.275 96.4749 156.385C96.2229 156.496 95.9446 156.532 95.6729 156.488C95.4055 156.437 95.1634 156.297 94.986 156.09C94.8087 155.883 94.7066 155.623 94.6964 155.351C94.6977 155.241 94.7373 155.136 94.8084 155.053C94.8401 155.021 94.8815 155 94.9262 154.993C94.971 154.986 95.0169 154.993 95.0569 155.015C95.2301 155.128 95.3644 155.292 95.4419 155.484C95.6224 155.878 95.7314 156.301 95.7639 156.733Z" fill="white"/>
<path d="M123.662 85.2143C124.403 88.4876 124.653 91.8529 124.404 95.1998C124.25 97.3278 117.075 156.065 117.075 156.065H107.401L110.121 100.859L109.33 101.031C109.33 101.031 104.048 124.575 103.618 128.387C103.233 131.813 98.7772 156.709 98.7772 156.709L89.9502 156.8L92.7502 123.9L96.0367 92.3053L97.3002 83.0933L123.662 85.2143Z" fill="#263238"/>
<path d="M109.771 97.1142C109.771 97.1142 109.788 97.1422 109.834 97.1807C109.903 97.2325 109.983 97.2695 110.068 97.2892C110.227 97.3233 110.392 97.3215 110.551 97.284C110.71 97.2465 110.858 97.1741 110.985 97.0722C111.168 96.9164 111.317 96.7256 111.425 96.511C111.532 96.2963 111.596 96.0623 111.612 95.8227C111.682 95.2977 111.692 94.7342 111.731 94.1357C111.797 92.9387 111.846 91.8572 111.871 91.0732C111.9 90.6503 111.9 90.2257 111.871 89.8027C111.792 90.2197 111.746 90.6421 111.734 91.0662C111.675 91.8502 111.605 92.9282 111.538 94.1252C111.5 94.7202 111.493 95.2977 111.437 95.7982C111.416 96.2425 111.224 96.6615 110.901 96.9672C110.789 97.0635 110.659 97.1356 110.518 97.179C110.377 97.2224 110.229 97.2361 110.082 97.2192C109.975 97.1941 109.871 97.1589 109.771 97.1142Z" fill="#455A64"/>
<path d="M95.5498 91.4339C95.6331 91.4822 95.7244 91.5154 95.8193 91.5319C96.0728 91.5979 96.3316 91.6412 96.5928 91.6614C97.4608 91.7357 98.3342 91.6053 99.1427 91.2807C99.9512 90.9561 100.672 90.4464 101.248 89.7924C101.421 89.5955 101.578 89.3848 101.717 89.1624C101.775 89.0824 101.82 88.9939 101.85 88.8999C101.822 88.8999 101.605 89.2289 101.15 89.6979C100.565 90.3082 99.8563 90.7868 99.0717 91.1019C98.2872 91.4169 97.4445 91.5611 96.5998 91.5249C95.9418 91.5039 95.5498 91.4024 95.5498 91.4339Z" fill="#455A64"/>
<path d="M119.809 88.9768C119.806 89.3057 119.856 89.6329 119.956 89.9463C120.364 91.4966 121.275 92.8678 122.546 93.8453C122.798 94.0589 123.081 94.2324 123.386 94.3598C123.428 94.3073 122.094 93.5478 121.086 92.0078C120.078 90.4678 119.872 88.9558 119.809 88.9768Z" fill="#455A64"/>
<path d="M149.359 72.3591L151.578 73.0591L155.61 70.8296L157.899 77.2031L152.411 78.5086L148.253 78.0501L149.359 72.3591Z" fill="#AE7461"/>
<path d="M123.55 46.7739C123.55 46.7739 125.818 48.1354 127.697 52.7624C131.386 61.8624 133.707 66.7624 133.707 66.7624L150.633 72.0999L149.278 78.8899C149.278 78.8899 132.107 76.4959 129.808 75.6349C126.658 74.4554 124.327 68.2499 124.327 68.2499L123.55 46.7739Z" fill="#E0E0E0"/>
<path d="M118.882 26.3864C119.316 26.4024 119.742 26.2595 120.079 25.9845C120.416 25.7094 120.641 25.321 120.712 24.892C120.783 24.463 120.696 24.0227 120.466 23.6535C120.236 23.2844 119.879 23.0117 119.463 22.8864C119.721 22.5935 119.881 22.2264 119.919 21.8374C119.957 21.4485 119.872 21.0574 119.675 20.7198C119.478 20.3821 119.18 20.1152 118.823 19.9569C118.465 19.7986 118.067 19.7569 117.685 19.8379C117.649 19.4548 117.515 19.0874 117.295 18.7716C117.076 18.4557 116.778 18.2023 116.431 18.0359C116.084 17.8694 115.7 17.7958 115.316 17.8221C114.932 17.8484 114.562 17.9737 114.241 18.1859C113.79 17.8564 113.242 17.6867 112.684 17.7038C112.126 17.7209 111.59 17.9239 111.161 18.2804C110.784 18.2335 110.402 18.3084 110.072 18.494C109.741 18.6795 109.478 18.9661 109.321 19.3118C109.165 19.6575 109.123 20.0442 109.202 20.4153C109.281 20.7864 109.477 21.1225 109.761 21.3744" fill="#263238"/>
<path d="M110.866 20.0516H111.258C113.161 19.9555 115.031 20.5801 116.494 21.8008C117.958 23.0216 118.907 24.749 119.154 26.6386C119.63 30.2856 120.109 34.3176 120.183 36.2811C120.337 40.3481 116.301 41.1811 116.301 41.1811L116.889 46.0461L107.009 46.2316L105.259 28.5636C104.681 24.3461 106.648 20.5101 110.866 20.0516Z" fill="#AE7461"/>
<path d="M116.337 41.1597C114.454 41.2504 112.586 40.8011 110.95 39.8647C110.95 39.8647 112.35 42.7277 116.386 42.1607L116.337 41.1597Z" fill="#6F4439"/>
<path d="M117.692 30.3731C117.701 30.5241 117.651 30.6728 117.553 30.7874C117.454 30.9019 117.314 30.9731 117.163 30.9856C117.016 31.0013 116.87 30.9581 116.755 30.8656C116.64 30.7731 116.566 30.6387 116.551 30.4921C116.543 30.341 116.594 30.1928 116.693 30.0785C116.792 29.9643 116.932 29.893 117.083 29.8796C117.155 29.8719 117.228 29.8785 117.298 29.8991C117.368 29.9197 117.433 29.954 117.49 29.9998C117.546 30.0457 117.593 30.1023 117.628 30.1663C117.663 30.2304 117.684 30.3007 117.692 30.3731Z" fill="#263238"/>
<path d="M118.381 28.6543C118.311 28.7348 117.856 28.4303 117.229 28.4618C116.603 28.4933 116.179 28.8293 116.092 28.7593C116.004 28.6893 116.123 28.5843 116.316 28.4303C116.577 28.2298 116.893 28.1149 117.222 28.1013C117.547 28.0839 117.869 28.1697 118.143 28.3463C118.342 28.4863 118.412 28.6193 118.381 28.6543Z" fill="#263238"/>
<path d="M112 30.5305C112.006 30.6066 111.996 30.6832 111.972 30.7556C111.948 30.8281 111.91 30.8951 111.86 30.9527C111.81 31.0103 111.749 31.0574 111.68 31.0913C111.612 31.1252 111.537 31.1451 111.461 31.15C111.387 31.1597 111.313 31.1546 111.241 31.1349C111.17 31.1152 111.103 31.0813 111.045 31.0353C110.987 30.9892 110.938 30.932 110.903 30.8669C110.867 30.8018 110.845 30.7303 110.838 30.6565C110.829 30.5057 110.879 30.3575 110.978 30.2431C111.077 30.1288 111.216 30.0574 111.366 30.044C111.44 30.0327 111.515 30.0364 111.588 30.055C111.66 30.0735 111.728 30.1066 111.787 30.152C111.846 30.1975 111.896 30.2544 111.932 30.3195C111.969 30.3845 111.992 30.4563 112 30.5305Z" fill="#263238"/>
<path d="M112.245 29.0777C112.175 29.1547 111.72 28.8502 111.097 28.8852C110.474 28.9202 110.03 29.2352 109.956 29.1792C109.883 29.1232 109.988 29.0077 110.18 28.8502C110.441 28.6496 110.758 28.5347 111.087 28.5212C111.412 28.504 111.735 28.5911 112.007 28.7697C112.207 28.9062 112.277 29.0497 112.245 29.0777Z" fill="#263238"/>
<path d="M114.741 33.6001C115.066 33.4807 115.405 33.4019 115.749 33.3656C115.906 33.3411 116.057 33.3026 116.078 33.1941C116.082 33.0284 116.037 32.8652 115.948 32.7251C115.777 32.3471 115.598 31.9481 115.416 31.5351C114.674 29.8376 114.128 28.4376 114.198 28.4096C114.268 28.3816 114.923 29.7326 115.665 31.4301C115.843 31.8466 116.015 32.2456 116.176 32.6271C116.287 32.8147 116.328 33.0353 116.291 33.2501C116.271 33.3076 116.238 33.3596 116.194 33.4021C116.15 33.4446 116.097 33.4765 116.039 33.4951C115.952 33.5241 115.862 33.5417 115.77 33.5476C115.431 33.6089 115.085 33.6266 114.741 33.6001Z" fill="#263238"/>
<path d="M112.668 26.6452C112.591 26.8097 112.049 26.6627 111.387 26.6732C110.726 26.6837 110.18 26.8237 110.11 26.6732C110.082 26.5962 110.19 26.4457 110.421 26.3232C110.72 26.1535 111.058 26.0642 111.401 26.0642C111.739 26.059 112.073 26.1435 112.367 26.3092C112.595 26.4212 112.7 26.5682 112.668 26.6452Z" fill="#263238"/>
<path d="M118.301 26.0783C118.175 26.2253 117.653 26.1028 117.03 26.1273C116.407 26.1518 115.893 26.2813 115.763 26.1273C115.707 26.0573 115.781 25.9103 116.005 25.7773C116.313 25.5932 116.664 25.4953 117.023 25.4938C117.38 25.4774 117.734 25.5585 118.049 25.7283C118.259 25.8613 118.336 26.0048 118.301 26.0783Z" fill="#263238"/>
<path d="M118.671 24.7763C118.671 24.7763 117.47 22.2843 116.221 21.7523C114.698 21.1083 114.142 22.7708 112.721 22.4523C111.3 22.1338 109.83 21.5073 108.437 22.6728C106.914 23.9503 107.698 24.7518 107.688 26.5613C107.656 33.8938 106.424 36.0288 105.871 32.6023C105.812 32.2278 104.748 31.9793 104.513 30.3938C104.212 28.3358 104.006 25.8438 104.394 24.3388C104.723 23.0823 105.385 22.1933 106.603 21.1888C108.524 19.6033 111.265 19.4388 113.137 19.5298C115.01 19.6208 118.681 21.5808 118.671 24.7763Z" fill="#263238"/>
<path d="M106.106 32.4729C106.094 32.3238 106.051 32.1788 105.981 32.0466C105.911 31.9144 105.815 31.7978 105.698 31.7039C105.582 31.61 105.448 31.5407 105.303 31.5003C105.159 31.4598 105.009 31.4489 104.86 31.4684C104.104 31.5769 103.285 32.0494 103.411 33.6139C103.639 36.3894 106.376 35.5879 106.376 35.5109C106.376 35.4339 106.211 33.6314 106.106 32.4729Z" fill="#AE7461"/>
<path d="M105.7 34.5135C105.7 34.5135 105.654 34.552 105.577 34.5975C105.469 34.6518 105.344 34.6642 105.227 34.6325C104.923 34.5485 104.639 34.104 104.583 33.607C104.558 33.3706 104.585 33.1314 104.664 32.907C104.683 32.8181 104.723 32.735 104.781 32.6649C104.839 32.5948 104.913 32.5398 104.996 32.5045C105.051 32.4859 105.11 32.4864 105.164 32.5062C105.218 32.5259 105.264 32.5636 105.294 32.613C105.336 32.69 105.322 32.746 105.339 32.7495C105.357 32.753 105.395 32.697 105.364 32.585C105.339 32.5187 105.295 32.4614 105.238 32.4205C105.198 32.3942 105.153 32.3762 105.106 32.3678C105.059 32.3594 105.011 32.3606 104.965 32.3715C104.853 32.4034 104.751 32.4636 104.668 32.5463C104.586 32.6291 104.527 32.7316 104.496 32.844C104.397 33.0941 104.361 33.3644 104.391 33.6315C104.454 34.188 104.783 34.6815 105.196 34.7725C105.272 34.7883 105.351 34.7864 105.426 34.767C105.501 34.7476 105.571 34.7112 105.63 34.6605C105.7 34.5835 105.7 34.5205 105.7 34.5135Z" fill="#6F4439"/>
<path d="M105.893 27.0863C106.249 27.3457 106.664 27.5118 107.1 27.5693C107.32 27.591 107.54 27.5319 107.719 27.403C107.898 27.2742 108.024 27.0844 108.073 26.8693C108.098 26.6733 108.038 26.4528 108.157 26.2953C108.276 26.1378 108.584 26.1518 108.819 26.1658C109.631 26.2113 110.53 25.2698 110.695 24.4753C110.809 24.6195 110.973 24.7152 111.155 24.7431C111.337 24.7711 111.523 24.7291 111.675 24.6258C111.923 24.4557 112.14 24.2437 112.315 23.9993C112.416 23.8428 112.554 23.7133 112.716 23.6218C112.878 23.5304 113.06 23.4797 113.246 23.4743C113.445 23.5315 113.649 23.5656 113.855 23.5758C114.205 23.5268 114.377 23.0893 114.415 22.7253C114.454 22.3613 114.475 21.9343 114.765 21.7243C115.056 21.5143 115.42 21.6123 115.759 21.6473C116.099 21.6823 116.526 21.5808 116.596 21.2448C116.606 21.156 116.599 21.0661 116.573 20.9805C116.547 20.895 116.503 20.8157 116.445 20.7478C116.203 20.4239 115.858 20.1912 115.467 20.0871C115.076 19.983 114.661 20.0135 114.289 20.1738C114.124 19.7224 113.829 19.3298 113.441 19.0449C113.054 18.7599 112.591 18.5953 112.111 18.5714C111.631 18.5475 111.154 18.6655 110.741 18.9106C110.327 19.1557 109.995 19.5171 109.785 19.9498C109.476 19.6972 109.111 19.5228 108.721 19.4413C108.331 19.3597 107.926 19.3734 107.542 19.4812C107.159 19.5891 106.806 19.7878 106.515 20.0607C106.225 20.3336 106.004 20.6725 105.872 21.0488C105.527 20.977 105.169 21.008 104.841 21.1381C104.514 21.2681 104.232 21.4914 104.03 21.7803C103.829 22.0691 103.716 22.4108 103.707 22.763C103.698 23.1152 103.792 23.4623 103.978 23.7613C103.727 23.9018 103.515 24.104 103.363 24.3489C103.211 24.5939 103.124 24.8734 103.11 25.1613C103.11 25.7353 103.716 26.2813 104.265 26.1028C104.207 26.22 104.171 26.3476 104.162 26.4784C104.152 26.6092 104.169 26.7406 104.21 26.8651C104.251 26.9896 104.317 27.1047 104.402 27.2039C104.488 27.3031 104.593 27.3844 104.71 27.4433C104.827 27.5021 104.955 27.5373 105.085 27.5468C105.216 27.5563 105.348 27.5399 105.472 27.4986C105.597 27.4574 105.712 27.392 105.811 27.3062C105.91 27.2204 105.992 27.116 106.05 26.9988" fill="#263238"/>
<path d="M114.538 21C114.538 21 114.538 21.0175 114.538 21.0525C114.538 21.0875 114.538 21.1365 114.538 21.203C114.508 21.3919 114.449 21.575 114.363 21.7455C114.225 22.0209 114.025 22.2605 113.778 22.4455C113.456 22.6929 113.061 22.827 112.655 22.827L112.7 22.75C112.796 22.999 112.79 23.2756 112.683 23.52C112.569 23.7725 112.42 24.0081 112.242 24.22C112.156 24.347 112.056 24.4643 111.944 24.57C111.819 24.6667 111.671 24.7305 111.514 24.7555C111.351 24.7872 111.183 24.7786 111.024 24.7304C110.866 24.6822 110.721 24.5959 110.604 24.479L110.705 24.444C110.681 24.7321 110.597 25.0119 110.458 25.2656C110.32 25.5193 110.13 25.7414 109.9 25.9175C109.646 26.128 109.331 26.2507 109.001 26.2675C108.692 26.2685 108.386 26.2176 108.094 26.117L108.164 26.0785C108.031 26.4167 107.816 26.7162 107.538 26.95C107.412 27.0695 107.26 27.1594 107.095 27.2133C106.93 27.2672 106.755 27.2836 106.582 27.2615C106.29 27.2128 106.018 27.0805 105.799 26.8805C105.581 26.6804 105.425 26.4213 105.35 26.1345L105.413 26.1625C105.13 26.3324 104.795 26.398 104.468 26.348C104.223 26.3163 103.989 26.2263 103.786 26.0855C103.658 25.9965 103.547 25.8864 103.457 25.76C103.425 25.7172 103.399 25.6701 103.38 25.62C103.498 25.7871 103.645 25.9317 103.814 26.047C104.013 26.1768 104.239 26.2572 104.475 26.2815C104.786 26.3231 105.102 26.2551 105.368 26.089L105.42 26.0575V26.117C105.493 26.3861 105.642 26.6284 105.85 26.8147C106.057 27.001 106.314 27.1234 106.589 27.167C106.747 27.1868 106.907 27.1706 107.057 27.1197C107.207 27.0688 107.344 26.9844 107.457 26.873C107.716 26.6437 107.915 26.3539 108.035 26.0295L108.052 25.977H108.108C108.387 26.075 108.681 26.1247 108.976 26.124C109.281 26.1097 109.572 25.9967 109.806 25.802C110.025 25.6355 110.206 25.4248 110.338 25.1836C110.47 24.9424 110.55 24.6761 110.572 24.402V24.2725L110.667 24.367C110.77 24.4701 110.898 24.5463 111.037 24.589C111.177 24.6317 111.325 24.6396 111.468 24.612C111.608 24.5907 111.74 24.5354 111.853 24.451C111.956 24.3559 112.049 24.2503 112.13 24.136C112.307 23.9332 112.453 23.7056 112.564 23.4605C112.615 23.3514 112.643 23.2333 112.647 23.113C112.652 22.9927 112.632 22.8728 112.588 22.7605L112.564 22.694H112.634C113.022 22.6981 113.4 22.5751 113.712 22.344C113.957 22.1769 114.162 21.9568 114.31 21.7C114.426 21.4815 114.503 21.2447 114.538 21Z" fill="#455A64"/>
<path d="M114.713 35.7419C114.692 35.6369 114.013 35.8154 113.383 35.3639C112.753 34.9124 112.634 34.1704 112.54 34.1914C112.445 34.2124 112.449 34.3839 112.522 34.6919C112.622 35.0884 112.857 35.4376 113.187 35.6789C113.505 35.9102 113.9 36.0093 114.29 35.9554C114.58 35.9064 114.727 35.7874 114.713 35.7419Z" fill="#263238"/>
<path d="M131.208 61.4391C131.145 61.2186 127.526 51.3696 126.374 49.2136C124.992 46.6341 122.087 45.4931 120.284 45.3636C118.482 45.2341 99.1967 46.7916 99.1967 46.7916C99.1967 46.7916 93.4357 48.0796 92.7007 53.0356C91.8537 58.7406 91.1152 71.7991 91.1152 71.7991L99.8932 67.2981L101.031 64.4351L119.196 68.4881L123.63 61.9501L131.208 61.4391Z" fill="#E0E0E0"/>
<path d="M97.9233 47.3688L105.455 44.0473L106.299 40.7993L115.094 44.9573L116.935 42.9203L117.709 45.2163L119.634 45.8463L124.138 53.7668V70.6438L125.048 85.2038L124.058 87.4998L115.99 88.6898C115.108 88.8193 114.212 88.8193 113.33 88.6898L96.9503 86.0193L96.5303 81.1998L98.2803 67.9383L97.9233 47.3688Z" fill="#E0E0E0"/>
<path d="M106.298 40.7993C106.298 40.7993 107.282 41.0828 109.798 42.4303C112.273 43.7498 115.083 44.9573 115.083 44.9573L114.87 48.9263L105.511 44.2293" fill="#E0E0E0"/>
<path d="M116.935 42.9204L115.094 44.9574L116.077 49.2134L117.719 45.3669" fill="#E0E0E0"/>
<g opacity="0.3">
<path d="M115.129 45.395C115.21 45.458 115.721 50.295 115.721 50.295L106.341 44.625L114.881 48.9125L115.129 45.395Z" fill="black"/>
</g>
<path d="M115.067 63.5005C114.923 59.7905 115.508 50.3265 115.508 50.3265L116.733 50.127C118.292 56.8649 119.345 63.7102 119.883 70.6055C120.233 75.1555 120.233 80.458 120.233 80.458L117.783 85.729L115.067 80.479C115.067 80.479 115.238 68.0119 115.067 63.5005Z" fill="#455A64"/>
<path d="M97.3631 47.9497C97.3456 47.9672 97.6151 48.1772 97.9966 48.5692C98.9878 49.5954 99.6758 50.8758 99.9846 52.2687C100.1 52.8007 100.128 53.1402 100.149 53.1367C100.162 53.0579 100.162 52.9775 100.149 52.8987C100.136 52.6814 100.109 52.4651 100.069 52.2512C99.9438 51.5407 99.7076 50.8545 99.3686 50.2177C99.0267 49.5817 98.5874 49.003 98.0666 48.5027C97.9111 48.3512 97.745 48.2108 97.5696 48.0827C97.5061 48.0307 97.4368 47.986 97.3631 47.9497Z" fill="#263238"/>
<path d="M115.066 46.8543L115.903 46.5288L116.697 47.8903L116.841 50.1268L115.721 50.3088L114.881 48.9263L115.066 46.8543Z" fill="#455A64"/>
<path d="M124.124 53.5112C124.089 53.5112 124.058 58.3552 124.058 64.3262C124.058 70.2972 124.089 75.1447 124.124 75.1447C124.159 75.1447 124.191 70.3042 124.191 64.3262C124.191 58.3482 124.159 53.5112 124.124 53.5112Z" fill="#263238"/>
<path d="M115.007 44.9224C115.152 45.1997 115.311 45.4695 115.483 45.7309C115.866 46.3778 116.217 47.0437 116.533 47.7259C116.564 47.7924 116.596 47.8554 116.624 47.9184L116.683 48.0444L116.743 47.9184C117.048 47.2757 117.309 46.6126 117.523 45.9339C117.604 45.6784 117.663 45.4684 117.698 45.3214C117.727 45.2477 117.741 45.1693 117.74 45.0904C117.723 45.0904 117.625 45.4019 117.439 45.9059C117.201 46.5713 116.928 47.2243 116.624 47.8624H116.743L116.652 47.6699C116.33 46.9829 115.962 46.3187 115.549 45.6819C115.388 45.4404 115.252 45.2479 115.154 45.1149C115.056 44.9819 115.014 44.9154 115.007 44.9224Z" fill="#263238"/>
<path d="M105.455 44.0474C105.495 44.0778 105.539 44.1036 105.585 44.1244L105.963 44.3239L107.363 45.0484C108.542 45.6609 110.163 46.5359 111.948 47.4984C113.036 48.0794 114.069 48.6184 114.968 49.0664L115.052 49.1084V48.9999C115.052 47.8344 115.073 46.8544 115.08 46.1439C115.08 45.7939 115.08 45.5419 115.08 45.3389C115.087 45.2433 115.087 45.1474 115.08 45.0519C115.064 45.1466 115.055 45.2427 115.056 45.3389C115.056 45.5384 115.038 45.8079 115.024 46.1404C115.007 46.8404 114.982 47.8344 114.951 48.9964L115.035 48.9474C114.142 48.4889 113.113 47.9464 112.021 47.3654C110.233 46.4099 108.609 45.5489 107.419 44.9539C106.824 44.6599 106.337 44.4254 106.001 44.2539L105.609 44.0789C105.56 44.0608 105.508 44.0502 105.455 44.0474Z" fill="#263238"/>
<path d="M122.994 47.1099C122.973 47.1099 123.12 47.3689 123.313 47.8099C123.557 48.3627 123.736 48.9417 123.848 49.5354C123.956 50.131 123.993 50.7371 123.96 51.3414C123.936 51.8069 123.887 52.0904 123.908 52.0939C123.937 52.0319 123.957 51.9658 123.967 51.8979C124.005 51.7164 124.033 51.533 124.051 51.3484C124.177 50.1178 123.948 48.8768 123.393 47.7714C123.313 47.604 123.22 47.4426 123.117 47.2884C123.043 47.1624 123.001 47.1029 122.994 47.1099Z" fill="#263238"/>
<path d="M115.927 50.4525C115.927 50.484 116.158 50.3825 116.4 50.2285C116.641 50.0745 116.827 49.9275 116.806 49.896C116.632 49.9331 116.469 50.0097 116.33 50.12C116.088 50.274 115.906 50.421 115.927 50.4525Z" fill="#263238"/>
<path d="M115.524 49.9066C115.751 49.5485 115.941 49.1686 116.091 48.7726C116.281 48.3973 116.435 48.0047 116.55 47.6001C116.319 47.9552 116.128 48.3342 115.979 48.7306C115.787 49.1058 115.635 49.4999 115.524 49.9066Z" fill="#263238"/>
<path d="M96.3796 48.2017C96.3796 48.2017 93.4782 50.3017 93.1142 51.4462C92.7502 52.5907 91.2102 71.3577 90.9372 73.5907C90.6642 75.8237 90.3912 79.9922 92.1167 81.3537C93.8422 82.7152 97.5591 83.7372 97.5591 83.7372L100.993 76.6497L99.1727 72.8382L100.993 58.5932L96.3796 48.2017Z" fill="#E0E0E0"/>
<path d="M96.7295 83.4856C96.7912 83.4796 96.8533 83.4796 96.915 83.4856C97.094 83.4846 97.2728 83.4729 97.4505 83.4506C98.1162 83.3893 98.755 83.1579 99.3055 82.7786C100.127 82.169 100.745 81.3245 101.076 80.3566C101.525 79.1336 101.752 77.8407 101.748 76.5381L101.766 76.5871L99.099 72.8946L99.078 72.8666V72.8316C99.078 72.7371 99.1025 72.6321 99.1165 72.5306C99.6275 68.5371 100.093 64.9181 100.432 62.2826C100.6 60.9841 100.737 59.9271 100.835 59.1781C100.88 58.8281 100.915 58.5411 100.943 58.3311C100.971 58.1211 100.982 58.0371 100.985 58.0371C100.991 58.0624 100.991 58.0888 100.985 58.1141C100.985 58.1631 100.985 58.2401 100.985 58.3346C100.964 58.5446 100.94 58.8281 100.908 59.1851C100.835 59.9201 100.716 60.9841 100.558 62.2966C100.25 64.9251 99.806 68.5511 99.295 72.5551C99.295 72.6566 99.2705 72.7581 99.2565 72.8526V72.7896L101.913 76.4856V76.5101V76.5346C101.912 77.8575 101.675 79.1696 101.213 80.4091C100.861 81.3949 100.216 82.2496 99.365 82.8591C99.0444 83.0784 98.6896 83.2428 98.315 83.3456L98.077 83.4121L97.853 83.4506C97.7238 83.4766 97.5927 83.4919 97.461 83.4961C97.2817 83.5115 97.1013 83.5115 96.922 83.4961C96.8576 83.4991 96.7931 83.4956 96.7295 83.4856Z" fill="#263238"/>
<path d="M93.223 74.144C93.4469 73.9238 93.7044 73.7406 93.986 73.6015C95.3127 72.8593 96.8422 72.5612 98.3505 72.751C98.6632 72.776 98.9702 72.8492 99.2605 72.968C97.1674 72.6097 95.0155 73.0278 93.209 74.144H93.223Z" fill="#263238"/>
<path d="M115.998 55.4681C115.998 55.4681 116.166 56.0911 116.428 57.1901C117.024 56.3339 117.786 55.6056 118.668 55.0481C118.668 55.0481 123.148 50.5961 124.58 45.9166C125.63 42.5181 125.36 38.7521 125.36 38.7521C125.318 38.5736 124.968 36.9776 124.685 35.6721C124.573 35.1577 124.664 34.6199 124.939 34.1712C125.214 33.7224 125.652 33.3974 126.162 33.2641C128.377 32.6656 134.401 31.5001 135.801 35.5391C137.862 41.5766 134.527 48.0971 134.565 49.9626C134.565 50.3126 134.565 50.6031 134.565 50.8341C136.333 50.4246 137.715 50.1341 137.715 50.1621L149.314 47.4566C149.314 47.4566 153.147 46.2946 154.463 50.2251C155.779 54.1556 151.313 55.4751 151.313 55.4751C151.313 55.4751 153.413 55.3806 153.98 58.9541C154.547 62.5276 150.714 63.6861 150.714 63.6861C150.714 63.6861 153.063 63.5356 153.672 66.7031C154.263 69.7866 150.431 71.6451 150.224 71.7431C150.528 71.6669 150.837 71.6084 151.148 71.5681C150.92 71.652 150.686 71.7198 150.448 71.7711C152.237 71.9986 152.496 74.1266 152.496 74.1266C153.647 78.4911 150.287 79.4081 150.287 79.4081L129.098 84.3501C126.987 84.8421 124.784 84.7624 122.714 84.1191C122.917 85.0221 123.026 85.5191 123.019 85.5191L108.224 88.9736C108.193 88.9736 106.597 82.2571 104.658 73.9621C102.719 65.6671 101.175 58.9121 101.207 58.9121L115.998 55.4681Z" fill="#4D96B9"/>
<g opacity="0.3">
<path d="M115.998 55.4681C115.998 55.4681 116.166 56.0911 116.428 57.1901C117.024 56.3339 117.786 55.6056 118.668 55.0481C118.668 55.0481 123.148 50.5961 124.58 45.9166C125.63 42.5181 125.36 38.7521 125.36 38.7521C125.318 38.5736 124.968 36.9776 124.685 35.6721C124.573 35.1577 124.664 34.6199 124.939 34.1712C125.214 33.7224 125.652 33.3974 126.162 33.2641C128.377 32.6656 134.401 31.5001 135.801 35.5391C137.862 41.5766 134.527 48.0971 134.565 49.9626C134.565 50.3126 134.565 50.6031 134.565 50.8341C136.333 50.4246 137.715 50.1341 137.715 50.1621L149.314 47.4566C149.314 47.4566 153.147 46.2946 154.463 50.2251C155.779 54.1556 151.313 55.4751 151.313 55.4751C151.313 55.4751 153.413 55.3806 153.98 58.9541C154.547 62.5276 150.714 63.6861 150.714 63.6861C150.714 63.6861 153.063 63.5356 153.672 66.7031C154.263 69.7866 150.431 71.6451 150.224 71.7431C150.528 71.6669 150.837 71.6084 151.148 71.5681C150.92 71.652 150.686 71.7198 150.448 71.7711C152.237 71.9986 152.496 74.1266 152.496 74.1266C153.647 78.4911 150.287 79.4081 150.287 79.4081L129.098 84.3501C126.987 84.8421 124.784 84.7624 122.714 84.1191C122.917 85.0221 123.026 85.5191 123.019 85.5191L108.224 88.9736C108.193 88.9736 106.597 82.2571 104.658 73.9621C102.719 65.6671 101.175 58.9121 101.207 58.9121L115.998 55.4681Z" fill="black"/>
</g>
<path d="M118.856 59.6819L118.569 61.6069L123.301 81.8544C124.687 82.7744 126.246 83.4012 127.882 83.6961C129.519 83.9911 131.199 83.9479 132.818 83.5694L154 78.6239C154 78.6239 157.36 77.7069 156.208 73.3424C156.208 73.3424 155.932 71.0254 153.933 70.9624C153.933 70.9624 157.993 69.0864 157.388 65.9189C156.782 62.7514 154.434 62.9054 154.434 62.9054C154.434 62.9054 158.266 61.7434 157.696 58.1699C157.125 54.5964 155.029 54.6909 155.029 54.6909C155.029 54.6909 159.491 53.3854 158.179 49.4409C156.866 45.4964 153.03 46.6724 153.03 46.6724L137.98 50.1724L124.778 53.2559C123.259 53.6065 121.881 54.4075 120.825 55.554C119.768 56.7005 119.082 58.1392 118.856 59.6819Z" fill="#4D96B9"/>
<path d="M122.378 54.2812C122.378 54.2812 126.858 49.8292 128.289 45.1497C129.339 41.7512 129.07 37.9887 129.07 37.9887C129.028 37.8067 128.678 36.2107 128.394 34.9052C128.282 34.3908 128.374 33.853 128.649 33.4043C128.924 32.9555 129.362 32.6305 129.871 32.4972C132.097 31.8952 136.112 33.0012 137.494 37.0472C139.556 43.0812 138.233 47.3267 138.268 49.1922L138.303 51.0577L122.378 54.2812Z" fill="#4D96B9"/>
<path d="M119.72 54.6854L104.929 58.1411L111.95 88.1948L126.742 84.7391L119.72 54.6854Z" fill="#4D96B9"/>
<path d="M126.739 84.7525C126.77 84.7525 125.227 78.0115 123.288 69.7025C121.349 61.3935 119.753 54.6805 119.721 54.6875C119.69 54.6945 121.233 61.4285 123.172 69.7375C125.111 78.0465 126.7 84.7595 126.739 84.7525Z" fill="#263238"/>
<path d="M111.947 88.1998C111.979 88.1998 110.432 81.4588 108.493 73.1498C106.554 64.8408 104.958 58.1278 104.926 58.1348C104.895 58.1418 106.438 64.8758 108.377 73.1848C110.316 81.4938 111.912 88.1998 111.947 88.1998Z" fill="#263238"/>
<path d="M116.106 62.7968C116.233 63.3441 116.196 63.917 115.998 64.443C115.801 64.9691 115.451 65.4247 114.995 65.7522C114.538 66.0798 113.994 66.2646 113.433 66.2833C112.871 66.302 112.316 66.1538 111.839 65.8573C111.362 65.5609 110.983 65.1295 110.75 64.6178C110.518 64.1061 110.443 63.537 110.534 62.9824C110.625 62.4278 110.878 61.9127 111.262 61.5022C111.646 61.0916 112.143 60.804 112.69 60.6758C113.424 60.5047 114.196 60.632 114.836 61.0297C115.477 61.4273 115.933 62.0629 116.106 62.7968Z" fill="white"/>
<path d="M141.428 49.3921C141.428 49.3606 139.801 49.7106 137.813 50.1761C135.825 50.6416 134.215 51.0406 134.222 51.0721C134.229 51.1036 135.849 50.7536 137.837 50.2916C139.825 49.8296 141.435 49.4236 141.428 49.3921Z" fill="#263238"/>
<path d="M154.763 62.9752C154.763 62.9437 153.713 63.1607 152.446 63.4547C151.671 63.6124 150.905 63.811 150.15 64.0497C150.15 64.0812 151.2 63.8642 152.467 63.5702C153.242 63.4106 154.009 63.212 154.763 62.9752Z" fill="#263238"/>
<path d="M155.303 54.5476C155.303 54.5161 153.826 54.8346 152.02 55.2476C150.214 55.6606 148.758 56.0351 148.765 56.0701C148.772 56.1051 150.242 55.7831 152.048 55.3701C153.854 54.9571 155.31 54.6001 155.303 54.5476Z" fill="#263238"/>
<path d="M154.865 70.7839C154.865 70.7524 153.388 71.0674 151.582 71.4839C149.776 71.9004 148.32 72.2714 148.327 72.3029C148.334 72.3344 149.804 72.0194 151.61 71.6029C153.416 71.1864 154.872 70.8154 154.865 70.7839Z" fill="#263238"/>
<g opacity="0.3">
<path d="M129.998 33.9851C129.788 34.2185 129.644 34.5042 129.583 34.8121C129.521 35.12 129.544 35.4388 129.648 35.7351C129.869 36.3248 130.14 36.8949 130.456 37.4396C131.064 38.7052 131.238 40.1355 130.953 41.5101C130.866 41.9266 130.75 42.4061 131.016 42.7386C131.394 43.2076 132.154 42.9486 132.633 42.5811C133.525 41.8647 134.196 40.91 134.568 39.8278C134.94 38.7455 134.997 37.58 134.733 36.4666C134.525 35.5185 133.999 34.6701 133.242 34.0621C132.469 33.4881 131.282 32.9701 129.97 33.9746" fill="white"/>
</g>
<g opacity="0.3">
<path d="M154.409 47.208C153.882 47.1478 153.348 47.204 152.845 47.3725L143.906 49.6405C142.933 49.889 141.106 50.1095 141.085 51.1035C140.889 51.646 141.302 52.262 141.834 52.4825C142.387 52.6612 142.98 52.683 143.545 52.5455C144.739 52.3565 145.918 52.0765 147.098 51.7965C149.464 51.2295 151.837 50.6485 154.098 49.6965C154.438 49.5736 154.755 49.395 155.036 49.168C155.176 49.0531 155.289 48.9083 155.366 48.7441C155.442 48.58 155.482 48.4007 155.48 48.2195C155.432 47.9592 155.302 47.7209 155.11 47.5391C154.917 47.3573 154.672 47.2414 154.409 47.208Z" fill="white"/>
</g>
<path d="M116.431 56.3497C116.431 56.3182 114.331 56.7767 111.801 57.3717C109.27 57.9667 107.191 58.4742 107.198 58.5057C107.205 58.5372 109.277 58.0822 111.829 57.4872C114.38 56.8922 116.438 56.3987 116.431 56.3497Z" fill="white"/>
<path d="M156.338 59.7695C156.366 59.7145 156.385 59.6554 156.394 59.5945C156.438 59.432 156.464 59.2654 156.471 59.0975C156.489 58.8488 156.48 58.599 156.447 58.352C156.4 58.0491 156.32 57.7523 156.209 57.4665C156.093 57.1824 155.945 56.9123 155.768 56.6615C155.623 56.4576 155.456 56.2698 155.271 56.1015C155.148 55.9872 155.015 55.8852 154.872 55.797C154.824 55.7587 154.769 55.7291 154.711 55.7095C154.711 55.7305 154.917 55.8705 155.215 56.1645C155.386 56.3361 155.541 56.5236 155.677 56.7245C155.843 56.9708 155.984 57.2335 156.097 57.5085C156.204 57.786 156.285 58.0731 156.338 58.366C156.375 58.6068 156.392 58.8504 156.387 59.094C156.377 59.5 156.314 59.7625 156.338 59.7695Z" fill="white"/>
<path d="M156.748 51.6459C156.87 51.5357 156.966 51.3993 157.028 51.2469C157.199 50.8885 157.274 50.4916 157.245 50.0954C157.224 49.6998 157.104 49.3158 156.895 48.9789C156.813 48.8393 156.7 48.7197 156.566 48.6289C156.549 48.6289 156.678 48.7759 156.822 49.0314C157.008 49.3619 157.117 49.7306 157.14 50.1094C157.165 50.4877 157.105 50.8667 156.965 51.2189C156.843 51.4814 156.731 51.6319 156.748 51.6459Z" fill="white"/>
<path d="M155.631 68.5192C155.792 68.4214 155.927 68.2871 156.027 68.1272C156.295 67.7509 156.426 67.2941 156.398 66.8329C156.37 66.3718 156.184 65.9342 155.873 65.5932C155.756 65.4431 155.604 65.3231 155.432 65.2432C155.432 65.2432 155.6 65.3797 155.81 65.6387C156.083 65.9799 156.247 66.3961 156.279 66.8322C156.301 67.2695 156.189 67.7032 155.957 68.0747C155.782 68.3652 155.614 68.5052 155.631 68.5192Z" fill="white"/>
<path d="M154.288 76.3593C154.404 76.2387 154.494 76.0958 154.554 75.9393C154.719 75.5664 154.795 75.1605 154.778 74.7532C154.76 74.3459 154.649 73.9481 154.452 73.5908C154.38 73.4399 154.277 73.3054 154.151 73.1953C154.134 73.1953 154.249 73.3563 154.379 73.6293C154.545 73.9831 154.64 74.366 154.659 74.7563C154.675 75.1473 154.613 75.5375 154.477 75.9043C154.372 76.1878 154.27 76.3488 154.288 76.3593Z" fill="white"/>
<path d="M137.659 44.1455C137.698 44.0316 137.727 43.9145 137.746 43.7955C137.771 43.687 137.799 43.5505 137.823 43.3895C137.848 43.2285 137.879 43.0395 137.893 42.8435C137.945 42.3693 137.962 41.8921 137.946 41.4155C137.911 40.2429 137.687 39.0836 137.284 37.982C137.12 37.5337 136.925 37.0975 136.7 36.6765C136.609 36.491 136.511 36.3265 136.43 36.197C136.35 36.0675 136.273 35.9415 136.206 35.847C136.146 35.7456 136.075 35.6507 135.996 35.5635C136.045 35.6707 136.102 35.7737 136.168 35.8715C136.227 35.9695 136.297 36.0885 136.371 36.2215C136.444 36.3545 136.542 36.5225 136.626 36.708C136.836 37.1318 137.021 37.5677 137.179 38.0135C137.369 38.5603 137.522 39.1192 137.638 39.6865C137.742 40.2567 137.808 40.8331 137.837 41.412C137.856 41.8788 137.847 42.3463 137.809 42.812C137.809 43.015 137.774 43.197 137.757 43.3545C137.739 43.512 137.718 43.652 137.701 43.764C137.672 43.8892 137.658 44.0171 137.659 44.1455Z" fill="white"/>
<path d="M103.884 79.6072C103.884 79.6072 105.046 78.7042 105.91 78.6692C106.775 78.6342 107.898 78.9667 108.122 78.8547C108.346 78.7427 108.875 78.2492 109.211 78.6657C109.547 79.0822 109.963 80.5802 108.161 80.9932H106.922C106.922 80.9932 107.072 82.2322 107.373 82.7187C107.674 83.2052 111.878 88.4972 111.878 88.4972C111.878 88.4972 112.403 89.0257 112.14 89.5472C111.878 90.0687 110.74 89.7712 110.74 89.7712C110.74 89.7712 109.953 90.4712 109.053 90.1457C108.606 89.9951 108.178 89.7943 107.776 89.5472C107.485 89.7695 107.129 89.8899 106.762 89.8899C106.396 89.8899 106.04 89.7695 105.749 89.5472C104.699 88.7597 101.199 84.3672 101.199 84.3672L102.452 79.4672L103.884 79.6072Z" fill="#AE7461"/>
<path d="M100.237 76.7026L103.884 79.6076L101.206 84.3711L95.8652 82.4321C95.8652 82.4321 96.0192 76.8041 100.237 76.7026Z" fill="#AE7461"/>
<path d="M157.123 70.2135C157.123 70.2135 157.007 68.908 156.276 69.1635C155.544 69.419 155.226 70.9695 155.226 70.9695L157.123 70.2135Z" fill="#AE7461"/>
<path d="M154.507 71.5016C154.507 71.5016 155.778 70.0806 157.542 70.1961C159.306 70.3116 158.196 71.8096 158.196 71.8096C158.196 71.8096 159.505 72.6146 158.546 73.7696L158.392 74.0776C158.392 74.0776 159.505 74.4976 158.354 75.6876C158.47 75.9007 158.518 76.1445 158.491 76.3858C158.463 76.6271 158.361 76.8539 158.2 77.0351C157.622 77.6091 156.184 76.8426 156.184 76.8426C156.184 76.8426 154.857 77.1506 154.742 76.6116C154.696 76.431 154.7 76.2411 154.754 76.0628C154.809 75.8844 154.911 75.7244 155.05 75.6001C155.165 75.5231 155.858 75.2501 155.858 75.2501C155.858 75.2501 154.322 75.4426 154.283 75.0576C154.245 74.6726 154.091 74.2491 155.242 73.8676L155.858 73.7031C155.858 73.7031 154.262 73.7521 154.252 73.3531C154.241 72.9541 154.168 72.8141 154.742 72.5481C155.104 72.3796 155.455 72.1867 155.792 71.9706C155.792 71.9706 154.28 72.3101 154.507 71.5016Z" fill="#AE7461"/>
<path d="M154.228 73.0028C154.803 72.5761 155.445 72.2474 156.128 72.0298C156.824 71.8591 157.542 71.8024 158.256 71.8618C158.057 71.7793 157.845 71.7342 157.63 71.7288C156.581 71.6386 155.536 71.9335 154.69 72.5583C154.508 72.6745 154.351 72.8256 154.228 73.0028Z" fill="#6F4439"/>
<path d="M154.402 75.1972C154.402 75.1972 154.367 75.1482 154.329 75.0607C154.284 74.9314 154.284 74.791 154.329 74.6617C154.388 74.4658 154.511 74.2956 154.679 74.1787C154.892 74.0386 155.129 73.94 155.379 73.8882C156.046 73.7671 156.719 73.6853 157.395 73.6432C157.199 73.5887 156.996 73.5663 156.793 73.5767C156.305 73.5727 155.819 73.6255 155.344 73.7342C155.073 73.791 154.817 73.903 154.591 74.0632C154.403 74.2025 154.271 74.4051 154.22 74.6337C154.199 74.7092 154.192 74.7883 154.201 74.8664C154.21 74.9445 154.235 75.0201 154.273 75.0887C154.35 75.1832 154.399 75.2042 154.402 75.1972Z" fill="#6F4439"/>
<path d="M155.05 76.888C155.05 76.888 154.994 76.853 154.917 76.7795C154.852 76.7163 154.8 76.6402 154.767 76.5559C154.733 76.4716 154.717 76.3812 154.72 76.2904C154.723 76.1996 154.746 76.1106 154.786 76.029C154.826 75.9474 154.882 75.8752 154.952 75.817C155.183 75.6612 155.437 75.543 155.705 75.467C156.211 75.3621 156.73 75.335 157.245 75.3865C157.463 75.4149 157.685 75.403 157.899 75.3515C157.685 75.3114 157.469 75.2857 157.252 75.2745C156.723 75.1887 156.183 75.2029 155.659 75.3165C155.371 75.3986 155.1 75.5301 154.858 75.705C154.748 75.7958 154.669 75.9179 154.63 76.055C154.606 76.1704 154.606 76.2895 154.63 76.405C154.644 76.4894 154.674 76.5703 154.719 76.643C154.764 76.7157 154.823 76.7787 154.893 76.8285C154.98 76.895 155.05 76.895 155.05 76.888Z" fill="#6F4439"/>
<path d="M154.487 71.5645C154.487 71.5645 154.518 71.5155 154.598 71.442C154.71 71.3413 154.827 71.2467 154.948 71.1585C155.345 70.862 155.784 70.6261 156.25 70.4585C156.712 70.2832 157.207 70.2115 157.7 70.2485C157.9 70.2938 158.097 70.3498 158.291 70.4165C158.134 70.2677 157.935 70.1712 157.721 70.14C157.209 70.0647 156.687 70.1225 156.205 70.308C155.05 70.721 154.392 71.512 154.487 71.5645Z" fill="#6F4439"/>
</svg>
