<svg width="150" height="150" viewBox="0 0 150 150" fill="none" xmlns="http://www.w3.org/2000/svg">
<path d="M121.5 46.215H97.7998C97.7998 46.215 98.9788 44.679 100.278 44.49C100.278 44.49 102.804 36.963 107.037 36.912C110.97 36.861 112.548 41.538 112.548 41.538C112.548 41.538 114.369 39.438 116.112 40.398C117.855 41.358 118.842 44.1 118.842 44.1C118.842 44.1 120.801 45.159 121.5 46.215Z" fill="#EBEBEB"/>
<path d="M13.1133 39.7289H43.0953C43.0953 39.7289 43.0953 37.8149 38.9643 37.4399C38.9643 37.4399 35.1933 29.0669 29.4363 30.1919C25.8363 30.8909 24.0183 35.8139 24.0183 35.8139C24.0183 35.8139 21.3003 31.9409 19.1433 32.6999C16.9863 33.4589 15.6873 37.5719 15.6873 37.5719C15.6873 37.5719 13.4523 38.6459 13.1133 39.7289Z" fill="#EBEBEB"/>
<path d="M35.376 19.5989H55.776C55.776 19.5989 53.853 17.7989 52.998 17.7989C52.143 17.7989 49.647 11.7989 46.458 12.0419C43.269 12.2849 41.565 16.7999 41.565 16.7999C41.565 16.7999 37.689 15.5699 35.376 19.5989Z" fill="#EBEBEB"/>
<path d="M71.1006 35.7207H88.5336C88.5336 35.7207 87.6666 34.5927 86.7096 34.4517C86.7096 34.4517 84.8526 28.9167 81.7416 28.8777C78.8526 28.8417 77.7006 32.2797 77.7006 32.2797C77.7006 32.2797 76.3596 30.7377 75.0786 31.4427C73.7976 32.1477 73.0746 34.1667 73.0746 34.1667C73.0746 34.1667 71.6286 34.9437 71.1006 35.7207Z" fill="#EBEBEB"/>
<path d="M119.454 21.8101H136.887C136.887 21.8101 136.02 20.6821 135.063 20.5411C135.063 20.5411 133.206 15.0091 130.095 14.9671C127.2 14.9311 126.042 18.3721 126.042 18.3721C126.042 18.3721 124.701 16.8301 123.42 17.5351C122.139 18.2401 121.416 20.2591 121.416 20.2591C121.416 20.2591 119.976 21.0361 119.454 21.8101Z" fill="#EBEBEB"/>
<path d="M28.1639 77.6549C28.1639 77.6549 35.5529 94.1159 23.4599 94.1159C11.3669 94.1159 19.1999 77.0999 19.1999 77.0999C19.1999 77.0999 16.4009 75.8669 19.6499 66.6869C22.8989 57.5069 24.3479 57.5039 25.6949 57.5039C27.4019 57.5039 28.9949 61.4789 27.8249 67.5809C27.8279 67.5749 32.0819 75.1889 28.1639 77.6549Z" fill="#EBEBEB"/>
<path d="M22.3867 105.033L23.5537 80.2349L24.7177 105.033H22.3867Z" fill="#A6A6A6"/>
<path d="M23.0791 90.6331L27.4741 85.4971L24.0271 91.3111L23.0791 90.6331Z" fill="#A6A6A6"/>
<path d="M65.9223 81.7947C65.9223 81.7947 59.6493 95.7657 69.9123 95.7657C80.1753 95.7657 73.5123 81.3207 73.5123 81.3207C73.5123 81.3207 75.8883 80.2737 73.1343 72.4797C70.3803 64.6857 69.1443 64.6797 68.0013 64.6797C66.5553 64.6797 65.2083 68.0517 66.2013 73.2327C66.2073 73.2417 62.5953 79.7037 65.9223 81.7947Z" fill="#EBEBEB"/>
<path d="M70.8247 105.033L69.8347 83.9849L68.8447 105.033H70.8247Z" fill="#A6A6A6"/>
<path d="M70.2358 92.8107L66.5068 88.4517L69.4318 93.3867L70.2358 92.8107Z" fill="#A6A6A6"/>
<path d="M56.9317 80.1001C56.9317 80.1001 53.5747 78.7651 50.9077 83.4001C48.1747 88.1551 51.6007 91.2901 54.3187 89.4241C54.3187 89.4241 56.4517 93.9001 60.7147 92.8351C64.9777 91.7701 65.6737 88.3591 65.6737 88.3591C65.6737 88.3591 69.4567 88.6231 69.5737 85.8001C69.6907 82.9771 66.9007 80.4721 66.9007 80.4721C66.9007 80.4721 66.7387 73.4371 62.1547 73.4881C57.5707 73.5391 56.9317 80.1001 56.9317 80.1001Z" fill="#DBDBDB"/>
<path d="M60.0479 105.033L61.0079 84.0957L61.9678 105.033H60.0479Z" fill="#A6A6A6"/>
<path d="M60.5973 91.7128L57.7803 86.0908L61.4193 91.2178L60.5973 91.7128Z" fill="#A6A6A6"/>
<path d="M80.718 64.311H78.375V85.038H80.718V64.311Z" fill="#A6A6A6"/>
<path d="M123.151 64.311H120.808V85.038H123.151V64.311Z" fill="#A6A6A6"/>
<path d="M129.276 66.1982H72.249V69.2612H129.276V66.1982Z" fill="#4D96B9"/>
<path opacity="0.2" d="M129.276 66.1982H72.249V69.2612H129.276V66.1982Z" fill="black"/>
<path d="M129.276 70.9199H72.249V73.9829H129.276V70.9199Z" fill="#4D96B9"/>
<path opacity="0.2" d="M129.276 70.9199H72.249V73.9829H129.276V70.9199Z" fill="black"/>
<path d="M129.276 75.6392H72.249V78.7022H129.276V75.6392Z" fill="#4D96B9"/>
<path opacity="0.2" d="M129.276 75.6392H72.249V78.7022H129.276V75.6392Z" fill="black"/>
<path d="M129.276 80.3608H72.249V83.4238H129.276V80.3608Z" fill="#4D96B9"/>
<path opacity="0.2" d="M129.276 80.3608H72.249V83.4238H129.276V80.3608Z" fill="black"/>
<path d="M135.111 85.0381H67.2305V89.6011H135.111V85.0381Z" fill="#4D96B9"/>
<path opacity="0.2" d="M135.111 85.0381H67.2305V89.6011H135.111V85.0381Z" fill="black"/>
<path d="M73.3772 89.6011H71.0342V105.03H73.3772V89.6011Z" fill="#A6A6A6"/>
<path d="M131.308 89.6011H128.965V105.03H131.308V89.6011Z" fill="#A6A6A6"/>
<g opacity="0.2">
<path d="M79.5487 68.0159C79.7078 68.0159 79.8367 67.887 79.8367 67.7279C79.8367 67.5689 79.7078 67.4399 79.5487 67.4399C79.3897 67.4399 79.2607 67.5689 79.2607 67.7279C79.2607 67.887 79.3897 68.0159 79.5487 68.0159Z" fill="black"/>
<path d="M79.5487 72.7381C79.7078 72.7381 79.8367 72.6092 79.8367 72.4501C79.8367 72.2911 79.7078 72.1621 79.5487 72.1621C79.3897 72.1621 79.2607 72.2911 79.2607 72.4501C79.2607 72.6092 79.3897 72.7381 79.5487 72.7381Z" fill="black"/>
<path d="M79.5487 77.4598C79.7078 77.4598 79.8367 77.3308 79.8367 77.1718C79.8367 77.0127 79.7078 76.8838 79.5487 76.8838C79.3897 76.8838 79.2607 77.0127 79.2607 77.1718C79.2607 77.3308 79.3897 77.4598 79.5487 77.4598Z" fill="black"/>
<path d="M79.5487 82.179C79.7078 82.179 79.8367 82.0501 79.8367 81.891C79.8367 81.732 79.7078 81.603 79.5487 81.603C79.3897 81.603 79.2607 81.732 79.2607 81.891C79.2607 82.0501 79.3897 82.179 79.5487 82.179Z" fill="black"/>
<path d="M121.977 68.0159C122.137 68.0159 122.265 67.887 122.265 67.7279C122.265 67.5689 122.137 67.4399 121.977 67.4399C121.818 67.4399 121.689 67.5689 121.689 67.7279C121.689 67.887 121.818 68.0159 121.977 68.0159Z" fill="black"/>
<path d="M121.977 72.7381C122.137 72.7381 122.265 72.6092 122.265 72.4501C122.265 72.2911 122.137 72.1621 121.977 72.1621C121.818 72.1621 121.689 72.2911 121.689 72.4501C121.689 72.6092 121.818 72.7381 121.977 72.7381Z" fill="black"/>
<path d="M121.977 77.4598C122.137 77.4598 122.265 77.3308 122.265 77.1718C122.265 77.0127 122.137 76.8838 121.977 76.8838C121.818 76.8838 121.689 77.0127 121.689 77.1718C121.689 77.3308 121.818 77.4598 121.977 77.4598Z" fill="black"/>
<path d="M121.977 82.179C122.137 82.179 122.265 82.0501 122.265 81.891C122.265 81.732 122.137 81.603 121.977 81.603C121.818 81.603 121.689 81.732 121.689 81.891C121.689 82.0501 121.818 82.179 121.977 82.179Z" fill="black"/>
</g>
<path d="M24.4719 87.6782H15.1299V105.033H24.4719V87.6782Z" fill="#4D96B9"/>
<path d="M25.0928 86.9941H14.5088V87.6781H25.0928V86.9941Z" fill="#4D96B9"/>
<path d="M25.0928 85.8691H14.5088V86.5531H25.0928V85.8691Z" fill="#4D96B9"/>
<path d="M24.4719 86.5532H15.1299V86.9942H24.4719V86.5532Z" fill="#4D96B9"/>
<path opacity="0.1" d="M24.4719 86.5532H15.1299V86.9942H24.4719V86.5532Z" fill="black"/>
<path d="M24.4657 85.8693H15.1387C15.2063 84.6782 15.727 83.5581 16.5942 82.7387C17.4613 81.9194 18.6091 81.4629 19.8022 81.4629C20.9952 81.4629 22.143 81.9194 23.0102 82.7387C23.8773 83.5581 24.3981 84.6782 24.4657 85.8693Z" fill="#4D96B9"/>
<path opacity="0.1" d="M24.4657 85.869H15.1387C15.1465 85.6735 15.1696 85.4789 15.2077 85.287L24.2527 84.687C24.3752 85.07 24.4469 85.4674 24.4657 85.869Z" fill="black"/>
<path opacity="0.1" d="M24.4748 87.6782V88.7042L15.1328 89.1422V87.6782H24.4748Z" fill="black"/>
<path opacity="0.1" d="M16.9749 89.9912H16.1709V103.965H16.9749V89.9912Z" fill="black"/>
<path opacity="0.1" d="M18.5882 89.9912H17.7842V103.965H18.5882V89.9912Z" fill="black"/>
<path opacity="0.1" d="M20.2054 89.9912H19.4014V103.965H20.2054V89.9912Z" fill="black"/>
<path opacity="0.1" d="M21.8196 89.9912H21.0156V103.965H21.8196V89.9912Z" fill="black"/>
<path opacity="0.1" d="M23.4339 89.9912H22.6299V103.965H23.4339V89.9912Z" fill="black"/>
<path d="M15.1295 90.9751H13.4795V95.2591H15.1295V90.9751Z" fill="#4D96B9"/>
<path d="M13.4796 91.3413H12.8496V95.0103H13.4796V91.3413Z" fill="#4D96B9"/>
<path opacity="0.1" d="M13.4796 91.3413H12.8496V95.0103H13.4796V91.3413Z" fill="black"/>
<path d="M12.8495 92.1001V94.1431C12.5881 94.1289 12.3421 94.0151 12.1621 93.8251C11.9822 93.6351 11.8818 93.3833 11.8818 93.1216C11.8818 92.8599 11.9822 92.6081 12.1621 92.4181C12.3421 92.2281 12.5881 92.1143 12.8495 92.1001Z" fill="#4D96B9"/>
<path opacity="0.1" d="M15.1323 90.9751V95.2621H14.7483L14.0703 90.9751H15.1323Z" fill="black"/>
<path d="M24.474 95.2622H26.124V90.9782H24.474V95.2622Z" fill="#4D96B9"/>
<path d="M26.1249 95.0073H26.7549V91.3383H26.1249V95.0073Z" fill="#4D96B9"/>
<path opacity="0.1" d="M26.1249 95.0073H26.7549V91.3383H26.1249V95.0073Z" fill="black"/>
<path d="M26.7549 92.1001V94.1431C27.0162 94.1289 27.2622 94.0151 27.4422 93.8251C27.6222 93.6351 27.7225 93.3833 27.7225 93.1216C27.7225 92.8599 27.6222 92.6081 27.4422 92.4181C27.2622 92.2281 27.0162 92.1143 26.7549 92.1001Z" fill="#4D96B9"/>
<path opacity="0.1" d="M24.4746 90.9751V95.2621H24.8586L25.5336 90.9751H24.4746Z" fill="black"/>
<path d="M21.0372 96.097C22.686 95.4191 23.4731 93.5329 22.7952 91.884C22.1173 90.2352 20.231 89.4481 18.5822 90.126C16.9333 90.8039 16.1462 92.6902 16.8242 94.339C17.5021 95.9879 19.3883 96.775 21.0372 96.097Z" fill="#4D96B9"/>
<path opacity="0.1" d="M22.0178 93.1169C22.0172 93.5545 21.887 93.9822 21.6435 94.3458C21.4 94.7094 21.0542 94.9927 20.6497 95.1599C20.2453 95.3271 19.8004 95.3707 19.3712 95.2852C18.942 95.1997 18.5478 94.9889 18.2383 94.6794C17.9289 94.37 17.7181 93.9758 17.6325 93.5466C17.547 93.1174 17.5906 92.6725 17.7578 92.268C17.925 91.8636 18.2083 91.5178 18.5719 91.2743C18.9356 91.0308 19.3632 90.9005 19.8008 90.8999C20.0921 90.8995 20.3806 90.9566 20.6497 91.0679C20.9189 91.1791 21.1634 91.3424 21.3694 91.5484C21.5753 91.7543 21.7386 91.9989 21.8499 92.268C21.9612 92.5372 22.0182 92.8257 22.0178 93.1169Z" fill="black"/>
<path d="M21.6367 81.8282V81.1982H17.9677V81.8282H21.6367Z" fill="#4D96B9"/>
<path opacity="0.1" d="M21.6367 81.8282V81.1982H17.9677V81.8282H21.6367Z" fill="black"/>
<path d="M20.8809 81.1981H18.8379C18.8521 80.9367 18.9659 80.6908 19.1559 80.5108C19.3459 80.3308 19.5977 80.2305 19.8594 80.2305C20.1211 80.2305 20.3729 80.3308 20.5629 80.5108C20.7529 80.6908 20.8667 80.9367 20.8809 81.1981Z" fill="#4D96B9"/>
<path d="M75.0003 136.497C106.166 136.497 131.43 134.177 131.43 131.316C131.43 128.454 106.166 126.135 75.0003 126.135C43.8349 126.135 18.5703 128.454 18.5703 131.316C18.5703 134.177 43.8349 136.497 75.0003 136.497Z" fill="#EBEBEB"/>
<path d="M33.9302 105.054H21.5342C21.5342 105.054 21.5612 103.209 22.7792 102.717C23.1116 102.575 23.4814 102.545 23.8323 102.632C24.1832 102.719 24.4961 102.919 24.7232 103.2C24.7232 103.2 25.2212 99.8071 27.4922 99.8071C29.7632 99.8071 30.8492 102.732 30.8492 102.732C31.0421 102.453 31.3123 102.236 31.6267 102.108C31.9412 101.98 32.2861 101.947 32.6192 102.012C33.8792 102.162 33.9302 105.054 33.9302 105.054Z" fill="#37474F"/>
<path d="M85.6684 105.054C85.6684 105.054 85.2874 103.281 84.5284 103.005C83.7694 102.729 83.3074 103.53 83.3074 103.53C83.3074 103.53 83.1304 101.835 82.0534 101.328C80.9764 100.821 80.1694 101.859 80.1694 101.859C80.1694 101.859 79.3444 99.708 77.8684 99.708C76.3924 99.708 75.6484 102.855 75.6484 102.855C75.6484 102.855 74.7784 101.916 73.8844 102.447C72.9904 102.978 72.9844 105.054 72.9844 105.054H85.6684Z" fill="#37474F"/>
<path d="M137.676 105.054C137.676 105.054 137.295 103.281 136.536 103.005C135.777 102.729 135.315 103.53 135.315 103.53C135.315 103.53 135.138 101.835 134.061 101.328C132.984 100.821 132.177 101.859 132.177 101.859C132.177 101.859 131.352 99.708 129.876 99.708C128.4 99.708 127.656 102.855 127.656 102.855C127.656 102.855 126.786 101.916 125.895 102.447C125.004 102.978 124.995 105.054 124.995 105.054H137.676Z" fill="#37474F"/>
<path d="M23.7542 105.054H12.3242C12.3242 105.054 12.7022 103.44 13.4582 103.326C13.6858 103.305 13.9143 103.355 14.1128 103.468C14.3113 103.581 14.4703 103.752 14.5682 103.959C14.5682 103.959 14.5352 101.712 15.9512 101.331C17.3672 100.95 18.5552 102.933 18.5552 102.933C18.5552 102.933 19.4402 101.799 20.6552 101.874C21.8702 101.949 22.1552 103.815 22.1552 103.815C22.1552 103.815 23.2682 103.167 23.7542 105.054Z" fill="#455A64"/>
<path d="M94.3441 105.054H82.9141C82.9141 105.054 83.2891 103.44 84.0481 103.326C84.8071 103.212 85.1581 103.959 85.1581 103.959C85.1581 103.959 85.1221 101.712 86.5381 101.331C87.9541 100.95 89.1421 102.933 89.1421 102.933C89.1421 102.933 90.0421 101.799 91.2421 101.874C92.4421 101.949 92.7601 103.815 92.7601 103.815C92.7601 103.815 93.8581 103.167 94.3441 105.054Z" fill="#455A64"/>
<path d="M73.8001 105.054H66.7891C66.7891 105.054 66.8041 104.007 67.4971 103.731C67.6843 103.649 67.8931 103.631 68.0918 103.678C68.2905 103.726 68.4683 103.837 68.5981 103.995C68.5981 103.995 68.8771 102.072 70.1641 102.072C71.4511 102.072 72.0661 103.731 72.0661 103.731C72.1752 103.573 72.3282 103.45 72.5062 103.377C72.6842 103.305 72.8795 103.286 73.0681 103.323C73.8001 103.416 73.8001 105.054 73.8001 105.054Z" fill="#455A64"/>
<path d="M129.001 105.054H121.972C121.972 105.054 121.99 104.007 122.68 103.731C122.867 103.649 123.076 103.631 123.274 103.678C123.473 103.726 123.651 103.837 123.781 103.995C123.781 103.995 124.063 102.072 125.347 102.072C126.631 102.072 127.252 103.731 127.252 103.731C127.361 103.573 127.514 103.45 127.692 103.377C127.87 103.305 128.065 103.286 128.254 103.323C128.968 103.416 129.001 105.054 129.001 105.054Z" fill="#455A64"/>
<path d="M10.7549 106.872L26.8169 106.797L42.8789 106.773L74.9999 106.722L107.121 106.77L123.183 106.797L139.245 106.872L123.183 106.944L107.121 106.971L74.9999 107.022L42.8789 106.971L26.8169 106.944L10.7549 106.872Z" fill="#263238"/>
<path d="M138.618 105.051H11.3818V106.854H138.618V105.051Z" fill="#C7C7C7"/>
<path d="M20.3008 105.051C20.5041 105.634 20.5041 106.268 20.3008 106.851C20.1959 106.563 20.145 106.257 20.1508 105.951C20.1464 105.644 20.1972 105.339 20.3008 105.051Z" fill="#263238"/>
<path d="M30.2462 105.051C30.4494 105.634 30.4494 106.268 30.2462 106.851C30.0469 106.267 30.0469 105.634 30.2462 105.051Z" fill="#263238"/>
<path d="M40.2002 105.051C40.4035 105.634 40.4035 106.268 40.2002 106.851C40.0953 106.563 40.0445 106.257 40.0502 105.951C40.0458 105.644 40.0966 105.339 40.2002 105.051Z" fill="#263238"/>
<path d="M50.1358 105.051C50.3391 105.634 50.3391 106.268 50.1358 106.851C49.9365 106.267 49.9365 105.634 50.1358 105.051Z" fill="#263238"/>
<path d="M60.0811 105.051C60.2844 105.634 60.2844 106.268 60.0811 106.851C59.8818 106.267 59.8818 105.634 60.0811 105.051Z" fill="#263238"/>
<path d="M70.0284 105.051C70.2277 105.634 70.2277 106.267 70.0284 106.851C69.8252 106.268 69.8252 105.634 70.0284 105.051Z" fill="#263238"/>
<path d="M79.9737 105.051C80.173 105.634 80.173 106.267 79.9737 106.851C79.7705 106.268 79.7705 105.634 79.9737 105.051Z" fill="#263238"/>
<path d="M89.919 105.051C90.1184 105.634 90.1184 106.267 89.919 106.851C89.7158 106.268 89.7158 105.634 89.919 105.051Z" fill="#263238"/>
<path d="M99.8644 105.051C100.064 105.634 100.064 106.267 99.8644 106.851C99.6611 106.268 99.6611 105.634 99.8644 105.051Z" fill="#263238"/>
<path d="M109.8 105.051C109.904 105.339 109.954 105.644 109.95 105.951C109.956 106.257 109.905 106.563 109.8 106.851C109.597 106.268 109.597 105.634 109.8 105.051Z" fill="#263238"/>
<path d="M119.754 105.051C119.858 105.339 119.908 105.644 119.904 105.951C119.91 106.257 119.859 106.563 119.754 106.851C119.551 106.268 119.551 105.634 119.754 105.051Z" fill="#263238"/>
<path d="M129.699 105.051C129.803 105.339 129.854 105.644 129.849 105.951C129.855 106.257 129.804 106.563 129.699 106.851C129.496 106.268 129.496 105.634 129.699 105.051Z" fill="#263238"/>
<path d="M49.5006 112.914C49.5006 112.914 48.6006 125.295 48.6006 125.304C48.6006 127.731 48.6216 129.858 48.7416 130.956C48.74 130.959 48.7392 130.962 48.7392 130.965C48.7392 130.968 48.74 130.971 48.7416 130.974C48.7416 131.234 48.8022 131.491 48.9186 131.724C48.9186 131.724 48.9186 131.724 48.9186 131.739C49.6386 132.231 69.0186 132.894 69.6996 132.69C70.3806 132.486 69.8556 130.521 69.1236 129.894C68.3916 129.267 61.0836 125.694 61.0836 125.694L61.8576 113.316L49.5006 112.914Z" fill="#AD6359"/>
<path d="M48.6006 122.7V125.304C48.6006 127.731 48.6216 129.858 48.7416 130.956C48.74 130.958 48.7392 130.962 48.7392 130.965C48.7392 130.968 48.74 130.971 48.7416 130.974C48.7711 131.23 48.8305 131.481 48.9186 131.724C48.9186 131.724 48.9186 131.724 48.9186 131.739C49.6386 132.231 69.0186 132.894 69.6996 132.69C70.3806 132.486 69.8556 130.521 69.1236 129.894C68.3916 129.267 61.0836 125.694 61.0836 125.694L61.1196 123.051L48.6006 122.7Z" fill="white"/>
<path d="M69.7077 132.69C69.0237 132.894 49.6467 132.231 48.9267 131.739C48.6507 131.556 48.5817 128.739 48.5967 125.304V125.199L61.1007 125.499V125.709C61.1007 125.709 68.4057 129.282 69.1407 129.909C69.8757 130.536 70.3947 132.489 69.7077 132.69Z" fill="#4D96B9"/>
<path d="M69.5158 131.931C66.2518 131.739 53.0698 131.274 49.8298 131.331C49.8028 131.331 49.8028 131.349 49.8298 131.352C53.0608 131.613 66.2458 131.973 69.5128 131.985C69.5818 132 69.5998 131.937 69.5158 131.931Z" fill="#263238"/>
<path d="M62.1417 125.772C60.8637 125.487 59.2857 125.631 58.2717 126.513C58.2327 126.549 58.2717 126.603 58.3257 126.591C59.5663 126.236 60.8417 126.016 62.1297 125.934C62.1511 125.936 62.1724 125.929 62.1887 125.914C62.205 125.9 62.2151 125.88 62.2167 125.859C62.2182 125.837 62.2112 125.816 62.1972 125.8C62.1831 125.784 62.1631 125.774 62.1417 125.772Z" fill="#263238"/>
<path d="M63.0509 126.363C61.7729 126.078 60.1949 126.222 59.1809 127.104C59.1419 127.14 59.1809 127.194 59.2319 127.182C60.4737 126.827 61.75 126.607 63.0389 126.525C63.0604 126.526 63.0816 126.519 63.0979 126.505C63.1143 126.491 63.1243 126.471 63.1259 126.45C63.1275 126.428 63.1205 126.407 63.1064 126.391C63.0924 126.374 63.0724 126.364 63.0509 126.363Z" fill="#263238"/>
<path d="M63.9601 126.954C62.6821 126.669 61.1041 126.813 60.0901 127.695C60.0511 127.731 60.0901 127.785 60.1411 127.773C61.3828 127.418 62.6592 127.197 63.9481 127.116C63.9696 127.117 63.9908 127.11 64.0071 127.096C64.0234 127.082 64.0335 127.062 64.0351 127.041C64.0367 127.019 64.0297 126.998 64.0156 126.982C64.0015 126.965 63.9816 126.955 63.9601 126.954Z" fill="#263238"/>
<path d="M47.8498 125.841L61.4158 125.568C61.4158 125.568 63.0688 101.16 62.7598 93.0238C62.4268 84.1828 58.6288 57.8818 58.6288 57.8818H47.1748C47.1748 57.8818 50.1028 84.2818 50.1748 93.1288C50.2228 101.328 47.8498 125.841 47.8498 125.841Z" fill="#455A64"/>
<path d="M56.3787 57.8998L49.4997 81.6898C48.6867 70.4248 47.1777 57.8848 47.1777 57.8848L56.3787 57.8998Z" fill="#263238"/>
<path d="M49.3467 59.1807L50.0757 67.0287L50.7477 74.8857C51.1797 80.1237 51.5907 85.3647 51.9027 90.6147C51.9777 91.9257 52.0257 93.2457 52.0047 94.5657C51.9837 95.8857 51.9237 97.1937 51.8577 98.5077C51.7217 101.136 51.5527 103.76 51.3507 106.38C51.1487 109 50.9367 111.619 50.7147 114.237L49.9827 122.1L50.5827 114.237C50.7827 111.617 50.9667 108.996 51.1347 106.374C51.2997 103.752 51.4797 101.13 51.5997 98.5077C51.6597 97.1937 51.7077 95.8827 51.7317 94.5717C51.7557 93.2607 51.6957 91.9527 51.6147 90.6417C51.3297 85.3977 50.9157 80.1417 50.5347 74.9157L49.3467 59.1807Z" fill="#263238"/>
<path d="M60.8493 123.3C58.7313 123.282 59.3493 123.258 57.2223 123.261C56.1843 123.261 49.3743 123.288 48.4083 123.459C48.3873 123.459 48.3873 123.501 48.4083 123.504C49.3773 123.651 56.1873 123.504 57.2223 123.486C59.3403 123.441 58.7223 123.432 60.8493 123.363C60.9003 123.366 60.9003 123.3 60.8493 123.3Z" fill="#263238"/>
<path d="M27.4415 106.272C27.4415 106.272 20.8985 116.904 20.8955 116.913C19.8305 119.094 18.9395 121.023 18.5705 122.064C18.5692 122.07 18.5692 122.076 18.5705 122.082C18.4566 122.316 18.3991 122.574 18.4025 122.835C18.4025 122.835 18.4025 122.835 18.4025 122.853C18.8375 123.609 36.0095 132.609 36.7025 132.723C37.3955 132.837 37.7825 130.836 37.3955 129.954C37.0085 129.072 31.9835 122.7 31.9835 122.7L38.4155 112.017L27.4415 106.272Z" fill="#AD6359"/>
<path d="M18.3995 122.835C18.3981 122.841 18.3981 122.847 18.3995 122.853C18.8375 123.6 36.0005 132.6 36.7175 132.723C37.4345 132.846 37.7945 130.836 37.4105 129.954C37.0265 129.072 31.9835 122.7 31.9835 122.7L33.1325 120.792C30.3245 119.292 25.2215 116.67 22.0535 115.041C21.3635 116.16 20.8955 116.925 20.8955 116.928C19.8305 119.109 18.9365 121.038 18.5705 122.079C18.5692 122.085 18.5692 122.091 18.5705 122.097C18.4556 122.326 18.397 122.579 18.3995 122.835Z" fill="white"/>
<path d="M36.7141 132.723C36.0091 132.612 18.8371 123.612 18.4141 122.853C18.2431 122.568 19.4101 119.988 20.9071 116.913L20.9551 116.817L32.1001 122.502L31.9981 122.685C31.9981 122.685 37.0291 129.072 37.4221 129.957C37.8151 130.842 37.4191 132.837 36.7141 132.723Z" fill="#4D96B9"/>
<path d="M36.8706 131.955C34.0116 130.368 22.3386 124.23 19.3926 122.877C19.3686 122.877 19.3596 122.877 19.3926 122.898C22.1886 124.533 33.9156 130.575 36.8556 132.003C36.9006 132.033 36.9306 132 36.8706 131.955Z" fill="#263238"/>
<path d="M32.8955 123.207C31.8695 122.397 30.3845 121.842 29.0885 122.199C29.0375 122.199 29.0585 122.283 29.0885 122.292C30.3617 122.51 31.6078 122.864 32.8055 123.348C32.8242 123.36 32.8469 123.364 32.8685 123.359C32.8902 123.354 32.9091 123.341 32.921 123.322C32.9329 123.304 32.9369 123.281 32.9322 123.259C32.9274 123.238 32.9142 123.219 32.8955 123.207Z" fill="#263238"/>
<path d="M33.459 124.134C32.43 123.324 30.945 122.769 29.652 123.126C29.601 123.126 29.622 123.21 29.652 123.216C30.924 123.436 32.169 123.791 33.366 124.275C33.3847 124.287 33.4075 124.292 33.4294 124.287C33.4514 124.283 33.4706 124.27 33.483 124.251C33.4953 124.232 33.4997 124.209 33.4952 124.187C33.4907 124.166 33.4777 124.146 33.459 124.134Z" fill="#263238"/>
<path d="M34.0235 125.061C32.9945 124.251 31.5095 123.696 30.2135 124.05C30.1625 124.065 30.1835 124.137 30.2135 124.143C31.4868 124.362 32.7329 124.717 33.9305 125.202C33.9492 125.214 33.972 125.218 33.994 125.214C34.0159 125.209 34.0352 125.196 34.0475 125.178C34.0598 125.159 34.0642 125.136 34.0597 125.114C34.0552 125.092 34.0422 125.073 34.0235 125.061Z" fill="#263238"/>
<path d="M57.4564 57.873C57.4084 58.107 56.6074 61.824 55.7764 65.016C55.1764 67.35 54.5524 69.399 54.1954 69.612C53.7904 69.849 51.8254 70.722 51.1654 70.995C51.1654 70.995 46.7404 93.081 44.4034 99.927C42.2494 106.248 33.3304 123.138 33.3304 123.138L20.4004 116.613C20.4004 116.613 30.5044 99.4711 31.5694 96.396C33.2164 91.626 39.3874 68.343 39.3874 68.343C39.3874 68.343 39.3394 61.056 41.7874 57.873H57.4564Z" fill="#455A64"/>
<path d="M33.1385 120.63C31.2905 119.595 31.8335 119.865 29.9735 118.854C29.0735 118.359 23.0735 115.11 22.1495 114.795C22.1285 114.795 22.1105 114.822 22.1285 114.834C22.9085 115.434 28.9475 118.575 29.8685 119.052C31.7465 120.03 31.2185 119.727 33.1085 120.684C33.112 120.686 33.1159 120.687 33.1199 120.688C33.124 120.688 33.1281 120.688 33.132 120.687C33.1359 120.686 33.1395 120.684 33.1427 120.681C33.1459 120.679 33.1485 120.675 33.1505 120.672C33.1524 120.668 33.1537 120.664 33.1542 120.66C33.1546 120.656 33.1543 120.652 33.1532 120.648C33.1521 120.645 33.1502 120.641 33.1477 120.638C33.1451 120.635 33.142 120.632 33.1385 120.63Z" fill="#263238"/>
<path d="M42.6932 66.3178C43.0472 66.2248 43.4282 66.1978 43.7882 66.1408C44.0882 66.0928 44.3702 66.0418 44.6612 65.9788C45.2147 65.8787 45.7392 65.6574 46.1972 65.3308C46.6982 64.9408 46.9532 64.3498 47.1932 63.7828C47.3372 63.4438 47.4932 63.1108 47.6372 62.7748C47.7092 62.6128 47.7842 62.4508 47.8592 62.2888C47.961 62.1001 48.0522 61.9058 48.1322 61.7068C48.1322 61.6798 48.1862 61.7068 48.1742 61.7218C48.1255 61.8595 48.0844 61.9997 48.0512 62.1418C48.0032 62.3038 47.9582 62.4658 47.9072 62.6278C47.8172 62.9278 47.7302 63.2098 47.6342 63.4978C47.4912 64.0282 47.2836 64.539 47.0162 65.0188C46.4822 65.8708 45.5162 66.2188 44.5742 66.3328C44.2982 66.3688 44.0222 66.3868 43.7492 66.4048C43.4018 66.4348 43.0526 66.4348 42.7052 66.4048C42.6542 66.4048 42.6392 66.3298 42.6932 66.3178Z" fill="#263238"/>
<path d="M55.2391 69.102C53.8352 69.613 52.4782 70.2443 51.1831 70.989C51.1719 70.9942 51.1633 71.0036 51.1591 71.0151C51.1548 71.0266 51.1554 71.0394 51.1606 71.0505C51.1657 71.0616 51.1751 71.0703 51.1866 71.0745C51.1982 71.0787 51.2109 71.0782 51.2221 71.073C52.5871 70.488 53.9791 69.924 55.3111 69.273C55.3337 69.2635 55.3517 69.2453 55.361 69.2225C55.3703 69.1997 55.3701 69.1742 55.3606 69.1515C55.351 69.1288 55.3328 69.1109 55.3101 69.1016C55.2873 69.0923 55.2617 69.0924 55.2391 69.102Z" fill="#263238"/>
<path d="M55.65 59.745C55.65 59.697 55.563 59.688 55.563 59.745C55.563 61.365 55.47 62.793 55.335 64.308C55.272 65.013 54.705 68.901 53.484 68.616C53.28 68.568 53.184 68.367 53.145 68.061C53.1482 67.6558 53.2026 67.2526 53.307 66.861C53.442 66.048 53.55 65.232 53.607 64.41C53.7501 62.8785 53.734 61.3362 53.559 59.808C53.559 59.7977 53.5549 59.7878 53.5476 59.7804C53.5403 59.7731 53.5304 59.769 53.52 59.769C53.5097 59.769 53.4998 59.7731 53.4925 59.7804C53.4852 59.7878 53.481 59.7977 53.481 59.808C53.5163 61.9303 53.3919 64.0523 53.109 66.156C52.956 67.17 52.446 68.691 53.505 68.856C54.564 69.021 55.278 66.456 55.41 65.766C55.7495 63.7778 55.8302 61.754 55.65 59.745Z" fill="#263238"/>
<path d="M53.5174 68.7147C53.4085 68.9773 53.3173 69.2469 53.2444 69.5217C53.1637 69.7332 53.125 69.9584 53.1304 70.1847C53.1304 70.2267 53.1904 70.2297 53.2144 70.2027C53.3403 70.0031 53.4354 69.7857 53.4964 69.5577C53.5894 69.3087 53.6884 69.0597 53.7724 68.8077C53.7847 68.7739 53.7831 68.7366 53.7679 68.7039C53.7527 68.6713 53.7252 68.646 53.6914 68.6337C53.6576 68.6214 53.6202 68.623 53.5876 68.6382C53.555 68.6534 53.5297 68.6809 53.5174 68.7147Z" fill="#263238"/>
<path d="M23.8801 114.468C25.7221 111 27.6211 107.568 29.5291 104.133C30.4681 102.441 31.4461 100.767 32.3431 99.0507C33.1881 97.3527 33.874 95.5801 34.3921 93.7557C35.5321 90.0517 36.6111 86.3307 37.6291 82.5927C38.6471 78.8547 39.6041 75.0997 40.5001 71.3277C40.7251 70.3857 40.9711 69.4437 41.1541 68.4927C41.3176 67.5306 41.3176 66.5478 41.1541 65.5857C41.017 64.6914 41.0099 63.782 41.1331 62.8857C41.2777 61.9901 41.4893 61.1066 41.7661 60.2427C41.9101 59.7867 42.0661 59.3427 42.2221 58.8867C42.2225 58.8803 42.2243 58.8741 42.2275 58.8686C42.2306 58.8631 42.2349 58.8583 42.2401 58.8547C42.2454 58.851 42.2513 58.8486 42.2576 58.8477C42.2639 58.8467 42.2703 58.8472 42.2764 58.849C42.2825 58.8509 42.2881 58.8541 42.2927 58.8585C42.2974 58.8628 42.301 58.8681 42.3033 58.8741C42.3056 58.88 42.3065 58.8864 42.3059 58.8927C42.3054 58.8991 42.3034 58.9052 42.3001 58.9107C41.7421 60.7347 41.1721 62.5797 41.2921 64.5147C41.3491 65.4417 41.5921 66.3537 41.5921 67.2897C41.5325 68.2187 41.3747 69.1389 41.1211 70.0347C40.2411 73.8347 39.2961 77.6107 38.2861 81.3627C37.2761 85.1147 36.2091 88.8577 35.0851 92.5917C34.5361 94.3917 34.0231 96.2457 33.2431 97.9737C32.4631 99.7017 31.4731 101.343 30.5431 102.996C28.6201 106.416 26.6821 109.827 24.7021 113.211C24.4501 113.639 24.1971 114.067 23.9431 114.495C23.9071 114.522 23.8681 114.495 23.8801 114.468Z" fill="#263238"/>
<path d="M51.3327 36.7857C49.7397 35.9307 45.3567 35.5557 43.5897 36.7407C41.3607 38.2407 39.3087 46.8987 40.2177 47.4117C41.8407 48.3267 47.4567 43.2927 48.6807 41.2287C49.9047 39.1647 51.3327 36.7857 51.3327 36.7857Z" fill="#4D96B9"/>
<path opacity="0.1" d="M51.3335 36.7857C51.3335 36.7857 49.9055 39.1617 48.6815 41.2257C47.4575 43.2897 41.8415 48.3267 40.2185 47.4117C39.7235 47.1297 40.1105 44.4117 40.9325 41.7567L49.5455 36.2217C50.1651 36.3243 50.7671 36.5142 51.3335 36.7857Z" fill="black"/>
<path d="M51.762 42.999C52.533 46.446 55.662 56.745 58.962 58.041C61.113 58.89 70.41 60.099 71.433 59.412C72.297 58.83 72.933 50.676 71.685 50.736C70.437 50.796 62.133 50.205 61.287 49.8C60.441 49.395 56.286 41.469 54.114 39.159C50.358 35.178 51.348 41.142 51.762 42.999Z" fill="#AD6359"/>
<path d="M75.6302 59.8677C73.8092 60.3747 69.6842 59.9517 68.7302 59.4687C67.7762 58.9857 68.2562 51.9447 69.1712 51.3327C70.0862 50.7207 76.3442 49.4907 78.1142 50.2497C79.8842 51.0087 77.5142 59.3427 75.6302 59.8677Z" fill="#AD6359"/>
<path d="M114.879 113.421C114.765 113.406 103.341 111.906 95.4357 99.9206C93.2307 96.5996 91.2177 87.2996 89.0997 77.4446C86.2257 64.1816 82.9737 49.1486 78.9867 49.0886C76.1817 49.0466 73.8597 51.7886 73.2327 53.0486C72.5337 54.4526 71.1987 56.6306 71.1837 56.6486L70.9287 56.4926C70.9287 56.4716 72.2727 54.3026 72.9657 52.9106C73.6137 51.6116 76.0047 48.7856 78.9237 48.7856H78.9927C83.2167 48.8486 86.3547 63.3536 89.3907 77.3786C91.5177 87.1976 93.5247 96.4706 95.6907 99.7646C103.5 111.621 114.801 113.1 114.915 113.124L114.879 113.421Z" fill="#263238"/>
<path d="M73.486 50.7202L69.8965 56.8506L71.4498 57.7601L75.0393 51.6297L73.486 50.7202Z" fill="#4D96B9"/>
<path d="M75.1527 49.632C74.4657 50.361 75.7167 50.751 75.7167 50.751C75.7167 50.751 73.7787 50.622 73.3617 51.651C72.9447 52.68 74.4927 53.058 74.6007 53.091C74.4987 53.091 72.7137 53.01 72.4017 54.084C72.0897 55.158 73.6827 55.356 73.7877 55.368C73.6887 55.392 72.3897 55.74 72.3387 56.61C72.2487 58.11 75.5907 57.303 76.5957 57.978C76.5957 57.978 75.6447 59.811 75.6297 59.871C75.6297 59.871 78.8247 59.175 79.6617 57.771C79.7863 57.5683 79.8382 57.3292 79.8087 57.0931C79.7793 56.857 79.6703 56.6379 79.4997 56.472C79.4997 56.472 80.5527 56.361 80.8287 55.524C80.9667 55.095 80.4027 54.489 80.4027 54.489C80.64 54.4516 80.8625 54.3494 81.0456 54.1938C81.2287 54.0382 81.3654 53.8352 81.4407 53.607C81.5997 53.007 81.0087 52.488 81.0087 52.488C81.0087 52.488 81.7617 51.993 81.7227 51.324C81.6477 49.962 76.6227 48.075 75.1527 49.632Z" fill="#AD6359"/>
<path d="M80.4333 54.483C80.4513 54.483 80.4663 54.462 80.4483 54.447C78.7203 53.2848 76.6338 52.7783 74.5653 53.019C74.4933 53.019 74.4363 53.112 74.5203 53.106C75.9333 53.007 78.8673 53.736 80.4333 54.483Z" fill="#263238"/>
<path d="M73.6475 55.4366C75.6725 55.2176 77.5625 55.6736 79.4375 56.4176C79.4615 56.4176 79.4735 56.3936 79.4555 56.3786C78.6365 55.7636 77.3945 55.4126 76.4015 55.2236C75.485 55.0282 74.5333 55.0768 73.6415 55.3646C73.6055 55.3766 73.6055 55.4396 73.6475 55.4366Z" fill="#263238"/>
<path d="M75.7174 50.7506C75.3441 50.7596 74.9725 50.8038 74.6074 50.8826C74.2495 50.9428 73.9141 51.097 73.6354 51.3296C73.5133 51.4434 73.4375 51.5983 73.4224 51.7646C73.4111 51.9326 73.4421 52.1007 73.5124 52.2536C73.5959 52.3992 73.709 52.5258 73.8443 52.625C73.9797 52.7242 74.1344 52.7939 74.2984 52.8296L75.0934 53.0366L74.2744 53.1176C73.9109 53.1506 73.5552 53.2428 73.2214 53.3906C73.0634 53.4502 72.9197 53.5424 72.7998 53.6613C72.6799 53.7802 72.5864 53.9231 72.5254 54.0806C72.4699 54.2277 72.4667 54.3894 72.5164 54.5386C72.5661 54.6878 72.6657 54.8153 72.7984 54.8996C73.1 55.0815 73.4425 55.1847 73.7944 55.1996L74.7634 55.2716L73.8274 55.5176C73.5669 55.586 73.3159 55.6868 73.0804 55.8176C72.8537 55.9343 72.666 56.1147 72.5404 56.3366C72.4861 56.4413 72.4629 56.5594 72.4735 56.6769C72.4842 56.7944 72.5282 56.9063 72.6004 56.9996C72.7848 57.1828 73.0182 57.3088 73.2724 57.3626C73.8199 57.491 74.3766 57.5762 74.9374 57.6176C75.2194 57.6476 75.5044 57.6776 75.7864 57.7226C76.0727 57.7498 76.3499 57.8378 76.5994 57.9806C76.3396 57.8682 76.0605 57.8071 75.7774 57.8006C75.4954 57.7766 75.2134 57.7676 74.9284 57.7586C74.3487 57.7598 73.7702 57.7066 73.2004 57.5996C72.8928 57.5448 72.608 57.4008 72.3814 57.1856C72.2706 57.0556 72.2002 56.896 72.1789 56.7265C72.1575 56.557 72.1862 56.385 72.2614 56.2316C72.4079 55.9509 72.6345 55.7201 72.9124 55.5686C73.1725 55.4179 73.4508 55.3009 73.7404 55.2206L73.7734 55.5416C73.3569 55.5324 72.9502 55.4134 72.5944 55.1966C72.4012 55.0707 72.2571 54.8821 72.1864 54.6626C72.1188 54.4457 72.1188 54.2135 72.1864 53.9966C72.2623 53.796 72.3803 53.614 72.5324 53.4629C72.6846 53.3118 72.8674 53.1951 73.0684 53.1206C73.4386 52.9643 73.8317 52.8691 74.2324 52.8386L74.2084 53.1386C74.0064 53.0873 73.818 52.9922 73.6568 52.86C73.4956 52.7278 73.3654 52.5617 73.2754 52.3736C73.1976 52.1838 73.1697 51.9772 73.1944 51.7736C73.2246 51.562 73.3313 51.3688 73.4944 51.2306C73.8082 50.9956 74.181 50.8523 74.5714 50.8166C74.9497 50.7513 75.3342 50.7291 75.7174 50.7506Z" fill="#263238"/>
<path d="M70.2004 50.937C70.2004 50.937 76.4524 45.924 77.2144 49.329C77.4394 50.34 77.1634 54.762 76.2724 54.729C75.1234 54.678 74.8954 52.809 74.9374 51.615C74.9374 51.615 73.0504 53.619 71.2654 52.719C70.9403 52.5496 70.6686 52.2934 70.4806 51.9787C70.2926 51.6641 70.1956 51.3035 70.2004 50.937Z" fill="#AD6359"/>
<path d="M77.1303 49.0498C77.266 49.4362 77.3439 49.8406 77.3613 50.2498C77.3913 50.6583 77.3913 51.0684 77.3613 51.4768C77.3238 52.2968 77.2144 53.1119 77.0343 53.9128C76.9838 54.1225 76.9051 54.3243 76.8003 54.5128C76.7374 54.6211 76.6526 54.7151 76.5513 54.7888C76.4961 54.8294 76.4341 54.8599 76.3683 54.8788C76.3018 54.8966 76.2331 54.9047 76.1643 54.9028C75.9173 54.8845 75.6852 54.778 75.5103 54.6028C75.3507 54.4452 75.2207 54.2602 75.1263 54.0568C74.9587 53.6673 74.8574 53.2526 74.8263 52.8298C74.7873 52.418 74.7783 52.0039 74.7993 51.5908L75.0453 51.6898C74.8221 51.9127 74.578 52.1137 74.3163 52.2898C74.0592 52.4647 73.7848 52.6125 73.4973 52.7308C73.2098 52.8487 72.9066 52.9235 72.5973 52.9528C72.2943 52.9789 71.9891 52.9484 71.6973 52.8628C71.9952 52.9123 72.2993 52.9123 72.5973 52.8628C72.8911 52.8074 73.1758 52.7115 73.4433 52.5778C73.7111 52.4473 73.9654 52.2905 74.2023 52.1098C74.4374 51.9305 74.6554 51.7296 74.8533 51.5098L75.0963 51.2368V51.6088C75.0922 52.0098 75.1142 52.4107 75.1623 52.8088C75.202 53.1954 75.3033 53.5732 75.4623 53.9278C75.6213 54.2548 75.8913 54.5608 76.2063 54.5728C76.5213 54.5848 76.6503 54.1918 76.7523 53.8258C76.8557 53.4404 76.9388 53.0499 77.0013 52.6558C77.0733 52.2568 77.1363 51.8608 77.1813 51.4558C77.2888 50.656 77.2716 49.8443 77.1303 49.0498Z" fill="#263238"/>
<path d="M69.5009 50.0098L68.2049 60.0988C68.2049 60.0988 59.5499 59.9368 55.7489 57.0988C54.1829 55.9258 51.7019 45.1798 51.1919 41.4358C50.6819 37.6918 52.1369 35.4598 55.2059 40.2628C58.2749 45.0658 61.1669 49.2388 61.5509 49.2808C61.9349 49.3228 69.5009 50.0098 69.5009 50.0098Z" fill="#4D96B9"/>
<path d="M52.4998 44.6127C52.2797 44.8885 52.0952 45.1909 51.9508 45.5127C51.941 45.5299 51.933 45.548 51.9268 45.5667C51.936 45.5569 51.946 45.5479 51.9568 45.5397C52.2357 45.3066 52.4855 45.0407 52.7008 44.7477C52.9318 44.4518 53.1234 44.1271 53.2708 43.7817C52.9813 44.0267 52.7224 44.3057 52.4998 44.6127ZM64.7998 55.3377C64.5701 55.6351 64.3795 55.9608 64.2328 56.3067C64.5243 56.0698 64.7844 55.7966 65.0068 55.4937C65.2393 55.1967 65.4311 54.8698 65.5768 54.5217C65.2848 54.7604 65.0238 55.0345 64.7998 55.3377ZM57.3628 57.0927C57.0641 56.8625 56.7387 56.6691 56.3938 56.5167C56.629 56.8107 56.9024 57.072 57.2068 57.2937C57.5041 57.5236 57.8285 57.7161 58.1728 57.8667C57.9323 57.5753 57.6562 57.3152 57.3508 57.0927H57.3628ZM67.0918 50.7207C66.7168 50.7636 66.3494 50.8575 65.9998 50.9997C66.3734 51.0373 66.7503 51.0282 67.1218 50.9727C67.4954 50.9244 67.862 50.8318 68.2138 50.6967C67.8364 50.6527 67.4549 50.6608 67.0798 50.7207H67.0918ZM54.5518 50.7207C54.1771 50.7636 53.8098 50.8565 53.4598 50.9967C53.8344 51.0343 54.2123 51.0252 54.5848 50.9697C54.9575 50.9218 55.3232 50.8291 55.6738 50.6937C55.2963 50.6504 54.9147 50.6595 54.5398 50.7207H54.5518ZM60.7408 51.2577C60.6863 50.8837 60.5855 50.5179 60.4408 50.1687C60.3797 50.9207 60.4821 51.677 60.7408 52.3857C60.7803 52.0105 60.7763 51.632 60.7288 51.2577H60.7408Z" fill="white"/>
<path d="M67.1999 50.538C67.0169 51.225 66.9328 51.948 66.8188 52.638C66.7048 53.328 66.6028 54.102 66.5188 54.834C66.4348 55.566 66.1199 58.515 66.0479 59.25C66.0479 59.283 66.0929 59.289 66.0989 59.25C66.2189 58.518 66.6989 55.623 66.7889 54.903C66.8789 54.183 66.9809 53.463 67.0559 52.74C67.1563 52.0067 67.2194 51.2687 67.2448 50.529C67.2298 50.532 67.1999 50.52 67.1999 50.538Z" fill="#263238"/>
<path opacity="0.1" d="M63.4768 59.6696C60.8248 59.2796 57.6688 58.5266 55.7488 57.0926C54.1828 55.9226 51.7018 45.1707 51.1888 41.4297C50.9698 39.8097 51.1168 38.4777 51.6058 37.8687L63.4768 59.6696Z" fill="black"/>
<path d="M39.3002 64.4308C39.3542 64.4818 59.5532 63.1678 59.7302 62.9308C59.8442 62.7838 54.3602 40.6768 52.4882 37.9588C51.6302 36.7108 48.3752 36.4288 47.0312 37.6948C43.6622 40.8598 41.3312 51.1018 40.8272 54.1708C40.0082 59.2348 39.1142 64.2448 39.3002 64.4308Z" fill="#4D96B9"/>
<path d="M52.3023 61.1187C52.2533 60.7445 52.1586 60.3778 52.0203 60.0267C51.9841 60.4024 51.9931 60.7811 52.0473 61.1547C52.0929 61.5279 52.1888 61.8932 52.3323 62.2407C52.3658 61.8668 52.3557 61.4903 52.3023 61.1187ZM47.8023 48.3027C47.7554 47.9294 47.6617 47.5635 47.5233 47.2137C47.4826 47.5872 47.4917 47.9645 47.5503 48.3357C47.5974 48.7099 47.6912 49.0767 47.8293 49.4277C47.8702 49.0524 47.8642 48.6735 47.8113 48.2997L47.8023 48.3027ZM54.5313 50.7207C54.1566 50.7636 53.7893 50.8564 53.4393 50.9967C53.8139 51.0343 54.1918 51.0252 54.5643 50.9697C54.937 50.9217 55.3027 50.8291 55.6533 50.6937C55.2827 50.6523 54.9083 50.6614 54.5403 50.7207H54.5313ZM46.9683 42.6207C46.6017 42.6671 46.2427 42.7609 45.9003 42.8997C46.276 42.9377 46.6551 42.9276 47.0283 42.8697C47.401 42.8235 47.7668 42.7318 48.1173 42.5967C47.739 42.5436 47.3552 42.5446 46.9773 42.5997L46.9683 42.6207ZM44.6103 53.4297C44.2369 53.4748 43.871 53.5675 43.5213 53.7057C43.8957 53.7472 44.2739 53.7391 44.6463 53.6817C45.0193 53.6337 45.3851 53.54 45.7353 53.4027C45.3607 53.362 44.9824 53.371 44.6103 53.4297ZM43.8663 63.4797C43.4932 63.5262 43.1274 63.6189 42.7773 63.7557C43.1516 63.7987 43.5301 63.7906 43.9023 63.7317C44.2756 63.6852 44.6415 63.5914 44.9913 63.4527C44.6166 63.4134 44.2386 63.4225 43.8663 63.4797ZM57.3513 57.0927C57.0526 56.8625 56.7272 56.6691 56.3823 56.5167C56.6175 56.8107 56.8909 57.072 57.1953 57.2937C57.4925 57.5236 57.817 57.716 58.1613 57.8667C57.9246 57.576 57.6524 57.3159 57.3513 57.0927ZM42.4323 47.3367C42.4053 47.4237 42.3813 47.5107 42.3573 47.5977C42.6357 47.804 42.9378 47.9763 43.2573 48.1107C43.0174 47.8176 42.74 47.5574 42.4323 47.3367ZM45.6183 59.3007C45.3203 59.0702 44.9948 58.8777 44.6493 58.7277C44.8837 59.0233 45.1572 59.2857 45.4623 59.5077C45.7617 59.736 46.0869 59.9284 46.4313 60.0807C46.196 59.7858 45.9226 59.5235 45.6183 59.3007ZM48.9903 37.1397C48.9033 37.0737 48.8133 37.0107 48.7233 36.9507C48.6273 36.9507 48.5343 36.9837 48.4413 37.0077C48.5703 37.1247 48.7053 37.2327 48.8403 37.3407C49.138 37.5715 49.4635 37.764 49.8093 37.9137C49.5704 37.6218 49.2951 37.3617 48.9903 37.1397ZM50.3313 54.8727C50.1028 55.1698 49.9123 55.4943 49.7643 55.8387C50.3462 55.3507 50.8072 54.7346 51.1113 54.0387C50.8169 54.2824 50.5548 54.5627 50.3313 54.8727ZM39.5613 61.9287C39.5373 62.0997 39.5103 62.2617 39.4893 62.4147L39.5193 62.3817C39.7518 62.0857 39.9435 61.7598 40.0893 61.4127C39.8988 61.5692 39.7221 61.7418 39.5613 61.9287ZM52.5003 44.6127C52.267 44.9087 52.0743 45.2346 51.9273 45.5817C52.2176 45.3412 52.4775 45.0661 52.7013 44.7627C52.9323 44.4667 53.1239 44.142 53.2713 43.7967C52.9827 44.037 52.7239 44.311 52.5003 44.6127Z" fill="white"/>
<path d="M51.5671 40.6436C50.4901 40.7546 48.6841 38.7626 48.1411 37.3736C48.1051 37.2776 48.3601 36.3566 48.6211 35.2256C48.7741 34.5386 48.9211 33.7676 49.0231 33.0566L53.3521 34.7156C52.9816 35.574 52.7186 36.4748 52.5691 37.3976C52.5599 37.4974 52.5599 37.5979 52.5691 37.6976C52.5706 37.7146 52.5706 37.7317 52.5691 37.7486C52.5811 38.3096 52.6111 40.5326 51.5671 40.6436Z" fill="#AD6359"/>
<path d="M52.5605 37.695V37.74C52.4059 37.7427 52.2514 37.7326 52.0985 37.71C49.5215 37.317 49.3175 34.074 49.3145 33.168L50.4005 33.6L53.3555 34.731C52.9855 35.5895 52.7225 36.4902 52.5725 37.413C52.5604 37.5065 52.5564 37.6008 52.5605 37.695Z" fill="#263238"/>
<path d="M49.4491 27.8398C48.7471 29.3968 49.0052 34.1788 50.0222 35.3698C51.4952 37.0948 54.2221 37.5868 55.7491 35.7478C57.2492 33.9478 56.7991 27.7348 55.6351 26.6218C53.9191 24.9838 50.4841 25.5448 49.4491 27.8398Z" fill="#AD6359"/>
<path d="M53.6608 31.3589C53.6608 31.3589 53.6368 31.3769 53.6398 31.3889C53.6638 31.7099 53.6398 32.0819 53.3398 32.2049V32.2229C53.6998 32.1539 53.7388 31.6589 53.6608 31.3589Z" fill="#263238"/>
<path d="M53.358 31.0347C52.839 31.0347 52.848 32.0637 53.331 32.0757C53.814 32.0877 53.793 31.0467 53.358 31.0347Z" fill="#263238"/>
<path d="M55.455 31.314C55.455 31.314 55.482 31.329 55.479 31.341C55.479 31.665 55.518 32.034 55.812 32.139C55.812 32.139 55.812 32.16 55.812 32.157C55.452 32.1 55.398 31.617 55.455 31.314Z" fill="#263238"/>
<path d="M55.7404 30.9719C56.2594 30.9299 56.3104 31.9679 55.8304 32.0099C55.3504 32.0519 55.3054 31.0109 55.7404 30.9719Z" fill="#263238"/>
<path d="M52.9413 30.5638C53.0781 30.523 53.2123 30.4739 53.3433 30.4168C53.4924 30.3857 53.6272 30.3067 53.7273 30.1918C53.7515 30.1494 53.7608 30.1 53.7538 30.0516C53.7467 30.0032 53.7236 29.9586 53.6883 29.9248C53.6093 29.8675 53.5164 29.8326 53.4193 29.8236C53.3221 29.8146 53.2244 29.832 53.1363 29.8738C52.9451 29.9299 52.7815 30.055 52.6773 30.2248C52.6553 30.2649 52.6455 30.3105 52.6492 30.3561C52.6528 30.4016 52.6697 30.4451 52.6978 30.4811C52.7259 30.5172 52.7639 30.5442 52.8072 30.5589C52.8504 30.5736 52.897 30.5753 52.9413 30.5638Z" fill="#263238"/>
<path d="M56.1394 30.444C55.9986 30.4178 55.8594 30.3837 55.7224 30.342C55.5719 30.3248 55.4309 30.2596 55.3204 30.156C55.2912 30.117 55.2754 30.0697 55.2754 30.021C55.2754 29.9723 55.2912 29.9249 55.3204 29.886C55.3931 29.8212 55.4817 29.777 55.5772 29.758C55.6727 29.7391 55.7715 29.7459 55.8634 29.778C56.0598 29.8133 56.2362 29.9202 56.3584 30.078C56.3841 30.1149 56.3986 30.1585 56.4001 30.2035C56.4016 30.2485 56.3902 30.293 56.367 30.3317C56.3439 30.3703 56.3101 30.4015 56.2698 30.4214C56.2294 30.4413 56.1841 30.4491 56.1394 30.444Z" fill="#263238"/>
<path d="M53.3102 34.2898C53.3882 34.3648 53.4662 34.4668 53.5832 34.4758C53.703 34.4735 53.8208 34.4448 53.9282 34.3918C53.9282 34.3918 53.9492 34.3918 53.9432 34.3918C53.898 34.456 53.8362 34.5068 53.7643 34.5385C53.6924 34.5702 53.6132 34.5817 53.5352 34.5718C53.4694 34.5556 53.4099 34.5201 53.3645 34.4699C53.319 34.4196 53.2897 34.3569 53.2802 34.2898C53.2742 34.2868 53.2982 34.2778 53.3102 34.2898Z" fill="#263238"/>
<path d="M53.6401 33.3209C53.7232 33.4477 53.8317 33.5558 53.9587 33.6384C54.0858 33.721 54.2286 33.7764 54.3781 33.8009C54.5093 33.822 54.6429 33.822 54.7741 33.8009C54.799 33.8039 54.8242 33.8039 54.8491 33.8009H54.9181C54.9354 33.7978 54.9513 33.789 54.9632 33.776C54.9751 33.763 54.9824 33.7465 54.9841 33.7289C54.9856 33.718 54.9856 33.7069 54.9841 33.6959V33.6689C54.9841 33.4199 54.9631 33.0419 54.9631 33.0419C55.0531 33.0869 55.5181 33.2909 55.5091 33.1619C55.4698 32.0422 55.316 30.9294 55.0501 29.8409C55.0481 29.8349 55.0443 29.8297 55.0392 29.826C55.0341 29.8223 55.0279 29.8203 55.0216 29.8203C55.0153 29.8203 55.0091 29.8223 55.004 29.826C54.9989 29.8297 54.9951 29.8349 54.9931 29.8409C55.0231 30.8759 55.2361 31.8959 55.2931 32.9369C55.1269 32.8623 54.9513 32.8108 54.7711 32.7839C54.7381 32.7839 54.8371 33.5129 54.8281 33.6239C54.6248 33.6463 54.4192 33.6276 54.2233 33.5688C54.0275 33.5101 53.8455 33.4125 53.6881 33.2819C53.6461 33.2729 53.6191 33.2999 53.6401 33.3209Z" fill="#263238"/>
<path d="M54.6328 33.7677C54.4891 33.9334 54.3052 34.0594 54.0988 34.1337C53.9846 34.1698 53.862 34.1698 53.7478 34.1337C53.5018 34.0527 53.5078 33.8337 53.5648 33.6267C53.5966 33.5217 53.6409 33.421 53.6968 33.3267C53.9532 33.5706 54.2815 33.7252 54.6328 33.7677Z" fill="#263238"/>
<path d="M54.0988 34.134C53.9846 34.1701 53.862 34.1701 53.7478 34.134C53.5018 34.053 53.5078 33.834 53.5648 33.627C53.6975 33.6401 53.822 33.6971 53.9187 33.7889C54.0154 33.8807 54.0788 34.0021 54.0988 34.134Z" fill="#FF98B9"/>
<path opacity="0.2" d="M49.0292 31.3559C49.3772 31.1939 50.0552 30.1109 50.3582 29.6699C50.6612 29.2289 50.7242 26.9999 50.7242 26.3369C50.6552 26.3819 50.5892 26.4299 50.5232 26.4809C50.4572 26.5319 50.3942 26.5829 50.3312 26.6369C50.2024 26.7467 50.0821 26.866 49.9712 26.9939C49.7834 27.2243 49.6252 27.4772 49.5002 27.7469C49.1402 28.4729 48.9872 29.9039 49.0292 31.3559Z" fill="#263238"/>
<path d="M54.9899 28.1487C54.8029 28.3738 54.5613 28.5472 54.2882 28.6522C54.015 28.7573 53.7195 28.7905 53.4299 28.7487C53.1347 28.7076 52.8549 28.5918 52.6171 28.4122C52.3792 28.2326 52.1912 27.9953 52.0709 27.7227H52.0469C52.1448 28.0216 52.3227 28.2881 52.5611 28.4932C52.7996 28.6984 53.0896 28.8345 53.3999 28.8867C53.7074 28.9205 54.0183 28.8729 54.3016 28.7487C54.5849 28.6244 54.8305 28.4278 55.0139 28.1787C55.0379 28.1547 55.0079 28.1277 54.9899 28.1487Z" fill="#263238"/>
<path d="M53.1657 23.9398C52.713 23.9461 52.269 24.0662 51.8748 24.289C51.4806 24.5118 51.1487 24.8302 50.9097 25.2148C50.7124 25.6014 50.6521 26.0435 50.7387 26.4688C50.7387 26.4868 50.7777 26.4688 50.7747 26.4688C50.7488 26.0906 50.8258 25.7124 50.9974 25.3744C51.1691 25.0363 51.429 24.7511 51.7497 24.5488C52.0979 24.3138 52.4959 24.1627 52.9123 24.1075C53.3288 24.0523 53.7524 24.0946 54.1497 24.2308C54.5377 24.3564 54.8684 24.6159 55.0827 24.9628C55.1037 24.9988 55.1787 24.9628 55.1607 24.9358C54.8997 24.3178 54.0657 23.9068 53.1657 23.9398Z" fill="#263238"/>
<path d="M58.9625 26.0249C58.7939 25.5363 58.4582 25.123 58.0145 24.8579C57.4145 24.4889 56.7125 24.5579 56.0285 24.6299C56.0105 24.6299 56.0285 24.6599 56.0285 24.6569C56.6053 24.5483 57.2012 24.6087 57.7445 24.8309C58.1892 25.0501 58.5451 25.4155 58.7525 25.8659C58.9509 26.3305 58.9752 26.851 58.8209 27.332C58.6666 27.8131 58.3441 28.2224 57.9125 28.4849C57.6603 28.6295 57.3812 28.7212 57.0923 28.7542C56.8034 28.7872 56.5109 28.7609 56.2325 28.6769C56.2115 28.6769 56.1965 28.7009 56.2325 28.7099C56.6106 28.8404 57.0176 28.8628 57.4078 28.7745C57.7979 28.6862 58.1556 28.4907 58.4406 28.21C58.7257 27.9294 58.9267 27.5747 59.021 27.186C59.1153 26.7973 59.0992 26.3899 58.9745 26.0099L58.9625 26.0249Z" fill="#263238"/>
<path d="M49.1369 28.8359C49.1369 28.8359 48.1829 27.0659 48.9629 26.0309C49.4069 25.4309 50.8889 25.5089 50.8889 25.5089C51.0828 25.2158 51.3326 24.9636 51.6239 24.767C51.9153 24.5704 52.2425 24.4331 52.5869 24.3629C53.8289 24.0629 55.3079 24.7859 55.3079 24.7859C55.3079 24.7859 56.4839 24.1019 57.5909 24.7259C59.1389 25.5959 58.9619 27.9419 57.4169 28.7069C56.3309 29.2439 54.8489 28.2899 54.8489 28.2899C54.7049 28.3109 53.2559 29.1899 52.1489 27.9089C52.1489 27.9089 51.2489 28.7099 50.4539 28.1579C50.3293 28.3914 50.1365 28.5813 49.9012 28.7025C49.6659 28.8236 49.3993 28.8702 49.1369 28.8359Z" fill="#263238"/>
<path d="M49.9595 31.7786C49.9595 31.7786 49.0595 30.1496 48.3365 30.4526C47.6135 30.7556 48.1685 33.0386 48.9365 33.4256C49.0325 33.4821 49.1389 33.5187 49.2494 33.5331C49.3598 33.5475 49.472 33.5395 49.5793 33.5095C49.6866 33.4795 49.7867 33.4282 49.8737 33.3587C49.9607 33.2891 50.0327 33.2027 50.0855 33.1046L49.9595 31.7786Z" fill="#AD6359"/>
<path d="M48.5129 31.104C48.5129 31.104 48.4949 31.104 48.5129 31.125C49.0529 31.425 49.2959 31.971 49.4459 32.538C49.4188 32.4779 49.3791 32.4243 49.3294 32.3809C49.2798 32.3376 49.2214 32.3054 49.1582 32.2866C49.095 32.2678 49.0285 32.2628 48.9632 32.2721C48.8979 32.2813 48.8354 32.3045 48.7799 32.34C48.7649 32.34 48.7799 32.376 48.7799 32.373C48.8829 32.3524 48.9898 32.3641 49.0859 32.4065C49.182 32.4489 49.2627 32.52 49.3169 32.61C49.4052 32.7611 49.4776 32.921 49.5329 33.087C49.5539 33.141 49.6499 33.123 49.6379 33.063C49.7309 32.331 49.2779 31.26 48.5129 31.104Z" fill="#263238"/>
<path d="M59.7276 47.1089L58.9326 57.0989H53.4366L52.6416 47.1089H59.7276Z" fill="#C7C7C7"/>
<path d="M60.2011 46.2061H52.1221V47.6641H60.2011V46.2061Z" fill="#455A64"/>
<path d="M59.6458 46.2059H52.6738L53.0818 44.5679H59.2408L59.6458 46.2059Z" fill="#37474F"/>
<path d="M58.0924 52.2001C58.0924 53.4991 57.2374 54.5491 56.1844 54.5491C55.1314 54.5491 54.2764 53.4991 54.2764 52.2001C54.2764 50.9011 55.1314 49.8511 56.1844 49.8511C57.2374 49.8511 58.0924 50.8951 58.0924 52.2001Z" fill="white"/>
<path d="M45.0816 39.5279C40.2816 45.1919 36.4416 55.2089 37.8306 57.3659C39.3786 59.7659 44.7516 53.1659 44.6916 52.7459C44.6466 52.4219 46.5666 46.2749 47.6916 40.6709C48.7266 35.4929 46.2696 38.1269 45.0816 39.5279Z" fill="#AD6359"/>
<path d="M45.0816 39.5279C40.2816 45.1919 36.4416 55.2089 37.8306 57.3659C39.3786 59.7659 44.7516 53.1659 44.6916 52.7459C44.6466 52.4219 46.5666 46.2749 47.6916 40.6709C48.7266 35.4929 46.2696 38.1269 45.0816 39.5279Z" fill="#4D96B9"/>
<path d="M38.8619 55.764C38.634 56.0615 38.4435 56.3859 38.2949 56.73C38.8762 56.2474 39.3373 55.6363 39.6419 54.945C39.349 55.1846 39.087 55.4597 38.8619 55.764ZM42.4319 47.337C42.1341 47.1055 41.8086 46.912 41.4629 46.761C41.6982 47.0549 41.9716 47.3162 42.2759 47.538C42.5739 47.7685 42.8994 47.961 43.2449 48.111C43.0088 47.8187 42.7355 47.5585 42.4319 47.337ZM43.5209 53.7C43.7019 53.723 43.8846 53.7311 44.0669 53.724L44.2469 53.487C43.9981 53.5323 43.7548 53.6037 43.5209 53.7ZM46.9769 42.6C46.6063 42.6523 46.2442 42.7532 45.8999 42.9C46.2757 42.938 46.6547 42.9279 47.0279 42.87L47.2409 42.837L47.2949 42.585L46.9769 42.6Z" fill="white"/>
<path d="M45.2158 50.6547C45.3478 49.9857 45.5158 49.3197 45.6628 48.6537C45.8098 47.9877 45.9928 47.3307 46.1578 46.6677L46.6888 44.6907C46.8718 44.0307 47.0578 43.3737 47.2528 42.7197C47.1478 43.3947 47.0068 44.0637 46.8568 44.7327C46.7068 45.4017 46.5388 46.0617 46.3738 46.7247C46.2088 47.3877 46.0198 48.0417 45.8278 48.6987C45.6358 49.3557 45.4378 50.0097 45.2158 50.6547Z" fill="#263238"/>
<path d="M47.5737 43.479C47.511 43.7844 47.4027 44.0787 47.2527 44.352C47.1098 44.631 46.9153 44.8803 46.6797 45.087L46.9047 44.682L47.1207 44.28C47.2677 44.013 47.3997 43.743 47.5737 43.479Z" fill="#263238"/>
<path d="M38.0014 57.3C38.9464 58.389 41.4754 59.787 49.8514 58.881C51.0124 58.755 51.7024 50.136 50.4514 50.208C48.8854 50.295 43.7044 51.108 43.2754 51.228C40.0714 52.2 37.0564 56.223 38.0014 57.3Z" fill="#AD6359"/>
<path d="M60.7924 49.7399C60.8982 49.9928 60.9243 50.2721 60.8669 50.5402C60.8095 50.8083 60.6715 51.0525 60.4714 51.2399C60.8624 51.4936 61.1513 51.8771 61.2874 52.3229C61.4914 53.1179 60.3334 53.7869 60.3334 53.7869C60.6823 54.1353 60.9186 54.5806 61.0114 55.0649C61.1284 55.8479 60.0574 56.6879 60.0574 56.6879C60.2011 57.1853 60.1607 57.7179 59.9434 58.1879C59.3134 59.4209 57.2074 59.6069 55.8694 59.7359C54.5314 59.8649 50.6164 58.9829 49.8514 58.8899L49.4434 50.2949C49.4434 50.2949 54.7744 48.0209 56.3704 48.0899C57.7144 48.1529 60.3514 48.7889 60.7924 49.7399Z" fill="#AD6359"/>
<path d="M60.3988 51.1109C58.9858 50.7059 57.5278 50.7389 56.0728 50.6909C56.0675 50.6928 56.0629 50.6962 56.0597 50.7008C56.0564 50.7053 56.0547 50.7108 56.0547 50.7164C56.0547 50.722 56.0564 50.7275 56.0597 50.7321C56.0629 50.7366 56.0675 50.7401 56.0728 50.7419C57.5188 50.7719 58.9438 51.0899 60.3868 51.1799C60.4258 51.1829 60.4378 51.1199 60.3988 51.1109Z" fill="#263238"/>
<path d="M60.2997 53.6789C59.9693 53.6184 59.6325 53.6013 59.2977 53.6279C58.9437 53.6279 58.5897 53.6459 58.2327 53.6639C57.5217 53.6999 56.8137 53.7509 56.1057 53.8229C56.0757 53.8229 56.0727 53.8739 56.1057 53.8739C56.8137 53.8379 57.5217 53.8169 58.2297 53.8109H59.2947C59.629 53.835 59.9649 53.8229 60.2967 53.7749C60.3067 53.7717 60.3154 53.7654 60.3218 53.757C60.3281 53.7486 60.3317 53.7384 60.332 53.7279C60.3323 53.7174 60.3294 53.7071 60.3236 53.6983C60.3178 53.6895 60.3095 53.6827 60.2997 53.6789Z" fill="#263238"/>
<path d="M60.0272 56.6999C59.7293 56.6495 59.4251 56.6495 59.1272 56.6999L58.1552 56.7629C57.5102 56.8019 56.8622 56.8379 56.2142 56.8559C56.1812 56.8559 56.1812 56.9069 56.2142 56.9039C56.8712 56.9039 57.5312 56.9039 58.1882 56.8709L59.1572 56.8379C59.4533 56.8537 59.7498 56.8171 60.0332 56.7299C60.0354 56.7278 60.0371 56.7251 60.038 56.7222C60.039 56.7193 60.0391 56.7162 60.0385 56.7132C60.0379 56.7102 60.0366 56.7074 60.0346 56.7051C60.0326 56.7027 60.0301 56.7009 60.0272 56.6999Z" fill="#263238"/>
<path d="M49.0265 50.0039L49.3475 60.2999C49.3475 60.2999 38.7785 59.8019 37.7345 57.2999C36.6905 54.7979 40.6955 52.1369 42.4445 51.2639C44.1935 50.3909 49.0265 50.0039 49.0265 50.0039Z" fill="#4D96B9"/>
<path d="M44.61 53.4299C44.2367 53.475 43.8707 53.5677 43.521 53.7059C43.8954 53.7474 44.2737 53.7393 44.646 53.6819C45.0191 53.634 45.3848 53.5403 45.735 53.4029C45.3604 53.3622 44.9822 53.3713 44.61 53.4299ZM46.41 60.0599C46.1792 59.7734 45.9119 59.5182 45.615 59.3009C45.3171 59.0704 44.9915 58.8779 44.646 58.7279C44.8804 59.0235 45.1539 59.2859 45.459 59.5079C45.7381 59.7224 46.0399 59.9055 46.359 60.0539L46.413 60.0779L46.41 60.0599ZM38.859 55.7639C38.631 56.0614 38.4406 56.3859 38.292 56.7299C38.8732 56.2473 39.3344 55.6362 39.639 54.9449C39.3471 55.1847 39.0861 55.4598 38.862 55.7639H38.859Z" fill="white"/>
<path d="M48.993 50.0039C48.264 50.1479 47.535 50.2769 46.809 50.4089C46.083 50.5409 45.351 50.6639 44.628 50.8169C43.907 50.9344 43.2022 51.1357 42.528 51.4169C41.8481 51.7063 41.185 52.0339 40.542 52.3979C41.1411 51.9551 41.781 51.5704 42.453 51.2489C43.1346 50.9377 43.8535 50.7159 44.592 50.5889C45.324 50.4539 46.053 50.3309 46.788 50.2349C47.523 50.1389 48.252 50.0519 48.993 50.0039Z" fill="#263238"/>
<path d="M40.0859 58.8269C40.8449 59.0249 41.6099 59.1929 42.3779 59.3459C43.1459 59.4989 43.9139 59.6459 44.6879 59.7479C45.4619 59.8499 46.2329 59.9759 47.0129 60.0479C47.7929 60.1199 48.5669 60.1949 49.3499 60.2669L49.3169 60.2969L49.2989 58.5239L49.3769 60.2969V60.3269H49.3439C47.7719 60.3275 46.2022 60.2061 44.6489 59.9639C43.8749 59.8349 43.1009 59.6969 42.3389 59.5049C41.5744 59.3268 40.8219 59.1003 40.0859 58.8269Z" fill="#263238"/>
<path d="M47.0699 50.7299C47.0149 51.4435 46.9958 52.1594 47.0129 52.8749C47.0129 53.6159 47.0129 54.3539 47.0399 55.0949C47.0669 55.8359 47.2079 58.7909 47.2469 59.5289C47.2469 59.5619 47.2979 59.5589 47.2979 59.5289C47.2979 58.7909 47.3339 55.8539 47.3159 55.1279C47.2979 54.4019 47.2859 53.6759 47.2499 52.9529C47.2375 52.2118 47.1875 51.4719 47.0999 50.7359C47.0999 50.7179 47.0699 50.6999 47.0699 50.7299Z" fill="#263238"/>
<path d="M101.91 117.261C100.833 117.069 98.2265 116.514 98.4725 111.954C98.4725 111.954 96.2525 117.009 100.11 118.977L101.91 117.261Z" fill="#4D96B9"/>
<path d="M112.5 121.695C111.834 122.841 113.475 127.095 113.556 127.557C113.637 128.019 111.984 129.321 112.287 129.876C112.59 130.431 114.204 130.707 114.885 130.431C115.566 130.155 116.685 128.364 116.799 127.707C116.891 127.097 116.891 126.477 116.799 125.868C116.751 125.664 119.151 122.112 119.07 121.329C118.989 120.546 113.307 120.3 112.5 121.695Z" fill="#4D96B9"/>
<path opacity="0.2" d="M112.5 121.695C111.834 122.841 113.475 127.095 113.556 127.557C113.637 128.019 111.984 129.321 112.287 129.876C112.59 130.431 114.204 130.707 114.885 130.431C115.566 130.155 116.685 128.364 116.799 127.707C116.891 127.097 116.891 126.477 116.799 125.868C116.751 125.664 119.151 122.112 119.07 121.329C118.989 120.546 113.307 120.3 112.5 121.695Z" fill="black"/>
<path d="M100.29 122.526C100.227 122.952 101.064 126.396 101.664 127.389C102.264 128.382 104.736 130.176 105.3 130.287C105.864 130.398 107.286 130.803 107.52 130.455C107.754 130.107 107.442 129.255 107.235 129.111C106.863 128.837 106.475 128.585 106.074 128.355C105.909 128.313 105.174 126.408 105.195 126.171C105.216 125.934 107.334 123.522 106.875 122.331C106.416 121.14 100.29 122.526 100.29 122.526Z" fill="#4D96B9"/>
<path opacity="0.2" d="M100.29 122.526C100.227 122.952 101.064 126.396 101.664 127.389C102.264 128.382 104.736 130.176 105.3 130.287C105.864 130.398 107.286 130.803 107.52 130.455C107.754 130.107 107.442 129.255 107.235 129.111C106.863 128.837 106.475 128.585 106.074 128.355C105.909 128.313 105.174 126.408 105.195 126.171C105.216 125.934 107.334 123.522 106.875 122.331C106.416 121.14 100.29 122.526 100.29 122.526Z" fill="black"/>
<path d="M129.615 115.08C127.608 116.187 123.54 116.388 123.504 116.58C123.468 116.772 122.877 120.828 120.987 122.379C119.097 123.93 114.555 125.442 112.287 125.82C110.019 126.198 106.422 125.139 105.387 125.064C104.526 125.043 103.665 125.107 102.816 125.253C102.285 126.008 101.793 126.79 101.343 127.596C101.112 128.127 99.2252 129.864 99.1442 130.47C99.0632 131.076 99.7892 131.37 100.044 131.76C100.299 132.15 99.8192 132.552 99.4442 132.702C99.0692 132.852 97.4792 132.366 97.1402 131.982C96.8012 131.598 96.8732 126.582 97.1042 125.289C97.3352 123.996 98.8412 118.806 100.089 117.747C101.337 116.688 104.82 116.955 107.313 116.385C109.806 115.815 113.715 114.495 114.513 113.322C115.311 112.149 115.356 109.809 115.761 109.053C116.166 108.297 118.641 106.404 120.093 106.146C120.711 106.035 124.116 107.097 124.65 107.631C125.184 108.165 125.76 110.07 126.777 110.769C126.96 110.898 131.043 111.168 131.364 111.435C131.685 111.702 131.052 114.3 129.615 115.08Z" fill="#4D96B9"/>
<path d="M113.055 123.786C113.277 125.097 116.799 128.226 117.936 128.907C119.073 129.588 120.696 130.989 121.149 131.289C121.602 131.589 124.449 131.289 124.782 130.761C125.115 130.233 124.482 129.324 124.101 129.135C123.72 128.946 122.901 128.748 122.511 128.469C122.121 128.19 120.885 126.108 120.96 125.73C121.035 125.352 122.076 122.22 122.142 120.591C122.208 118.962 112.83 122.445 113.055 123.786Z" fill="#4D96B9"/>
<path opacity="0.2" d="M111.978 117.153C111.153 116.211 107.679 116.301 106.446 117.486C105.213 118.671 107.28 121.671 109.362 121.842C111.444 122.013 113.121 118.455 111.978 117.153Z" fill="white"/>
<path opacity="0.2" d="M104.536 118.05C104.959 118.59 104.536 120.045 103.54 120.261C103.304 120.319 103.058 120.322 102.821 120.27C102.584 120.218 102.362 120.111 102.172 119.959C101.983 119.807 101.832 119.613 101.729 119.393C101.627 119.173 101.577 118.932 101.584 118.689C101.62 117.618 103.591 116.841 104.536 118.05Z" fill="white"/>
<path opacity="0.2" d="M124.945 110.511C125.602 111.351 124.945 113.616 123.394 113.955C123.026 114.046 122.643 114.051 122.273 113.97C121.904 113.888 121.558 113.723 121.263 113.486C120.968 113.249 120.732 112.947 120.573 112.604C120.414 112.261 120.336 111.885 120.346 111.507C120.4 109.836 123.472 108.624 124.945 110.511Z" fill="white"/>
<path opacity="0.2" d="M113.176 117.9C113.254 117.561 113.962 117.261 114.376 117.585C114.474 117.659 114.553 117.756 114.608 117.866C114.663 117.977 114.692 118.099 114.692 118.222C114.692 118.346 114.663 118.467 114.608 118.578C114.553 118.689 114.474 118.785 114.376 118.86C113.938 119.181 113.002 118.653 113.176 117.9Z" fill="white"/>
<path opacity="0.2" d="M105.493 122.736C105.094 122.862 104.352 122.307 104.445 121.689C104.463 121.542 104.515 121.401 104.597 121.277C104.678 121.153 104.787 121.049 104.915 120.974C105.043 120.899 105.187 120.855 105.335 120.845C105.483 120.834 105.631 120.858 105.768 120.915C106.371 121.167 106.387 122.46 105.493 122.736Z" fill="white"/>
<path d="M123.75 110.751C122.85 110.832 123.066 112.524 123.903 112.446C124.74 112.368 124.5 110.679 123.75 110.751Z" fill="#263238"/>
<path d="M130.587 112.692C130.887 112.692 131.628 111.912 131.616 111.477C131.604 111.042 129.129 111.216 128.916 111.516C128.643 111.9 130.128 112.695 130.587 112.692Z" fill="#263238"/>
<path d="M123.501 116.616C122.961 116.544 120.552 116.514 118.851 115.929C117.15 115.344 114.936 112.902 114.795 112.719C114.654 112.536 113.982 113.355 113.922 113.559C113.862 113.763 116.373 116.7 118.56 117.24C120.747 117.78 123.477 117.933 123.594 117.801C123.711 117.669 123.762 116.652 123.501 116.616Z" fill="#455A64"/>
<path d="M118.956 106.566C116.277 106.395 108.684 109.761 108.054 111.966C107.322 114.543 110.286 117.234 112.365 116.979C114.444 116.724 119.523 109.683 119.799 108.717C120.075 107.751 119.769 106.617 118.956 106.566Z" fill="#4D96B9"/>
<path opacity="0.2" d="M118.956 106.566C116.277 106.395 108.684 109.761 108.054 111.966C107.322 114.543 110.286 117.234 112.365 116.979C114.444 116.724 119.523 109.683 119.799 108.717C120.075 107.751 119.769 106.617 118.956 106.566Z" fill="black"/>
</svg>
