<svg width="166" height="166" viewBox="0 0 166 166" fill="none" xmlns="http://www.w3.org/2000/svg">
<path d="M31.9153 141.937C60.4872 156.877 106.814 156.877 135.386 141.937C163.958 126.997 163.958 102.81 135.386 87.8836C106.814 72.9569 60.4872 72.9436 31.9153 87.8836C3.34335 102.824 3.34335 127.01 31.9153 141.937Z" fill="#F0F0F0"/>
<path d="M98.627 22.0646L101.688 23.8341C101.688 23.6947 101.665 23.5619 101.665 23.4291V22.5393C101.665 20.9623 102.77 20.3216 104.138 21.1117C104.726 21.4723 105.229 21.9559 105.612 22.5294C105.838 20.5374 107.395 19.807 109.284 20.8993C111.329 22.0779 112.986 24.9497 112.986 27.3102V28.6382C112.999 29.1675 112.892 29.693 112.674 30.1753L115.204 31.6428C115.603 31.9034 115.935 32.2545 116.173 32.6675C116.412 33.0805 116.549 33.5438 116.575 34.0199C116.575 34.8964 115.961 35.2516 115.204 34.8134L98.627 25.2319C98.2278 24.9712 97.8956 24.6202 97.6574 24.2072C97.4191 23.7942 97.2816 23.3308 97.2559 22.8547C97.2559 21.9816 97.8701 21.6263 98.627 22.0646Z" fill="#EBEBEB"/>
<path d="M85.5267 30.9855L87.8507 32.3135C87.8507 32.2072 87.8308 32.1076 87.8308 32.0047V31.3407C87.8308 30.1488 88.6675 29.6807 89.7 30.2617C90.1434 30.5338 90.5228 30.8985 90.8122 31.3307C90.9815 29.8334 92.1568 29.2757 93.5844 30.099C95.1282 30.9921 96.3798 33.1567 96.3798 34.9396V35.9356C96.39 36.335 96.3082 36.7315 96.1408 37.0943L98.0597 38.2031C98.3618 38.3989 98.6131 38.6634 98.7932 38.975C98.9732 39.2867 99.0769 39.6365 99.0956 39.9959C99.0956 40.6599 98.6341 40.9255 98.0597 40.5969L85.54 33.3659C85.2385 33.1696 84.9876 32.9049 84.8076 32.5934C84.6277 32.2819 84.5237 31.9323 84.5042 31.5731C84.4909 30.9224 84.9557 30.6535 85.5267 30.9855Z" fill="#EBEBEB"/>
<path d="M99.7728 130.038C97.9269 130.287 94.7928 129.221 94.5604 126.147C94.328 123.073 93.0631 122.239 90.7358 121.741C88.4085 121.243 87.7246 120.43 87.4656 118.969C87.2066 117.508 88.9696 115.759 88.4616 113.561C87.9536 111.363 86.3102 111.366 84.6801 108.87C83.6343 107.266 85.7724 104.826 89.3281 105.882C92.8838 106.937 92.595 109.232 96.1706 109.534C99.7463 109.836 101.971 111.994 102.037 114.676C102.103 117.359 99.7728 130.038 99.7728 130.038Z" fill="#4D96B9"/>
<path d="M100.447 124.142C100.393 124.142 100.341 124.123 100.3 124.089C100.258 124.055 100.229 124.008 100.218 123.956C98.5278 115.606 89.3447 107.97 87.107 107.193C87.0487 107.172 87.0008 107.129 86.9735 107.073C86.9462 107.018 86.9417 106.953 86.961 106.894C86.971 106.865 86.9867 106.838 87.0073 106.815C87.0278 106.792 87.0527 106.774 87.0805 106.76C87.1083 106.747 87.1384 106.74 87.1692 106.738C87.2 106.737 87.2308 106.741 87.2598 106.752C89.5539 107.548 98.9528 115.347 100.676 123.863C100.682 123.893 100.682 123.924 100.677 123.954C100.671 123.984 100.659 124.013 100.642 124.039C100.625 124.064 100.603 124.086 100.578 124.104C100.552 124.121 100.523 124.133 100.493 124.139L100.447 124.142Z" fill="white"/>
<path d="M91.4763 117.379C91.4201 117.378 91.3661 117.357 91.3241 117.319C91.2822 117.282 91.2549 117.231 91.2473 117.175C91.2397 117.12 91.2522 117.063 91.2826 117.016C91.313 116.968 91.3594 116.934 91.4132 116.918C91.5526 116.881 94.8494 116.005 97.5286 116.775C97.5838 116.796 97.629 116.837 97.6554 116.89C97.6818 116.942 97.6874 117.003 97.6711 117.06C97.6549 117.117 97.6179 117.165 97.5675 117.196C97.5172 117.227 97.4571 117.238 97.3991 117.226C94.8427 116.489 91.5692 117.362 91.536 117.369C91.5168 117.376 91.4966 117.379 91.4763 117.379Z" fill="white"/>
<path d="M98.3885 118.78C98.3515 118.779 98.3151 118.77 98.2823 118.753C98.2547 118.74 98.2301 118.721 98.2099 118.698C98.1898 118.675 98.1744 118.648 98.1648 118.619C98.1553 118.59 98.1516 118.559 98.1541 118.529C98.1566 118.498 98.1652 118.468 98.1793 118.441C99.3247 116.14 99.1089 111.911 99.1056 111.868C99.1038 111.837 99.1081 111.806 99.1181 111.777C99.1282 111.749 99.1438 111.722 99.1642 111.699C99.1845 111.676 99.2092 111.658 99.2368 111.644C99.2643 111.631 99.2942 111.624 99.3248 111.622C99.3871 111.619 99.448 111.641 99.4945 111.682C99.541 111.724 99.5695 111.782 99.5738 111.844C99.5738 112.02 99.7995 116.24 98.5977 118.65C98.5775 118.689 98.5475 118.721 98.5107 118.744C98.474 118.766 98.4318 118.779 98.3885 118.78Z" fill="white"/>
<path d="M33.1605 111.831C32.9281 111.957 28.6785 113.159 27.1048 111.084C25.5312 109.009 28.144 105.772 26.6666 104.567C25.1892 103.362 21.0492 104.58 20.0532 102.057C19.0572 99.5339 22.012 98.4616 20.352 95.9284C19.3062 94.3315 16.368 93.4517 16.514 91.9643C16.7099 89.793 20.7072 89.2087 24.1998 91.5327C27.6925 93.8567 29.3193 91.9544 30.4282 91.7983C31.537 91.6423 33.9274 91.9876 33.8478 95.8786C33.7681 99.7696 33.1605 111.831 33.1605 111.831Z" fill="#455A64"/>
<path d="M33.4389 106.297C33.3846 106.296 33.332 106.277 33.2906 106.242C33.2493 106.206 33.2218 106.158 33.2132 106.104C31.9947 98.717 23.4125 92.7078 18.9372 91.4196C18.8782 91.4019 18.8287 91.3616 18.7994 91.3075C18.7702 91.2533 18.7636 91.1898 18.7811 91.1308C18.7891 91.1015 18.8029 91.0741 18.8217 91.0502C18.8406 91.0264 18.864 91.0066 18.8907 90.992C18.9173 90.9774 18.9467 90.9684 18.9769 90.9654C19.0071 90.9625 19.0377 90.9656 19.0666 90.9747C23.6316 92.3027 32.4097 98.4514 33.658 106.028C33.6633 106.058 33.6625 106.088 33.6558 106.118C33.6491 106.147 33.6366 106.175 33.6189 106.2C33.6013 106.225 33.579 106.246 33.5532 106.262C33.5275 106.278 33.4988 106.288 33.4688 106.293L33.4389 106.297Z" fill="white"/>
<path d="M23.3196 100.115C23.2685 100.116 23.2184 100.101 23.1772 100.07C23.136 100.04 23.1062 99.9966 23.0924 99.9474C23.0787 99.8981 23.0818 99.8456 23.1013 99.7984C23.1208 99.7511 23.1556 99.7117 23.2001 99.6865C23.3395 99.6035 26.6429 97.6712 29.8965 98.5743C29.955 98.5914 30.0044 98.6308 30.0341 98.684C30.0638 98.7372 30.0714 98.8 30.0553 98.8587C30.0392 98.9175 30.0007 98.9676 29.948 98.9982C29.8953 99.0288 29.8327 99.0376 29.7737 99.0225C26.7127 98.1726 23.4657 100.065 23.4358 100.085C23.4002 100.104 23.3603 100.115 23.3196 100.115Z" fill="white"/>
<path d="M135.645 100.347C134.596 98.0861 134.055 92.648 135.034 88.6208C136.014 84.5936 138.706 80.7358 141.741 80.4138C144.57 80.115 145.795 83.4383 143.819 86.9342C141.844 90.4302 138.633 95.1645 139.038 99.4374L138.398 105.204L135.645 100.347Z" fill="#4D96B9"/>
<path opacity="0.2" d="M135.645 100.347C134.596 98.0861 134.055 92.648 135.034 88.6208C136.014 84.5936 138.706 80.7358 141.741 80.4138C144.57 80.115 145.795 83.4383 143.819 86.9342C141.844 90.4302 138.633 95.1645 139.038 99.4374L138.398 105.204L135.645 100.347Z" fill="black"/>
<path d="M136.917 103.518C136.951 103.498 136.978 103.468 136.994 103.431C137.01 103.395 137.015 103.354 137.006 103.315C134.931 94.8992 138.258 85.7194 141.349 82.602C141.38 82.568 141.397 82.5236 141.397 82.4777C141.396 82.4317 141.379 82.3876 141.347 82.3541C141.316 82.3206 141.273 82.3001 141.227 82.2969C141.181 82.2936 141.136 82.3077 141.1 82.3364C137.949 85.5169 134.556 94.8461 136.661 103.395C136.673 103.442 136.702 103.482 136.743 103.506C136.784 103.531 136.834 103.539 136.88 103.528C136.893 103.526 136.905 103.522 136.917 103.518Z" fill="white"/>
<path d="M140.363 107.92C140.137 106.483 140.715 103.664 142.418 100.765C144.304 97.5584 147.398 95.0451 147.524 93.1759C147.667 90.9349 145.37 89.9423 142.681 91.6222C139.991 93.3021 136.788 99.5238 138.697 105.755L140.363 107.92Z" fill="#4D96B9"/>
<path d="M139.192 106.844C139.223 106.828 139.249 106.802 139.265 106.771C139.282 106.739 139.289 106.704 139.285 106.668C138.577 98.9593 142.542 94.288 144.753 92.9069C144.789 92.8795 144.814 92.8393 144.823 92.7944C144.831 92.7494 144.822 92.7029 144.798 92.6641C144.774 92.6253 144.736 92.597 144.692 92.5847C144.648 92.5725 144.601 92.5773 144.56 92.5982C142.133 94.1353 138.216 98.8331 138.939 106.702C138.941 106.725 138.947 106.749 138.958 106.77C138.969 106.791 138.984 106.81 139.002 106.826C139.021 106.841 139.042 106.853 139.065 106.86C139.087 106.867 139.111 106.87 139.135 106.868C139.155 106.863 139.174 106.855 139.192 106.844Z" fill="white"/>
<path d="M66.5767 87.3527C64.9167 85.1349 62.8516 80.8953 62.3935 75.5268C61.9054 69.7833 63.1305 64.8364 66.3609 63.784C69.3721 62.788 71.2014 66.5363 70.0793 72.8044C69.2924 77.2034 68.9604 82.3162 70.3847 86.8713L71.6828 93.1262L66.5767 87.3527Z" fill="#4D96B9"/>
<path d="M66.5767 87.3527C64.9167 85.1349 62.8516 80.8953 62.3935 75.5268C61.9054 69.7833 63.1305 64.8364 66.3609 63.784C69.3721 62.788 71.2014 66.5363 70.0793 72.8044C69.2924 77.2034 68.9604 82.3162 70.3847 86.8713L71.6828 93.1262L66.5767 87.3527Z" fill="#37474F"/>
<path d="M68.183 88.747C68.2138 88.7207 68.2355 88.6854 68.245 88.646C68.2545 88.6067 68.2514 88.5654 68.2361 88.5279C65.2481 80.9417 64.4447 71.2904 66.3802 66.078C66.3897 66.0539 66.3942 66.0281 66.3935 66.0021C66.3927 65.9762 66.3868 65.9507 66.3759 65.9271C66.3651 65.9036 66.3496 65.8824 66.3303 65.865C66.3111 65.8476 66.2886 65.8342 66.264 65.8257C66.2156 65.8073 66.1619 65.8089 66.1146 65.8301C66.0673 65.8512 66.0303 65.8902 66.0117 65.9386C64.0463 71.234 64.8464 81.0048 67.8709 88.6706C67.8801 88.695 67.894 88.7172 67.9119 88.7361C67.9298 88.755 67.9513 88.7702 67.9751 88.7807C67.9989 88.7912 68.0245 88.7969 68.0505 88.7973C68.0765 88.7978 68.1024 88.7931 68.1266 88.7835L68.183 88.747Z" fill="white"/>
<path d="M72.3765 87.6015C74.3431 88.1698 76.4243 88.2121 78.4123 87.7244C81.8585 86.9276 82.6619 84.7994 82.6619 84.7994C82.6619 84.7994 80.1553 82.2762 77.9708 82.1667C77.9708 82.1667 81.3472 81.5425 84.5278 82.1999C84.5278 82.1999 86.5198 81.4297 86.0848 78.0897C86.0848 78.0897 84.1758 76.7617 79.8465 77.356C79.8465 77.356 81.9946 75.7856 85.7993 75.271C86.1014 75.271 85.6233 70.9185 85.2283 68.983C84.8332 67.0474 84.1161 67.3595 82.5723 67.552C81.0285 67.7446 76.1414 69.4445 75.5737 70.5733C75.006 71.7021 75.6302 74.5207 75.6302 74.5207C75.6302 74.5207 74.1826 73.3687 73.844 71.951C72.7508 72.0682 71.719 72.5152 70.8859 73.2326C69.5313 74.4211 69.943 75.1482 70.4078 76.2969C70.8685 77.456 71.4935 78.5429 72.2637 79.524C72.2637 79.524 70.7929 79.0226 69.3487 75.5632C69.3487 75.5632 67.9543 78.2491 67.7319 80.1647C67.5094 82.0804 69.3653 86.0942 72.3765 87.6015Z" fill="#455A64"/>
<path d="M72.4428 87.7841C72.4771 87.7705 72.5066 87.7473 72.5278 87.7172C72.549 87.6872 72.561 87.6515 72.5623 87.6148C72.9807 81.1242 80.1485 70.8786 83.3557 68.7937C83.3775 68.7795 83.3963 68.7612 83.411 68.7397C83.4257 68.7183 83.436 68.6942 83.4414 68.6688C83.4468 68.6433 83.4472 68.6171 83.4424 68.5915C83.4377 68.5659 83.4279 68.5416 83.4138 68.5198C83.3996 68.498 83.3813 68.4792 83.3598 68.4645C83.3384 68.4497 83.3143 68.4394 83.2888 68.434C83.2634 68.4286 83.2372 68.4283 83.2116 68.433C83.186 68.4378 83.1617 68.4475 83.1399 68.4617C79.8796 70.5798 72.5955 80.9947 72.1839 87.5882C72.1825 87.6139 72.1863 87.6397 72.1949 87.664C72.2035 87.6882 72.2168 87.7106 72.2341 87.7297C72.2514 87.7488 72.2723 87.7643 72.2955 87.7754C72.3188 87.7864 72.344 87.7928 72.3698 87.794C72.3946 87.7965 72.4196 87.7931 72.4428 87.7841Z" fill="white"/>
<path d="M106.194 104.434C104.534 107.754 102.602 114.029 100.44 119.739C98.08 125.968 97.7845 130.334 99.8728 131.904C101.911 133.431 107.987 132.518 111.795 124.411C112.987 121.878 117.472 114.049 117.472 114.049C117.472 114.049 120.792 112.85 121.934 111.954C121.934 111.954 133.006 112.286 138.381 111.177C143.757 110.068 145.749 103.252 143.544 102.612C139.583 101.446 135.599 100.849 126.668 100.288L106.194 104.434Z" fill="#37474F"/>
<path d="M132.468 105.726C129.102 106.509 124.63 109.318 123.282 110.002C121.934 110.686 118.156 112.711 117.468 112.117C116.586 111.366 115.573 110.783 114.48 110.397C115.636 111.177 117.92 112.542 116.728 115.327L117.459 114.049C117.459 114.049 120.779 112.85 121.921 111.954C121.921 111.954 128.112 112.133 133.481 111.765L137.405 105.726C137.405 105.726 135.841 104.942 132.468 105.726Z" fill="#263238"/>
<path d="M114.922 118.564C114.922 118.564 111.134 119.643 106.193 122.976C106.193 122.976 110.035 118.992 115.423 117.647L114.922 118.564Z" fill="#263238"/>
<path d="M122.023 111.652C120.612 112.316 118.673 112.598 117.561 111.984C116.449 111.369 114.779 110.735 113.384 112.9C111.804 115.36 108.853 116.25 107.037 117.309C105.221 118.368 104.982 120.722 105.217 122.468C105.612 125.416 106.791 123.102 108.258 121.758C109.726 120.413 114.118 118.992 115.931 118.312C117.744 117.631 117.531 117.405 122.382 116.017L122.023 111.652Z" fill="#B16668"/>
<path d="M142.328 102.316C149.161 103.677 148.055 107.761 145.509 109.972C142.76 112.352 134.646 113.84 130.675 114.54C126.704 115.241 121.236 116.403 121.236 116.403C120.447 115.065 120.178 113.484 120.483 111.961C125.064 110.486 131.877 105.244 137.415 105.732L142.328 102.316Z" fill="#37474F"/>
<path d="M123.079 115.848C124.284 115.347 126.067 114.627 126.668 113.524C127.269 112.422 128.71 111.2 131.047 112.296C133.703 113.524 136.668 112.698 138.766 112.628C140.864 112.558 142.328 114.414 143.066 116.014C144.307 118.717 142.07 117.392 140.117 117.044C138.165 116.695 133.507 117.09 131.708 117.608C129.908 118.126 125.45 120.33 125.45 120.33L123.079 115.848Z" fill="#B16668"/>
<path d="M99.8721 131.904C101.383 132.989 103.415 134.228 109.098 132.199C114.782 130.171 126.21 120.277 126.21 120.277C126.21 120.277 126.376 116.034 123.039 115.606C123.039 115.606 120.2 116.565 115.599 118.305C113.524 119.096 111.493 119.996 109.513 121.001C106.937 125.792 103.335 124.547 102.355 126.243C101.335 128.04 100.503 129.937 99.8721 131.904Z" fill="#37474F"/>
<path d="M123.786 110.081C123.786 110.081 124.872 108.514 125.005 106.864C125.005 106.864 125.403 108.365 124.895 109.62L123.786 110.081Z" fill="#263238"/>
<path d="M118.79 71.2042C120.918 70.8722 123.485 71.5362 125.553 73.7274C127.621 75.9186 135.211 85.1482 136.701 87.0373L131.605 89.6169L122.585 81.5892L118.79 71.2042Z" fill="#B16668"/>
<path d="M108.999 73.7276C108.058 74.1436 107.319 74.9127 106.94 75.869C106.501 77.0504 106.288 78.304 106.313 79.5642C106.313 79.5642 106.622 83.6179 106.622 88.2892C106.622 92.9604 106.193 104.434 106.193 104.434C112.325 107.668 122.226 105.43 126.668 100.274C126.668 100.274 126.303 82.0675 126.303 78.7375C126.303 78.5881 126.303 78.4354 126.303 78.2794C126.064 73.5251 121.382 70.2616 116.774 71.4501L112.9 72.4461L109.012 73.7276H108.999Z" fill="#4D96B9"/>
<path opacity="0.2" d="M120.552 94.9288C121.741 94.6897 125.336 94.8458 126.562 94.9089C126.542 93.8597 126.518 92.7177 126.498 91.5391L120.655 88.1626L108.786 95.948L108.099 88.6971C109.61 86.2669 110.187 81.7019 109.998 78.2557C109.998 78.2557 108.229 77.0439 106.884 76.0181C106.484 77.1555 106.291 78.3551 106.313 79.5605C106.313 79.5605 106.622 83.6142 106.622 88.2855C106.622 92.9567 106.193 104.431 106.193 104.431C110.821 106.871 117.594 106.19 122.548 103.498C119.543 105.138 113.365 105.025 111.612 104.271C109.859 103.518 110.008 100.433 111.07 99.4373C112.133 98.4413 119.108 95.2243 120.552 94.9288Z" fill="black"/>
<path d="M125.398 60.4001C126.64 57.4034 125.217 53.9678 122.22 52.7266C119.223 51.4853 115.788 52.9083 114.546 55.905C113.305 58.9018 114.728 62.3373 117.725 63.5786C120.722 64.8199 124.157 63.3968 125.398 60.4001Z" fill="#263238"/>
<path d="M109.819 62.3301C109.819 62.3301 110.772 66.7988 111.147 67.5358C111.402 67.9883 111.82 68.3258 112.316 68.4787L112.25 65.3314L109.819 62.3301Z" fill="#263238"/>
<path d="M111.015 55.9221C110.682 55.8832 110.345 55.921 110.029 56.0326C109.713 56.1443 109.427 56.3268 109.192 56.5662C108.409 57.3663 108.86 59.8862 109.82 62.3297L111.612 62.5355L111.015 55.9221Z" fill="#263238"/>
<path d="M112.149 62.5357C111.791 62.7515 111.276 62.061 110.821 61.5962C110.367 61.1314 108.932 60.4973 108.209 62.0211C107.485 63.545 108.846 65.6167 109.985 65.9753C111.95 66.5928 112.242 65.3312 112.242 65.3312L112.388 72.6352C114.829 75.7626 121.605 75.5003 118.779 72.2301V70.0755C118.779 70.0755 120.559 70.3444 121.435 70.2116C122.88 69.9891 123.789 68.8471 124.224 67.2867C124.928 64.7767 125.197 62.7482 124.599 57.8114C123.935 52.3998 117.651 52.3433 114.254 54.4914C110.858 56.6394 112.149 62.5357 112.149 62.5357Z" fill="#B16668"/>
<path d="M112.15 63.1397C111.971 63.1397 111.283 62.0043 110.822 61.5959C110.201 61.0315 111.001 55.9221 111.001 55.9221C111.001 55.9221 110.407 54.6538 111.599 53.3391C112.449 52.4062 113.87 52.2999 116.293 51.9215C117.565 51.7189 119.491 51.3637 120.762 51.128C122.276 50.8458 123.531 50.547 124.603 51.4766C125.023 51.8411 125.32 52.3264 125.453 52.866C125.586 53.4057 125.549 53.9733 125.347 54.4911C125.237 54.7256 125.091 54.9417 124.915 55.1319C124.626 55.477 124.249 55.7375 123.823 55.8855C123.823 55.8855 123.159 56.4699 120.862 56.7521C118.564 57.0343 114.982 56.6989 114.491 56.6292C113.827 56.5396 113.681 57.187 113.322 58.9532C113.02 60.5003 112.758 63.1298 112.15 63.1397Z" fill="#263238"/>
<path d="M111.018 56.3207L108.847 55.1553C108.916 55.0089 109.014 54.8781 109.135 54.7707C109.256 54.6634 109.398 54.5818 109.552 54.5309C109.705 54.48 109.868 54.4608 110.029 54.4745C110.19 54.4883 110.347 54.5347 110.49 54.6109C110.781 54.7731 110.999 55.0414 111.097 55.3599C111.195 55.6784 111.167 56.0225 111.018 56.3207Z" fill="#263238"/>
<path d="M118.789 70.072C118.789 70.072 115.566 69.408 114.44 68.8237C113.777 68.479 113.233 67.9421 112.88 67.2832C113.051 67.9418 113.352 68.5594 113.766 69.0992C114.59 70.155 118.789 70.9286 118.789 70.9286V70.072Z" fill="#9A4A4D"/>
<path d="M118.856 61.666C118.825 61.9 118.715 62.1164 118.546 62.2806C118.376 62.4448 118.156 62.5472 117.921 62.5714C117.686 62.5955 117.45 62.54 117.251 62.4137C117.051 62.2874 116.9 62.0978 116.821 61.8752C117.126 62.0965 117.502 62.1971 117.877 62.1574C118.253 62.1186 118.601 61.9438 118.856 61.666Z" fill="#263238"/>
<path d="M124.082 61.5698C124.016 61.7971 123.876 61.9956 123.683 62.133C123.49 62.2705 123.257 62.339 123.02 62.3275C122.784 62.316 122.558 62.2251 122.38 62.0696C122.201 61.914 122.081 61.7029 122.037 61.4702C122.307 61.7345 122.664 61.8906 123.041 61.909C123.418 61.9273 123.788 61.8066 124.082 61.5698Z" fill="#263238"/>
<path d="M117.711 59.4282L116.327 60.1919C116.23 60.0007 116.21 59.7795 116.272 59.5742C116.334 59.3689 116.472 59.1953 116.659 59.0896C116.75 59.0416 116.85 59.0123 116.952 59.0034C117.055 58.9945 117.158 59.0061 117.256 59.0377C117.354 59.0692 117.445 59.12 117.523 59.1871C117.601 59.2541 117.665 59.3361 117.711 59.4282Z" fill="#263238"/>
<path d="M118.498 66.1909L119.972 66.7454C119.94 66.8436 119.888 66.9345 119.82 67.0125C119.752 67.0906 119.67 67.1542 119.577 67.1997C119.484 67.2452 119.383 67.2717 119.28 67.2774C119.176 67.2832 119.073 67.2682 118.976 67.2334C118.777 67.1552 118.616 67.0029 118.526 66.8085C118.437 66.6142 118.427 66.3928 118.498 66.1909Z" fill="#9A4A4D"/>
<path d="M124.5 59.87L123.238 58.9005C123.297 58.8152 123.373 58.7428 123.461 58.6877C123.549 58.6327 123.647 58.5961 123.75 58.5802C123.852 58.5644 123.957 58.5696 124.057 58.5956C124.158 58.6215 124.252 58.6677 124.334 58.7312C124.502 58.8637 124.613 59.0557 124.644 59.2675C124.675 59.4793 124.623 59.6949 124.5 59.87Z" fill="#263238"/>
<path d="M120.526 60.9321L120.739 64.8165L122.764 64.126L120.526 60.9321Z" fill="#9A4A4D"/>
<path d="M108.999 73.7275C107.743 73.9387 106.553 74.4413 105.526 75.195C103.933 76.4101 103.299 77.9273 102.356 80.8091C101.652 82.9571 97.7809 96.3567 98.4681 97.9403C99.5106 100.341 103.704 99.0824 106.4 98.3055C109.444 97.4257 119.534 93.6575 120.101 92.4889C120.417 91.8249 120.553 91.4165 120.553 87.1769C120.553 85.3542 120.506 83.5249 120.42 82.5289C120.231 80.2547 118.78 80.175 118.119 81.8184C117.459 83.4618 116.459 89.4975 116.459 89.4975L104.955 92.4855L109.085 82.9007C109.085 82.9007 111.31 77.1571 108.999 73.7275Z" fill="#B16668"/>
<path d="M136.701 87.0373C137.853 88.5313 138.45 90.0718 136.701 91.3534C134.951 92.6349 122.81 93.269 121.236 92.4091C120.552 92.0373 120.556 90.5466 120.552 88.9862C120.549 87.4258 120.552 83.4517 120.552 82.5487C120.552 81.6457 121.064 79.6437 122.013 80.0388C122.963 80.4339 124.081 87.9105 124.081 87.9105C128.152 88.0599 133.939 86.038 136.701 87.0373Z" fill="#B16668"/>
<path d="M51.8857 57.7349C52.708 57.675 53.5336 57.675 54.3558 57.7349C56.5636 57.9341 57.6127 59.3949 58.8544 60.7229C60.8066 62.8012 65.8995 68.8303 67.3071 70.6132L63.0144 72.9006L53.9773 65.4672L51.8857 57.7349Z" fill="#FFA8A7"/>
<path d="M39.1298 82.5352C37.5561 85.7124 33.6784 95.2574 32.1578 101.858C30.7169 108.043 30.1658 112.326 32.1578 113.81C34.1033 115.267 39.8934 114.394 43.5222 106.668C44.6576 104.251 48.9338 96.7879 48.9338 96.7879C48.9338 96.7879 52.0977 95.6458 53.19 94.7959C53.19 94.7959 63.7443 95.1014 68.8704 94.0522C73.9965 93.0031 75.8889 86.5059 73.7906 85.8884C70.0158 84.7762 66.2144 84.2084 57.7019 83.6606L39.1298 82.5352Z" fill="#4D96B9"/>
<path opacity="0.2" d="M63.2194 88.8663C60.8954 89.4041 58.0601 90.938 56.1611 92.0004C56.2782 91.3203 56.2568 90.6235 56.098 89.9519C55.9904 90.8568 55.6989 91.7302 55.2414 92.5183C54.926 92.6976 54.6571 92.8503 54.4612 92.9433C53.1797 93.6073 49.6572 95.4001 49.0031 94.8323C48.0193 93.5634 46.623 92.6779 45.0557 92.3291C46.1579 93.0727 49.3717 95.3635 48.2229 98.0195L48.9168 96.8011C48.9168 96.8011 52.0808 95.659 53.1731 94.8091C53.1731 94.8091 59.0727 94.9817 64.1921 94.6265L67.9338 88.8696C67.9338 88.8696 66.4298 88.1193 63.2194 88.8663Z" fill="black"/>
<path d="M46.4807 101.107C46.4807 101.107 42.8785 102.133 38.1807 105.311C38.1807 105.311 41.8327 101.503 46.9787 100.231L46.4807 101.107Z" fill="#263238"/>
<path d="M53.2559 94.517C51.9279 95.1444 50.0621 95.4167 49.003 94.8324C47.9439 94.248 46.347 93.6438 45.019 95.7088C43.5117 98.0494 40.703 98.8993 38.97 99.9086C37.2369 100.918 37.0079 103.162 37.2336 104.826C37.6121 107.638 38.7343 105.43 40.132 104.162C41.5297 102.893 45.7195 101.522 47.436 100.875C49.1524 100.227 48.9599 100.012 53.5846 98.6902L53.2559 94.517Z" fill="#FFA8A7"/>
<path d="M72.6152 85.6196C79.1257 86.9144 78.0733 90.8055 75.6464 92.9236C73.0402 95.1845 65.2913 96.6121 61.5065 97.2761C57.7217 97.9401 52.506 99.0523 52.506 99.0523C51.7538 97.7729 51.4997 96.2611 51.7922 94.8061C56.1613 93.4017 62.6552 88.4018 67.9373 88.8666L72.6152 85.6196Z" fill="#4D96B9"/>
<path d="M54.2656 98.5174C55.4143 98.0393 57.1009 97.3521 57.6852 96.2897C58.2695 95.2273 59.6307 94.0819 61.8585 95.1178C64.3883 96.2897 67.2169 95.5029 69.2189 95.4298C71.2209 95.3568 72.6153 97.1297 73.3158 98.6536C74.501 101.233 72.3696 99.9816 70.5037 99.6495C68.6379 99.3176 64.1957 99.6927 62.4893 100.187C60.7828 100.682 56.5133 102.784 56.5133 102.784L54.2656 98.5174Z" fill="#FFA8A7"/>
<path d="M32.1416 113.823C33.5792 114.859 35.518 116.047 40.9363 114.105C46.3545 112.163 57.2474 102.737 57.2474 102.737C57.2474 102.737 57.4068 98.6935 54.2262 98.2852C54.2262 98.2852 51.5204 99.1982 47.1347 100.858C45.1562 101.613 43.219 102.472 41.3314 103.431C38.8779 107.996 35.4417 106.808 34.5088 108.411C33.5356 110.129 32.7424 111.942 32.1416 113.823Z" fill="#4D96B9"/>
<path d="M56.8317 72.4092C57.0906 74.8096 57.6849 83.6707 57.6849 83.6707C55.8191 89.9521 41.3472 88.6905 38.5518 83.7603C40.0989 80.1515 41.812 77.9935 42.9342 76.7883L40.3645 69.6171C40.3645 69.6171 40.0557 68.8834 40.0624 68.8768C40.235 68.5846 43.8206 64.5408 40.4176 58.12L45.0457 57.6983L51.8251 57.5024C53.3025 57.5854 54.355 57.7282 54.355 57.7282C55.3012 58.6113 56.7952 61.0482 57.7613 63.5216C58.3854 65.1285 59.0594 67.6782 56.8317 72.4092Z" fill="#F5F5F5"/>
<path d="M44.6938 81.5059C46.2475 80.5298 50.6698 78.4149 52.5356 78.1394C53.7972 77.9568 56.0183 78.3021 57.3264 78.5477C57.2268 77.1699 57.1205 75.739 57.0209 74.5637L54.9891 74.3413C54.9891 74.3413 53.7839 70.8121 52.5356 70.3573C51.2873 69.9025 50.4108 72.5319 49.2986 74.089C48.1864 75.6461 44.1792 75.417 44.1792 75.417L41.5962 69.1887C41.5962 69.1887 42.5258 64.4145 42.1872 61.7817L41.7556 62.0075C41.7058 64.4027 41.1276 66.7573 40.0624 68.9031L40.3645 69.6435L42.9342 76.8147C41.812 78.0099 40.0989 80.1679 38.5518 83.7867C40.4375 87.1067 47.6452 88.7667 52.7049 87.5582C48.1964 87.9301 44.0928 86.7448 43.3757 85.45C42.6586 84.1552 43.14 82.4819 44.6938 81.5059Z" fill="#E0E0E0"/>
<path d="M50.6368 54.0495H47.9576C46.8518 54.0499 45.7568 53.8324 44.7351 53.4095C43.7134 52.9865 42.785 52.3663 42.0031 51.5844C41.2212 50.8025 40.6011 49.8742 40.1781 48.8525C39.7551 47.8308 39.5377 46.7357 39.5381 45.6299C39.5381 43.0412 40.5665 40.5585 42.397 38.728C44.2275 36.8975 46.7102 35.8691 49.2989 35.8691C51.8876 35.8691 54.3703 36.8975 56.2008 38.728C58.0313 40.5585 59.0597 43.0412 59.0597 45.6299C59.0597 46.7359 58.8418 47.831 58.4185 48.8527C57.9951 49.8744 57.3747 50.8027 56.5925 51.5846C55.8103 52.3665 54.8818 52.9866 53.8599 53.4095C52.838 53.8324 51.7428 54.0499 50.6368 54.0495Z" fill="#4D96B9"/>
<path opacity="0.5" d="M50.6368 54.0495H47.9576C46.8518 54.0499 45.7568 53.8324 44.7351 53.4095C43.7134 52.9865 42.785 52.3663 42.0031 51.5844C41.2212 50.8025 40.6011 49.8742 40.1781 48.8525C39.7551 47.8308 39.5377 46.7357 39.5381 45.6299C39.5381 43.0412 40.5665 40.5585 42.397 38.728C44.2275 36.8975 46.7102 35.8691 49.2989 35.8691C51.8876 35.8691 54.3703 36.8975 56.2008 38.728C58.0313 40.5585 59.0597 43.0412 59.0597 45.6299C59.0597 46.7359 58.8418 47.831 58.4185 48.8527C57.9951 49.8744 57.3747 50.8027 56.5925 51.5846C55.8103 52.3665 54.8818 52.9866 53.8599 53.4095C52.838 53.8324 51.7428 54.0499 50.6368 54.0495Z" fill="black"/>
<path d="M46.2742 37.3519C46.7274 35.4317 45.5382 33.5077 43.618 33.0545C41.6978 32.6013 39.7738 33.7905 39.3206 35.7107C38.8674 37.6309 40.0566 39.5549 41.9768 40.0081C43.897 40.4613 45.821 39.2721 46.2742 37.3519Z" fill="#4D96B9"/>
<path opacity="0.5" d="M46.2742 37.3519C46.7274 35.4317 45.5382 33.5077 43.618 33.0545C41.6978 32.6013 39.7738 33.7905 39.3206 35.7107C38.8674 37.6309 40.0566 39.5549 41.9768 40.0081C43.897 40.4613 45.821 39.2721 46.2742 37.3519Z" fill="black"/>
<path d="M55.5734 40.1187C56.6026 40.7295 57.8775 43.3225 57.7513 48.7507C57.6451 53.3588 56.1511 54.4976 55.4008 54.8263C54.6505 55.1549 53.2063 54.9557 51.7986 54.72V57.4856C51.7986 57.4856 53.7441 59.7432 53.6213 61.0114C53.4984 62.2797 50.8159 62.5785 48.9965 61.3434C47.1771 60.1084 45.6466 57.6914 45.6466 57.6914L45.6798 51.3336C45.6798 51.3336 44.8498 52.1371 43.4488 50.912C42.2901 49.916 41.8983 48.1896 42.7848 47.26C43.0189 47.0424 43.3014 46.8835 43.609 46.7965C43.9166 46.7094 44.2404 46.6966 44.5539 46.7592C44.8674 46.8217 45.1615 46.9579 45.4121 47.1563C45.6626 47.3548 45.8625 47.6099 45.9952 47.9007C45.9952 47.9007 48.2395 47.9837 51.2242 46.3437C52.3869 45.7203 53.3865 44.8319 54.1421 43.7505C54.8977 42.669 55.388 41.4248 55.5734 40.1187Z" fill="#FFA8A7"/>
<path d="M51.7923 54.7268C50.3116 54.531 47.2638 53.6578 46.7891 52.4526C46.9801 53.0622 47.3531 53.5986 47.8581 53.9898C48.7678 54.77 51.7923 55.6498 51.7923 55.6498V54.7268Z" fill="#F28F8F"/>
<path d="M41.9158 39.9264L39.5685 40.9722C39.4922 40.8219 39.4472 40.6577 39.4362 40.4894C39.4253 40.3212 39.4486 40.1525 39.5048 39.9936C39.561 39.8346 39.6489 39.6887 39.7631 39.5648C39.8774 39.4408 40.0156 39.3413 40.1694 39.2724C40.4888 39.1362 40.8484 39.1281 41.1735 39.2499C41.4987 39.3717 41.7645 39.6139 41.9158 39.9264Z" fill="#4D96B9"/>
<path opacity="0.5" d="M41.9158 39.9264L39.5685 40.9722C39.4922 40.8219 39.4472 40.6577 39.4362 40.4894C39.4253 40.3212 39.4486 40.1525 39.5048 39.9936C39.561 39.8346 39.6489 39.6887 39.7631 39.5648C39.8774 39.4408 40.0156 39.3413 40.1694 39.2724C40.4888 39.1362 40.8484 39.1281 41.1735 39.2499C41.4987 39.3717 41.7645 39.6139 41.9158 39.9264Z" fill="black"/>
<path d="M52.5356 47.0244C52.5115 47.2516 52.4101 47.4636 52.2483 47.6249C52.0865 47.7861 51.8742 47.8869 51.6469 47.9103C51.4196 47.9336 51.1913 47.8781 51.0001 47.7531C50.8089 47.6281 50.6664 47.4412 50.5967 47.2236C50.8844 47.4325 51.2389 47.5283 51.5927 47.4925C51.9538 47.4576 52.2894 47.2909 52.5356 47.0244Z" fill="#263238"/>
<path d="M57.5065 46.9347C57.4493 47.1568 57.3172 47.3523 57.1325 47.4883C56.9478 47.6243 56.7219 47.6924 56.4928 47.681C56.2637 47.6697 56.0456 47.5797 55.8752 47.4262C55.7048 47.2727 55.5926 47.065 55.5576 46.8384C55.8147 47.0898 56.1547 47.2385 56.5138 47.2567C56.8726 47.2722 57.225 47.1578 57.5065 46.9347Z" fill="#263238"/>
<path d="M51.4368 44.9065L50.1088 45.6302C50.0141 45.4504 49.993 45.2407 50.05 45.0456C50.107 44.8504 50.2376 44.6851 50.4142 44.5844C50.5016 44.5345 50.5984 44.5032 50.6985 44.4925C50.7986 44.4817 50.8998 44.4918 50.9959 44.522C51.0919 44.5523 51.1806 44.602 51.2565 44.6682C51.3324 44.7343 51.3937 44.8155 51.4368 44.9065Z" fill="#263238"/>
<path d="M52.1873 51.334L53.5917 51.8619C53.5611 51.956 53.5119 52.0429 53.447 52.1176C53.382 52.1922 53.3028 52.2531 53.2139 52.2964C53.1249 52.3398 53.0282 52.3648 52.9294 52.37C52.8306 52.3752 52.7318 52.3605 52.6388 52.3267C52.4499 52.2516 52.2974 52.1063 52.2132 51.9212C52.129 51.7362 52.1197 51.5257 52.1873 51.334Z" fill="#F28F8F"/>
<path d="M57.7254 45.0059L56.2979 44.5013C56.3259 44.4064 56.3731 44.3182 56.4364 44.2422C56.4998 44.1661 56.578 44.1038 56.6663 44.0591C56.7545 44.0143 56.851 43.988 56.9498 43.9819C57.0486 43.9757 57.1476 43.9898 57.2407 44.0232C57.4319 44.094 57.5887 44.2353 57.6788 44.418C57.769 44.6008 57.7857 44.8112 57.7254 45.0059Z" fill="#263238"/>
<path d="M53.9238 46.3271L54.1263 50.0256L56.0586 49.3683L53.9238 46.3271Z" fill="#F28F8F"/>
<path d="M41.2118 58.0567C39.9257 58.0371 38.6812 58.5125 37.7358 59.3847C36.3878 60.7127 35.7703 62.0175 34.8806 64.7399C34.2166 66.7684 30.5646 79.4176 31.2086 80.9116C32.2046 83.1792 36.1521 81.9939 38.6986 81.2436C41.5737 80.4136 51.0988 76.8612 51.6466 75.7523C51.9454 75.1348 52.0748 74.7397 52.0715 70.7524C52.0715 69.0293 52.0284 67.3063 51.9487 66.3601C51.7694 64.212 50.4016 64.139 49.7741 65.6961C49.1466 67.2531 48.2203 72.9469 48.2203 72.9469L37.3606 75.759L41.2583 66.7087C41.2583 66.7087 43.393 61.2971 41.2118 58.0567Z" fill="#FFA8A7"/>
<path d="M67.3063 70.6099C68.3953 72.0209 68.9663 73.475 67.3063 74.6769C65.6463 75.8787 54.189 76.4863 52.6983 75.6729C52.0542 75.3209 52.0575 73.9133 52.0542 72.4425C52.0509 70.9717 52.0542 67.2135 52.0542 66.3603C52.0542 65.507 52.5356 63.6179 53.432 63.9898C54.3284 64.3616 55.3842 71.4233 55.3842 71.4233C59.2321 71.576 64.7001 69.667 67.3063 70.6099Z" fill="#FFA8A7"/>
</svg>
