<svg width="375" height="250" viewBox="0 0 375 250" fill="none" xmlns="http://www.w3.org/2000/svg">
<path d="M231.75 75.115C221.25 66.34 206.845 54.24 194.46 43.76C182.046 33.1961 166.038 27.8237 149.765 28.76C131.67 29.87 109.125 36.195 93.1699 57.615C62.2249 99.15 76.0449 196.34 135.67 214.68C195.295 233.02 249 219.05 280.755 188.63C312.51 158.21 308.62 100.445 293.47 93.5C285.62 89.885 273.245 88.3549 263.135 87.715C251.598 86.9641 240.603 82.5498 231.75 75.115Z" fill="#4D96B9"/>
<path opacity="0.7" d="M231.75 74.615C221.25 65.84 206.845 53.74 194.46 43.26C182.046 32.6961 166.038 27.3237 149.765 28.26C131.67 29.37 109.125 35.695 93.1699 57.115C62.2249 98.65 76.0449 195.84 135.67 214.18C195.295 232.52 249 218.55 280.755 188.13C312.51 157.71 308.62 99.945 293.47 93C285.62 89.385 273.245 87.8549 263.135 87.215C251.598 86.4641 240.603 82.0498 231.75 74.615Z" fill="white"/>
<path d="M201 108.04C196.418 104.966 190.928 103.54 185.429 103.997C179.93 104.454 174.75 106.767 170.738 110.556C166.727 114.345 164.122 119.384 163.352 124.848C162.582 130.312 163.692 135.875 166.5 140.625" stroke="#263238" stroke-width="0.969642" stroke-linecap="round" stroke-linejoin="round"/>
<path d="M209.651 118.36C209.177 117.294 208.629 116.264 208.011 115.275" stroke="#263238" stroke-width="0.969642" stroke-linecap="round" stroke-linejoin="round"/>
<path d="M207.575 141.81C209.389 139.111 210.645 136.078 211.27 132.887C211.895 129.697 211.876 126.413 211.215 123.23" stroke="#263238" stroke-width="0.969642" stroke-linecap="round" stroke-linejoin="round"/>
<path d="M163.255 104.06C161.601 105.72 160.118 107.543 158.83 109.5" stroke="#263238" stroke-width="0.969642" stroke-linecap="round" stroke-linejoin="round"/>
<path d="M214.41 149.115C219.306 142.787 221.824 134.942 221.527 126.947C221.23 118.952 218.136 111.315 212.784 105.368C207.432 99.4214 200.163 95.5419 192.243 94.4064C184.324 93.2709 176.257 94.9514 169.45 99.155" stroke="#263238" stroke-width="0.969642" stroke-linecap="round" stroke-linejoin="round"/>
<path d="M160.34 149.115C156.963 144.744 154.694 139.621 153.725 134.182C152.757 128.744 153.119 123.153 154.78 117.885" stroke="#263238" stroke-width="0.969642" stroke-linecap="round" stroke-linejoin="round"/>
<path d="M149.636 157.75C151.761 160.464 154.171 162.941 156.826 165.14" stroke="#263238" stroke-width="0.969642" stroke-linecap="round" stroke-linejoin="round"/>
<path d="M214.531 88.6649C205.971 82.8032 195.741 79.8748 185.376 80.3189C175.012 80.763 165.07 84.5558 157.043 91.1282C149.016 97.7006 143.336 106.698 140.856 116.772C138.376 126.846 139.228 137.452 143.286 147" stroke="#263238" stroke-width="0.969642" stroke-linecap="round" stroke-linejoin="round"/>
<path d="M232.13 110.89C230.842 107.568 229.186 104.4 227.195 101.445" stroke="#263238" stroke-width="0.969642" stroke-linecap="round" stroke-linejoin="round"/>
<path d="M220.551 162.855C225.237 158.384 228.966 153.008 231.511 147.053C234.056 141.097 235.364 134.686 235.356 128.21" stroke="#263238" stroke-width="0.969642" stroke-linecap="round" stroke-linejoin="round"/>
<path d="M120.4 128.21C120.4 144.121 126.034 159.518 136.303 171.671C146.572 183.824 160.813 191.949 176.5 194.605" stroke="#263238" stroke-width="0.969642" stroke-linecap="round" stroke-linejoin="round"/>
<path d="M241.5 168.275C249.703 157.176 254.298 143.825 254.664 130.029C255.03 116.233 251.149 102.657 243.546 91.1392C235.944 79.621 224.986 70.7162 212.157 65.6297C199.328 60.5432 185.245 59.5205 171.815 62.7" stroke="#263238" stroke-width="0.969642" stroke-linecap="round" stroke-linejoin="round"/>
<path d="M120.4 128.21C120.401 113.116 125.472 98.4603 134.799 86.5934C144.126 74.7265 157.169 66.3367 171.835 62.77" stroke="#263238" stroke-width="0.969642" stroke-linecap="round" stroke-linejoin="round"/>
<path d="M227.195 182.5C228.905 181.243 230.55 179.91 232.13 178.5" stroke="#263238" stroke-width="0.969642" stroke-linecap="round" stroke-linejoin="round"/>
<path d="M198.605 194.605C206.262 193.323 213.638 190.717 220.4 186.905" stroke="#263238" stroke-width="0.969642" stroke-linecap="round" stroke-linejoin="round"/>
<path d="M187.406 188.575C180.587 188.567 174.049 185.855 169.228 181.033C164.406 176.211 161.693 169.674 161.686 162.855V154.195C161.686 153.824 161.833 153.468 162.096 153.205C162.358 152.942 162.714 152.795 163.086 152.795H166.586C166.957 152.795 167.313 152.942 167.576 153.205C167.838 153.468 167.986 153.824 167.986 154.195C167.986 154.566 167.838 154.922 167.576 155.185C167.313 155.447 166.957 155.595 166.586 155.595H164.501V162.855C164.501 168.934 166.915 174.763 171.214 179.062C175.512 183.36 181.342 185.775 187.421 185.775C193.499 185.775 199.329 183.36 203.627 179.062C207.926 174.763 210.341 168.934 210.341 162.855V155.595H208.241C207.869 155.595 207.513 155.447 207.251 155.185C206.988 154.922 206.841 154.566 206.841 154.195C206.841 153.824 206.988 153.468 207.251 153.205C207.513 152.942 207.869 152.795 208.241 152.795H211.741C212.112 152.795 212.468 152.942 212.73 153.205C212.993 153.468 213.141 153.824 213.141 154.195V162.855C213.133 169.676 210.418 176.216 205.593 181.038C200.768 185.86 194.227 188.571 187.406 188.575Z" fill="#263238"/>
<path d="M214.525 210.095V207.295C214.526 206.927 214.454 206.563 214.313 206.223C214.173 205.883 213.967 205.574 213.707 205.314C213.446 205.054 213.137 204.847 212.797 204.707C212.457 204.566 212.093 204.494 211.725 204.495H163.085C162.717 204.494 162.353 204.566 162.013 204.707C161.673 204.847 161.364 205.054 161.104 205.314C160.844 205.574 160.637 205.883 160.497 206.223C160.356 206.563 160.285 206.927 160.285 207.295V210.095H214.525Z" fill="#263238"/>
<path d="M190.135 207.905C190.182 207.705 190.205 207.5 190.205 207.295V187.175H184.605V207.295C184.606 207.5 184.629 207.705 184.675 207.905H190.135Z" fill="#263238"/>
<path d="M204.726 128.21C204.765 125.911 204.346 123.626 203.493 121.49C202.64 119.354 201.37 117.41 199.757 115.77C198.145 114.13 196.222 112.827 194.101 111.938C191.98 111.049 189.703 110.591 187.403 110.591C185.103 110.591 182.826 111.049 180.705 111.938C178.584 112.827 176.661 114.13 175.049 115.77C173.436 117.41 172.167 119.354 171.314 121.49C170.461 123.626 170.042 125.911 170.081 128.21V162.855C170.158 167.398 172.017 171.729 175.257 174.915C178.497 178.101 182.859 179.886 187.403 179.886C191.947 179.886 196.309 178.101 199.549 174.915C202.789 171.729 204.648 167.398 204.726 162.855V128.21Z" stroke="#263238" stroke-width="0.969642" stroke-linecap="round" stroke-linejoin="round"/>
<path d="M204.726 128.21C204.765 125.911 204.346 123.626 203.493 121.49C202.64 119.354 201.37 117.41 199.757 115.77C198.145 114.13 196.222 112.827 194.101 111.938C191.98 111.049 189.703 110.591 187.403 110.591C185.103 110.591 182.826 111.049 180.705 111.938C178.584 112.827 176.661 114.13 175.049 115.77C173.436 117.41 172.167 119.354 171.314 121.49C170.461 123.626 170.042 125.911 170.081 128.21V162.855C170.158 167.398 172.017 171.729 175.257 174.915C178.497 178.101 182.859 179.886 187.403 179.886C191.947 179.886 196.309 178.101 199.549 174.915C202.789 171.729 204.648 167.398 204.726 162.855V128.21Z" fill="#4D96B9"/>
<mask id="mask0_213_34453" style="mask-type:luminance" maskUnits="userSpaceOnUse" x="170" y="110" width="35" height="70">
<path d="M204.726 128.21C204.765 125.911 204.346 123.626 203.493 121.49C202.64 119.354 201.37 117.41 199.757 115.77C198.145 114.13 196.222 112.827 194.101 111.938C191.98 111.049 189.703 110.591 187.403 110.591C185.103 110.591 182.826 111.049 180.705 111.938C178.584 112.827 176.661 114.13 175.049 115.77C173.436 117.41 172.167 119.354 171.314 121.49C170.461 123.626 170.042 125.911 170.081 128.21V162.855C170.158 167.398 172.017 171.729 175.257 174.915C178.497 178.101 182.859 179.886 187.403 179.886C191.947 179.886 196.309 178.101 199.549 174.915C202.789 171.729 204.648 167.398 204.726 162.855V128.21Z" fill="white"/>
</mask>
<g mask="url(#mask0_213_34453)">
<path d="M180.231 130.035H170.081V134.235H180.231C180.788 134.235 181.322 134.014 181.716 133.62C182.11 133.226 182.331 132.692 182.331 132.135C182.331 131.578 182.11 131.044 181.716 130.65C181.322 130.256 180.788 130.035 180.231 130.035Z" fill="white"/>
<path d="M204.726 130.035H194.581C194.024 130.035 193.49 130.256 193.097 130.65C192.703 131.044 192.481 131.578 192.481 132.135C192.481 132.692 192.703 133.226 193.097 133.62C193.49 134.014 194.024 134.235 194.581 134.235H204.726V130.035Z" fill="white"/>
<path d="M187.406 130.035C186.99 130.035 186.584 130.158 186.239 130.389C185.894 130.62 185.624 130.948 185.466 131.332C185.307 131.715 185.265 132.137 185.346 132.545C185.427 132.952 185.627 133.326 185.921 133.62C186.214 133.914 186.589 134.114 186.996 134.195C187.403 134.276 187.826 134.234 188.209 134.075C188.593 133.916 188.921 133.647 189.152 133.302C189.383 132.957 189.506 132.55 189.506 132.135C189.506 131.578 189.284 131.044 188.891 130.65C188.497 130.256 187.963 130.035 187.406 130.035Z" fill="white"/>
<path d="M187.406 138.525C186.99 138.525 186.584 138.649 186.239 138.879C185.894 139.11 185.624 139.438 185.466 139.822C185.307 140.205 185.265 140.628 185.346 141.035C185.427 141.442 185.627 141.817 185.921 142.11C186.214 142.404 186.589 142.604 186.996 142.685C187.403 142.766 187.826 142.724 188.209 142.566C188.593 142.407 188.921 142.137 189.152 141.792C189.383 141.447 189.506 141.041 189.506 140.625C189.506 140.068 189.284 139.534 188.891 139.14C188.497 138.747 187.963 138.525 187.406 138.525Z" fill="white"/>
<path d="M187.406 147C186.99 147 186.584 147.123 186.239 147.354C185.894 147.585 185.624 147.913 185.466 148.296C185.307 148.68 185.265 149.102 185.346 149.51C185.427 149.917 185.627 150.291 185.921 150.585C186.214 150.879 186.589 151.079 186.996 151.16C187.403 151.241 187.826 151.199 188.209 151.04C188.593 150.881 188.921 150.612 189.152 150.267C189.383 149.921 189.506 149.515 189.506 149.1C189.506 148.543 189.284 148.009 188.891 147.615C188.497 147.221 187.963 147 187.406 147Z" fill="white"/>
<path d="M180.231 138.525H170.081V142.725H180.231C180.788 142.725 181.322 142.504 181.716 142.11C182.11 141.716 182.331 141.182 182.331 140.625C182.331 140.068 182.11 139.534 181.716 139.14C181.322 138.747 180.788 138.525 180.231 138.525Z" fill="white"/>
<path d="M204.726 138.525H194.581C194.024 138.525 193.49 138.747 193.097 139.14C192.703 139.534 192.481 140.068 192.481 140.625C192.481 141.182 192.703 141.716 193.097 142.11C193.49 142.504 194.024 142.725 194.581 142.725H204.726V138.525Z" fill="white"/>
<path d="M180.231 147H170.081V151.2H180.231C180.788 151.2 181.322 150.979 181.716 150.585C182.11 150.191 182.331 149.657 182.331 149.1C182.331 148.543 182.11 148.009 181.716 147.615C181.322 147.221 180.788 147 180.231 147Z" fill="white"/>
<path d="M204.726 147H194.581C194.024 147 193.49 147.221 193.097 147.615C192.703 148.009 192.481 148.543 192.481 149.1C192.481 149.657 192.703 150.191 193.097 150.585C193.49 150.979 194.024 151.2 194.581 151.2H204.726V147Z" fill="white"/>
</g>
<path d="M204.726 128.21C204.765 125.911 204.346 123.626 203.493 121.49C202.64 119.354 201.37 117.41 199.757 115.77C198.145 114.13 196.222 112.827 194.101 111.938C191.98 111.049 189.703 110.591 187.403 110.591C185.103 110.591 182.826 111.049 180.705 111.938C178.584 112.827 176.661 114.13 175.049 115.77C173.436 117.41 172.167 119.354 171.314 121.49C170.461 123.626 170.042 125.911 170.081 128.21V162.855C170.158 167.398 172.017 171.729 175.257 174.915C178.497 178.101 182.859 179.886 187.403 179.886C191.947 179.886 196.309 178.101 199.549 174.915C202.789 171.729 204.648 167.398 204.726 162.855V128.21Z" stroke="#263238" stroke-width="0.969642" stroke-miterlimit="10"/>
<path d="M170.08 162.855C170.157 167.398 172.016 171.729 175.256 174.915C178.497 178.101 182.859 179.886 187.403 179.886C191.946 179.886 196.309 178.101 199.549 174.915C202.789 171.729 204.648 167.398 204.725 162.855H170.08Z" fill="#263238" stroke="#263238" stroke-width="0.969642" stroke-miterlimit="10"/>
<path d="M334.34 154.129C355.971 132.498 355.971 97.4269 334.34 75.7958C312.709 54.1646 277.638 54.1646 256.006 75.7958C234.375 97.4269 234.375 132.498 256.006 154.129C277.638 175.76 312.709 175.76 334.34 154.129Z" fill="#4D96B9"/>
<path d="M287.23 92.0449H248.535C246.585 92.0449 245.005 93.6254 245.005 95.5749V134.27C245.005 136.219 246.585 137.8 248.535 137.8H287.23C289.179 137.8 290.76 136.219 290.76 134.27V95.5749C290.76 93.6254 289.179 92.0449 287.23 92.0449Z" fill="white"/>
<g opacity="0.1">
<path d="M249.321 137.805H264.591L274.321 92.0449H258.431L248.716 137.755C248.916 137.787 249.118 137.803 249.321 137.805Z" fill="black"/>
<path d="M280.791 92.0449H276.971L267.246 137.805H271.066L280.791 92.0449Z" fill="black"/>
</g>
<path d="M286.445 138.945H249.32C247.876 138.942 246.492 138.368 245.469 137.348C244.447 136.327 243.871 134.944 243.865 133.5V96.3598C243.868 94.9138 244.443 93.5279 245.466 92.5054C246.488 91.483 247.874 90.9074 249.32 90.9048H286.445C287.892 90.9061 289.279 91.4811 290.303 92.5037C291.326 93.5263 291.903 94.913 291.905 96.3598V133.5C291.9 134.945 291.323 136.329 290.299 137.349C289.276 138.37 287.89 138.943 286.445 138.945ZM249.32 93.1898C248.479 93.1898 247.672 93.5236 247.077 94.118C246.482 94.7123 246.147 95.5186 246.145 96.3598V133.5C246.145 134.342 246.48 135.15 247.075 135.747C247.67 136.343 248.478 136.678 249.32 136.68H286.445C286.863 136.68 287.276 136.597 287.661 136.438C288.047 136.278 288.397 136.043 288.692 135.748C288.987 135.453 289.221 135.102 289.38 134.716C289.539 134.331 289.621 133.917 289.62 133.5V96.3598C289.62 95.9431 289.538 95.5305 289.378 95.1455C289.219 94.7606 288.985 94.4109 288.69 94.1165C288.395 93.8221 288.045 93.5887 287.66 93.4296C287.275 93.2706 286.862 93.1891 286.445 93.1898H249.32Z" fill="white" stroke="#263238" stroke-width="0.932567" stroke-miterlimit="10"/>
<path d="M341.045 92.0449H302.35C300.401 92.0449 298.82 93.6254 298.82 95.5749V134.27C298.82 136.219 300.401 137.8 302.35 137.8H341.045C342.995 137.8 344.575 136.219 344.575 134.27V95.5749C344.575 93.6254 342.995 92.0449 341.045 92.0449Z" fill="white"/>
<g opacity="0.1">
<path d="M307.13 137.805H322.4L332.125 92.0449H316.24L306.5 137.755C306.708 137.788 306.919 137.804 307.13 137.805Z" fill="black"/>
<path d="M338.6 92.0449H334.78L325.05 137.805H328.875L338.6 92.0449Z" fill="black"/>
</g>
<path d="M340.261 138.945H303.136C301.691 138.942 300.307 138.368 299.285 137.348C298.263 136.327 297.686 134.944 297.681 133.5V96.3598C297.683 94.9138 298.259 93.5279 299.281 92.5054C300.304 91.483 301.69 90.9074 303.136 90.9048H340.261C341.707 90.9061 343.095 91.4811 344.118 92.5037C345.142 93.5263 345.718 94.913 345.721 96.3598V133.5C345.715 134.945 345.138 136.329 344.115 137.349C343.091 138.37 341.706 138.943 340.261 138.945ZM303.136 93.1898C302.294 93.1898 301.488 93.5236 300.892 94.118C300.297 94.7123 299.962 95.5186 299.961 96.3598V133.5C299.961 134.342 300.295 135.15 300.89 135.747C301.486 136.343 302.293 136.678 303.136 136.68H340.261C340.678 136.68 341.091 136.597 341.477 136.438C341.862 136.278 342.213 136.043 342.508 135.748C342.802 135.453 343.036 135.102 343.195 134.716C343.355 134.331 343.436 133.917 343.436 133.5V96.3598C343.436 95.9431 343.353 95.5305 343.194 95.1455C343.034 94.7606 342.8 94.4109 342.505 94.1165C342.211 93.8221 341.86 93.5887 341.475 93.4296C341.09 93.2706 340.677 93.1891 340.261 93.1898H303.136Z" fill="white" stroke="#263238" stroke-width="0.932567" stroke-miterlimit="10"/>
<path d="M296.67 221.735C310.43 221.735 321.585 220.094 321.585 218.07C321.585 216.046 310.43 214.405 296.67 214.405C282.91 214.405 271.755 216.046 271.755 218.07C271.755 220.094 282.91 221.735 296.67 221.735Z" fill="#4D96B9"/>
<path d="M307.68 196.72C307.68 196.72 307.615 206.985 306.53 208.675C305.235 210.675 304.315 213.47 307.745 214.23C311.175 214.99 313.215 218.775 317.3 219.025C321.385 219.275 321.8 217.525 320.02 216.12C318.24 214.715 313.72 210.82 313.125 208.925C312.53 207.03 313.685 196.72 313.685 196.72H307.68Z" fill="white"/>
<mask id="mask1_213_34453" style="mask-type:luminance" maskUnits="userSpaceOnUse" x="305" y="196" width="17" height="24">
<path d="M307.68 196.72C307.68 196.72 307.615 206.985 306.53 208.675C305.235 210.675 304.315 213.47 307.745 214.23C311.175 214.99 313.215 218.775 317.3 219.025C321.385 219.275 321.8 217.525 320.02 216.12C318.24 214.715 313.72 210.82 313.125 208.925C312.53 207.03 313.685 196.72 313.685 196.72H307.68Z" fill="white"/>
</mask>
<g mask="url(#mask1_213_34453)">
<path opacity="0.1" d="M313.141 202.68C313.361 199.655 313.686 196.72 313.686 196.72H307.686C307.686 196.72 307.686 199.345 307.511 202.16C309.37 202.489 311.253 202.663 313.141 202.68Z" fill="black"/>
</g>
<path d="M307.68 196.72C307.68 196.72 307.615 206.985 306.53 208.675C305.235 210.675 304.315 213.47 307.745 214.23C311.175 214.99 313.215 218.775 317.3 219.025C321.385 219.275 321.8 217.525 320.02 216.12C318.24 214.715 313.72 210.82 313.125 208.925C312.53 207.03 313.685 196.72 313.685 196.72H307.68Z" stroke="#263238" stroke-width="0.932567" stroke-linecap="round" stroke-linejoin="round"/>
<path d="M320.001 216.12C318.333 214.799 316.75 213.374 315.261 211.855C313.836 212.935 309.661 211.915 308.431 210.945C306.931 209.765 307.246 209.16 306.536 208.63L306.511 208.675C305.216 210.675 304.296 213.47 307.726 214.23C311.156 214.99 313.196 218.775 317.281 219.025C321.366 219.275 321.791 217.5 320.001 216.12Z" fill="#BFBFBF" stroke="#263238" stroke-width="0.932567" stroke-miterlimit="10"/>
<path d="M284.615 193C284.615 193 280.115 202.39 278.415 203.535C276.36 204.905 274.32 207.11 277.135 209.075C279.95 211.04 280.2 215.27 283.835 217.015C287.47 218.76 288.605 217.285 287.58 215.36C286.555 213.435 284.08 208.165 284.355 206.205C284.63 204.245 290.165 195 290.165 195L284.615 193Z" fill="white"/>
<mask id="mask2_213_34453" style="mask-type:luminance" maskUnits="userSpaceOnUse" x="275" y="193" width="16" height="25">
<path d="M284.615 193C284.615 193 280.115 202.39 278.415 203.535C276.36 204.905 274.32 207.11 277.135 209.075C279.95 211.04 280.2 215.27 283.835 217.015C287.47 218.76 288.605 217.285 287.58 215.36C286.555 213.435 284.08 208.165 284.355 206.205C284.63 204.245 290.165 195 290.165 195L284.615 193Z" fill="white"/>
</mask>
<g mask="url(#mask2_213_34453)">
<path opacity="0.1" d="M284.615 193C284.615 193 283.005 196.37 281.35 199.315C282.686 200.64 284.225 201.742 285.91 202.58C287.635 199.24 290.165 195.015 290.165 195.015L284.615 193Z" fill="black"/>
</g>
<path d="M284.615 193C284.615 193 280.115 202.39 278.415 203.535C276.36 204.905 274.32 207.11 277.135 209.075C279.95 211.04 280.2 215.27 283.835 217.015C287.47 218.76 288.605 217.285 287.58 215.36C286.555 213.435 284.08 208.165 284.355 206.205C284.63 204.245 290.165 195 290.165 195L284.615 193Z" stroke="#263238" stroke-width="0.932567" stroke-linecap="round" stroke-linejoin="round"/>
<path d="M287.581 215.335C286.622 213.503 285.787 211.608 285.081 209.665C283.306 210.13 279.616 207.755 279.211 206.305C278.426 203.51 278.891 204.23 278.466 203.48L278.426 203.51C276.371 204.88 274.331 207.085 277.146 209.05C279.961 211.015 280.211 215.245 283.846 216.99C287.481 218.735 288.606 217.26 287.581 215.335Z" fill="#BFBFBF" stroke="#263238" stroke-width="0.932567" stroke-miterlimit="10"/>
<path d="M308.406 126.555C308.406 126.555 315.291 159.555 315.751 170.32C316.211 181.085 314.421 200.285 314.421 200.285L306.776 199.785C306.776 199.785 306.726 194.11 305.961 186.21C305.506 181.515 304.076 176.035 304.236 170.495C304.236 170.495 296.971 148.95 297.236 139.495C297.501 130.04 297.236 127.32 297.236 127.32L308.406 126.555Z" fill="#263238" stroke="#263238" stroke-width="0.932567" stroke-linecap="round" stroke-linejoin="round"/>
<path d="M290 126.555C290 126.555 282.86 132.455 287 144.35C288.63 149.07 294.92 170.66 294.92 170.66C293.192 172.636 291.73 174.829 290.57 177.185C287.7 182.855 285.61 191.685 282.07 196.75L287.31 200.285C287.31 200.285 304.23 179.075 305.31 172.34C306.39 165.605 301.31 138.675 301.31 138.675L299.685 127.73L290 126.555Z" fill="#263238" stroke="#263238" stroke-width="0.932567" stroke-linecap="round" stroke-linejoin="round"/>
<path d="M321.666 104.19C321.571 103.072 321.195 101.997 320.571 101.065C321.095 100.375 321.548 99.6347 321.926 98.8548C322.306 97.9398 321.801 96.6448 320.746 98.1948C319.691 99.7448 318.531 100.875 318.951 102.81C319.171 104.059 318.945 105.346 318.311 106.445L320.746 108.35L325.601 104.5L321.666 104.19Z" fill="white" stroke="#263238" stroke-width="0.932567" stroke-linecap="round" stroke-linejoin="round"/>
<path d="M323.953 94.2995L319.871 95.4093C319.495 95.5114 319.273 95.8988 319.375 96.2745L321.701 104.829C321.803 105.205 322.191 105.426 322.566 105.324L326.648 104.215C327.024 104.112 327.246 103.725 327.144 103.349L324.818 94.7948C324.716 94.4191 324.328 94.1974 323.953 94.2995Z" fill="#263238" stroke="#263238" stroke-width="0.932567" stroke-linecap="round" stroke-linejoin="round"/>
<path d="M324.847 94.9007L319.404 96.3804L321.674 104.727L327.116 103.248L324.847 94.9007Z" fill="#4D96B9" stroke="#263238" stroke-width="0.932567" stroke-linecap="round" stroke-linejoin="round"/>
<path d="M323.755 97.7898C323.689 97.5325 323.523 97.3121 323.294 97.1771C323.065 97.0421 322.792 97.0035 322.535 97.0698C322.278 97.1361 322.057 97.3019 321.922 97.5307C321.787 97.7595 321.749 98.0325 321.815 98.2898C321.88 98.5398 322.205 99.7148 322.315 100.13L324.255 99.6048C324.145 99.2198 323.815 97.9998 323.755 97.7898Z" fill="#263238"/>
<path d="M323.575 100.96C323.816 100.895 324.023 100.742 324.157 100.533C324.291 100.323 324.342 100.07 324.3 99.8247L322.375 100.325C322.458 100.562 322.628 100.759 322.851 100.877C323.073 100.995 323.332 101.024 323.575 100.96Z" fill="#263238"/>
<path d="M325.386 102L324.126 102.345L323.866 101.395C324.224 101.255 324.518 100.988 324.692 100.645C324.865 100.301 324.906 99.9061 324.806 99.5347L324.666 99.0347C324.663 99.024 324.659 99.0139 324.652 99.0051C324.646 98.9962 324.638 98.9887 324.629 98.9831C324.619 98.9775 324.609 98.9738 324.598 98.9724C324.587 98.9709 324.576 98.9717 324.566 98.9747L324.356 99.0297C324.345 99.0325 324.335 99.0376 324.326 99.0445C324.317 99.0514 324.31 99.0601 324.305 99.07C324.3 99.0799 324.297 99.0908 324.296 99.1019C324.295 99.1131 324.297 99.1242 324.301 99.1347C324.303 99.1454 324.307 99.1555 324.314 99.1644C324.32 99.1732 324.328 99.1807 324.338 99.1863C324.347 99.192 324.357 99.1956 324.368 99.197C324.379 99.1985 324.39 99.1977 324.401 99.1947L324.526 99.1597L324.641 99.5847C324.689 99.761 324.701 99.945 324.678 100.126C324.655 100.307 324.596 100.482 324.505 100.641C324.415 100.799 324.294 100.939 324.149 101.05C324.005 101.162 323.839 101.244 323.663 101.292C323.487 101.34 323.303 101.353 323.122 101.33C322.94 101.307 322.765 101.248 322.607 101.157C322.448 101.066 322.309 100.945 322.197 100.801C322.086 100.656 322.004 100.491 321.956 100.315L321.836 99.8897L321.961 99.8597C321.982 99.8528 322 99.8382 322.011 99.8188C322.022 99.7994 322.025 99.7765 322.021 99.7547C322.018 99.7438 322.013 99.7337 322.006 99.7247C321.999 99.7158 321.99 99.7084 321.981 99.7028C321.971 99.6972 321.96 99.6936 321.949 99.6922C321.938 99.6908 321.926 99.6917 321.916 99.6947L321.711 99.7497C321.7 99.7526 321.69 99.7576 321.681 99.7645C321.672 99.7714 321.664 99.7799 321.659 99.7897C321.653 99.7995 321.649 99.8102 321.648 99.8214C321.647 99.8326 321.648 99.8439 321.651 99.8547L321.791 100.355C321.892 100.726 322.126 101.046 322.449 101.255C322.772 101.463 323.161 101.545 323.541 101.485L323.796 102.435L322.536 102.775C322.514 102.781 322.493 102.791 322.476 102.804C322.458 102.818 322.443 102.835 322.432 102.855C322.421 102.874 322.413 102.896 322.411 102.918C322.408 102.94 322.41 102.963 322.416 102.985L322.461 103.15L325.641 102.285L325.596 102.12C325.59 102.098 325.58 102.078 325.566 102.06C325.552 102.042 325.535 102.027 325.516 102.016C325.496 102.005 325.475 101.998 325.452 101.995C325.43 101.992 325.407 101.994 325.386 102Z" fill="#263238"/>
<path d="M325.9 96.8499C325.4 96.9049 324.985 97.6899 325.14 98.7949C325.295 99.8999 326.31 98.6999 326.37 98.3499C326.43 97.9999 326.855 96.7549 325.9 96.8499Z" fill="white" stroke="#263238" stroke-width="0.932567" stroke-linecap="round" stroke-linejoin="round"/>
<path d="M327 98.4999C326.867 98.4979 326.735 98.5259 326.614 98.5817C326.493 98.6376 326.386 98.7199 326.301 98.8226C326.216 98.9253 326.155 99.0458 326.123 99.1751C326.091 99.3045 326.088 99.4394 326.115 99.5699C326.21 100.645 326.42 100.395 326.42 100.395C326.425 100.838 326.515 101.276 326.685 101.685C326.935 102.16 327.595 101.44 327.595 101.01C327.595 100.58 327.525 98.3199 327 98.4999Z" fill="white" stroke="#263238" stroke-width="0.932567" stroke-linecap="round" stroke-linejoin="round"/>
<path d="M326.426 100.375C326.426 100.375 327.291 100.12 327.496 99.4897L326.426 100.375Z" fill="white"/>
<path d="M326.426 100.375C326.426 100.375 327.291 100.12 327.496 99.4897" stroke="#263238" stroke-width="0.932567" stroke-linecap="round" stroke-linejoin="round"/>
<path d="M318.911 104.92C319.078 104.228 319.092 103.508 318.951 102.81C318.531 100.875 319.686 99.74 320.746 98.195C321.806 96.65 322.306 97.94 321.926 98.855C321.549 99.6349 321.095 100.375 320.571 101.065C321.247 101.97 321.629 103.061 321.666 104.19C321.666 104.555 321.666 105.645 321.666 105.645" fill="white"/>
<path d="M318.911 104.92C319.078 104.228 319.092 103.508 318.951 102.81C318.531 100.875 319.686 99.74 320.746 98.195C321.806 96.65 322.306 97.94 321.926 98.855C321.549 99.6349 321.095 100.375 320.571 101.065C321.247 101.97 321.629 103.061 321.666 104.19C321.666 104.555 321.666 105.645 321.666 105.645" stroke="#263238" stroke-width="0.932567" stroke-linecap="round" stroke-linejoin="round"/>
<path d="M305.501 92.8347C307.241 92.4697 307.776 92.0247 307.776 92.0247C306.471 86.7697 311.151 69.0947 296.401 68.2797C281.651 67.4647 289.901 92.5097 289.901 92.5097L291.506 92.7147L290.681 87.6797L292.601 92.8397C298.281 93.4547 301.921 93.3397 304.211 93.0497C303.9 90.7788 303.868 88.4784 304.116 86.1997C304.404 88.444 304.867 90.6624 305.501 92.8347Z" fill="#263238"/>
<path d="M296.396 68.5948C295.823 68.026 295.075 67.6672 294.272 67.5764C293.47 67.4857 292.661 67.6684 291.976 68.0948" stroke="#263238" stroke-width="0.932567" stroke-linecap="round" stroke-linejoin="round"/>
<path d="M307.63 96.0399V95.8799C307.6 95.9499 307.57 95.9999 307.63 96.0399Z" fill="white" stroke="#263238" stroke-width="0.932567" stroke-linecap="round" stroke-linejoin="round"/>
<path d="M318.31 106.445L311.31 112.945L311.44 103.205C311.463 101.734 311.114 100.281 310.426 98.9812C309.737 97.6813 308.73 96.5766 307.5 95.77L307.765 121.405C314.64 121.84 320.765 108.35 320.765 108.35C320.515 107.876 320.167 107.46 319.744 107.132C319.32 106.803 318.831 106.569 318.31 106.445Z" fill="white"/>
<mask id="mask3_213_34453" style="mask-type:luminance" maskUnits="userSpaceOnUse" x="307" y="95" width="14" height="27">
<path d="M318.31 106.445L311.31 112.945L311.44 103.205C311.463 101.734 311.114 100.281 310.426 98.9812C309.737 97.6813 308.73 96.5766 307.5 95.77L307.765 121.405C314.64 121.84 320.765 108.35 320.765 108.35C320.515 107.876 320.167 107.46 319.744 107.132C319.32 106.803 318.831 106.569 318.31 106.445Z" fill="white"/>
</mask>
<g mask="url(#mask3_213_34453)">
<path opacity="0.1" d="M310.235 118.26C309.195 118.355 308.96 116.365 308.975 114.43C308.684 115.158 308.491 115.921 308.4 116.7C308.31 118.905 308.31 121.09 308.345 122.96C316.175 119.41 316.27 116.245 318.28 113.015C317 114.64 312.24 118.075 310.235 118.26Z" fill="black"/>
</g>
<path d="M318.31 106.445L311.31 112.945L311.44 103.205C311.463 101.734 311.114 100.281 310.426 98.9812C309.737 97.6813 308.73 96.5766 307.5 95.77L307.765 121.405C314.64 121.84 320.765 108.35 320.765 108.35C320.515 107.876 320.167 107.46 319.744 107.132C319.32 106.803 318.831 106.569 318.31 106.445Z" stroke="#263238" stroke-width="0.932567" stroke-linecap="round" stroke-linejoin="round"/>
<path d="M316.825 107.285L318.36 105.83L321.725 108.14L320.745 109.77L316.825 107.285Z" fill="#4D96B9" stroke="#263238" stroke-width="0.932567" stroke-linecap="round" stroke-linejoin="round"/>
<path d="M310.266 108C307.446 120.5 308.846 128.715 308.846 128.715C308.846 128.715 302.041 133.54 287.736 129.45C287.736 129.45 290.336 122.985 289.636 118.055C289.211 115.02 286.361 104.11 286.361 104.11C286.361 104.11 285.011 99.3399 285.631 95.4899C286.826 94.7149 289.386 93.7799 293.911 93.4499C293.986 93.1968 294.038 92.9374 294.066 92.6749C294.209 91.4035 294.241 90.1219 294.161 88.8449C294.096 87.3449 293.971 86.1499 293.971 86.1499H299.431C299.431 86.1499 299.501 87.5299 299.676 89.1499C299.771 90.1049 299.906 91.1499 300.076 92.0499C300.16 92.5004 300.268 92.946 300.401 93.3849C305.851 94.2049 307.901 95.6249 308.296 96.8599C310.151 102.43 310.866 105.33 310.266 108Z" fill="white" stroke="#263238" stroke-width="0.932567" stroke-linecap="round" stroke-linejoin="round"/>
<path d="M299.69 90.0298C299.245 91.0298 298.69 91.8198 296.765 91.8098C295.335 91.8098 294.045 90.5448 293.9 90.0598C294.055 88.9648 293.9 88.5598 293.835 87.3198C295.674 87.2679 297.514 87.375 299.335 87.6398C299.413 88.442 299.531 89.2397 299.69 90.0298Z" fill="#263238"/>
<path d="M303.32 79.325C303.32 78.585 303.32 78.13 303.32 78.13C302.915 76.19 300.515 76.09 299.41 76.095C298.244 76.1326 297.084 75.9301 296 75.5C296.355 76.3489 296.942 77.0803 297.695 77.61C293.585 76.695 293.265 74.525 293.42 73.355C291.96 78.46 290.065 78.675 290.065 78.675C290.065 78.675 290.065 79.13 290.15 79.865C289.659 79.9776 289.225 80.2637 288.929 80.6707C288.632 81.0777 288.492 81.5781 288.535 82.08C288.529 82.6205 288.736 83.1418 289.109 83.5323C289.483 83.9229 289.995 84.1517 290.535 84.17C290.643 84.1652 290.75 84.1501 290.855 84.125C291.725 87.505 293.51 91.18 297.165 91.035C300.82 90.89 302.31 87.08 302.9 83.64C303.008 83.6499 303.117 83.6499 303.225 83.64C303.767 83.5856 304.265 83.3189 304.611 82.8982C304.956 82.4775 305.122 81.9371 305.07 81.395C305.072 80.8983 304.897 80.4171 304.576 80.0378C304.255 79.6585 303.81 79.4058 303.32 79.325Z" fill="white" stroke="#263238" stroke-width="0.932567" stroke-linecap="round" stroke-linejoin="round"/>
<path d="M296 85.0498L296.63 85.5048C296.709 85.564 296.806 85.5961 296.905 85.5961C297.004 85.5961 297.101 85.564 297.18 85.5048L297.76 85.0598" stroke="#263238" stroke-width="0.932567" stroke-linecap="round" stroke-linejoin="round"/>
<path d="M298.4 82.2051C298.4 82.2051 299.18 81.1751 300.735 81.9001" stroke="#263238" stroke-width="0.932567" stroke-linecap="round" stroke-linejoin="round"/>
<path d="M295 82.2051C295 82.2051 294.225 81.1751 292.665 81.9001" stroke="#263238" stroke-width="0.932567" stroke-linecap="round" stroke-linejoin="round"/>
<path d="M298.43 86.8647C297.997 87.208 297.466 87.405 296.913 87.4275C296.361 87.45 295.815 87.2967 295.355 86.9897" stroke="#263238" stroke-width="0.932567" stroke-linecap="round" stroke-linejoin="round"/>
<path d="M305.035 173.435C304.857 173.984 304.65 174.523 304.415 175.05" stroke="white" stroke-width="0.932567" stroke-linecap="round" stroke-linejoin="round"/>
<path d="M297.735 137L299.365 138.46C300.82 139.762 301.776 141.53 302.07 143.46C303.465 152.335 305.705 161.46 305.43 171.1" stroke="white" stroke-width="0.932567" stroke-linecap="round" stroke-linejoin="round"/>
<path d="M303.905 137.26L301.32 140.955L301.645 140.5" stroke="white" stroke-width="0.932567" stroke-linecap="round" stroke-linejoin="round"/>
<path d="M293.69 122.435L294.43 123.195" stroke="#263238" stroke-width="0.932567" stroke-linecap="round" stroke-linejoin="round"/>
<path d="M288.335 111.96C289.113 115.149 290.499 118.159 292.415 120.825" stroke="#263238" stroke-width="0.932567" stroke-linecap="round" stroke-linejoin="round"/>
<path d="M288.479 78.1481L287.925 78.1704L288.004 80.1438L288.559 80.1216L288.479 78.1481Z" fill="white" stroke="#263238" stroke-width="0.932567" stroke-linecap="round" stroke-linejoin="round"/>
<path d="M305.404 77.4356L304.85 77.458L304.929 79.4314L305.484 79.409L305.404 77.4356Z" fill="white" stroke="#263238" stroke-width="0.932567" stroke-linecap="round" stroke-linejoin="round"/>
<path d="M296.315 69.1901C293.96 69.2858 291.734 70.2904 290.104 71.9929C288.475 73.6954 287.568 75.9633 287.575 78.3201C287.576 78.3643 287.585 78.4079 287.603 78.4484C287.621 78.4888 287.647 78.5253 287.679 78.5556C287.711 78.5859 287.749 78.6095 287.79 78.6248C287.832 78.6402 287.876 78.6471 287.92 78.6451H288.505C288.591 78.6412 288.672 78.604 288.731 78.5415C288.79 78.4789 288.822 78.3959 288.82 78.3101C288.834 76.2881 289.626 74.3493 291.032 72.896C292.438 71.4427 294.349 70.5866 296.37 70.5056C298.39 70.4245 300.364 71.1246 301.882 72.4606C303.399 73.7966 304.344 75.6658 304.52 77.6801C304.525 77.7654 304.564 77.8453 304.628 77.9024C304.691 77.9595 304.775 77.9892 304.86 77.9851H305.445C305.489 77.9838 305.533 77.9737 305.573 77.9552C305.612 77.9367 305.648 77.9103 305.678 77.8776C305.707 77.8449 305.73 77.8065 305.744 77.7648C305.758 77.7231 305.764 77.679 305.76 77.6351C305.592 75.2761 304.512 73.0752 302.749 71.4989C300.986 69.9225 298.678 69.0944 296.315 69.1901Z" fill="#4D96B9" stroke="#263238" stroke-width="0.932567" stroke-linecap="round" stroke-linejoin="round"/>
<path d="M289.5 79.355H289.37C288.993 79.3704 288.623 79.4599 288.281 79.6184C287.938 79.7769 287.631 80.0012 287.375 80.2787C286.859 80.8389 286.586 81.5813 286.618 82.3425C286.649 83.1036 286.981 83.8213 287.541 84.3375C288.102 84.8536 288.844 85.1261 289.605 85.095H289.73L289.5 79.355Z" fill="#4D96B9" stroke="#263238" stroke-width="0.932567" stroke-linecap="round" stroke-linejoin="round"/>
<path d="M290.275 82.1899C290.36 84.3199 290.51 85.6899 289.775 85.7349C289.04 85.7799 288.73 84.3899 288.645 82.2349C288.56 80.0799 288.755 78.7349 289.49 78.6849C290.225 78.6349 290.19 80.0599 290.275 82.1899Z" fill="white" stroke="#263238" stroke-width="0.932567" stroke-linecap="round" stroke-linejoin="round"/>
<path d="M303.95 78.7748H304.08C304.457 78.7597 304.833 78.8189 305.187 78.9492C305.541 79.0795 305.866 79.2782 306.143 79.534C306.42 79.7899 306.645 80.0978 306.803 80.4402C306.961 80.7826 307.05 81.1529 307.065 81.5298C307.08 81.9067 307.021 82.2828 306.891 82.6368C306.76 82.9908 306.562 83.3157 306.306 83.5928C306.05 83.87 305.742 84.0941 305.4 84.2523C305.057 84.4105 304.687 84.4997 304.31 84.5148H304.18L303.95 78.7748Z" fill="#4D96B9" stroke="#263238" stroke-width="0.932567" stroke-linecap="round" stroke-linejoin="round"/>
<path d="M303.381 81.6651C303.466 83.7951 303.431 85.1651 304.166 85.1651C304.901 85.1651 305.096 83.7401 305.011 81.6101C304.926 79.4801 304.616 78.1101 303.886 78.1351C303.156 78.1601 303.296 79.5351 303.381 81.6651Z" fill="white" stroke="#263238" stroke-width="0.932567" stroke-linecap="round" stroke-linejoin="round"/>
<path d="M291.585 80.315C291.585 80.315 293.49 78.74 295.295 80.165" stroke="#263238" stroke-width="0.932567" stroke-linecap="round" stroke-linejoin="round"/>
<path d="M302.04 79.9998C302.04 79.9998 300.04 78.5848 298.33 80.1498" stroke="#263238" stroke-width="0.932567" stroke-linecap="round" stroke-linejoin="round"/>
<path d="M293.191 92.7549C293.191 92.7549 294.331 95.6149 298.561 96.2549C298.561 96.2549 296.871 99.7549 294.561 98.3799C291.796 96.7399 291.266 93.3349 291.266 93.3349L293.191 92.7549Z" fill="#4D96B9" stroke="#263238" stroke-width="0.932567" stroke-linecap="round" stroke-linejoin="round"/>
<path d="M300.94 93.1099C300.956 93.8712 300.703 94.6138 300.225 95.2072C299.748 95.8006 299.077 96.207 298.33 96.3549C298.33 96.3549 300.385 99.7249 302.07 97.8549C303.755 95.9849 302.445 93.4399 302.445 93.4399L300.94 93.1099Z" fill="#4D96B9" stroke="#263238" stroke-width="0.932567" stroke-linecap="round" stroke-linejoin="round"/>
<path d="M300 103.035C300 103.134 299.971 103.231 299.916 103.313C299.861 103.395 299.783 103.459 299.691 103.497C299.6 103.535 299.499 103.545 299.402 103.526C299.305 103.506 299.216 103.459 299.146 103.389C299.077 103.319 299.029 103.23 299.01 103.133C298.99 103.036 299 102.935 299.038 102.844C299.076 102.752 299.14 102.674 299.222 102.619C299.304 102.564 299.401 102.535 299.5 102.535C299.633 102.535 299.76 102.588 299.854 102.682C299.947 102.775 300 102.903 300 103.035Z" fill="#4D96B9" stroke="#263238" stroke-width="0.932567" stroke-linecap="round" stroke-linejoin="round"/>
<path d="M300.681 112.88C300.681 112.979 300.651 113.075 300.596 113.158C300.541 113.24 300.463 113.304 300.372 113.342C300.281 113.38 300.18 113.39 300.083 113.37C299.986 113.351 299.897 113.303 299.827 113.233C299.757 113.164 299.71 113.074 299.69 112.977C299.671 112.88 299.681 112.78 299.719 112.689C299.757 112.597 299.821 112.519 299.903 112.464C299.985 112.409 300.082 112.38 300.181 112.38C300.313 112.38 300.44 112.433 300.534 112.526C300.628 112.62 300.681 112.747 300.681 112.88Z" fill="#4D96B9" stroke="#263238" stroke-width="0.932567" stroke-linecap="round" stroke-linejoin="round"/>
<path d="M301.32 122.96C301.32 123.059 301.291 123.156 301.236 123.238C301.181 123.32 301.103 123.384 301.012 123.422C300.92 123.46 300.82 123.47 300.723 123.45C300.626 123.431 300.537 123.383 300.467 123.314C300.397 123.244 300.349 123.155 300.33 123.058C300.311 122.961 300.321 122.86 300.358 122.769C300.396 122.677 300.46 122.599 300.543 122.544C300.625 122.489 300.721 122.46 300.82 122.46C300.953 122.46 301.08 122.513 301.174 122.606C301.268 122.7 301.32 122.827 301.32 122.96Z" fill="#4D96B9" stroke="#263238" stroke-width="0.932567" stroke-linecap="round" stroke-linejoin="round"/>
<path d="M345.381 55.9248H244.071C243.601 55.9248 243.221 56.3054 243.221 56.7748V58.5998C243.221 59.0692 243.601 59.4498 244.071 59.4498H345.381C345.85 59.4498 346.231 59.0692 346.231 58.5998V56.7748C346.231 56.3054 345.85 55.9248 345.381 55.9248Z" fill="white"/>
<path d="M345.21 59.4497H244.24" stroke="#263238" stroke-width="0.932567" stroke-linecap="round" stroke-linejoin="round"/>
<path d="M244.24 55.9248H345.21" stroke="#263238" stroke-width="0.932567" stroke-linecap="round" stroke-linejoin="round"/>
<path d="M275.67 79.6447C275.67 79.6447 271.495 79.0597 271.27 80.1797C271.045 81.2997 271.17 83.0947 271.89 83.6797C273.25 84.7897 273 86.8647 273 86.8647L276.5 86.5247L276.59 84.7747C276.77 84.2038 277.092 83.6877 277.525 83.2747C278.785 82.0897 278.285 80.7747 278.07 79.1897C277.855 77.6047 276.81 78.3097 276.725 79.1297C276.7 79.8609 276.761 80.5925 276.905 81.3097L275.67 79.6447Z" fill="white" stroke="#263238" stroke-width="0.932567" stroke-linecap="round" stroke-linejoin="round"/>
<path d="M276.65 81.1851C276.65 81.1851 275.65 81.3901 274.86 82.8051L276.65 81.1851Z" fill="white"/>
<path d="M276.65 81.1851C276.65 81.1851 275.65 81.3901 274.86 82.8051" stroke="#263238" stroke-width="0.932567" stroke-linecap="round" stroke-linejoin="round"/>
<path d="M276.65 81.5549H271.59C271.24 81.5656 270.891 81.4922 270.575 81.3408C270.258 81.1895 269.982 80.9646 269.77 80.6849C269.589 80.4309 269.492 80.1268 269.492 79.8149C269.492 79.5031 269.589 79.199 269.77 78.9449L272.3 75.2299C272.519 74.9541 272.797 74.7312 273.114 74.578C273.431 74.4248 273.778 74.3452 274.13 74.3452C274.482 74.3452 274.83 74.4248 275.147 74.578C275.464 74.7312 275.742 74.9541 275.96 75.2299L278.495 78.9449C278.676 79.199 278.773 79.5031 278.773 79.8149C278.773 80.1268 278.676 80.4309 278.495 80.6849C278.281 80.9688 278.002 81.1963 277.68 81.3479C277.359 81.4994 277.005 81.5705 276.65 81.5549ZM270.65 79.3549C270.555 79.4875 270.504 79.6467 270.504 79.8099C270.504 79.9732 270.555 80.1323 270.65 80.2649C270.761 80.4097 270.904 80.526 271.068 80.6042C271.233 80.6825 271.413 80.7204 271.595 80.7149H276.65C276.832 80.7208 277.013 80.6831 277.177 80.6048C277.342 80.5265 277.485 80.41 277.595 80.2649C277.691 80.1326 277.743 79.9734 277.743 79.8099C277.743 79.6465 277.691 79.4872 277.595 79.3549L275.065 75.6449C274.955 75.4966 274.811 75.3773 274.645 75.2972C274.478 75.2171 274.295 75.1785 274.11 75.1849C273.926 75.1781 273.744 75.2164 273.578 75.2966C273.412 75.3768 273.269 75.4964 273.16 75.6449L270.625 79.3599L270.65 79.3549Z" fill="#263238"/>
<path d="M272.605 79.6948C272.865 81.0148 272.705 81.4848 272.105 81.4148C271.505 81.3448 270.9 79.7248 271.73 79.3548C272.56 78.9848 273.23 78.6998 273.23 78.6998C273.496 78.5561 273.792 78.4763 274.094 78.4668C274.396 78.4572 274.696 78.5182 274.97 78.6448C276.16 78.2298 276.37 79.0948 276.37 79.0948C276.37 79.0948 277.23 81.5948 276.515 81.6798C275.8 81.7648 275.21 79.5948 275.21 79.5948C275.21 79.5948 276.105 81.9748 275.285 82.0148C274.465 82.0548 273.99 79.7048 273.99 79.7048C273.99 79.7048 274.525 81.7698 273.75 81.8398C272.975 81.9098 272.605 79.6948 272.605 79.6948Z" fill="white" stroke="#263238" stroke-width="0.932567" stroke-linecap="round" stroke-linejoin="round"/>
<path d="M274.496 58.5049H273.676V74.9199H274.496V58.5049Z" fill="white" stroke="#263238" stroke-width="0.932567" stroke-linecap="round" stroke-linejoin="round"/>
<path d="M274.95 74.665L274.415 75.45C274.38 75.4947 274.336 75.5309 274.284 75.5557C274.233 75.5806 274.177 75.5935 274.12 75.5935C274.064 75.5935 274.008 75.5806 273.956 75.5557C273.905 75.5309 273.861 75.4947 273.825 75.45L273.295 74.665C273.165 74.48 273.33 74.25 273.585 74.25H274.655C274.915 74.25 275.075 74.5 274.95 74.665Z" fill="white" stroke="#263238" stroke-width="0.932567" stroke-linecap="round" stroke-linejoin="round"/>
<path d="M274.56 69.1548H273.685C273.445 69.1548 273.25 69.3495 273.25 69.5898V73.2298C273.25 73.47 273.445 73.6648 273.685 73.6648H274.56C274.8 73.6648 274.995 73.47 274.995 73.2298V69.5898C274.995 69.3495 274.8 69.1548 274.56 69.1548Z" fill="white" stroke="#263238" stroke-width="0.932567" stroke-linecap="round" stroke-linejoin="round"/>
<path d="M274.56 55.3599H273.685C273.445 55.3599 273.25 55.5546 273.25 55.7949V59.4349C273.25 59.6751 273.445 59.8699 273.685 59.8699H274.56C274.8 59.8699 274.995 59.6751 274.995 59.4349V55.7949C274.995 55.5546 274.8 55.3599 274.56 55.3599Z" fill="white" stroke="#263238" stroke-width="0.932567" stroke-linecap="round" stroke-linejoin="round"/>
<path d="M264.756 81.555H259.696C259.345 81.5657 258.997 81.4923 258.68 81.3409C258.364 81.1896 258.088 80.9647 257.876 80.685C257.695 80.431 257.598 80.1269 257.598 79.815C257.598 79.5032 257.695 79.1991 257.876 78.945L260.406 75.23C260.625 74.9541 260.903 74.7312 261.221 74.578C261.538 74.4248 261.886 74.3452 262.238 74.3452C262.591 74.3452 262.938 74.4248 263.256 74.578C263.573 74.7312 263.852 74.9541 264.071 75.23L266.601 78.945C266.782 79.1991 266.879 79.5032 266.879 79.815C266.879 80.1269 266.782 80.431 266.601 80.685C266.387 80.9689 266.107 81.1964 265.786 81.348C265.464 81.4995 265.111 81.5706 264.756 81.555ZM258.756 79.355C258.661 79.4876 258.609 79.6468 258.609 79.81C258.609 79.9733 258.661 80.1324 258.756 80.265C258.866 80.4098 259.009 80.5261 259.174 80.6043C259.338 80.6826 259.519 80.7205 259.701 80.715H264.761C264.943 80.7205 265.125 80.6826 265.29 80.6044C265.455 80.5261 265.599 80.4098 265.711 80.265C265.806 80.1324 265.857 79.9733 265.857 79.81C265.857 79.6468 265.806 79.4876 265.711 79.355L263.181 75.645C263.071 75.4968 262.926 75.3774 262.76 75.2973C262.594 75.2172 262.41 75.1786 262.226 75.185C262.042 75.1782 261.859 75.2165 261.693 75.2967C261.528 75.3769 261.384 75.4965 261.276 75.645L258.741 79.36L258.756 79.355Z" fill="#263238"/>
<path d="M262.6 58.5049H261.78V74.9199H262.6V58.5049Z" fill="white" stroke="#263238" stroke-width="0.932567" stroke-linecap="round" stroke-linejoin="round"/>
<path d="M263.055 74.665L262.5 75.45C262.465 75.4947 262.421 75.5309 262.369 75.5557C262.318 75.5806 262.262 75.5935 262.205 75.5935C262.149 75.5935 262.093 75.5806 262.041 75.5557C261.99 75.5309 261.946 75.4947 261.91 75.45L261.38 74.665C261.25 74.48 261.415 74.25 261.67 74.25H262.74C263 74.25 263.18 74.5 263.055 74.665Z" fill="white" stroke="#263238" stroke-width="0.932567" stroke-linecap="round" stroke-linejoin="round"/>
<path d="M262.665 69.1548H261.79C261.55 69.1548 261.355 69.3495 261.355 69.5898V73.2298C261.355 73.47 261.55 73.6648 261.79 73.6648H262.665C262.906 73.6648 263.1 73.47 263.1 73.2298V69.5898C263.1 69.3495 262.906 69.1548 262.665 69.1548Z" fill="white" stroke="#263238" stroke-width="0.932567" stroke-linecap="round" stroke-linejoin="round"/>
<path d="M262.665 55.3599H261.79C261.55 55.3599 261.355 55.5546 261.355 55.7949V59.4349C261.355 59.6751 261.55 59.8699 261.79 59.8699H262.665C262.906 59.8699 263.1 59.6751 263.1 59.4349V55.7949C263.1 55.5546 262.906 55.3599 262.665 55.3599Z" fill="white" stroke="#263238" stroke-width="0.932567" stroke-linecap="round" stroke-linejoin="round"/>
<path d="M316.306 81.5549H311.246C310.895 81.5664 310.546 81.4934 310.229 81.342C309.913 81.1905 309.637 80.9652 309.426 80.6849C309.245 80.4309 309.147 80.1268 309.147 79.8149C309.147 79.5031 309.245 79.199 309.426 78.9449L311.956 75.2299C312.174 74.9541 312.452 74.7312 312.769 74.578C313.086 74.4248 313.434 74.3452 313.786 74.3452C314.138 74.3452 314.485 74.4248 314.802 74.578C315.119 74.7312 315.397 74.9541 315.616 75.2299L318.146 78.9449C318.326 79.199 318.424 79.5031 318.424 79.8149C318.424 80.1268 318.326 80.4309 318.146 80.6849C317.932 80.968 317.653 81.1951 317.333 81.3467C317.012 81.4982 316.66 81.5697 316.306 81.5549ZM310.306 79.3549C310.21 79.4872 310.158 79.6465 310.158 79.8099C310.158 79.9734 310.21 80.1326 310.306 80.2649C310.416 80.41 310.559 80.5265 310.723 80.6048C310.888 80.6831 311.069 80.7208 311.251 80.7149H316.311C316.493 80.7208 316.673 80.6831 316.838 80.6048C317.002 80.5265 317.145 80.41 317.256 80.2649C317.352 80.1326 317.403 79.9734 317.403 79.8099C317.403 79.6465 317.352 79.4872 317.256 79.3549L314.726 75.6449C314.611 75.5012 314.466 75.3851 314.301 75.3054C314.135 75.2256 313.954 75.1841 313.771 75.1841C313.587 75.1841 313.406 75.2256 313.24 75.3054C313.075 75.3851 312.93 75.5012 312.816 75.6449L310.286 79.3599L310.306 79.3549Z" fill="#263238"/>
<path d="M314.145 58.5049H313.325V74.9199H314.145V58.5049Z" fill="white" stroke="#263238" stroke-width="0.932567" stroke-linecap="round" stroke-linejoin="round"/>
<path d="M314.601 74.665L314.071 75.45C314.036 75.4947 313.991 75.5309 313.94 75.5557C313.889 75.5806 313.833 75.5935 313.776 75.5935C313.719 75.5935 313.663 75.5806 313.612 75.5557C313.561 75.5309 313.516 75.4947 313.481 75.45L312.951 74.665C312.821 74.48 312.986 74.25 313.241 74.25H314.311C314.566 74.25 314.731 74.5 314.601 74.665Z" fill="white" stroke="#263238" stroke-width="0.932567" stroke-linecap="round" stroke-linejoin="round"/>
<path d="M314.215 69.1548H313.34C313.1 69.1548 312.905 69.3495 312.905 69.5898V73.2298C312.905 73.47 313.1 73.6648 313.34 73.6648H314.215C314.456 73.6648 314.65 73.47 314.65 73.2298V69.5898C314.65 69.3495 314.456 69.1548 314.215 69.1548Z" fill="white" stroke="#263238" stroke-width="0.932567" stroke-linecap="round" stroke-linejoin="round"/>
<path d="M314.215 55.3599H313.34C313.1 55.3599 312.905 55.5546 312.905 55.7949V59.4349C312.905 59.6751 313.1 59.8699 313.34 59.8699H314.215C314.456 59.8699 314.65 59.6751 314.65 59.4349V55.7949C314.65 55.5546 314.456 55.3599 314.215 55.3599Z" fill="white" stroke="#263238" stroke-width="0.932567" stroke-linecap="round" stroke-linejoin="round"/>
<path d="M327.641 81.555H322.58C322.23 81.5657 321.882 81.4923 321.565 81.3409C321.248 81.1896 320.972 80.9647 320.76 80.685C320.58 80.431 320.482 80.1269 320.482 79.815C320.482 79.5032 320.58 79.1991 320.76 78.945L323.29 75.23C323.51 74.9541 323.788 74.7312 324.106 74.578C324.423 74.4248 324.771 74.3452 325.123 74.3452C325.475 74.3452 325.823 74.4248 326.14 74.578C326.458 74.7312 326.736 74.9541 326.955 75.23L329.485 78.945C329.666 79.1991 329.764 79.5032 329.764 79.815C329.764 80.1269 329.666 80.431 329.485 80.685C329.272 80.9689 328.992 81.1964 328.67 81.348C328.349 81.4995 327.996 81.5706 327.641 81.555ZM321.641 79.355C321.545 79.4876 321.494 79.6468 321.494 79.81C321.494 79.9733 321.545 80.1324 321.641 80.265C321.751 80.4098 321.894 80.5261 322.059 80.6043C322.223 80.6826 322.404 80.7205 322.585 80.715H327.645C327.828 80.7205 328.01 80.6826 328.175 80.6044C328.34 80.5261 328.484 80.4098 328.595 80.265C328.691 80.1324 328.742 79.9733 328.742 79.81C328.742 79.6468 328.691 79.4876 328.595 79.355L326.065 75.645C325.955 75.4968 325.811 75.3774 325.645 75.2973C325.478 75.2172 325.295 75.1786 325.11 75.185C324.927 75.1782 324.744 75.2165 324.578 75.2967C324.413 75.3769 324.269 75.4965 324.16 75.645L321.625 79.36L321.641 79.355Z" fill="#263238"/>
<path d="M325.485 58.5049H324.665V74.9199H325.485V58.5049Z" fill="white" stroke="#263238" stroke-width="0.932567" stroke-linecap="round" stroke-linejoin="round"/>
<path d="M325.941 74.665L325.406 75.45C325.371 75.4947 325.326 75.5309 325.275 75.5557C325.224 75.5806 325.168 75.5935 325.111 75.5935C325.054 75.5935 324.998 75.5806 324.947 75.5557C324.896 75.5309 324.851 75.4947 324.816 75.45L324.286 74.665C324.156 74.48 324.321 74.25 324.576 74.25H325.646C325.906 74.25 326.066 74.5 325.941 74.665Z" fill="white" stroke="#263238" stroke-width="0.932567" stroke-linecap="round" stroke-linejoin="round"/>
<path d="M325.55 69.1548H324.675C324.435 69.1548 324.24 69.3495 324.24 69.5898V73.2298C324.24 73.47 324.435 73.6648 324.675 73.6648H325.55C325.79 73.6648 325.985 73.47 325.985 73.2298V69.5898C325.985 69.3495 325.79 69.1548 325.55 69.1548Z" fill="white" stroke="#263238" stroke-width="0.932567" stroke-linecap="round" stroke-linejoin="round"/>
<path d="M325.55 55.3599H324.675C324.435 55.3599 324.24 55.5546 324.24 55.7949V59.4349C324.24 59.6751 324.435 59.8699 324.675 59.8699H325.55C325.79 59.8699 325.985 59.6751 325.985 59.4349V55.7949C325.985 55.5546 325.79 55.3599 325.55 55.3599Z" fill="white" stroke="#263238" stroke-width="0.932567" stroke-linecap="round" stroke-linejoin="round"/>
<path d="M277.04 85.7349L277.305 87.8699L271.865 88.1249L272.32 85.9849L277.04 85.7349Z" fill="#4D96B9" stroke="#263238" stroke-width="0.932567" stroke-linecap="round" stroke-linejoin="round"/>
<path d="M286.265 103.68C286.265 103.68 276.82 112.365 274.64 112.5C274.105 112.535 273.64 112.87 273.19 112.565C272.19 111.885 270.745 110.445 270.955 104.595C271.065 101.395 273 88.0598 273 88.0598L276.5 87.9048L277.35 102.905C280.35 99.7948 285.565 95.4848 285.57 95.4848C287.2 100.695 286.265 103.68 286.265 103.68Z" fill="white" stroke="#263238" stroke-width="0.932567" stroke-linecap="round" stroke-linejoin="round"/>
<path d="M310.085 115.755C310.321 114.718 310.768 113.74 311.4 112.885L310.085 115.755Z" fill="white"/>
<path d="M310.085 115.755C310.321 114.718 310.768 113.74 311.4 112.885" stroke="#263238" stroke-width="0.932567" stroke-linecap="round" stroke-linejoin="round"/>
<path d="M276.28 106.435C276.645 106.27 277.515 104.645 277.335 101.87" stroke="#263238" stroke-width="0.932567" stroke-linecap="round" stroke-linejoin="round"/>
<path d="M279.636 70.815V64.84C279.637 64.5513 279.752 64.2748 279.956 64.0707C280.161 63.8666 280.437 63.7513 280.726 63.75H290.106C290.394 63.7513 290.671 63.8666 290.875 64.0707C291.079 64.2748 291.194 64.5513 291.196 64.84V70.815C291.196 71.1041 291.081 71.3813 290.876 71.5857C290.672 71.7902 290.395 71.905 290.106 71.905H286.841L287.101 74.18H285.416V76.33L283.416 72.83H285.051L284.881 71.91H280.721C280.578 71.9093 280.436 71.8805 280.304 71.8251C280.172 71.7697 280.052 71.6889 279.951 71.5872C279.851 71.4855 279.771 71.365 279.717 71.2325C279.663 71.1 279.635 70.9581 279.636 70.815Z" fill="white" stroke="#263238" stroke-width="0.932567" stroke-linecap="round" stroke-linejoin="round"/>
<path d="M287.766 65.7949H281.426" stroke="#263238" stroke-width="0.932567" stroke-linecap="round" stroke-linejoin="round"/>
<path d="M289.406 67.4897H281.426" stroke="#263238" stroke-width="0.932567" stroke-linecap="round" stroke-linejoin="round"/>
<path d="M288.176 69.1797H281.426" stroke="#263238" stroke-width="0.932567" stroke-linecap="round" stroke-linejoin="round"/>
<path d="M71.0198 218.7C83.9129 218.7 94.3648 217.162 94.3648 215.265C94.3648 213.368 83.9129 211.83 71.0198 211.83C58.1267 211.83 47.6748 213.368 47.6748 215.265C47.6748 217.162 58.1267 218.7 71.0198 218.7Z" fill="#4D96B9"/>
<path d="M68.9743 160.525C91.4275 160.525 109.629 142.323 109.629 119.87C109.629 97.4167 91.4275 79.2148 68.9743 79.2148C46.5212 79.2148 28.3193 97.4167 28.3193 119.87C28.3193 142.323 46.5212 160.525 68.9743 160.525Z" fill="#4D96B9"/>
<path d="M50.2246 146.455C50.2246 146.455 51.2596 152.455 47.7646 159.2H91.4697C91.4697 159.2 89.4697 156.055 87.3746 146.455H50.2246Z" fill="white" stroke="#263238" stroke-width="0.87381" stroke-linecap="round" stroke-linejoin="round"/>
<path d="M60.1897 147.84C57.7974 148.031 55.5045 148.88 53.5635 150.291C51.6226 151.703 50.1091 153.623 49.1897 155.84C48.7197 156.98 48.2297 158.135 47.7647 159.215C45.1047 165.37 47.6197 174.325 54.4197 174.325H85.5997C91.7647 174.325 93.4497 166.52 91.9747 160.64C91.0247 156.86 89.1097 153.065 85.8397 150.405C81.4697 146.83 68.6997 147.16 60.1897 147.84Z" fill="#263238" stroke="#263238" stroke-width="0.87381" stroke-linecap="round" stroke-linejoin="round"/>
<path d="M30.4195 141.235C30.4195 141.235 24.8295 144.615 24.6445 146.455H31.4995L34.2245 144.5L33.3045 146.465H35.3895C35.3895 146.465 37.6045 144.745 37.7245 142.84L37.4995 141.235L33.4995 139.455L30.4195 141.235Z" fill="white" stroke="#263238" stroke-width="0.87381" stroke-linecap="round" stroke-linejoin="round"/>
<path d="M95.9 128.82C95.9 128.82 95.005 122.935 93.04 114.46C91.075 105.985 87.235 105.32 87.235 105.32H87.2C82.2 103.17 69.2 102.01 69.2 102.01H68.6C68.6 102.01 55.57 103.17 50.6 105.32H50.565C50.565 105.32 46.69 106 44.725 114.46C42.76 122.92 41.86 128.82 41.86 128.82C41.86 128.82 38.31 129.78 31.92 137.82C30.9168 139.095 30.0629 140.48 29.375 141.95C29.375 141.95 34.285 140.335 37.725 142.81C37.725 142.81 48.995 138.03 49.56 132.99C49.56 132.81 49.605 132.61 49.63 132.395C49.95 140.045 50.225 146.435 50.225 146.435H87.535C87.535 146.435 87.815 140.045 88.135 132.395C88.135 132.61 88.18 132.81 88.2 132.99C88.77 138.03 101.245 143.68 101.245 143.68C104.665 138.42 109.63 141.325 109.63 141.325L95.9 128.82Z" fill="white"/>
<mask id="mask4_213_34453" style="mask-type:luminance" maskUnits="userSpaceOnUse" x="29" y="102" width="81" height="45">
<path d="M95.9 128.82C95.9 128.82 95.005 122.935 93.04 114.46C91.075 105.985 87.235 105.32 87.235 105.32H87.2C82.2 103.17 69.2 102.01 69.2 102.01H68.6C68.6 102.01 55.57 103.17 50.6 105.32H50.565C50.565 105.32 46.69 106 44.725 114.46C42.76 122.92 41.86 128.82 41.86 128.82C41.86 128.82 38.31 129.78 31.92 137.82C30.9168 139.095 30.0629 140.48 29.375 141.95C29.375 141.95 34.285 140.335 37.725 142.81C37.725 142.81 48.995 138.03 49.56 132.99C49.56 132.81 49.605 132.61 49.63 132.395C49.95 140.045 50.225 146.435 50.225 146.435H87.535C87.535 146.435 87.815 140.045 88.135 132.395C88.135 132.61 88.18 132.81 88.2 132.99C88.77 138.03 101.245 143.68 101.245 143.68C104.665 138.42 109.63 141.325 109.63 141.325L95.9 128.82Z" fill="white"/>
</mask>
<g mask="url(#mask4_213_34453)">
<path opacity="0.3" d="M49.5596 133C49.5596 132.85 49.5996 132.68 49.6196 132.5L48.8046 114.795C48.8046 114.795 46.5546 115.255 47.1996 120.69C47.8446 126.125 49.1996 125.19 48.4446 127.285C47.6896 129.38 44.7596 126.98 43.7896 128.785C42.8196 130.59 49.2096 130.205 46.5696 134.855C43.9296 139.505 37.7246 142.855 37.7246 142.855C37.7246 142.855 48.9996 138.05 49.5596 133Z" fill="black"/>
<g opacity="0.3">
<path d="M88.375 133C88.375 132.85 89.845 133.11 88.375 133L88.82 117.845C88.82 117.845 88.71 125.175 89.495 127.285C90.28 129.395 93.18 126.98 94.145 128.785C95.11 130.59 88.725 130.205 91.37 134.855C94.015 139.505 100.21 142.855 100.21 142.855C100.21 142.855 88.945 138.05 88.375 133Z" fill="black"/>
</g>
<path opacity="0.3" d="M87.8051 136.45C87.5601 142.185 87.3751 146.45 87.3751 146.45H53.8301C76.3301 146.45 87.8301 136.45 87.8301 136.45H87.8051Z" fill="black"/>
</g>
<path d="M95.9 128.82C95.9 128.82 95.005 122.935 93.04 114.46C91.075 105.985 87.235 105.32 87.235 105.32H87.2C82.2 103.17 69.2 102.01 69.2 102.01H68.6C68.6 102.01 55.57 103.17 50.6 105.32H50.565C50.565 105.32 46.69 106 44.725 114.46C42.76 122.92 41.86 128.82 41.86 128.82C41.86 128.82 38.31 129.78 31.92 137.82C30.9168 139.095 30.0629 140.48 29.375 141.95C29.375 141.95 34.285 140.335 37.725 142.81C37.725 142.81 48.995 138.03 49.56 132.99C49.56 132.81 49.605 132.61 49.63 132.395C49.95 140.045 50.225 146.435 50.225 146.435H87.535C87.535 146.435 87.815 140.045 88.135 132.395C88.135 132.61 88.18 132.81 88.2 132.99C88.77 138.03 101.245 143.68 101.245 143.68C104.665 138.42 109.63 141.325 109.63 141.325L95.9 128.82Z" stroke="#263238" stroke-width="0.87381" stroke-linecap="round" stroke-linejoin="round"/>
<path d="M43.0547 128.785C44.8539 128.695 46.6173 129.31 47.9697 130.5" stroke="#263238" stroke-width="0.87381" stroke-linecap="round" stroke-linejoin="round"/>
<path d="M46.5693 115.325C46.5693 115.325 48.8793 115.825 49.4093 127.055L48.7143 112.315" stroke="#263238" stroke-width="0.87381" stroke-linecap="round" stroke-linejoin="round"/>
<path d="M49.4395 128.615L49.5445 130.89" stroke="#263238" stroke-width="0.87381" stroke-linecap="round" stroke-linejoin="round"/>
<path d="M94.7099 128.785C92.9142 128.688 91.1512 129.294 89.7949 130.475" stroke="#263238" stroke-width="0.87381" stroke-linecap="round" stroke-linejoin="round"/>
<path d="M88.9092 115.325C88.9525 114.325 88.9992 113.325 89.0492 112.325" stroke="#263238" stroke-width="0.87381" stroke-linecap="round" stroke-linejoin="round"/>
<path d="M75.8849 102.82C75.2799 105.85 72.3499 106.945 68.8199 106.945C65.2899 106.945 62.3699 105.855 61.7549 102.835H61.8949C62.2605 102.785 62.6025 102.625 62.8757 102.377C63.1488 102.129 63.3403 101.804 63.4249 101.445C63.4739 101.302 63.4992 101.151 63.4999 101V97.4448H74.2999V101C74.2986 101.222 74.3393 101.443 74.4199 101.65C74.5363 101.959 74.7339 102.23 74.9917 102.436C75.2495 102.642 75.5581 102.775 75.8849 102.82Z" fill="white"/>
<mask id="mask5_213_34453" style="mask-type:luminance" maskUnits="userSpaceOnUse" x="61" y="97" width="15" height="10">
<path d="M75.8849 102.82C75.2799 105.85 72.3499 106.945 68.8199 106.945C65.2899 106.945 62.3699 105.855 61.7549 102.835H61.8949C62.2605 102.785 62.6025 102.625 62.8757 102.377C63.1488 102.129 63.3403 101.804 63.4249 101.445C63.4739 101.302 63.4992 101.151 63.4999 101V97.4448H74.2999V101C74.2986 101.222 74.3393 101.443 74.4199 101.65C74.5363 101.959 74.7339 102.23 74.9917 102.436C75.2495 102.642 75.5581 102.775 75.8849 102.82Z" fill="white"/>
</mask>
<g mask="url(#mask5_213_34453)">
<path d="M74.2104 100.105C72.4204 101.865 70.4254 102.96 68.5004 103.045C66.5004 103.135 64.1804 101.495 63.2354 99.8848C63.2744 99.7448 63.2929 99.6 63.2904 99.4548V98.3647L74.0903 98.4798V99.4548C74.0903 99.6848 74.3653 99.9548 74.2104 100.105Z" fill="#263238"/>
</g>
<path d="M75.8849 102.82C75.2799 105.85 72.3499 106.945 68.8199 106.945C65.2899 106.945 62.3699 105.855 61.7549 102.835H61.8949C62.2605 102.785 62.6025 102.625 62.8757 102.377C63.1488 102.129 63.3403 101.804 63.4249 101.445C63.4739 101.302 63.4992 101.151 63.4999 101V97.4448H74.2999V101C74.2986 101.222 74.3393 101.443 74.4199 101.65C74.5363 101.959 74.7339 102.23 74.9917 102.436C75.2495 102.642 75.5581 102.775 75.8849 102.82Z" stroke="#263238" stroke-width="0.87381" stroke-linecap="round" stroke-linejoin="round"/>
<path d="M60.9291 89.8099C60.9291 89.8099 57.1841 85.5749 57.6741 79.7399C58.1641 73.9049 62.9541 73.9049 62.9541 73.9049C62.9541 73.9049 68.7291 68.8099 75.1741 71.9999C81.6191 75.1899 81.1741 86.2499 76.4041 88.9999L60.9291 89.8099Z" fill="#263238"/>
<path d="M77.4391 86.96C77.4891 85.99 77.4841 85.39 77.4841 85.39C77.0541 82.81 73.8991 82.55 72.4491 82.505C66.3741 82.3 64.7741 78.575 64.7741 78.575C61.0891 77.47 60.0441 85.39 60.0441 85.39C60.0441 85.39 60.0441 85.99 60.0941 86.96C59.4432 87.0842 58.8587 87.4385 58.4474 87.9581C58.0362 88.4777 57.8256 89.1279 57.8541 89.79C57.8541 91.37 58.9941 92.645 60.4041 92.645C60.5467 92.6443 60.6889 92.6309 60.8291 92.605L61.4891 96.325C61.6141 97.16 62.3991 99.135 63.1041 99.605C64.6041 100.605 66.9791 102.03 68.7641 102.03C70.3041 102.03 72.4641 100.76 74.0591 99.895C74.9491 99.395 75.9291 97.48 76.0141 96.475L76.4291 92.715C76.6635 92.7038 76.8972 92.6804 77.1291 92.645C78.5341 92.645 79.6791 91.37 79.6791 89.79C79.7077 89.1279 79.4971 88.4777 79.0858 87.9581C78.6745 87.4385 78.09 87.0842 77.4391 86.96Z" fill="white" stroke="#263238" stroke-width="0.87381" stroke-linecap="round" stroke-linejoin="round"/>
<path d="M58.8348 84.5601H58.1748V86.9101H58.8348V84.5601Z" fill="white" stroke="#263238" stroke-width="0.87381" stroke-linecap="round" stroke-linejoin="round"/>
<path d="M78.9998 84.5601H78.3398V86.9101H78.9998V84.5601Z" fill="white" stroke="#263238" stroke-width="0.87381" stroke-linecap="round" stroke-linejoin="round"/>
<path d="M68.5843 74.2949C65.7774 74.2944 63.0797 75.3826 61.0588 77.3307C59.038 79.2788 57.8516 81.9349 57.7493 84.7399C57.7473 84.7922 57.7559 84.8443 57.7746 84.893C57.7934 84.9418 57.8219 84.9863 57.8584 85.0237C57.8949 85.0612 57.9386 85.0908 57.9869 85.1107C58.0352 85.1307 58.0871 85.1406 58.1393 85.1399H58.8393C58.941 85.14 59.0388 85.1002 59.1116 85.0293C59.1845 84.9583 59.2267 84.8616 59.2293 84.7599C59.3406 82.3537 60.3748 80.0828 62.117 78.4193C63.8593 76.7558 66.1755 75.8276 68.5843 75.8276C70.9932 75.8276 73.3094 76.7558 75.0516 78.4193C76.7938 80.0828 77.828 82.3537 77.9393 84.7599C77.9432 84.8621 77.9865 84.9587 78.0602 85.0296C78.1338 85.1004 78.2321 85.14 78.3343 85.1399H79.0293C79.0818 85.1406 79.1339 85.1307 79.1825 85.1108C79.231 85.0909 79.2751 85.0613 79.3119 85.024C79.3488 84.9866 79.3778 84.9422 79.3971 84.8934C79.4164 84.8446 79.4257 84.7924 79.4243 84.7399C79.3208 81.9344 78.1333 79.2784 76.1117 77.3304C74.09 75.3824 71.3917 74.2943 68.5843 74.2949Z" fill="white" stroke="#263238" stroke-width="0.87381" stroke-linecap="round" stroke-linejoin="round"/>
<path d="M59.9598 86.0649H59.8098C58.9247 86.0988 58.0872 86.4742 57.473 87.1123C56.8587 87.7504 56.5156 88.6017 56.5156 89.4874C56.5156 90.3732 56.8587 91.2244 57.473 91.8626C58.0872 92.5007 58.9247 92.8761 59.8098 92.9099H59.9598V86.0649Z" fill="#263238" stroke="#263238" stroke-width="0.87381" stroke-miterlimit="10"/>
<path d="M60.775 89.5001C60.775 92.0351 60.885 93.6851 60.01 93.6851C59.135 93.6851 58.835 92.0351 58.835 89.5001C58.835 86.9651 59.135 85.3101 60.01 85.3101C60.885 85.3101 60.775 86.9401 60.775 89.5001Z" fill="white" stroke="#263238" stroke-width="0.87381" stroke-linecap="round" stroke-linejoin="round"/>
<path d="M77.2148 86.0649H77.3648C78.2499 86.0988 79.0875 86.4742 79.7017 87.1123C80.3159 87.7504 80.659 88.6017 80.659 89.4874C80.659 90.3732 80.3159 91.2244 79.7017 91.8626C79.0875 92.5007 78.2499 92.8761 77.3648 92.9099H77.2148V86.0649Z" fill="#263238" stroke="#263238" stroke-width="0.87381" stroke-miterlimit="10"/>
<path d="M76.3946 89.5001C76.3946 92.0351 76.2896 93.6851 77.1646 93.6851C78.0396 93.6851 78.3396 92.0351 78.3396 89.5001C78.3396 86.9651 78.0396 85.3101 77.1646 85.3101C76.2896 85.3101 76.3946 86.9401 76.3946 89.5001Z" fill="white" stroke="#263238" stroke-width="0.87381" stroke-linecap="round" stroke-linejoin="round"/>
<path d="M62.7344 90.1147C62.7344 90.1147 64.1594 91.8697 66.8294 90.4847" stroke="#263238" stroke-width="0.87381" stroke-linecap="round" stroke-linejoin="round"/>
<path d="M66.8291 96.9399C67.4185 97.368 68.1282 97.5986 68.8566 97.5986C69.585 97.5986 70.2947 97.368 70.8841 96.9399" stroke="#263238" stroke-width="0.75" stroke-linecap="round" stroke-linejoin="round"/>
<path d="M62.3398 87.7598C62.3398 87.7598 64.9248 85.7898 67.2248 87.7598" stroke="#263238" stroke-width="0.87381" stroke-linecap="round" stroke-linejoin="round"/>
<path d="M75.0344 87.8249C75.0344 87.8249 72.4494 85.8249 70.1494 87.8249" stroke="#263238" stroke-width="0.87381" stroke-linecap="round" stroke-linejoin="round"/>
<path d="M70.7348 94.1797C70.7348 94.1797 70.9649 95.4597 68.6199 95.4297C68.0449 95.4297 66.9998 95.0197 66.9648 94.1797" stroke="#263238" stroke-width="0.75" stroke-linecap="round" stroke-linejoin="round"/>
<path d="M63.2949 90.5801C63.5099 91.0051 63.9949 91.4951 65.0799 91.5201C66.1649 91.5451 66.3549 91.1151 66.3749 90.6951C65.8914 90.9297 65.3576 91.0419 64.8206 91.0219C64.2835 91.0018 63.7596 90.8501 63.2949 90.5801Z" fill="#263238"/>
<path d="M74.6595 90.1147C74.6595 90.1147 73.2345 91.8697 70.5645 90.4847" stroke="#263238" stroke-width="0.87381" stroke-linecap="round" stroke-linejoin="round"/>
<path d="M74.0995 90.5801C73.8845 91.0051 73.3995 91.4951 72.3145 91.5201C71.2295 91.5451 71.0395 91.1151 71.0195 90.6951C71.5029 90.9301 72.0368 91.0426 72.5739 91.0225C73.1111 91.0025 73.635 90.8505 74.0995 90.5801Z" fill="#263238"/>
<path d="M64.1843 71.4697C64.1843 71.4697 62.8693 72.2047 63.0143 74.2947C63.0143 74.2947 62.5543 72.8847 60.8643 73.4997" stroke="#263238" stroke-width="0.87381" stroke-linecap="round" stroke-linejoin="round"/>
<path d="M68.8796 108.5C70.603 108.499 72.2841 107.966 73.6929 106.974C75.1017 105.981 76.1694 104.577 76.7496 102.955C76.2946 102.885 75.8447 102.825 75.4097 102.765C74.7244 103.88 73.7646 104.802 72.6219 105.441C71.4791 106.081 70.1916 106.416 68.8821 106.416C67.5727 106.416 66.2852 106.081 65.1424 105.441C63.9997 104.802 63.0399 103.88 62.3546 102.765C61.9196 102.825 61.4696 102.885 61.0146 102.955C61.5947 104.577 62.6615 105.98 64.0693 106.972C65.4771 107.965 67.1571 108.498 68.8796 108.5Z" fill="#263238" stroke="#263238" stroke-width="0.87381" stroke-linecap="round" stroke-linejoin="round"/>
<path d="M88.1348 132.415C88.3548 127.542 88.5764 122.667 88.7998 117.79" stroke="#263238" stroke-width="0.87381" stroke-linecap="round" stroke-linejoin="round"/>
<path d="M88.2991 82.6047V77.2197C88.2991 76.9545 88.1938 76.7002 88.0062 76.5126C87.8187 76.3251 87.5644 76.2197 87.2991 76.2197H78.8691C78.6039 76.2197 78.3496 76.3251 78.162 76.5126C77.9745 76.7002 77.8691 76.9545 77.8691 77.2197V82.6047C77.8691 82.8699 77.9745 83.1243 78.162 83.3118C78.3496 83.4994 78.6039 83.6047 78.8691 83.6047H81.8091L81.5741 85.6547H83.0741V87.5897L84.8691 84.4347H83.3941L83.5491 83.6047H87.2941C87.4259 83.6054 87.5565 83.58 87.6784 83.53C87.8003 83.4801 87.9111 83.4065 88.0045 83.3136C88.0979 83.2207 88.172 83.1102 88.2225 82.9886C88.2731 82.8669 88.2991 82.7365 88.2991 82.6047Z" fill="white" stroke="#263238" stroke-width="0.87381" stroke-linecap="round" stroke-linejoin="round"/>
<path d="M79.5 78.085H85.215" stroke="#263238" stroke-width="0.87381" stroke-linecap="round" stroke-linejoin="round"/>
<path d="M79.5 79.6099H86.685" stroke="#263238" stroke-width="0.87381" stroke-linecap="round" stroke-linejoin="round"/>
<path d="M79.5 81.1348H85.58" stroke="#263238" stroke-width="0.87381" stroke-linecap="round" stroke-linejoin="round"/>
<path d="M114.2 143.85C114.2 145.44 111.7 146.435 108.63 146.435C105.56 146.435 103.06 145.435 103.06 143.85C103.06 142.265 105.56 140.965 108.63 140.965C111.7 140.965 114.2 142.255 114.2 143.85Z" fill="white" stroke="#263238" stroke-width="0.87381" stroke-linecap="round" stroke-linejoin="round"/>
<path d="M105.024 145.86C105.174 145.825 105.294 144.985 103.939 144.36C102.999 143.93 102.974 143.475 103.514 142.915C104.054 142.355 104.974 141.885 105.684 142.09C106.839 142.42 107.604 144.825 108.119 144.305C108.894 144.105 107.959 141.9 106.574 141.175C109.074 141.795 109.194 144.675 110.344 144.445C111.224 144.275 109.704 141.415 108.389 140.57C109.232 140.962 109.969 141.55 110.539 142.285C111.374 143.5 111.469 143.91 112.039 143.735C112.779 143.5 111.014 140.83 110.794 140.54C111.904 140.98 112.114 141.91 112.454 142.285C112.794 142.66 112.954 143.285 113.424 143.04C113.894 142.795 113.459 141.925 113.144 141.415C111.644 138.99 109.144 138.585 106.764 138.885C104.884 139.125 102.724 139.915 101.579 141.415C101.288 141.788 101.117 142.242 101.088 142.715C101.06 143.188 101.175 143.659 101.419 144.065C101.819 144.91 103.249 146.26 105.024 145.86Z" fill="white" stroke="#263238" stroke-width="0.87381" stroke-linecap="round" stroke-linejoin="round"/>
<path d="M115.659 146.455H23.6444C23.371 146.455 23.1494 146.677 23.1494 146.95V147.745C23.1494 148.018 23.371 148.24 23.6444 148.24H115.659C115.933 148.24 116.154 148.018 116.154 147.745V146.95C116.154 146.677 115.933 146.455 115.659 146.455Z" fill="#BFBFBF" stroke="#263238" stroke-width="0.87381" stroke-miterlimit="10"/>
<path d="M26.3445 146.455L19.5745 125.88C19.549 125.8 19.5424 125.715 19.5552 125.632C19.568 125.549 19.5998 125.47 19.6482 125.401C19.6967 125.332 19.7603 125.275 19.8343 125.235C19.9082 125.195 19.9905 125.173 20.0745 125.17H41.4595L49.0745 146.455H26.3445Z" fill="#263238"/>
<path d="M42.0442 125.17L49.0442 145.26H67.7942V145.965C67.7942 146.098 67.7415 146.225 67.6477 146.318C67.554 146.412 67.4268 146.465 67.2942 146.465H47.8442L41.1092 126C41.0793 125.908 41.0716 125.81 41.0865 125.715C41.1014 125.619 41.1386 125.529 41.1951 125.45C41.2516 125.372 41.3258 125.308 41.4116 125.264C41.4975 125.219 41.5926 125.196 41.6892 125.195L42.0442 125.17Z" fill="white" stroke="#263238" stroke-width="0.87381" stroke-linecap="round" stroke-linejoin="round"/>
<path d="M32.1145 135.815C32.0485 135.466 31.8856 135.142 31.6445 134.88C31.7492 134.756 31.8805 134.658 32.0285 134.592C32.1766 134.526 32.3376 134.495 32.4995 134.5C32.8775 134.516 33.2398 134.655 33.5313 134.896C33.8229 135.137 34.0277 135.467 34.1145 135.835C34.1608 135.995 34.1683 136.163 34.1366 136.326C34.1049 136.489 34.0349 136.642 33.9323 136.772C33.8296 136.903 33.6974 137.007 33.5465 137.076C33.3956 137.145 33.2304 137.177 33.0645 137.17C32.6811 137.161 32.313 137.018 32.0245 136.765C32.1687 136.47 32.2007 136.132 32.1145 135.815Z" fill="white"/>
<path d="M75.4393 146.455H82.2743C83.1848 145.788 83.9227 144.914 84.4263 143.904C84.9299 142.894 85.1846 141.778 85.1693 140.65V137.435C85.1693 137.313 85.1452 137.192 85.0985 137.079C85.0517 136.966 84.9832 136.864 84.8969 136.777C84.8105 136.691 84.708 136.622 84.5952 136.576C84.4823 136.529 84.3614 136.505 84.2393 136.505H73.4993C73.3774 136.505 73.2567 136.529 73.1441 136.576C73.0316 136.623 72.9294 136.691 72.8434 136.778C72.7575 136.864 72.6894 136.967 72.6432 137.079C72.5971 137.192 72.5736 137.313 72.5743 137.435V140.65C72.5551 141.776 72.805 142.89 73.3033 143.9C73.8017 144.909 74.534 145.785 75.4393 146.455Z" fill="white" stroke="#263238" stroke-width="0.87381" stroke-linecap="round" stroke-linejoin="round"/>
<path d="M87.1093 137.875C86.8212 137.694 86.4911 137.59 86.1511 137.574C85.8111 137.559 85.4729 137.631 85.1693 137.785V138.945C85.4655 138.895 85.7696 138.956 86.0243 139.115C86.9893 139.675 86.7843 140.82 86.1093 141.985C85.8005 142.645 85.2696 143.176 84.6093 143.485C84.4119 143.966 84.1621 144.424 83.8643 144.85C85.1493 145.13 86.3243 144.04 87.2443 142.45C88.3243 140.58 88.6493 138.765 87.1093 137.875Z" fill="white" stroke="#263238" stroke-width="0.87381" stroke-linecap="round" stroke-linejoin="round"/>
<path d="M78.9993 131.44C79.2478 130.63 79.3709 129.787 79.3643 128.94C79.3643 124.24 74.9443 123.685 74.9443 118.345" stroke="#263238" stroke-width="0.87381" stroke-linecap="round" stroke-linejoin="round"/>
<path d="M75.8643 135.585C76.6649 135.086 77.3569 134.431 77.8993 133.66" stroke="#263238" stroke-width="0.87381" stroke-linecap="round" stroke-linejoin="round"/>
<path d="M78.6141 122.825C78.367 122.366 78.2642 121.843 78.3191 121.325" stroke="#263238" stroke-width="0.87381" stroke-linecap="round" stroke-linejoin="round"/>
<path d="M82.0593 129.425C81.8343 127.955 80.9893 126.575 80.1543 125.32" stroke="#263238" stroke-width="0.87381" stroke-linecap="round" stroke-linejoin="round"/>
<path d="M79.5 135.64C79.5 135.64 80.96 135.025 81.76 132.25" stroke="#263238" stroke-width="0.87381" stroke-linecap="round" stroke-linejoin="round"/>
<path d="M88.4291 174.31H50.9891C48.2553 174.31 46.0391 176.526 46.0391 179.26V204.01C46.0391 206.744 48.2553 208.96 50.9891 208.96H88.4291C91.1629 208.96 93.3791 206.744 93.3791 204.01V179.26C93.3791 176.526 91.1629 174.31 88.4291 174.31Z" fill="white" stroke="#263238" stroke-width="0.87381" stroke-miterlimit="10"/>
<path d="M57.875 198.15L58.44 208.035L58.505 208.12C58.9524 208.72 59.5354 209.207 60.2066 209.539C60.8777 209.871 61.6178 210.04 62.3666 210.032C63.1154 210.023 63.8517 209.838 64.5153 209.491C65.1789 209.144 65.751 208.645 66.185 208.035L66.395 198.15H57.875Z" fill="white" stroke="#263238" stroke-width="0.87381" stroke-linecap="round" stroke-linejoin="round"/>
<path d="M68.2641 217.695C64.4714 218.36 60.5918 218.36 56.7991 217.695C56.445 217.345 56.1405 216.948 55.8941 216.515C55.5107 215.833 55.2942 215.069 55.262 214.287C55.2299 213.505 55.383 212.727 55.7091 212.015L57.9941 207.94L67.0491 208.04L69.0891 211.76C69.5786 212.643 69.7895 213.653 69.6941 214.658C69.5986 215.663 69.2012 216.615 68.5541 217.39C68.4628 217.497 68.366 217.598 68.2641 217.695Z" fill="#BFBFBF" stroke="#263238" stroke-width="0.87381" stroke-miterlimit="10"/>
<path d="M66.0391 212.565C66.5992 212.811 67.1335 213.113 67.6341 213.465L66.0391 212.565Z" fill="#BFBFBF"/>
<path d="M66.0391 212.565C66.5992 212.811 67.1335 213.113 67.6341 213.465" stroke="#263238" stroke-width="0.87381" stroke-miterlimit="10"/>
<path d="M57.5 213.465C58.4938 212.785 59.6128 212.308 60.7921 212.064C61.9714 211.819 63.1876 211.811 64.37 212.04" fill="#BFBFBF"/>
<path d="M57.5 213.465C58.4938 212.785 59.6128 212.308 60.7921 212.064C61.9714 211.819 63.1876 211.811 64.37 212.04" stroke="#263238" stroke-width="0.87381" stroke-miterlimit="10"/>
<path d="M52.9995 157.355L56.9995 203.195H67.3445C67.3445 203.195 68.3695 175.195 69.0195 157.015C69.062 155.936 68.8859 154.86 68.5016 153.852C68.1174 152.843 67.5331 151.923 66.7838 151.146C66.0345 150.369 65.1358 149.752 64.1417 149.332C63.1477 148.911 62.0788 148.696 60.9995 148.7C59.8915 148.696 58.7948 148.923 57.7788 149.365C56.7629 149.807 55.85 150.456 55.0979 151.27C54.3458 152.083 53.7709 153.044 53.4097 154.092C53.0485 155.139 52.9088 156.25 52.9995 157.355Z" fill="#263238"/>
<path d="M63.2945 149.025C62.5412 148.804 61.7596 148.694 60.9745 148.7C59.8686 148.7 58.7746 148.929 57.7617 149.373C56.7487 149.816 55.8388 150.466 55.0894 151.279C54.34 152.092 53.7674 153.052 53.4076 154.098C53.0479 155.144 52.909 156.253 52.9995 157.355L54.4195 174.31" stroke="white" stroke-width="0.87381" stroke-linecap="round" stroke-linejoin="round"/>
<path d="M67.6144 152.15C67.2047 151.568 66.7225 151.04 66.1794 150.58C66.1794 150.58 65.5544 150.08 65.2744 149.92" stroke="white" stroke-width="0.87381" stroke-linecap="round" stroke-linejoin="round"/>
<path d="M68.335 174.31C68.54 168.635 68.86 161.995 69.035 157.015C69.0828 155.779 68.8432 154.548 68.335 153.42" stroke="white" stroke-width="0.87381" stroke-linecap="round" stroke-linejoin="round"/>
<path d="M74.7041 198.15L75.2691 208.035L75.3341 208.12C75.7815 208.72 76.3645 209.207 77.0357 209.539C77.7068 209.871 78.4469 210.04 79.1957 210.032C79.9445 210.023 80.6808 209.838 81.3444 209.491C82.008 209.144 82.5801 208.645 83.0141 208.035L83.2241 198.15H74.7041Z" fill="white" stroke="#263238" stroke-width="0.87381" stroke-linecap="round" stroke-linejoin="round"/>
<path d="M85.0947 217.695C81.302 218.36 77.4225 218.36 73.6297 217.695C73.2765 217.345 72.9736 216.948 72.7297 216.515C72.3444 215.833 72.1263 215.07 72.0933 214.288C72.0602 213.506 72.2133 212.727 72.5397 212.015L74.8297 207.94L83.8797 208.04L85.9197 211.76C86.4093 212.643 86.6202 213.653 86.5247 214.658C86.4292 215.663 86.0318 216.615 85.3847 217.39C85.2934 217.497 85.1966 217.598 85.0947 217.695Z" fill="#BFBFBF" stroke="#263238" stroke-width="0.87381" stroke-miterlimit="10"/>
<path d="M82.8691 212.565C83.4298 212.81 83.9642 213.112 84.4641 213.465L82.8691 212.565Z" fill="#BFBFBF"/>
<path d="M82.8691 212.565C83.4298 212.81 83.9642 213.112 84.4641 213.465" stroke="#263238" stroke-width="0.87381" stroke-miterlimit="10"/>
<path d="M74.3398 213.465C75.3338 212.785 76.4528 212.308 77.6321 212.064C78.8113 211.819 80.0274 211.811 81.2098 212.04" fill="#BFBFBF"/>
<path d="M74.3398 213.465C75.3338 212.785 76.4528 212.308 77.6321 212.064C78.8113 211.819 80.0274 211.811 81.2098 212.04" stroke="#263238" stroke-width="0.87381" stroke-miterlimit="10"/>
<path d="M69.8442 157.355L73.8442 203.195H84.1892C84.1892 203.195 85.2142 175.195 85.8692 157.015C85.9083 155.934 85.7285 154.856 85.3406 153.846C84.9526 152.837 84.3645 151.916 83.6117 151.139C82.8588 150.363 81.9567 149.746 80.9596 149.327C79.9625 148.908 78.8909 148.694 77.8092 148.7C76.7041 148.701 75.6113 148.931 74.5995 149.376C73.5878 149.82 72.6791 150.469 71.9307 151.282C71.1824 152.096 70.6107 153.055 70.2516 154.1C69.8925 155.145 69.7538 156.253 69.8442 157.355Z" fill="#263238"/>
<path d="M81.1092 149.39C80.0707 148.928 78.9458 148.693 77.8092 148.7C76.7041 148.701 75.6113 148.931 74.5995 149.376C73.5878 149.82 72.6791 150.469 71.9307 151.283C71.1824 152.096 70.6107 153.055 70.2516 154.1C69.8925 155.145 69.7538 156.253 69.8442 157.355L71.3442 174.31" stroke="white" stroke-width="0.87381" stroke-linecap="round" stroke-linejoin="round"/>
<path d="M84.4448 152.15C84.0377 151.566 83.5552 151.038 83.0098 150.58" stroke="white" stroke-width="0.87381" stroke-linecap="round" stroke-linejoin="round"/>
<path d="M85.5991 174.31C85.8041 168.635 85.6891 161.995 85.8691 157.015C85.9096 155.921 85.7258 154.83 85.3291 153.81" stroke="white" stroke-width="0.87381" stroke-linecap="round" stroke-linejoin="round"/>
<path d="M208.125 79.3349V57.9999C208.125 56.9682 207.715 55.9787 206.986 55.2492C206.256 54.5197 205.267 54.1099 204.235 54.1099H170.765C169.733 54.1099 168.744 54.5197 168.014 55.2492C167.285 55.9787 166.875 56.9682 166.875 57.9999V79.3349C166.875 80.3666 167.285 81.356 168.014 82.0855C168.744 82.815 169.733 83.2249 170.765 83.2249H182.42L181.5 91.3449H187.5V98.9999L194.62 86.4999H188.78L189.395 83.2199H204.235C205.266 83.2199 206.255 82.8107 206.984 82.0823C207.713 81.3538 208.124 80.3657 208.125 79.3349Z" fill="white" stroke="#263238" stroke-width="1.02547" stroke-linecap="round" stroke-linejoin="round"/>
<path d="M173.265 61.4097H195.895" stroke="#263238" stroke-width="1.02547" stroke-linecap="round" stroke-linejoin="round"/>
<path d="M173.265 67.4546H201.735" stroke="#263238" stroke-width="1.02547" stroke-linecap="round" stroke-linejoin="round"/>
<path d="M173.265 73.5H197.355" stroke="#263238" stroke-width="1.02547" stroke-linecap="round" stroke-linejoin="round"/>
<path d="M233.69 170.69L253.91 177.43L248.895 182.45L258.255 191.81L238.035 185.07L243.05 180.05L233.69 170.69Z" fill="#4D96B9" stroke="#263238" stroke-width="1.02547" stroke-linecap="round" stroke-linejoin="round"/>
<path d="M141.31 170.69L121.09 177.43L126.105 182.45L116.745 191.81L136.965 185.07L131.95 180.05L141.31 170.69Z" fill="#4D96B9" stroke="#263238" stroke-width="1.02547" stroke-linecap="round" stroke-linejoin="round"/>
<path d="M186.935 16.0698L177.4 35.1398H184.5V48.3798L194.03 29.3098H186.935V16.0698Z" fill="#4D96B9" stroke="#263238" stroke-width="1.02547" stroke-linecap="round" stroke-linejoin="round"/>
</svg>
