<svg width="259" height="213" viewBox="0 0 259 213" fill="none" xmlns="http://www.w3.org/2000/svg">
<path d="M198.166 0.951846L23.7435 37.8341C19.4334 38.7466 15.3857 40.6203 11.9029 43.3152C8.42012 46.0101 5.59247 49.4563 3.63136 53.3963C1.67024 57.3363 0.626422 61.668 0.577942 66.0677C0.529461 70.4673 1.47758 74.8209 3.35139 78.803L58.3306 195.58C61.4346 202.172 66.8954 207.366 73.6396 210.142C80.3839 212.917 87.9238 213.073 94.7773 210.579L239.45 157.958C246.235 155.49 251.864 150.601 255.253 144.234C258.641 137.867 259.549 130.472 257.801 123.476L232.576 22.4383C230.744 15.1037 226.133 8.76524 219.715 4.75751C213.296 0.749771 205.571 -0.614533 198.166 0.951846Z" fill="#4D96B9"/>
<path opacity="0.7" d="M198.166 0.951846L23.7435 37.8341C19.4334 38.7466 15.3857 40.6203 11.9029 43.3152C8.42012 46.0101 5.59247 49.4563 3.63136 53.3963C1.67024 57.3363 0.626422 61.668 0.577942 66.0677C0.529461 70.4673 1.47758 74.8209 3.35139 78.803L58.3306 195.58C61.4346 202.172 66.8954 207.366 73.6397 210.142C80.3839 212.917 87.9238 213.073 94.7773 210.579L239.45 157.958C246.235 155.49 251.864 150.601 255.253 144.234C258.641 137.867 259.549 130.472 257.801 123.476L232.576 22.4383C230.744 15.1037 226.133 8.76524 219.715 4.75751C213.296 0.749771 205.571 -0.614533 198.166 0.951846Z" fill="white"/>
</svg>
