<svg width="368" height="245" viewBox="0 0 368 245" fill="none" xmlns="http://www.w3.org/2000/svg">
<g clip-path="url(#clip0_191_33072)">
<path d="M244.166 21.9518L69.7435 58.8341C65.4334 59.7466 61.3857 61.6203 57.9029 64.3152C54.4201 67.0101 51.5925 70.4563 49.6314 74.3963C47.6702 78.3363 46.6264 82.668 46.5779 87.0677C46.5295 91.4673 47.4776 95.8209 49.3514 99.803L104.331 216.58C107.435 223.172 112.895 228.366 119.64 231.142C126.384 233.917 133.924 234.073 140.777 231.579L285.45 178.958C292.235 176.49 297.864 171.601 301.253 165.234C304.641 158.867 305.549 151.472 303.801 144.476L278.576 43.4383C276.744 36.1037 272.133 29.7652 265.715 25.7575C259.296 21.7498 251.571 20.3855 244.166 21.9518Z" fill="#4D96B9"/>
<path opacity="0.7" d="M244.166 21.9518L69.7435 58.8341C65.4334 59.7466 61.3857 61.6203 57.9029 64.3152C54.4201 67.0101 51.5925 70.4563 49.6314 74.3963C47.6702 78.3363 46.6264 82.668 46.5779 87.0677C46.5295 91.4673 47.4776 95.8209 49.3514 99.803L104.331 216.58C107.435 223.172 112.895 228.366 119.64 231.142C126.384 233.917 133.924 234.073 140.777 231.579L285.45 178.958C292.235 176.49 297.864 171.601 301.253 165.234C304.641 158.867 305.549 151.472 303.801 144.476L278.576 43.4383C276.744 36.1037 272.133 29.7652 265.715 25.7575C259.296 21.7498 251.571 20.3855 244.166 21.9518Z" fill="white"/>
<path d="M67.6142 89.518C67.7319 91.8553 65.7594 96.7161 65.7594 96.721C65.7594 96.7259 62.943 94.4523 62.786 94.271C60.9411 92.3404 58.5074 87.5335 59.9303 84.9071C60.1789 84.4772 60.5154 84.1044 60.9178 83.8129C61.3202 83.5213 61.7795 83.3177 62.2659 83.215C62.7523 83.1124 63.2549 83.1132 63.741 83.2173C64.227 83.3214 64.6857 83.5266 65.0872 83.8193C66.8291 85.0198 67.5111 87.5286 67.6142 89.518Z" fill="#4D96B9"/>
<path d="M115.365 135.95L115.67 136.132L115.709 138.243L114.443 137.464C113.221 136.705 111.931 135.872 110.611 135.014C109.591 136.124 108.506 137.173 107.363 138.155C108.373 140.174 108.8 144.525 108.835 145.084C110.253 145.049 111.631 145.001 112.932 144.937C113.825 144.893 114.683 144.844 115.513 144.79L114.816 146.632C114.222 146.632 113.624 146.676 113 146.691C111.563 146.73 110.027 146.75 108.447 146.75C108.359 147.313 107.603 151.944 106.391 153.781C105.292 155.442 103.447 157.255 101.318 157.388C100.826 157.434 100.33 157.377 99.8623 157.221C99.3941 157.065 98.9639 156.812 98.5993 156.48C98.2346 156.148 97.9437 155.743 97.7451 155.292C97.5465 154.84 97.4447 154.353 97.4462 153.86C97.5591 150.871 102.103 147.98 104.674 147.245C104.826 147.206 106.524 146.926 107.593 146.755C106.95 146.755 106.322 146.755 105.66 146.755C104.345 146.755 103.035 146.686 101.622 146.637L99.561 146.49C98.8741 146.456 98.1479 146.333 97.4364 146.255C95.7829 146.044 94.1244 145.765 92.4561 145.417C92.4561 146.564 92.3286 150.64 91.4748 152.458C90.621 154.276 89.0755 156.344 87.0097 156.795C86.5273 156.917 86.0245 156.936 85.5342 156.85C85.044 156.765 84.5772 156.578 84.1642 156.3C83.7513 156.023 83.4016 155.662 83.1377 155.241C82.8739 154.819 82.7019 154.347 82.633 153.855C82.2895 150.885 86.3424 147.328 88.7761 146.226C88.9233 146.157 90.7388 145.564 91.7741 145.246C90.7928 145.035 89.7722 144.834 88.7663 144.589C85.8616 143.883 82.947 143.08 80.0325 142.291L77.3681 141.61C77.3681 142.021 77.3436 146.872 76.3868 148.906C75.5527 150.714 73.9825 152.791 71.9217 153.242C71.4392 153.365 70.9363 153.384 70.4457 153.3C69.9551 153.215 69.488 153.027 69.0749 152.75C68.6618 152.472 68.3119 152.111 68.0483 151.689C67.7847 151.267 67.6132 150.795 67.545 150.302C67.2015 147.333 71.2544 143.776 73.6832 142.673C73.8697 142.59 76.5095 141.737 77.1915 141.556C75.2288 141.036 73.2662 140.541 71.3035 140.135C68.6642 139.569 65.991 139.175 63.3007 138.954C63.3007 139.145 63.3007 144.207 62.3194 146.304C61.4804 148.112 59.9151 150.185 57.8543 150.636C57.3715 150.759 56.868 150.779 56.3768 150.695C55.8857 150.61 55.4179 150.423 55.0042 150.145C54.5906 149.868 54.2403 149.506 53.9763 149.084C53.7124 148.662 53.5408 148.189 53.4727 147.696C53.1341 144.731 57.1821 141.169 59.6158 140.066C59.8072 139.983 62.6481 139.086 63.1732 138.934C63.0161 138.934 62.8591 138.895 62.6825 138.885C59.9792 138.739 57.2683 138.832 54.5816 139.165C53.1096 139.331 51.6866 139.571 50.3177 139.836C50.4158 140.782 50.8084 145.094 50.1509 147.068C49.5179 148.96 48.1882 151.189 46.1863 151.865C45.7255 152.03 45.2354 152.098 44.7471 152.064C44.2587 152.03 43.7827 151.896 43.3492 151.668C42.9157 151.441 42.5341 151.127 42.2285 150.745C41.923 150.363 41.7001 149.922 41.574 149.45C40.9067 146.51 44.518 142.555 46.8389 141.193C46.9615 141.12 48.3109 140.507 49.2922 140.071C48.674 140.203 48.041 140.326 47.4522 140.458C45.2491 140.948 43.257 141.556 41.5004 142.1C40.5191 142.418 39.6113 142.722 38.7772 143.016C38.3896 143.996 36.7704 147.916 35.3033 149.322C33.8362 150.729 31.6576 152.076 29.5723 151.772C27.487 151.468 26.0002 149.548 26.5449 147.465C27.2956 144.574 32.3593 142.712 35.0285 142.565C35.2591 142.565 38.8852 142.761 38.8655 142.81V142.869C39.6653 142.57 40.5191 142.257 41.4661 141.938C43.2128 141.355 45.1951 140.713 47.3982 140.159C49.7649 139.528 52.1668 139.038 54.5914 138.689C57.3037 138.294 60.0459 138.14 62.7855 138.229H62.8837C62.0544 137.935 59.7777 137.033 59.6109 136.945C57.2557 135.686 53.4432 131.878 53.9732 128.938C54.0749 128.453 54.2779 127.994 54.5691 127.591C54.8603 127.189 55.233 126.853 55.6631 126.604C56.0931 126.355 56.5708 126.2 57.065 126.148C57.5593 126.096 58.0589 126.148 58.5314 126.302C60.5628 126.885 61.9661 129.051 62.707 130.913C63.5166 133.01 63.2271 137.871 63.1977 138.263C65.9833 138.424 68.7551 138.769 71.4949 139.297C73.0895 139.596 74.694 139.949 76.2936 140.321C75.587 140.042 74.959 139.787 74.8756 139.743C72.5154 138.484 68.7079 134.676 69.2378 131.736C69.3396 131.25 69.5427 130.791 69.8338 130.389C70.1249 129.987 70.4975 129.65 70.9274 129.401C71.3573 129.152 71.8349 128.996 72.3292 128.943C72.8234 128.891 73.3232 128.942 73.7961 129.095C75.8274 129.678 77.2553 131.849 77.9717 133.711C78.688 135.573 78.5359 139.748 78.4623 140.845C79.0757 140.992 79.689 141.134 80.2974 141.286C83.2414 142.012 86.1854 142.756 89.0509 143.383C90.0666 143.609 91.0823 143.795 92.093 143.981C91.465 143.731 90.94 143.521 90.8664 143.491C88.5063 142.237 84.6938 138.425 85.2286 135.485C85.3303 134.999 85.5334 134.54 85.8246 134.138C86.1157 133.736 86.4885 133.399 86.9185 133.151C87.3486 132.902 87.8263 132.746 88.3205 132.694C88.8147 132.642 89.3144 132.695 89.7869 132.848C91.8134 133.432 93.2461 135.602 93.9625 137.459C94.6789 139.317 94.5415 143.094 94.4532 144.398C95.4934 144.56 96.5385 144.721 97.5542 144.829C98.2509 144.888 98.9133 144.996 99.615 145.015L101.681 145.118C102.996 145.118 104.35 145.157 105.635 145.143C106.524 145.143 107.377 145.118 108.231 145.098C107.215 144.888 105.233 144.432 105.071 144.373C102.886 143.512 100.957 142.107 99.4678 140.292C99.2211 140.206 98.9829 140.098 98.7563 139.968C98.3167 139.736 97.931 139.414 97.6243 139.023C97.3176 138.633 97.0969 138.182 96.9766 137.7C96.8562 137.218 96.8389 136.716 96.9257 136.227C97.0125 135.739 97.2016 135.273 97.4806 134.862C99.2224 132.437 104.615 132.515 107.157 133.334C107.309 133.383 108.879 134.083 109.86 134.544C109.325 134.186 108.8 133.843 108.251 133.466C107.161 132.731 106.097 131.966 104.949 131.148L103.344 129.85C102.79 129.443 102.255 128.943 101.7 128.483C100.444 127.4 99.2175 126.234 98.0105 125.053C97.3677 126.003 95.0223 129.345 93.3148 130.398C91.6073 131.452 89.1687 132.314 87.2011 131.555C85.2335 130.795 84.1835 128.615 85.1599 126.704C86.5142 124.038 91.8624 123.303 94.4826 123.72C94.6494 123.749 96.5041 124.264 97.5198 124.563C96.8035 123.837 96.0822 123.117 95.3756 122.358C93.3443 120.172 91.3521 117.894 89.36 115.63C88.7467 114.939 88.1285 114.253 87.5151 113.567C87.2894 113.91 84.5711 117.943 82.6772 119.124C80.9844 120.172 78.531 121.035 76.5634 120.275C76.0941 120.112 75.6642 119.853 75.3019 119.513C74.9396 119.173 74.6529 118.761 74.4604 118.304C74.2679 117.846 74.1739 117.354 74.1846 116.857C74.1952 116.361 74.3103 115.873 74.5223 115.424C75.8814 112.763 81.2248 112.023 83.8449 112.445C84.0461 112.479 86.7203 113.219 87.3876 113.425C86.0333 111.911 84.6693 110.416 83.266 109.015C81.3771 107.091 79.3661 105.291 77.2455 103.625C77.1424 103.787 74.3407 108.006 72.3879 109.216C70.6902 110.264 68.2368 111.132 66.2693 110.372C65.7997 110.209 65.3698 109.949 65.0075 109.608C64.6453 109.268 64.3588 108.856 64.1667 108.398C63.9746 107.94 63.8813 107.446 63.8927 106.95C63.9041 106.454 64.0201 105.965 64.233 105.516C65.5872 102.856 70.9306 102.121 73.5557 102.537C73.7667 102.571 76.642 103.375 77.1523 103.556C77.0296 103.458 76.9118 103.346 76.7843 103.253C74.6102 101.643 72.2984 100.228 69.8757 99.0238C68.546 98.3476 67.2359 97.7694 65.9503 97.2353C65.5087 98.0781 63.4479 101.89 61.814 103.174C60.1801 104.458 57.8887 105.531 55.8573 104.992C55.373 104.881 54.9175 104.669 54.5204 104.371C54.1233 104.073 53.7935 103.694 53.5524 103.26C53.3113 102.826 53.1643 102.347 53.121 101.852C53.0777 101.358 53.139 100.86 53.3009 100.391C54.351 97.5979 59.5815 96.2798 62.2507 96.4072C62.3979 96.4072 63.865 96.6473 64.9297 96.8335C64.3458 96.6032 63.7472 96.3435 63.183 96.1426C61.0633 95.3488 59.0761 94.751 57.295 94.2316C56.3136 93.9474 55.3716 93.7122 54.5129 93.4966C53.6493 94.0944 50.141 96.466 48.1342 96.8384C46.1274 97.2108 43.571 97.1324 42.0107 95.7163C40.4504 94.3002 40.259 91.8943 41.8635 90.4586C44.0862 88.4594 49.3364 89.6991 51.6474 91.0368C51.8437 91.1544 54.7582 93.3251 54.7141 93.3594L54.6601 93.3937C55.4893 93.5848 56.3774 93.7955 57.344 94.0454C59.1252 94.5354 61.1271 95.0793 63.2713 95.8339C65.5901 96.6184 67.8609 97.5379 70.0719 98.5877C72.552 99.7544 74.9245 101.137 77.1621 102.718L77.2357 102.782C76.7107 102.081 75.3122 100.072 75.219 99.9058C73.9482 97.5587 72.8736 92.2814 74.9443 90.1058C75.2975 89.7573 75.7202 89.4869 76.185 89.3122C76.6497 89.1376 77.1461 89.0626 77.6418 89.0922C78.1375 89.1218 78.6214 89.2553 79.062 89.4839C79.5027 89.7126 79.8901 90.0313 80.1993 90.4194C81.5732 92.0217 81.5633 94.6187 81.1365 96.564C80.6458 98.7592 77.7018 102.655 77.4908 102.963C79.7482 104.636 81.8907 106.458 83.9038 108.417C85.0716 109.549 86.2149 110.72 87.3385 111.911C86.9067 111.293 86.5191 110.735 86.4749 110.652C85.2041 108.304 84.1295 103.022 86.2001 100.852C86.5534 100.503 86.9761 100.233 87.4409 100.058C87.9056 99.8833 88.402 99.8083 88.8977 99.8379C89.3934 99.8675 89.8773 100.001 90.3179 100.23C90.7585 100.458 91.146 100.777 91.4552 101.165C92.829 102.767 92.8192 105.364 92.3924 107.31C91.9655 109.255 89.5269 112.656 88.8694 113.543C89.3012 114.003 89.7329 114.459 90.1598 114.919C92.2059 117.144 94.2373 119.369 96.2981 121.49C97.0242 122.24 97.7701 122.96 98.5061 123.666C98.1233 123.112 97.8044 122.647 97.7603 122.568C96.4894 120.221 95.4149 114.944 97.4855 112.768C98.9575 111.215 101.411 111.514 102.741 113.082C104.07 114.65 104.105 117.286 103.678 119.231C103.251 121.177 101.048 124.244 100.272 125.298C101.053 126.008 101.833 126.719 102.623 127.37C103.167 127.802 103.668 128.257 104.242 128.659L105.905 129.879C106.995 130.619 108.108 131.388 109.188 132.079C109.934 132.569 110.66 133.02 111.381 133.476C110.65 132.741 109.247 131.266 109.144 131.129C107.529 129.002 105.67 123.95 107.387 121.5C107.683 121.102 108.06 120.77 108.493 120.527C108.926 120.284 109.406 120.134 109.9 120.088C110.395 120.042 110.894 120.1 111.365 120.259C111.835 120.418 112.267 120.674 112.632 121.01C114.227 122.387 114.595 124.955 114.487 126.944C114.345 129.134 112.152 133.27 111.872 133.804C113.069 134.568 114.242 135.289 115.365 135.95Z" fill="#4D96B9"/>
<path d="M49.9004 139.527C49.9004 139.581 46.299 139.184 46.0732 139.135C43.4678 138.542 38.7819 135.872 38.517 132.897C38.4875 132.402 38.5628 131.906 38.7379 131.441C38.9131 130.977 39.1841 130.554 39.5336 130.201C39.883 129.848 40.3029 129.572 40.766 129.392C41.2291 129.211 41.725 129.13 42.2215 129.154C44.3314 129.178 46.2842 130.893 47.4667 132.501C48.8553 134.382 49.9004 139.522 49.9004 139.527Z" fill="#4D96B9"/>
<path d="M310.553 89.518C310.435 91.8553 312.403 96.7161 312.403 96.721C312.403 96.7259 315.219 94.4523 315.381 94.271C317.226 92.3404 319.66 87.5335 318.237 84.9071C317.988 84.4772 317.652 84.1044 317.249 83.8129C316.847 83.5213 316.388 83.3177 315.901 83.215C315.415 83.1124 314.912 83.1132 314.426 83.2173C313.94 83.3214 313.481 83.5266 313.08 83.8193C311.333 85.0198 310.651 87.5286 310.553 89.518Z" fill="#4D96B9"/>
<path d="M262.8 135.95L262.491 136.132L262.457 138.244L263.723 137.465C264.945 136.705 266.235 135.872 267.55 135.015C268.57 136.124 269.655 137.173 270.798 138.155C269.788 140.174 269.366 144.525 269.326 145.084C267.908 145.05 266.534 145.001 265.234 144.937C264.336 144.893 263.478 144.844 262.653 144.79L263.355 146.647C263.944 146.647 264.542 146.691 265.165 146.706C266.603 146.745 268.144 146.765 269.724 146.765C269.812 147.328 270.568 151.959 271.78 153.796C272.879 155.457 274.724 157.27 276.848 157.403C277.343 157.452 277.842 157.396 278.314 157.239C278.786 157.082 279.219 156.828 279.586 156.493C279.952 156.158 280.244 155.749 280.442 155.294C280.64 154.838 280.74 154.347 280.734 153.85C280.622 150.861 276.078 147.97 273.507 147.235C273.355 147.196 271.657 146.917 270.563 146.745C271.211 146.745 271.834 146.745 272.525 146.745C273.84 146.745 275.151 146.677 276.559 146.628L278.62 146.481C279.311 146.446 280.033 146.324 280.749 146.245C282.398 146.035 284.061 145.755 285.729 145.407C285.729 146.554 285.852 150.631 286.711 152.449C287.569 154.267 289.115 156.334 291.176 156.785C291.658 156.907 292.162 156.926 292.652 156.841C293.143 156.756 293.61 156.568 294.023 156.291C294.436 156.014 294.787 155.653 295.051 155.231C295.315 154.81 295.488 154.338 295.557 153.845C295.896 150.876 291.848 147.318 289.414 146.216C289.262 146.147 287.452 145.554 286.416 145.236C287.398 145.025 288.413 144.824 289.424 144.579C292.324 143.874 295.243 143.07 298.158 142.281L300.778 141.61C300.778 142.022 300.803 146.873 301.759 148.906C302.594 150.714 304.159 152.792 306.22 153.243C308.28 153.693 310.356 152.454 310.601 150.303C310.94 147.333 306.892 143.776 304.458 142.673C304.277 142.59 301.637 141.737 300.955 141.556C302.917 141.037 304.88 140.542 306.843 140.135C309.48 139.57 312.152 139.175 314.841 138.954C314.841 139.145 314.841 144.207 315.822 146.304C316.656 148.112 318.226 150.185 320.287 150.636C320.77 150.758 321.272 150.778 321.763 150.693C322.254 150.608 322.721 150.421 323.134 150.143C323.547 149.866 323.897 149.504 324.16 149.083C324.424 148.661 324.596 148.188 324.664 147.696C325.007 144.731 320.959 141.169 318.525 140.066C318.334 139.983 315.493 139.086 314.963 138.935C315.12 138.935 315.282 138.895 315.454 138.886C318.156 138.739 320.865 138.833 323.55 139.165C325.022 139.331 326.45 139.572 327.814 139.836C327.721 140.782 327.323 145.094 327.986 147.069C328.619 148.96 329.948 151.189 331.945 151.866C332.408 152.036 332.902 152.108 333.395 152.077C333.887 152.046 334.368 151.913 334.806 151.685C335.244 151.458 335.63 151.142 335.938 150.757C336.246 150.372 336.471 149.927 336.597 149.45C337.264 146.51 333.653 142.556 331.332 141.193C331.209 141.12 329.86 140.507 328.879 140.071C329.492 140.204 330.13 140.326 330.719 140.458C332.922 140.948 334.909 141.556 336.665 142.1C337.647 142.418 338.559 142.722 339.394 143.016C339.781 143.996 341.4 147.916 342.867 149.323C344.335 150.729 346.508 152.076 348.594 151.773C349.087 151.713 349.562 151.55 349.989 151.296C350.416 151.041 350.784 150.699 351.07 150.293C351.356 149.887 351.553 149.425 351.649 148.938C351.744 148.451 351.737 147.949 351.626 147.465C350.87 144.574 345.807 142.712 343.142 142.565C342.912 142.565 339.286 142.761 339.305 142.81V142.869C338.51 142.57 337.652 142.257 336.71 141.938C334.958 141.355 332.981 140.713 330.777 140.16C328.411 139.529 326.009 139.038 323.584 138.69C320.872 138.294 318.13 138.14 315.39 138.229H315.292C316.116 137.935 318.398 137.033 318.565 136.945C320.92 135.686 324.732 131.879 324.198 128.939C324.096 128.453 323.893 127.994 323.602 127.592C323.31 127.189 322.938 126.853 322.508 126.604C322.078 126.356 321.6 126.2 321.106 126.148C320.611 126.096 320.112 126.149 319.639 126.302C317.613 126.885 316.18 129.051 315.464 130.913C314.654 133.01 314.973 137.871 314.973 138.263C312.184 138.422 309.409 138.765 306.666 139.292C305.067 139.591 303.467 139.944 301.867 140.316C302.574 140.037 303.202 139.782 303.285 139.738C305.641 138.479 309.453 134.672 308.923 131.732C308.821 131.246 308.618 130.787 308.327 130.384C308.036 129.982 307.663 129.645 307.234 129.396C306.804 129.147 306.326 128.991 305.832 128.939C305.338 128.886 304.838 128.938 304.365 129.09C302.333 129.674 300.901 131.844 300.184 133.706C299.468 135.568 299.625 139.743 299.694 140.841L297.854 141.282C294.91 142.007 291.995 142.752 289.105 143.379C288.085 143.604 287.074 143.79 286.063 143.977C286.686 143.727 287.211 143.516 287.29 143.487C289.645 142.232 293.457 138.42 292.927 135.48C292.826 134.994 292.623 134.535 292.331 134.133C292.04 133.731 291.668 133.395 291.238 133.146C290.807 132.897 290.33 132.742 289.836 132.69C289.341 132.638 288.842 132.69 288.369 132.844C286.338 133.427 284.91 135.598 284.194 137.455C283.477 139.312 283.605 143.08 283.678 144.378C282.638 144.54 281.593 144.702 280.577 144.81C279.881 144.868 279.213 144.976 278.512 144.996L276.451 145.099C275.136 145.099 273.777 145.138 272.496 145.123C271.603 145.123 270.754 145.099 269.9 145.079C270.916 144.868 272.898 144.413 273.055 144.354C275.242 143.494 277.171 142.089 278.659 140.272C278.907 140.187 279.147 140.078 279.375 139.949C279.814 139.716 280.199 139.394 280.506 139.003C280.812 138.612 281.032 138.161 281.153 137.68C281.273 137.198 281.29 136.697 281.204 136.208C281.118 135.719 280.929 135.254 280.651 134.843C278.909 132.418 273.512 132.496 270.97 133.314C270.823 133.363 269.253 134.064 268.267 134.525C268.806 134.167 269.331 133.824 269.876 133.447C270.965 132.712 272.03 131.947 273.178 131.129L274.817 129.87C275.371 129.463 275.906 128.963 276.461 128.502C277.722 127.42 278.943 126.253 280.15 125.072C280.798 126.023 283.144 129.365 284.846 130.418C286.549 131.472 289.002 132.3 290.965 131.56C292.927 130.82 293.977 128.62 293.001 126.709C291.647 124.043 286.303 123.308 283.678 123.725C283.516 123.754 281.657 124.269 280.641 124.568C281.362 123.843 282.084 123.122 282.785 122.363C284.822 120.177 286.809 117.899 288.806 115.635C289.414 114.944 290.032 114.258 290.646 113.572C290.876 113.915 293.59 117.948 295.484 119.129C297.182 120.177 299.635 121.04 301.602 120.28C302.072 120.118 302.502 119.858 302.864 119.518C303.226 119.178 303.513 118.766 303.705 118.309C303.897 117.851 303.99 117.358 303.979 116.862C303.967 116.366 303.852 115.878 303.639 115.429C302.284 112.769 296.941 112.029 294.316 112.45C294.12 112.484 291.446 113.224 290.773 113.43C292.128 111.916 293.497 110.421 294.9 109.02C296.786 107.095 298.795 105.295 300.915 103.63C301.023 103.792 303.825 108.011 305.778 109.221C307.476 110.27 309.924 111.137 311.897 110.377C312.366 110.214 312.796 109.954 313.158 109.614C313.521 109.273 313.807 108.861 313.999 108.403C314.191 107.945 314.285 107.452 314.273 106.955C314.262 106.459 314.146 105.97 313.933 105.521C312.579 102.861 307.235 102.126 304.61 102.542C304.404 102.577 301.529 103.38 301.019 103.561C301.141 103.463 301.259 103.351 301.382 103.258C303.557 101.648 305.871 100.233 308.295 99.029C309.625 98.3528 310.935 97.7746 312.22 97.2405C312.662 98.0833 314.718 101.895 316.357 103.179C317.996 104.463 320.282 105.536 322.309 104.997C322.793 104.887 323.249 104.676 323.647 104.377C324.045 104.079 324.375 103.701 324.617 103.267C324.858 102.833 325.006 102.353 325.049 101.858C325.093 101.364 325.032 100.866 324.87 100.396C323.815 97.6031 318.584 96.285 315.915 96.4124C315.773 96.4124 314.306 96.6525 313.241 96.8387C313.825 96.6084 314.424 96.3487 314.988 96.1478C317.103 95.354 319.09 94.7562 320.876 94.2368C321.857 93.9526 322.799 93.7174 323.653 93.5018C324.517 94.0996 328.025 96.4712 330.032 96.8436C332.038 97.216 334.59 97.1376 336.155 95.7215C337.72 94.3054 337.907 91.8995 336.302 90.4638C334.075 88.4646 328.825 89.7043 326.518 91.042C326.317 91.1596 323.408 93.3303 323.452 93.3646L323.506 93.3989C322.672 93.59 321.784 93.8007 320.822 94.0506C319.041 94.5406 317.034 95.0845 314.89 95.8391C312.572 96.6236 310.303 97.5431 308.094 98.5929C305.613 99.7574 303.24 101.14 301.004 102.724L300.925 102.787C301.45 102.087 302.854 100.078 302.942 99.911C304.213 97.5639 305.287 92.2866 303.222 90.111C302.868 89.7623 302.445 89.4919 301.98 89.3172C301.514 89.1425 301.018 89.0675 300.522 89.0971C300.026 89.1267 299.541 89.2602 299.1 89.4889C298.659 89.7176 298.271 90.0364 297.962 90.4246C296.593 92.0269 296.598 94.6239 297.029 96.5692C297.52 98.7644 300.464 102.66 300.675 102.969C298.44 104.637 296.319 106.453 294.326 108.403C293.158 109.535 292.02 110.706 290.891 111.896C291.323 111.279 291.706 110.72 291.755 110.637C293.026 108.29 294.095 103.008 292.029 100.837C291.676 100.488 291.253 100.218 290.788 100.043C290.322 99.8686 289.826 99.7936 289.33 99.8232C288.833 99.8528 288.349 99.9863 287.908 100.215C287.467 100.444 287.079 100.762 286.77 101.151C285.401 102.753 285.405 105.35 285.837 107.295C286.269 109.241 288.703 112.641 289.355 113.528L288.021 114.934C285.975 117.159 283.938 119.384 281.878 121.505C281.156 122.255 280.406 122.975 279.67 123.681C280.057 123.127 280.376 122.662 280.415 122.583C281.686 120.236 282.761 114.959 280.695 112.783C280.341 112.435 279.918 112.164 279.453 111.989C278.988 111.815 278.491 111.74 277.995 111.769C277.499 111.799 277.015 111.932 276.574 112.161C276.133 112.39 275.745 112.709 275.435 113.097C274.066 114.699 274.071 117.301 274.503 119.246C274.935 121.192 277.133 124.259 277.903 125.313C277.123 126.023 276.348 126.734 275.558 127.385C275.008 127.816 274.513 128.272 273.939 128.674L272.27 129.894C271.186 130.634 270.067 131.403 268.988 132.094C268.242 132.584 267.516 133.035 266.799 133.491C267.531 132.756 268.934 131.281 269.037 131.144C270.646 129.017 272.511 123.965 270.793 121.515C270.497 121.117 270.12 120.785 269.687 120.542C269.254 120.299 268.775 120.149 268.28 120.103C267.785 120.057 267.287 120.115 266.816 120.274C266.345 120.433 265.913 120.689 265.548 121.025C263.949 122.402 263.586 124.97 263.689 126.959C263.836 129.149 266.029 133.285 266.304 133.819C265.097 134.569 263.919 135.289 262.8 135.95Z" fill="#4D96B9"/>
<path d="M328.256 139.527C328.256 139.581 331.857 139.184 332.083 139.135C334.684 138.542 339.369 135.872 339.634 132.898C339.826 130.756 338.001 129.13 335.935 129.154C333.869 129.179 331.872 130.894 330.69 132.501C329.311 134.382 328.256 139.522 328.256 139.527Z" fill="#4D96B9"/>
<path d="M115.656 52.7484L107.304 59.2793L117.44 72.2078L125.793 65.6768L115.656 52.7484Z" fill="#263238" stroke="#263238" stroke-linejoin="round"/>
<path d="M114.988 45.879L100.786 56.9834L107.979 66.1579L122.181 55.0535L114.988 45.879Z" fill="#4D96B9" stroke="#263238" stroke-linejoin="round"/>
<path d="M103.853 55.021L109.127 61.7487" stroke="#263238" stroke-linejoin="round"/>
<path d="M108.661 51.2627L113.936 57.9855" stroke="#263238" stroke-linejoin="round"/>
<path d="M107.351 54.8691L112.625 61.5919" stroke="#263238" stroke-linejoin="round"/>
<path d="M224.02 65.6864L232.372 72.2173L242.508 59.2888L234.156 52.7579L224.02 65.6864Z" fill="#263238" stroke="#263238" stroke-linejoin="round"/>
<path d="M227.639 55.0509L241.841 66.1553L249.034 56.9807L234.832 45.8763L227.639 55.0509Z" fill="#4D96B9" stroke="#263238" stroke-linejoin="round"/>
<path d="M245.974 55.021L240.699 61.7487" stroke="#263238" stroke-linejoin="round"/>
<path d="M241.165 51.2627L235.891 57.9855" stroke="#263238" stroke-linejoin="round"/>
<path d="M242.476 54.8691L237.201 61.5919" stroke="#263238" stroke-linejoin="round"/>
<path d="M182.875 30.0356H165.672V47.2395H182.875V30.0356Z" fill="#263238" stroke="#263238" stroke-linejoin="round"/>
<path d="M186.722 20.167H161.825V37.3709H186.722V20.167Z" fill="#4D96B9" stroke="#263238" stroke-linejoin="round"/>
<path d="M164.062 20.1084V34.4458" stroke="#263238" stroke-linejoin="round"/>
<path d="M166.113 35.0875V27.4043" stroke="#263238" stroke-linejoin="round"/>
<path d="M168.292 20.4956V31.3736" stroke="#263238" stroke-linejoin="round"/>
<path d="M170.471 25.7432V35.7294" stroke="#263238" stroke-linejoin="round"/>
<path d="M173.807 20.623V31.8881" stroke="#263238" stroke-linejoin="round"/>
<path d="M237.904 197.645C273.049 162.548 273.049 105.645 237.904 70.5484C202.76 35.4516 145.779 35.4516 110.635 70.5484C75.4903 105.645 75.4903 162.548 110.635 197.645C145.779 232.742 202.76 232.742 237.904 197.645Z" fill="#263238" stroke="#263238" stroke-linejoin="round"/>
<path d="M174.272 60.9795V70.8922" stroke="#263238" stroke-linejoin="round"/>
<path d="M174.272 197.229V207.141" stroke="#263238" stroke-linejoin="round"/>
<path d="M247.451 134.063H237.524" stroke="#263238" stroke-linejoin="round"/>
<path d="M111.016 134.063H101.09" stroke="#263238" stroke-linejoin="round"/>
<path d="M226.019 82.3872L218.997 89.3942" stroke="#263238" stroke-linejoin="round"/>
<path d="M129.544 178.726L122.527 185.738" stroke="#263238" stroke-linejoin="round"/>
<path d="M122.527 82.3872L129.544 89.3942" stroke="#263238" stroke-linejoin="round"/>
<path d="M218.997 178.726L226.019 185.738" stroke="#263238" stroke-linejoin="round"/>
<path d="M192.334 127.1L193.478 131.456L118.651 149.478L118.308 148.17L192.334 127.1Z" fill="#263238" stroke="#263238" stroke-linejoin="round"/>
</g>
<defs>
<clipPath id="clip0_191_33072">
<rect width="368" height="245" fill="white"/>
</clipPath>
</defs>
</svg>
