<svg width="326" height="75" viewBox="0 0 326 75" fill="none" xmlns="http://www.w3.org/2000/svg">
<path d="M41.6142 6.51803C41.7319 8.85533 39.7594 13.7161 39.7594 13.721C39.7594 13.7259 36.943 11.4523 36.786 11.271C34.9411 9.34043 32.5074 4.53353 33.9303 1.90713C34.1789 1.47722 34.5154 1.10439 34.9178 0.812865C35.3202 0.521339 35.7795 0.31765 36.2659 0.215049C36.7523 0.112448 37.2549 0.113227 37.741 0.217337C38.227 0.321447 38.6857 0.526559 39.0872 0.819332C40.8291 2.01983 41.5111 4.52863 41.6142 6.51803Z" fill="#4D96B9"/>
<path d="M89.3654 52.9502L89.6696 53.1315L89.7088 55.2434L88.4429 54.4643C87.2212 53.7048 85.9307 52.8718 84.6108 52.0143C83.5908 53.1241 82.5061 54.1728 81.3626 55.1552C82.3734 57.174 82.8002 61.5252 82.8346 62.0838C84.2526 62.0495 85.6314 62.0005 86.9317 61.9368C87.8247 61.8927 88.6833 61.8437 89.5126 61.7898L88.8158 63.6322C88.2221 63.6322 87.6235 63.6763 87.0004 63.691C85.5627 63.7302 84.0269 63.7498 82.447 63.7498C82.3587 64.3133 81.603 68.9438 80.3911 70.7813C79.292 72.4424 77.4471 74.2554 75.3176 74.3877C74.8262 74.4342 74.3304 74.3775 73.8623 74.2212C73.3941 74.0649 72.9639 73.8125 72.5993 73.4802C72.2346 73.1479 71.9437 72.7431 71.7451 72.2918C71.5465 71.8405 71.4447 71.3527 71.4462 70.8597C71.5591 67.8707 76.1027 64.9797 78.6737 64.2447C78.8259 64.2055 80.5236 63.9262 81.5932 63.7547C80.9504 63.7547 80.3224 63.7547 79.66 63.7547C78.345 63.7547 77.0349 63.6861 75.6218 63.6371L73.561 63.4901C72.8741 63.4558 72.1479 63.3333 71.4364 63.2549C69.7829 63.0442 68.1244 62.7649 66.4561 62.417C66.4561 63.5636 66.3286 67.6404 65.4748 69.4583C64.621 71.2762 63.0755 73.344 61.0097 73.7948C60.5273 73.9166 60.0245 73.9355 59.5342 73.8503C59.044 73.7652 58.5772 73.5778 58.1642 73.3004C57.7513 73.023 57.4016 72.6619 57.1377 72.2405C56.8739 71.8191 56.7019 71.347 56.633 70.8548C56.2895 67.8854 60.3424 64.328 62.7761 63.2255C62.9233 63.1569 64.7388 62.564 65.7741 62.2455C64.7928 62.0348 63.7722 61.8339 62.7663 61.5889C59.8616 60.8833 56.947 60.0797 54.0325 59.2908L51.3681 58.6097C51.3681 59.0213 51.3436 63.8723 50.3868 65.9058C49.5527 67.7139 47.9825 69.7915 45.9217 70.2423C45.4392 70.3649 44.9363 70.3844 44.4457 70.2996C43.9551 70.2147 43.488 70.0274 43.0749 69.7499C42.6618 69.4724 42.3119 69.111 42.0483 68.6892C41.7847 68.2674 41.6132 67.7948 41.545 67.3023C41.2015 64.3329 45.2544 60.7755 47.6832 59.673C47.8697 59.5897 50.5095 58.7371 51.1915 58.5558C49.2288 58.0364 47.2662 57.5415 45.3035 57.1348C42.6642 56.5694 39.991 56.175 37.3007 55.9539C37.3007 56.145 37.3007 61.2067 36.3194 63.3039C35.4804 65.112 33.9151 67.1847 31.8543 67.6355C31.3715 67.7589 30.868 67.779 30.3768 67.6946C29.8857 67.6101 29.4179 67.4229 29.0042 67.1454C28.5906 66.8678 28.2403 66.5061 27.9763 66.0839C27.7124 65.6617 27.5408 65.1886 27.4727 64.6955C27.1341 61.731 31.1821 58.1687 33.6158 57.0662C33.8072 56.9829 36.6481 56.0862 37.1732 55.9343C37.0161 55.9343 36.8591 55.8951 36.6825 55.8853C33.9792 55.7389 31.2683 55.8324 28.5816 56.1646C27.1096 56.3312 25.6866 56.5713 24.3177 56.8359C24.4158 57.7816 24.8084 62.0936 24.1509 64.0683C23.5179 65.9597 22.1882 68.1892 20.1863 68.8654C19.7255 69.0304 19.2354 69.0981 18.7471 69.0642C18.2587 69.0303 17.7827 68.8955 17.3492 68.6685C16.9157 68.4414 16.5341 68.127 16.2285 67.7451C15.923 67.3632 15.7001 66.9221 15.574 66.4497C14.9067 63.5097 18.518 59.5554 20.8389 58.1932C20.9615 58.1197 22.3109 57.5072 23.2922 57.0711C22.674 57.2034 22.041 57.3259 21.4522 57.4582C19.2491 57.9482 17.257 58.5558 15.5004 59.0997C14.5191 59.4182 13.6113 59.722 12.7772 60.016C12.3896 60.996 10.7704 64.916 9.30328 66.3223C7.83619 67.7286 5.65763 69.0761 3.5723 68.7723C1.48696 68.4685 0.000243187 66.5477 0.544883 64.4652C1.2956 61.5742 6.35928 59.7122 9.02851 59.5652C9.25912 59.5652 12.8852 59.7612 12.8655 59.8102V59.869C13.6653 59.5701 14.5191 59.2565 15.4661 58.938C17.2128 58.3549 19.1951 57.713 21.3982 57.1593C23.7649 56.5284 26.1668 56.0376 28.5914 55.6893C31.3037 55.2939 34.0459 55.1398 36.7855 55.2287H36.8837C36.0544 54.9347 33.7777 54.0331 33.6109 53.9449C31.2557 52.6856 27.4432 48.8783 27.9732 45.9383C28.0749 45.4525 28.2779 44.9936 28.5691 44.5914C28.8603 44.1892 29.233 43.8528 29.6631 43.6041C30.0931 43.3554 30.5708 43.2 31.065 43.1479C31.5593 43.0959 32.0589 43.1484 32.5314 43.3021C34.5628 43.8852 35.9661 46.051 36.707 47.913C37.5166 50.0102 37.2271 54.871 37.1977 55.263C39.9833 55.4236 42.7551 55.769 45.4949 56.2969C47.0895 56.5958 48.694 56.9486 50.2936 57.321C49.587 57.0417 48.959 56.7869 48.8756 56.7428C46.5154 55.4835 42.7079 51.6762 43.2378 48.7362C43.3396 48.2504 43.5427 47.7914 43.8338 47.389C44.1249 46.9867 44.4975 46.6501 44.9274 46.401C45.3573 46.1519 45.8349 45.9959 46.3292 45.9432C46.8234 45.8905 47.3232 45.9423 47.7961 46.0951C49.8274 46.6782 51.2553 48.8489 51.9717 50.7109C52.688 52.5729 52.5359 56.7477 52.4623 57.8453C53.0757 57.9923 53.689 58.1344 54.2974 58.2863C57.2414 59.0115 60.1854 59.7563 63.0509 60.3835C64.0666 60.6089 65.0823 60.7951 66.093 60.9813C65.465 60.7314 64.94 60.5207 64.8664 60.4913C62.5063 59.2369 58.6938 55.4247 59.2286 52.4847C59.3303 51.9989 59.5334 51.54 59.8246 51.1378C60.1157 50.7356 60.4885 50.3992 60.9185 50.1505C61.3486 49.9018 61.8263 49.7464 62.3205 49.6943C62.8147 49.6423 63.3144 49.6948 63.7869 49.8485C65.8134 50.4316 67.2461 52.6023 67.9625 54.4594C68.6789 56.3165 68.5415 60.0944 68.4532 61.3978C69.4934 61.5595 70.5385 61.7212 71.5542 61.829C72.2509 61.8878 72.9133 61.9956 73.615 62.0152L75.6807 62.1181C76.9957 62.1181 78.3499 62.1573 79.6354 62.1426C80.5236 62.1426 81.3773 62.1181 82.2311 62.0985C81.2154 61.8878 79.2331 61.4321 79.0712 61.3733C76.8855 60.512 74.9566 59.1069 73.4678 57.2916C73.2211 57.206 72.9829 57.0977 72.7563 56.9682C72.3167 56.7362 71.931 56.4143 71.6243 56.0235C71.3176 55.6326 71.0969 55.1816 70.9766 54.6998C70.8562 54.2181 70.8389 53.7164 70.9257 53.2275C71.0125 52.7386 71.2016 52.2734 71.4806 51.8624C73.2224 49.4369 78.6149 49.5153 81.1565 50.3336C81.3086 50.3826 82.8788 51.0833 83.8601 51.5439C83.3253 51.1862 82.8002 50.8432 82.2507 50.4659C81.1614 49.7309 80.0967 48.9665 78.9485 48.1482L77.344 46.8497C76.7896 46.443 76.2548 45.9432 75.7003 45.4826C74.4442 44.3997 73.2175 43.2335 72.0105 42.0526C71.3677 43.0032 69.0223 46.345 67.3148 47.3985C65.6073 48.452 63.1687 49.3144 61.2011 48.5549C59.2335 47.7954 58.1835 45.6149 59.1599 43.7039C60.5142 41.0383 65.8624 40.3033 68.4826 40.7198C68.6494 40.7492 70.5041 41.2637 71.5198 41.5626C70.8035 40.8374 70.0822 40.1171 69.3756 39.3576C67.3443 37.1722 65.3521 34.8937 63.36 32.6299C62.7467 31.939 62.1285 31.253 61.5151 30.567C61.2894 30.91 58.5711 34.9427 56.6772 36.1236C54.9844 37.1722 52.531 38.0346 50.5634 37.2751C50.0941 37.1122 49.6642 36.8525 49.3019 36.5129C48.9396 36.1733 48.6529 35.7613 48.4604 35.3039C48.2679 34.8464 48.1739 34.3535 48.1846 33.8574C48.1952 33.3613 48.3103 32.8729 48.5223 32.4241C49.8814 29.7634 55.2248 29.0235 57.8449 29.4449C58.0461 29.4792 60.7203 30.2191 61.3876 30.4249C60.0333 28.9108 58.6693 27.4163 57.266 26.0149C55.3771 24.091 53.3661 22.2906 51.2455 20.6249C51.1424 20.7866 48.3407 25.0055 46.3879 26.2158C44.6902 27.2644 42.2368 28.1317 40.2693 27.3722C39.7997 27.2089 39.3698 26.9487 39.0075 26.6085C38.6453 26.2683 38.3588 25.8558 38.1667 25.3977C37.9746 24.9397 37.8813 24.4464 37.8927 23.95C37.9041 23.4535 38.0201 22.965 38.233 22.5163C39.5872 19.8556 44.9306 19.1206 47.5557 19.5371C47.7667 19.5714 50.642 20.375 51.1523 20.5563C51.0296 20.4583 50.9118 20.3456 50.7843 20.2525C48.6102 18.643 46.2984 17.228 43.8757 16.0238C42.546 15.3476 41.2359 14.7694 39.9503 14.2353C39.5087 15.0781 37.4479 18.8903 35.814 20.1741C34.1801 21.4579 31.8887 22.531 29.8573 21.992C29.373 21.8809 28.9175 21.6694 28.5204 21.371C28.1233 21.0727 27.7935 20.6943 27.5524 20.2604C27.3113 19.8264 27.1643 19.3467 27.121 18.8523C27.0777 18.358 27.139 17.8601 27.3009 17.3909C28.351 14.5979 33.5815 13.2798 36.2507 13.4072C36.3979 13.4072 37.865 13.6473 38.9297 13.8335C38.3458 13.6032 37.7472 13.3435 37.183 13.1426C35.0633 12.3488 33.0761 11.751 31.295 11.2316C30.3136 10.9474 29.3716 10.7122 28.5129 10.4966C27.6493 11.0944 24.141 13.466 22.1342 13.8384C20.1274 14.2108 17.571 14.1324 16.0107 12.7163C14.4504 11.3002 14.259 8.8943 15.8635 7.4586C18.0862 5.4594 23.3364 6.6991 25.6474 8.0368C25.8437 8.1544 28.7582 10.3251 28.7141 10.3594L28.6601 10.3937C29.4893 10.5848 30.3774 10.7955 31.344 11.0454C33.1252 11.5354 35.1271 12.0793 37.2713 12.8339C39.5901 13.6184 41.8609 14.5379 44.0719 15.5877C46.552 16.7544 48.9245 18.1366 51.1621 19.7184L51.2357 19.7821C50.7107 19.0814 49.3122 17.0724 49.219 16.9058C47.9482 14.5587 46.8736 9.2814 48.9443 7.1058C49.2975 6.75725 49.7202 6.48687 50.185 6.31224C50.6497 6.13761 51.1461 6.06265 51.6418 6.09223C52.1375 6.12181 52.6214 6.25527 53.062 6.48393C53.5027 6.71259 53.8901 7.03132 54.1993 7.4194C55.5732 9.0217 55.5633 11.6187 55.1365 13.564C54.6458 15.7592 51.7018 19.6547 51.4908 19.9634C53.7482 21.636 55.8907 23.458 57.9038 25.4171C59.0716 26.549 60.2149 27.7201 61.3385 28.9108C60.9067 28.2934 60.5191 27.7348 60.4749 27.6515C59.2041 25.3044 58.1295 20.0222 60.2001 17.8515C60.5534 17.503 60.9761 17.2326 61.4409 17.0579C61.9056 16.8833 62.402 16.8083 62.8977 16.8379C63.3934 16.8675 63.8773 17.001 64.3179 17.2296C64.7585 17.4583 65.146 17.777 65.4552 18.1651C66.829 19.7674 66.8192 22.3644 66.3924 24.3097C65.9655 26.255 63.5269 29.6556 62.8694 30.5425C63.3012 31.0031 63.7329 31.4588 64.1598 31.9194C66.2059 34.144 68.2373 36.3686 70.2981 38.4903C71.0242 39.24 71.7701 39.9603 72.5061 40.6659C72.1233 40.1122 71.8044 39.6467 71.7603 39.5683C70.4894 37.2212 69.4149 31.9439 71.4855 29.7683C72.9575 28.215 75.4108 28.5139 76.7405 30.0819C78.0702 31.6499 78.1046 34.2861 77.6777 36.2314C77.2508 38.1767 75.0477 41.2441 74.2725 42.2976C75.0526 43.0081 75.8328 43.7186 76.6227 44.3703C77.1674 44.8015 77.6679 45.2572 78.242 45.659L79.9053 46.8791C80.9946 47.619 82.1084 48.3883 83.1879 49.0792C83.9337 49.5692 84.6599 50.02 85.3812 50.4757C84.6501 49.7407 83.2468 48.2658 83.1437 48.1286C81.5294 46.002 79.6698 40.9501 81.3871 38.5001C81.6835 38.1019 82.0604 37.7704 82.4934 37.5272C82.9264 37.2839 83.4058 37.1343 83.9004 37.0881C84.3951 37.0419 84.8939 37.1001 85.3646 37.2589C85.8352 37.4178 86.2672 37.6737 86.6324 38.0101C88.227 39.387 88.595 41.9546 88.4871 43.944C88.3448 46.1343 86.1515 50.2699 85.8718 50.804C87.069 51.5684 88.2417 52.2887 89.3654 52.9502Z" fill="#4D96B9"/>
<path d="M23.9004 56.5272C23.9004 56.5811 20.299 56.1842 20.0732 56.1352C17.4678 55.5423 12.7819 52.8718 12.517 49.8975C12.4875 49.402 12.5628 48.9058 12.7379 48.4412C12.9131 47.9766 13.1841 47.5541 13.5336 47.201C13.883 46.8479 14.3029 46.5722 14.766 46.3918C15.2291 46.2114 15.725 46.1303 16.2215 46.1539C18.3314 46.1784 20.2842 47.8934 21.4667 49.5006C22.8553 51.3822 23.9004 56.5223 23.9004 56.5272Z" fill="#4D96B9"/>
<path d="M284.553 6.51803C284.435 8.85533 286.403 13.7161 286.403 13.721C286.403 13.7259 289.219 11.4523 289.381 11.271C291.226 9.34043 293.66 4.53353 292.237 1.90713C291.988 1.47722 291.652 1.10439 291.249 0.812865C290.847 0.521339 290.388 0.31765 289.901 0.215049C289.415 0.112448 288.912 0.113227 288.426 0.217337C287.94 0.321447 287.481 0.526559 287.08 0.819332C285.333 2.01983 284.651 4.52863 284.553 6.51803Z" fill="#4D96B9"/>
<path d="M236.8 52.9505L236.491 53.1318L236.457 55.2437L237.723 54.4646C238.945 53.7051 240.235 52.8721 241.55 52.0146C242.57 53.1243 243.655 54.1731 244.798 55.1555C243.788 57.1743 243.366 61.5255 243.326 62.0841C241.908 62.0498 240.534 62.0008 239.234 61.9371C238.336 61.893 237.478 61.844 236.653 61.7901L237.355 63.6472C237.944 63.6472 238.542 63.6913 239.165 63.706C240.603 63.7452 242.144 63.7648 243.724 63.7648C243.812 64.3283 244.568 68.9588 245.78 70.7963C246.879 72.4574 248.724 74.2704 250.848 74.4027C251.343 74.4516 251.842 74.3958 252.314 74.2391C252.786 74.0823 253.219 73.8281 253.586 73.4929C253.952 73.1577 254.244 72.7491 254.442 72.2938C254.64 71.8384 254.74 71.3466 254.734 70.8502C254.622 67.8612 250.078 64.9702 247.507 64.2352C247.355 64.196 245.657 63.9167 244.563 63.7452C245.211 63.7452 245.834 63.7452 246.525 63.7452C247.84 63.7452 249.151 63.6766 250.559 63.6276L252.62 63.4806C253.311 63.4463 254.033 63.3238 254.749 63.2454C256.398 63.0347 258.061 62.7554 259.729 62.4075C259.729 63.5541 259.852 67.6309 260.711 69.4488C261.569 71.2667 263.115 73.3345 265.176 73.7853C265.658 73.9071 266.162 73.926 266.652 73.8409C267.143 73.7557 267.61 73.5684 268.023 73.2911C268.436 73.0138 268.787 72.6527 269.051 72.2313C269.315 71.8099 269.488 71.3377 269.557 70.8453C269.896 67.8759 265.848 64.3185 263.414 63.216C263.262 63.1474 261.452 62.5545 260.416 62.236C261.398 62.0253 262.413 61.8244 263.424 61.5794C266.324 60.8738 269.243 60.0702 272.158 59.2813L274.778 58.61C274.778 59.0216 274.803 63.8726 275.759 65.9061C276.594 67.7142 278.159 69.7918 280.22 70.2426C282.28 70.6934 284.356 69.4537 284.601 67.3026C284.94 64.3332 280.892 60.7758 278.458 59.6733C278.277 59.59 275.637 58.7374 274.955 58.5561C276.917 58.0367 278.88 57.5418 280.843 57.1351C283.48 56.5697 286.152 56.1753 288.841 55.9542C288.841 56.1453 288.841 61.207 289.822 63.3042C290.656 65.1123 292.226 67.185 294.287 67.6358C294.77 67.7584 295.272 67.7779 295.763 67.6931C296.254 67.6082 296.721 67.4209 297.134 67.1434C297.547 66.8659 297.897 66.5044 298.16 66.0827C298.424 65.6609 298.596 65.1883 298.664 64.6958C299.007 61.7313 294.959 58.169 292.525 57.0665C292.334 56.9832 289.493 56.0865 288.963 55.9346C289.12 55.9346 289.282 55.8954 289.454 55.8856C292.156 55.7392 294.865 55.8327 297.55 56.1649C299.022 56.3315 300.45 56.5716 301.814 56.8362C301.721 57.7819 301.323 62.0939 301.986 64.0686C302.619 65.96 303.948 68.1895 305.945 68.8657C306.408 69.0363 306.902 69.1084 307.395 69.0774C307.887 69.0463 308.368 68.9128 308.806 68.6853C309.244 68.4579 309.63 68.1416 309.938 67.7566C310.246 67.3717 310.471 66.9266 310.597 66.45C311.264 63.51 307.653 59.5557 305.332 58.1935C305.209 58.12 303.86 57.5075 302.879 57.0714C303.492 57.2037 304.13 57.3262 304.719 57.4585C306.922 57.9485 308.909 58.5561 310.665 59.1C311.647 59.4185 312.559 59.7223 313.394 60.0163C313.781 60.9963 315.4 64.9163 316.867 66.3226C318.335 67.7289 320.508 69.0764 322.594 68.7726C323.087 68.713 323.562 68.5505 323.989 68.2956C324.416 68.0407 324.784 67.6992 325.07 67.2931C325.356 66.887 325.553 66.4254 325.649 65.9383C325.744 65.4512 325.737 64.9494 325.626 64.4655C324.87 61.5745 319.807 59.7125 317.142 59.5655C316.912 59.5655 313.286 59.7615 313.305 59.8105V59.8693C312.51 59.5704 311.652 59.2568 310.71 58.9383C308.958 58.3552 306.981 57.7133 304.777 57.1596C302.411 56.5292 300.009 56.0383 297.584 55.6896C294.872 55.2942 292.13 55.1401 289.39 55.229H289.292C290.116 54.935 292.398 54.0334 292.565 53.9452C294.92 52.6859 298.732 48.8786 298.198 45.9386C298.096 45.4528 297.893 44.9939 297.602 44.5917C297.31 44.1895 296.938 43.8531 296.508 43.6044C296.078 43.3557 295.6 43.2002 295.106 43.1482C294.611 43.0962 294.112 43.1487 293.639 43.3024C291.613 43.8855 290.18 46.0513 289.464 47.9133C288.654 50.0105 288.973 54.8713 288.973 55.2633C286.184 55.4215 283.409 55.7653 280.666 56.2923C279.067 56.5912 277.467 56.944 275.867 57.3164C276.574 57.0371 277.202 56.7823 277.285 56.7382C279.641 55.4789 283.453 51.6716 282.923 48.7316C282.821 48.2457 282.618 47.7867 282.327 47.3844C282.036 46.9821 281.663 46.6454 281.234 46.3963C280.804 46.1472 280.326 45.9913 279.832 45.9386C279.338 45.8859 278.838 45.9376 278.365 46.0905C276.333 46.6736 274.901 48.8443 274.184 50.7063C273.468 52.5683 273.625 56.7431 273.694 57.8407L271.854 58.2817C268.91 59.0069 265.995 59.7517 263.105 60.3789C262.085 60.6043 261.074 60.7905 260.063 60.9767C260.686 60.7268 261.211 60.5161 261.29 60.4867C263.645 59.2323 267.457 55.4201 266.927 52.4801C266.826 51.9943 266.623 51.5354 266.331 51.1332C266.04 50.731 265.668 50.3946 265.238 50.1459C264.807 49.8972 264.33 49.7417 263.836 49.6897C263.341 49.6377 262.842 49.6902 262.369 49.8439C260.338 50.427 258.91 52.5977 258.194 54.4548C257.477 56.3119 257.605 60.08 257.678 61.3785C256.638 61.5402 255.593 61.7019 254.577 61.8097C253.881 61.8685 253.213 61.9763 252.512 61.9959L250.451 62.0988C249.136 62.0988 247.777 62.138 246.496 62.1233C245.603 62.1233 244.754 62.0988 243.9 62.0792C244.916 61.8685 246.898 61.4128 247.055 61.354C249.242 60.4944 251.171 59.089 252.659 57.2723C252.907 57.1867 253.147 57.0784 253.375 56.9489C253.814 56.7163 254.199 56.3941 254.506 56.0032C254.812 55.6123 255.032 55.1615 255.153 54.6799C255.273 54.1984 255.29 53.6969 255.204 53.2082C255.118 52.7194 254.929 52.2543 254.651 51.8431C252.909 49.4176 247.512 49.496 244.97 50.3143C244.823 50.3633 243.253 51.064 242.267 51.5246C242.806 51.1669 243.331 50.8239 243.876 50.4466C244.965 49.7116 246.03 48.9472 247.178 48.1289L248.817 46.8696C249.371 46.4629 249.906 45.9631 250.461 45.5025C251.722 44.4196 252.943 43.2534 254.15 42.0725C254.798 43.0231 257.144 46.3649 258.846 47.4184C260.549 48.4719 263.002 49.3 264.965 48.5601C266.927 47.8202 267.977 45.6201 267.001 43.7091C265.647 41.0435 260.303 40.3085 257.678 40.725C257.516 40.7544 255.657 41.2689 254.641 41.5678C255.362 40.8426 256.084 40.1223 256.785 39.3628C258.822 37.1774 260.809 34.8989 262.806 32.6351C263.414 31.9442 264.032 31.2582 264.646 30.5722C264.876 30.9152 267.59 34.9479 269.484 36.1288C271.182 37.1774 273.635 38.0398 275.602 37.2803C276.072 37.1175 276.502 36.8578 276.864 36.5181C277.226 36.1784 277.513 35.7663 277.705 35.3086C277.897 34.851 277.99 34.358 277.979 33.8619C277.967 33.3658 277.852 32.8777 277.639 32.4293C276.284 29.7686 270.941 29.0287 268.316 29.4501C268.12 29.4844 265.446 30.2243 264.773 30.4301C266.128 28.916 267.497 27.4215 268.9 26.0201C270.786 24.0951 272.795 22.2946 274.915 20.6301C275.023 20.7918 277.825 25.0107 279.778 26.221C281.476 27.2696 283.924 28.1369 285.897 27.3774C286.366 27.2141 286.796 26.9538 287.158 26.6137C287.521 26.2735 287.807 25.861 287.999 25.4029C288.191 24.9449 288.285 24.4516 288.273 23.9552C288.262 23.4587 288.146 22.9702 287.933 22.5215C286.579 19.8608 281.235 19.1258 278.61 19.5423C278.404 19.5766 275.529 20.3802 275.019 20.5615C275.141 20.4635 275.259 20.3508 275.382 20.2577C277.557 18.6482 279.871 17.2332 282.295 16.029C283.625 15.3528 284.935 14.7746 286.22 14.2405C286.662 15.0833 288.718 18.8955 290.357 20.1793C291.996 21.4631 294.282 22.5362 296.309 21.9972C296.793 21.8867 297.249 21.6755 297.647 21.3774C298.045 21.0794 298.375 20.701 298.617 20.267C298.858 19.833 299.006 19.3531 299.049 18.8585C299.093 18.3638 299.032 17.8656 298.87 17.3961C297.815 14.6031 292.584 13.285 289.915 13.4124C289.773 13.4124 288.306 13.6525 287.241 13.8387C287.825 13.6084 288.424 13.3487 288.988 13.1478C291.103 12.354 293.09 11.7562 294.876 11.2368C295.857 10.9526 296.799 10.7174 297.653 10.5018C298.517 11.0996 302.025 13.4712 304.032 13.8436C306.038 14.216 308.59 14.1376 310.155 12.7215C311.72 11.3054 311.907 8.89947 310.302 7.46377C308.075 5.46457 302.825 6.70428 300.518 8.04198C300.317 8.15958 297.408 10.3303 297.452 10.3646L297.506 10.3989C296.672 10.59 295.784 10.8007 294.822 11.0506C293.041 11.5406 291.034 12.0845 288.89 12.8391C286.572 13.6236 284.303 14.5431 282.094 15.5929C279.613 16.7574 277.24 18.1397 275.004 19.7236L274.925 19.7873C275.45 19.0866 276.854 17.0776 276.942 16.911C278.213 14.5639 279.287 9.28657 277.222 7.11097C276.868 6.76231 276.445 6.49186 275.98 6.31719C275.514 6.14252 275.018 6.06753 274.522 6.09711C274.026 6.12668 273.541 6.26016 273.1 6.48886C272.659 6.71756 272.271 7.03637 271.962 7.42457C270.593 9.02687 270.598 11.6239 271.029 13.5692C271.52 15.7644 274.464 19.6599 274.675 19.9686C272.44 21.6373 270.319 23.4527 268.326 25.4027C267.158 26.5346 266.02 27.7057 264.891 28.8964C265.323 28.279 265.706 27.7204 265.755 27.6371C267.026 25.29 268.095 20.0078 266.029 17.8371C265.676 17.4884 265.253 17.218 264.788 17.0433C264.322 16.8686 263.826 16.7936 263.33 16.8232C262.833 16.8528 262.349 16.9863 261.908 17.215C261.467 17.4437 261.079 17.7625 260.77 18.1507C259.401 19.753 259.405 22.35 259.837 24.2953C260.269 26.2406 262.703 29.6412 263.355 30.5281L262.021 31.9344C259.975 34.159 257.938 36.3836 255.878 38.5053C255.156 39.255 254.406 39.9753 253.67 40.6809C254.057 40.1272 254.376 39.6617 254.415 39.5833C255.686 37.2362 256.761 31.9589 254.695 29.7833C254.341 29.4346 253.918 29.1642 253.453 28.9895C252.988 28.8148 252.491 28.7398 251.995 28.7694C251.499 28.799 251.015 28.9325 250.574 29.1612C250.133 29.3899 249.745 29.7087 249.435 30.0969C248.066 31.6992 248.071 34.3011 248.503 36.2464C248.935 38.1917 251.133 41.2591 251.903 42.3126C251.123 43.0231 250.348 43.7336 249.558 44.3853C249.008 44.8165 248.513 45.2722 247.939 45.674L246.27 46.8941C245.186 47.634 244.067 48.4033 242.988 49.0942C242.242 49.5842 241.516 50.035 240.799 50.4907C241.531 49.7557 242.934 48.2808 243.037 48.1436C244.646 46.017 246.511 40.9651 244.793 38.5151C244.497 38.1169 244.12 37.7854 243.687 37.5421C243.254 37.2989 242.775 37.1493 242.28 37.1031C241.785 37.0569 241.287 37.1151 240.816 37.2739C240.345 37.4328 239.913 37.6887 239.548 38.0251C237.949 39.402 237.586 41.9696 237.689 43.959C237.836 46.1493 240.029 50.2849 240.304 50.819C239.097 51.5687 237.919 52.289 236.8 52.9505Z" fill="#4D96B9"/>
<path d="M302.256 56.5274C302.256 56.5813 305.857 56.1844 306.083 56.1354C308.684 55.5425 313.369 52.872 313.634 49.8977C313.826 47.7564 312.001 46.1296 309.935 46.1541C307.869 46.1786 305.872 47.8936 304.69 49.5008C303.311 51.3824 302.256 56.5225 302.256 56.5274Z" fill="#4D96B9"/>
</svg>
