<svg width="390" height="350" viewBox="0 0 390 350" fill="none" xmlns="http://www.w3.org/2000/svg">
<g clip-path="url(#clip0_904_3101)">
<path d="M168.642 204.262C168.642 204.262 173.829 196.297 174.032 186.833L196.171 187.535C196.849 193.576 198.783 199.409 201.85 204.66C200.358 207.352 185.297 227.902 168.642 204.262Z" fill="#ECA8B9"/>
<path d="M173.665 186.638C173.665 186.638 178.852 193.66 185.234 193.66C191.617 193.66 195.874 188.011 195.874 188.011L212.49 170.551L211.092 155.345L198.46 142.215L185.234 131.292L160.768 152.677L159.44 172.657L173.665 186.638Z" fill="#F2CBD3"/>
<path d="M170.673 197.841C170.673 197.841 104.983 182.698 132.645 117.116C134.77 112.334 156.862 74.8851 141.152 61.3411C138.761 58.4155 136.098 48.0781 101.53 40.8926C88.7653 37.1712 64.814 36.1101 51.0026 1.57935C49.1433 -4.52946 43.8234 -14.3519 60.8378 -44.3655C62.1736 -49.4132 68.0247 -69.0348 41.6908 -82.5943H377.04C377.04 -82.5943 336.348 -53.9305 359.752 -0.277489C362.979 8.46833 382.891 55.482 337.418 86.8218C331.301 91.0738 278.641 99.8352 259.229 121.618C252.05 128.522 249.659 128.788 242.472 146.584C240.082 155.876 233.965 188.011 199.132 197.841C197.968 194.385 198.765 198.567 196.671 188.214C198.163 187.114 203.749 180.241 205.045 174.069C206.741 173.672 209.334 173.172 209.834 167.196C210.131 165.636 208.436 162.413 207.037 165.799C206.045 160.128 202.952 149.868 196.57 147.278C194.273 145.78 186.695 141.7 185.695 137.518C182.61 141.2 185.399 141.505 169.939 151.46C167.65 155.642 166.15 156.344 164.47 165.207C163.08 165.004 162.182 164.013 161.58 166.767C161.682 170.551 163.08 174.569 166.166 174.14C168.165 179.499 169.658 182.503 174.048 187.582C173.532 190.999 172.626 198.372 170.673 197.841Z" fill="#263238"/>
<path d="M31 25C31.5523 25 32 24.5523 32 24C32 23.4477 31.5523 23 31 23C30.4477 23 30 23.4477 30 24C30 24.5523 30.4477 25 31 25Z" fill="white"/>
<path opacity="0.4" d="M32.9812 25.1549L40 24L32.9812 22.8451L35.0719 19.9281L32.1549 22.0188L31 15L29.8451 22.0188L26.9281 19.9281L29.0188 22.8451L22 24L29.0188 25.1549L26.9281 28.0719L29.8451 25.9812L31 33L32.1549 25.9812L35.0719 28.0719L32.9812 25.1549Z" fill="#4D96B9"/>
<path opacity="0.5" d="M31.9764 24.2264L36 23.5L31.9764 22.7684L32.7689 21.5542L31.6651 22.4259L31 18L30.3396 22.4259L29.2311 21.5542L30.0236 22.7684L26 23.5L30.0236 24.2264L29.2311 25.4458L30.3396 24.5741L31 29L31.6651 24.5741L32.7689 25.4458L31.9764 24.2264Z" fill="white"/>
<path d="M42 247C42.5523 247 43 246.552 43 246C43 245.448 42.5523 245 42 245C41.4477 245 41 245.448 41 246C41 246.552 41.4477 247 42 247Z" fill="white"/>
<path opacity="0.4" d="M44.2013 247.283L52 246L44.2013 244.717L46.5243 241.476L43.2832 243.799L42 236L40.7168 243.799L37.4757 241.476L39.7987 244.717L32 246L39.7987 247.283L37.4757 250.524L40.7168 248.201L42 256L43.2832 248.201L46.5243 250.524L44.2013 247.283Z" fill="#4D96B9"/>
<path opacity="0.5" d="M43.1717 246.792L48 246L43.1717 245.202L44.1226 243.877L42.7981 244.828L42 240L41.2076 244.828L39.8774 243.877L40.8283 245.202L36 246L40.8283 246.792L39.8774 248.123L41.2076 247.172L42 252L42.7981 247.172L44.1226 248.123L43.1717 246.792Z" fill="white"/>
<path d="M40.0972 122.164C40.0972 122.164 27.3325 117.896 20.1534 130.13C20.1534 134.912 15.0991 134.116 28.9262 169.139C36.1053 184.282 49.6746 213.492 73.3368 227.309C82.1174 232.887 95.4132 244.036 129.184 257.049C129.184 280.689 129.965 340.646 133.707 349.579H266.674L245.402 259.741C245.402 259.741 295.398 260.271 342.199 215.122C351.776 206.353 370.127 186.7 371.189 175.279C369.064 168.109 370.658 164.13 353.37 159.613C341.402 172.096 321.193 191.272 302.046 197.061C294.867 200.486 254.971 215.099 202.585 204.208C198.062 210.582 185.031 223.86 168.017 204.473C149.932 204.208 133.176 204.473 94.5852 184.82C85.8358 180.061 61.369 164.395 40.0972 122.164Z" fill="#4D96B9"/>
<path d="M23.8719 125.878C23.8719 125.878 11.1072 116.383 11.6462 113.465C10.8651 110.274 8.84958 101.981 12.904 90.6213C13.7711 90.6213 15.4975 92.5483 17.1614 100.054C17.6927 101.045 21.4189 105.96 25.2077 108.253C24.1453 103.9 23.075 102.012 23.9422 100.381C26.067 102.308 27.4653 103.307 31.1213 109.876C32.0509 111.873 33.4649 111.671 34.1836 121.696C29.9261 122.359 25.3405 124.224 23.8719 125.878Z" fill="#F2CBD3"/>
<path d="M369.127 167.305C369.127 167.305 383.266 160.011 383.188 157.038C384.493 154.019 387.813 146.155 385.657 134.296C384.805 134.155 382.79 135.778 379.923 142.878C379.235 143.775 374.767 148.019 370.658 149.665C372.408 145.546 373.782 143.822 373.181 142.105C370.767 143.666 369.228 144.446 364.549 150.313C363.307 152.131 361.963 151.702 359.612 161.477C363.76 162.858 367.955 165.433 369.127 167.305Z" fill="#F2CBD3"/>
<path d="M-5.9071 188.292C-5.9071 188.292 -43.1386 141.021 23.8719 105.694C36.1053 100.116 46.4795 86.3069 142.48 93.742C167.212 92.9618 172.798 94.5222 198.327 88.6943C223.857 82.8663 230.778 78.1072 230.778 78.1072C230.778 78.1072 248.191 71.9984 262.557 54.7018C276.923 37.4052 267.072 7.02499 267.072 7.02499C267.072 7.02499 262.291 -9.17154 248.058 -18.206C245.136 -20.3281 217.748 -37.8588 191.546 -16.2088C186.766 -10.9035 176.657 -7.71261 172.798 17.1205C168.939 41.9537 198.577 63.9938 198.577 63.9938C198.577 63.9938 229.559 82.3202 244.058 60.1475C246.847 56.0281 256.424 39.5663 234.614 30.0013C229.426 27.8792 207.889 20.4441 207.623 17.651C204.96 16.0907 194.195 6.22921 202.936 -5.06C211.678 -16.3492 228.864 -18.206 228.864 -18.206C228.864 -18.206 234.981 -18.8692 242.558 -18.8692C242.558 -18.8692 275.993 -15.9123 281.813 9.56838" stroke="#E8EBF0" stroke-width="2" stroke-miterlimit="10"/>
<path d="M208.233 87.6332C208.233 87.6332 230.778 115.923 266.674 123.693C283.032 125.683 306.967 125.082 325.317 130.66C327.911 131.44 354.636 137.635 375.579 157.186C377.04 159.574 377.97 158.38 389.336 175.911" stroke="#E8EBF0" stroke-width="2" stroke-miterlimit="10"/>
<path d="M206.311 85.3785C206.311 85.3785 168.681 43.7793 197.796 5.30078C201.389 1.98502 214.154 -15.5456 245.933 -9.70208C250.456 -8.14172 271.064 -3.19537 285.953 18.1816C287.555 21.7704 300.718 43.0147 282.368 68.511C279.704 71.5693 267.299 88.8659 238.488 89.0999C235.559 89.0999 204.311 84.9806 192.882 61.2085" stroke="#E8EBF0" stroke-width="2" stroke-miterlimit="10"/>
<path d="M266.658 82.0627C266.658 82.0627 238.769 110.875 207.108 93.7108C175.446 76.5469 189.554 49.7867 189.554 49.7867C189.554 49.7867 211.357 17.0191 255.909 31.0623C258.963 32.3887 274.657 40.2295 256.838 51.113C253.909 52.6733 219.74 74.4326 201.374 39.3323C199.811 34.9164 190.336 5.43343 234.184 -14.0867C238.574 -15.5456 289.766 -34.6678 280.86 17.9007C279.79 22.0201 278.063 35.564 269.689 42.7339L268.337 43.7793" stroke="#E8EBF0" stroke-width="2" stroke-miterlimit="10"/>
<path d="M193.328 62.1135C193.328 62.1135 179.844 37.8343 199.265 20.171C202.452 17.2532 230.512 -10.7631 261.627 -1.47118C264.135 0.0891821 289.945 14.4679 282.633 44.2084C279.837 53.7734 277.048 89.2326 225.458 82.5854C222.154 81.9379 197.249 77.5767 198.671 40.2607" stroke="#E8EBF0" stroke-width="2" stroke-miterlimit="10"/>
<path d="M231.832 27.6062C231.232 24.5843 230.051 21.7072 228.356 19.1334C224.692 13.4615 217.349 7.025 202.85 7.025C199.983 7.025 177.188 3.84187 170.142 28.2771C170.142 32.6539 161.768 51.7839 219.872 87.6332C222.661 89.0999 233.934 94.4052 245.402 89.0999C256.87 83.7947 243.347 61.2007 243.347 61.2007C243.347 61.2007 220.138 26.4125 229.84 12.5721C239.543 -1.26832 243.511 -3.03152 243.511 -3.03152" stroke="#E8EBF0" stroke-width="2" stroke-miterlimit="10"/>
<path d="M192.82 82.1954C192.82 82.1954 145.995 59.9446 180.805 -5.48909C182.828 -8.06369 199.272 -24.9546 230.247 -12.2143C261.221 0.52609 270.087 22.7924 270.087 22.7924" stroke="#E8EBF0" stroke-width="2" stroke-miterlimit="10"/>
<path d="M218.412 5.65187C246.074 -1.1747 254.573 17.2532 256.44 22.1683C262.689 44.7389 245.933 41.4387 242.746 40.8926C223.778 34.2767 224.528 41.821 225.192 42.7494C231.176 48.3277 237.16 40.0266 237.16 40.0266C251.518 20.5767 237.426 17.4014 235.559 17.4014C208.834 18.9617 223.193 49.6696 223.193 49.6696C223.193 49.6696 228.755 63.4476 253.034 64.3838C257.823 64.3838 277.024 59.2347 272.384 40.0422C267.744 20.8498 248.722 15.9425 248.722 15.9425C248.722 15.9425 234.895 9.30311 215.084 17.9319C195.273 26.5607 199.897 33.4731 199.897 33.4731" stroke="#E8EBF0" stroke-width="2" stroke-miterlimit="10"/>
<path d="M274 167C274.552 167 275 166.552 275 166C275 165.448 274.552 165 274 165C273.448 165 273 165.448 273 166C273 166.552 273.448 167 274 167Z" fill="white"/>
<path opacity="0.4" d="M276.201 167.283L284 166L276.201 164.717L278.524 161.476L275.283 163.799L274 156L272.717 163.799L269.476 161.476L271.799 164.717L264 166L271.799 167.283L269.476 170.524L272.717 168.201L274 176L275.283 168.201L278.524 170.524L276.201 167.283Z" fill="#4D96B9"/>
<path opacity="0.5" d="M275.172 166.792L280 166L275.172 165.202L276.123 163.877L274.798 164.828L274 160L273.208 164.828L271.877 163.877L272.828 165.202L268 166L272.828 166.792L271.877 168.123L273.208 167.172L274 172L274.798 167.172L276.123 168.123L275.172 166.792Z" fill="white"/>
<path d="M348.5 251C349.328 251 350 250.328 350 249.5C350 248.672 349.328 248 348.5 248C347.672 248 347 248.672 347 249.5C347 250.328 347.672 251 348.5 251Z" fill="white"/>
<path opacity="0.4" d="M351.472 251.232L362 249.5L351.472 247.768L354.608 243.392L350.232 246.528L348.5 236L346.768 246.528L342.392 243.392L345.528 247.768L335 249.5L345.528 251.232L342.392 255.608L346.768 252.472L348.5 263L350.232 252.472L354.608 255.608L351.472 251.232Z" fill="#4D96B9"/>
<path opacity="0.5" d="M349.965 250.491L356 249.5L349.965 248.502L351.153 246.847L349.498 248.035L348.5 242L347.509 248.035L345.847 246.847L347.035 248.502L341 249.5L347.035 250.491L345.847 252.153L347.509 250.965L348.5 257L349.498 250.965L351.153 252.153L349.965 250.491Z" fill="white"/>
<path d="M67 119C67.5523 119 68 118.552 68 118C68 117.448 67.5523 117 67 117C66.4477 117 66 117.448 66 118C66 118.552 66.4477 119 67 119Z" fill="white"/>
<path opacity="0.4" d="M69.2013 119.283L77 118L69.2013 116.717L71.5243 113.476L68.2832 115.799L67 108L65.7168 115.799L62.4757 113.476L64.7987 116.717L57 118L64.7987 119.283L62.4757 122.524L65.7168 120.201L67 128L68.2832 120.201L71.5243 122.524L69.2013 119.283Z" fill="#4D96B9"/>
<path opacity="0.5" d="M68.1717 118.792L73 118L68.1717 117.202L69.1226 115.877L67.7981 116.828L67 112L66.2076 116.828L64.8774 115.877L65.8283 117.202L61 118L65.8283 118.792L64.8774 120.123L66.2076 119.172L67 124L67.7981 119.172L69.1226 120.123L68.1717 118.792Z" fill="white"/>
<path d="M329.5 105C329.776 105 330 104.776 330 104.5C330 104.224 329.776 104 329.5 104C329.224 104 329 104.224 329 104.5C329 104.776 329.224 105 329.5 105Z" fill="white"/>
<path opacity="0.4" d="M330.321 105.77L335 105L330.321 104.23L331.715 102.285L329.77 103.679L329 99L328.23 103.679L326.285 102.285L327.679 104.23L323 105L327.679 105.77L326.285 107.715L328.23 106.321L329 111L329.77 106.321L331.715 107.715L330.321 105.77Z" fill="#4D96B9"/>
<path opacity="0.5" d="M330.183 104.962L333 104.5L330.183 104.034L330.738 103.262L329.966 103.817L329.5 101L329.038 103.817L328.262 103.262L328.817 104.034L326 104.5L328.817 104.962L328.262 105.738L329.038 105.183L329.5 108L329.966 105.183L330.738 105.738L330.183 104.962Z" fill="white"/>
<path d="M88 63C88.5523 63 89 62.3284 89 61.5C89 60.6716 88.5523 60 88 60C87.4477 60 87 60.6716 87 61.5C87 62.3284 87.4477 63 88 63Z" fill="white"/>
<path opacity="0.4" d="M91.302 63.3606L103 61.5L91.302 59.6394L94.7865 54.9397L89.9248 58.3081L88 47L86.0752 58.3081L81.2135 54.9397L84.698 59.6394L73 61.5L84.698 63.3606L81.2135 68.0603L86.0752 64.6919L88 76L89.9248 64.6919L94.7865 68.0603L91.302 63.3606Z" fill="#4D96B9"/>
<path opacity="0.5" d="M89.7576 62.6226L97 61.5L89.7576 60.3693L91.184 58.4929L89.1972 59.8401L88 53L86.8113 59.8401L84.816 58.4929L86.2424 60.3693L79 61.5L86.2424 62.6226L84.816 64.5071L86.8113 63.1599L88 70L89.1972 63.1599L91.184 64.5071L89.7576 62.6226Z" fill="white"/>
<path d="M378.5 61C378.776 61 379 60.7761 379 60.5C379 60.2239 378.776 60 378.5 60C378.224 60 378 60.2239 378 60.5C378 60.7761 378.224 61 378.5 61Z" fill="white"/>
<path d="M104.5 152C104.776 152 105 151.776 105 151.5C105 151.224 104.776 151 104.5 151C104.224 151 104 151.224 104 151.5C104 151.776 104.224 152 104.5 152Z" fill="white"/>
<path d="M21.5 68C21.7761 68 22 67.7761 22 67.5C22 67.2239 21.7761 67 21.5 67C21.2239 67 21 67.2239 21 67.5C21 67.7761 21.2239 68 21.5 68Z" fill="white"/>
<path d="M265.5 274C265.776 274 266 273.776 266 273.5C266 273.224 265.776 273 265.5 273C265.224 273 265 273.224 265 273.5C265 273.776 265.224 274 265.5 274Z" fill="white"/>
<path d="M93.5 271C93.7761 271 94 270.776 94 270.5C94 270.224 93.7761 270 93.5 270C93.2239 270 93 270.224 93 270.5C93 270.776 93.2239 271 93.5 271Z" fill="white"/>
<path d="M19.5 195C19.7761 195 20 194.776 20 194.5C20 194.224 19.7761 194 19.5 194C19.2239 194 19 194.224 19 194.5C19 194.776 19.2239 195 19.5 195Z" fill="white"/>
<path opacity="0.4" d="M379.491 61.0774L383 60.5L379.491 59.9226L380.536 58.464L379.077 59.5094L378.5 56L377.923 59.5094L376.464 58.464L377.509 59.9226L374 60.5L377.509 61.0774L376.464 62.536L377.923 61.4906L378.5 65L379.077 61.4906L380.536 62.536L379.491 61.0774Z" fill="#4D96B9"/>
<path opacity="0.4" d="M105.491 152.077L109 151.5L105.491 150.923L106.536 149.464L105.077 150.509L104.5 147L103.923 150.509L102.464 149.464L103.509 150.923L100 151.5L103.509 152.077L102.464 153.536L103.923 152.491L104.5 156L105.077 152.491L106.536 153.536L105.491 152.077Z" fill="#4D96B9"/>
<path opacity="0.4" d="M370.491 0.0774336L374 -0.5L370.491 -1.07743L371.536 -2.53595L370.077 -1.4906L369.5 -5L368.923 -1.4906L367.464 -2.53595L368.509 -1.07743L365 -0.5L368.509 0.0774336L367.464 1.53595L368.923 0.490598L369.5 4L370.077 0.490598L371.536 1.53595L370.491 0.0774336Z" fill="#4D96B9"/>
<path opacity="0.4" d="M22.4906 68.0774L26 67.5L22.4906 66.9226L23.5359 65.464L22.0774 66.5094L21.5 63L20.9226 66.5094L19.464 65.464L20.5094 66.9226L17 67.5L20.5094 68.0774L19.464 69.536L20.9226 68.4906L21.5 72L22.0774 68.4906L23.5359 69.536L22.4906 68.0774Z" fill="#4D96B9"/>
<path opacity="0.4" d="M266.491 274.077L270 273.5L266.491 272.923L267.536 271.464L266.077 272.509L265.5 269L264.923 272.509L263.464 271.464L264.509 272.923L261 273.5L264.509 274.077L263.464 275.536L264.923 274.491L265.5 278L266.077 274.491L267.536 275.536L266.491 274.077Z" fill="#4D96B9"/>
<path opacity="0.4" d="M94.4906 271.077L98 270.5L94.4906 269.923L95.5359 268.464L94.0774 269.509L93.5 266L92.9226 269.509L91.464 268.464L92.5094 269.923L89 270.5L92.5094 271.077L91.464 272.536L92.9226 271.491L93.5 275L94.0774 271.491L95.5359 272.536L94.4906 271.077Z" fill="#4D96B9"/>
<path opacity="0.4" d="M20.4906 195.077L24 194.5L20.4906 193.923L21.5359 192.464L20.0774 193.509L19.5 190L18.9226 193.509L17.464 192.464L18.5094 193.923L15 194.5L18.5094 195.077L17.464 196.536L18.9226 195.491L19.5 199L20.0774 195.491L21.5359 196.536L20.4906 195.077Z" fill="#4D96B9"/>
<path opacity="0.5" d="M378.988 60.3962L381 60L378.988 59.6009L379.384 58.9387L378.833 59.4142L378.5 57L378.17 59.4142L377.616 58.9387L378.012 59.6009L376 60L378.012 60.3962L377.616 61.0613L378.17 60.5858L378.5 63L378.833 60.5858L379.384 61.0613L378.988 60.3962Z" fill="white"/>
<path opacity="0.5" d="M104.988 151.396L107 151L104.988 150.601L105.384 149.939L104.833 150.414L104.5 148L104.17 150.414L103.616 149.939L104.012 150.601L102 151L104.012 151.396L103.616 152.061L104.17 151.586L104.5 154L104.833 151.586L105.384 152.061L104.988 151.396Z" fill="white"/>
<path opacity="0.5" d="M369.988 -0.603773L372 -1L369.988 -1.39906L370.384 -2.06132L369.833 -1.58585L369.5 -4L369.17 -1.58585L368.616 -2.06132L369.012 -1.39906L367 -1L369.012 -0.603773L368.616 0.0613213L369.17 -0.414151L369.5 2L369.833 -0.414151L370.384 0.0613213L369.988 -0.603773Z" fill="white"/>
<path opacity="0.5" d="M21.9882 67.3962L24 67L21.9882 66.6009L22.3844 65.9387L21.8325 66.4142L21.5 64L21.1698 66.4142L20.6156 65.9387L21.0118 66.6009L19 67L21.0118 67.3962L20.6156 68.0613L21.1698 67.5858L21.5 70L21.8325 67.5858L22.3844 68.0613L21.9882 67.3962Z" fill="white"/>
<path opacity="0.5" d="M265.988 273.396L268 273L265.988 272.601L266.384 271.939L265.833 272.414L265.5 270L265.17 272.414L264.616 271.939L265.012 272.601L263 273L265.012 273.396L264.616 274.061L265.17 273.586L265.5 276L265.833 273.586L266.384 274.061L265.988 273.396Z" fill="white"/>
<path opacity="0.5" d="M93.9882 270.396L96 270L93.9882 269.601L94.3844 268.939L93.8325 269.414L93.5 267L93.1698 269.414L92.6156 268.939L93.0118 269.601L91 270L93.0118 270.396L92.6156 271.061L93.1698 270.586L93.5 273L93.8325 270.586L94.3844 271.061L93.9882 270.396Z" fill="white"/>
<path opacity="0.5" d="M19.9882 194.396L22 194L19.9882 193.601L20.3844 192.939L19.8325 193.414L19.5 191L19.1698 193.414L18.6156 192.939L19.0118 193.601L17 194L19.0118 194.396L18.6156 195.061L19.1698 194.586L19.5 197L19.8325 194.586L20.3844 195.061L19.9882 194.396Z" fill="white"/>
</g>
<defs>
<clipPath id="clip0_904_3101">
<rect width="407" height="433" fill="white" transform="translate(-17 -83)"/>
</clipPath>
</defs>
</svg>
