<svg width="21" height="21" viewBox="0 0 21 21" fill="none" xmlns="http://www.w3.org/2000/svg">
<path d="M10 0C15.27 0 19.59 4.077 19.973 9.25C19.4894 9.0506 18.9653 8.96903 18.444 9.012C18.1872 6.86113 17.1191 4.88938 15.4579 3.49922C13.7967 2.10906 11.6675 1.40532 9.50507 1.53166C7.34261 1.65799 5.30989 2.60487 3.82185 4.17901C2.3338 5.75315 1.50263 7.83586 1.498 10.002C1.49751 12.1353 2.29923 14.1908 3.744 15.7605C5.18877 17.3301 7.17094 18.2991 9.297 18.475L9.063 19.409C9.01673 19.5869 8.99519 19.7703 8.999 19.954C6.53221 19.7058 4.24555 18.5502 2.58272 16.7112C0.919886 14.8723 -0.000551671 12.4812 2.48066e-07 10.002C-0.000999752 4.478 4.477 0 10 0ZM10 14.503C11.0993 14.5035 12.1607 14.1015 12.984 13.373L10.49 15.866L10.37 15.992C9.40096 16.0521 8.43182 15.876 7.54578 15.4791C6.65974 15.0821 5.88326 14.4761 5.283 13.713C5.21943 13.6359 5.1719 13.5469 5.1432 13.4512C5.1145 13.3555 5.10521 13.2551 5.11587 13.1557C5.12654 13.0564 5.15694 12.9602 5.2053 12.8728C5.25366 12.7853 5.31899 12.7085 5.39747 12.6466C5.47595 12.5848 5.566 12.5393 5.66231 12.5127C5.75863 12.4862 5.85928 12.4792 5.95835 12.4921C6.05742 12.5049 6.15292 12.5375 6.23924 12.5878C6.32555 12.6381 6.40095 12.7052 6.461 12.785C6.88241 13.3205 7.41991 13.7532 8.03296 14.0507C8.64601 14.3481 9.31861 14.5034 10 14.503ZM7 6.752C7.16823 6.74527 7.33608 6.77259 7.49349 6.83232C7.65089 6.89206 7.79461 6.98297 7.91602 7.09962C8.03743 7.21626 8.13402 7.35623 8.2 7.51112C8.26598 7.66601 8.29999 7.83264 8.29999 8.001C8.29999 8.16936 8.26598 8.33599 8.2 8.49088C8.13402 8.64577 8.03743 8.78574 7.91602 8.90238C7.79461 9.01903 7.65089 9.10994 7.49349 9.16968C7.33608 9.22941 7.16823 9.25673 7 9.25C6.67739 9.23709 6.37229 9.09985 6.14861 8.86703C5.92492 8.63421 5.79999 8.32386 5.79999 8.001C5.79999 7.67813 5.92492 7.36779 6.14861 7.13497C6.37229 6.90215 6.67739 6.76491 7 6.752ZM13 6.752C13.1682 6.74527 13.3361 6.77259 13.4935 6.83232C13.6509 6.89206 13.7946 6.98297 13.916 7.09962C14.0374 7.21626 14.134 7.35623 14.2 7.51112C14.266 7.66601 14.3 7.83264 14.3 8.001C14.3 8.16936 14.266 8.33599 14.2 8.49088C14.134 8.64577 14.0374 8.78574 13.916 8.90238C13.7946 9.01903 13.6509 9.10994 13.4935 9.16968C13.3361 9.22941 13.1682 9.25673 13 9.25C12.6747 9.2408 12.3659 9.10512 12.1391 8.87179C11.9122 8.63847 11.7854 8.3259 11.7854 8.0005C11.7854 7.6751 11.9122 7.36253 12.1391 7.1292C12.3659 6.89588 12.6747 6.7602 13 6.751M17.1 10.669L11.197 16.571C10.8536 16.9155 10.6097 17.3463 10.491 17.818L10.033 19.649C9.98745 19.8312 9.98987 20.022 10.04 20.203C10.0902 20.384 10.1864 20.5488 10.3192 20.6816C10.452 20.8143 10.617 20.9104 10.798 20.9604C10.979 21.0104 11.1699 21.0127 11.352 20.967L13.182 20.51C13.6541 20.3912 14.0854 20.1469 14.43 19.803L20.332 13.901C20.7441 13.4691 20.9709 12.8931 20.9639 12.2961C20.9569 11.6992 20.7166 11.1287 20.2945 10.7065C19.8723 10.2844 19.3018 10.0441 18.7049 10.0371C18.1079 10.0301 17.5319 10.2569 17.1 10.669Z" fill="white"/>
</svg>
