<svg width="168" height="168" viewBox="0 0 168 168" fill="none" xmlns="http://www.w3.org/2000/svg">
<path d="M168 128.486H0V128.57H168V128.486Z" fill="#EBEBEB"/>
<path d="M151.166 133.893H143.882V133.977H151.166V133.893Z" fill="#EBEBEB"/>
<path d="M115.81 132.152H104.349V132.236H115.81V132.152Z" fill="#EBEBEB"/>
<path d="M148.216 130.774H133.254V130.858H148.216V130.774Z" fill="#EBEBEB"/>
<path d="M58.1346 132.468H54.3916V132.552H58.1346V132.468Z" fill="#EBEBEB"/>
<path d="M51.3981 132.468H38.499V132.552H51.3981V132.468Z" fill="#EBEBEB"/>
<path d="M31.5875 131.05H22.2803V131.134H31.5875V131.05Z" fill="#EBEBEB"/>
<path d="M79.6323 113.501H14.7574C14.2486 113.501 13.7606 113.299 13.4008 112.939C13.041 112.579 12.8389 112.091 12.8389 111.582V20.3817C12.8433 19.8758 13.0474 19.3921 13.4067 19.036C13.766 18.6798 14.2515 18.48 14.7574 18.48H79.6323C80.1411 18.48 80.6291 18.6821 80.9889 19.0419C81.3487 19.4017 81.5509 19.8897 81.5509 20.3985V111.582C81.5509 112.091 81.3487 112.579 80.9889 112.939C80.6291 113.299 80.1411 113.501 79.6323 113.501ZM14.7574 18.5472C14.2711 18.5481 13.805 18.7416 13.4612 19.0855C13.1173 19.4293 12.9238 19.8955 12.9229 20.3817V111.582C12.9238 112.069 13.1173 112.535 13.4612 112.878C13.805 113.222 14.2711 113.416 14.7574 113.417H79.6323C80.1186 113.416 80.5847 113.222 80.9286 112.878C81.2724 112.535 81.466 112.069 81.4669 111.582V20.3817C81.466 19.8955 81.2724 19.4293 80.9286 19.0855C80.5847 18.7416 80.1186 18.5481 79.6323 18.5472H14.7574Z" fill="#EBEBEB"/>
<path d="M152.312 113.501H87.4303C86.9217 113.5 86.4342 113.297 86.0746 112.938C85.715 112.578 85.5126 112.091 85.5117 111.582V20.3817C85.517 19.8761 85.7214 19.3929 86.0805 19.0369C86.4397 18.6809 86.9246 18.4808 87.4303 18.48H152.312C152.817 18.4817 153.3 18.6823 153.658 19.0383C154.016 19.3943 154.219 19.877 154.224 20.3817V111.582C154.224 112.09 154.023 112.577 153.664 112.936C153.306 113.296 152.82 113.499 152.312 113.501ZM87.4303 18.5472C86.944 18.5481 86.4779 18.7416 86.134 19.0855C85.7902 19.4293 85.5966 19.8955 85.5957 20.3817V111.582C85.5966 112.069 85.7902 112.535 86.134 112.878C86.4779 113.222 86.944 113.416 87.4303 113.417H152.312C152.798 113.416 153.264 113.222 153.608 112.878C153.952 112.535 154.146 112.069 154.146 111.582V20.3817C154.146 19.8955 153.952 19.4293 153.608 19.0855C153.264 18.7416 152.798 18.5481 152.312 18.5472H87.4303Z" fill="#EBEBEB"/>
<path d="M131.167 102.097C131.043 102.097 130.915 102.097 130.788 102.097C128.1 102.315 125.902 104.886 125.731 108.054C125.691 108.751 125.75 109.45 125.906 110.131C126.502 112.864 126.788 115.656 126.759 118.453V126.622C126.741 126.885 126.828 127.144 126.999 127.345C127.17 127.545 127.414 127.67 127.676 127.693H145.706V102.097H131.167Z" fill="#F0F0F0"/>
<path d="M151.156 108.484C151.156 104.808 148.509 101.858 145.327 102.1C142.639 102.319 140.441 104.889 140.287 108.058C140.247 108.755 140.305 109.454 140.461 110.134C141.057 112.867 141.344 115.659 141.315 118.457V126.625C141.297 126.888 141.383 127.148 141.555 127.348C141.726 127.548 141.969 127.674 142.232 127.697H149.218C149.48 127.673 149.722 127.547 149.893 127.347C150.064 127.147 150.149 126.888 150.131 126.625V117.986C150.11 115.364 150.394 112.748 150.978 110.191C151.103 109.631 151.163 109.058 151.156 108.484Z" fill="#FAFAFA"/>
<path d="M138.2 113.225H119.169V127.707H138.2V113.225Z" fill="#F5F5F5"/>
<path d="M121.515 80.0958H100.602C100.03 80.0863 99.4632 80.1984 98.9382 80.4249C98.4132 80.6513 97.9423 80.9868 97.5569 81.4091C97.1714 81.8314 96.8802 82.3308 96.7025 82.8743C96.5249 83.4178 96.4648 83.9928 96.5264 84.5612L99.2412 115.675H129.085L126.37 84.5612C126.247 83.3519 125.685 82.2296 124.79 81.4068C123.895 80.5839 122.73 80.1175 121.515 80.0958Z" fill="#E6E6E6"/>
<path d="M124.186 80.0956H105.37C104.805 80.0837 104.244 80.1924 103.725 80.4145C103.205 80.6366 102.739 80.967 102.357 81.3836C101.976 81.8002 101.687 82.2935 101.512 82.8304C101.336 83.3673 101.277 83.9356 101.338 84.4972L104.06 115.675H131.712L128.991 84.4972C128.868 83.3023 128.311 82.194 127.425 81.3826C126.54 80.5712 125.387 80.1132 124.186 80.0956Z" fill="#F5F5F5"/>
<path d="M120.399 112.704H138.187C138.441 112.704 138.684 112.805 138.864 112.985C139.043 113.164 139.144 113.408 139.144 113.662V115.204C139.144 115.458 139.043 115.702 138.864 115.881C138.684 116.061 138.441 116.162 138.187 116.162H120.399C120.361 116.162 120.324 116.154 120.29 116.14C120.255 116.126 120.223 116.105 120.197 116.078C120.17 116.052 120.149 116.02 120.135 115.985C120.121 115.951 120.113 115.914 120.113 115.876V112.993C120.113 112.956 120.12 112.918 120.134 112.883C120.148 112.848 120.169 112.816 120.196 112.789C120.222 112.762 120.254 112.741 120.289 112.726C120.324 112.712 120.361 112.704 120.399 112.704Z" fill="#EBEBEB"/>
<path d="M100.524 127.707H145.982V127.767C145.982 127.958 145.906 128.141 145.771 128.276C145.636 128.411 145.454 128.486 145.263 128.486H101.247C101.056 128.486 100.873 128.411 100.738 128.276C100.604 128.141 100.528 127.958 100.528 127.767V127.707H100.524Z" fill="#E6E6E6"/>
<path d="M100.8 102.097C100.676 102.097 100.548 102.097 100.421 102.097C97.7326 102.315 95.5351 104.886 95.3638 108.054C95.3237 108.751 95.3825 109.45 95.5385 110.131C96.1346 112.864 96.4209 115.656 96.3919 118.453V126.622C96.3742 126.885 96.4603 127.144 96.6318 127.345C96.8033 127.545 97.0465 127.67 97.3092 127.693H119.431V102.097H100.8Z" fill="#F0F0F0"/>
<path d="M124.878 108.484C124.878 104.808 122.23 101.858 119.048 102.1C116.36 102.319 114.163 104.889 113.992 108.058C113.952 108.755 114.01 109.454 114.166 110.134C114.763 112.867 115.049 115.659 115.02 118.457V126.625C115.002 126.888 115.088 127.148 115.26 127.348C115.431 127.548 115.674 127.674 115.937 127.697H122.923C123.185 127.673 123.427 127.547 123.598 127.347C123.769 127.147 123.854 126.888 123.836 126.625V117.986C123.816 115.364 124.099 112.748 124.68 110.191C124.813 109.632 124.88 109.059 124.878 108.484Z" fill="#FAFAFA"/>
<path d="M148.136 118.329H130.751V128.486H148.136V118.329Z" fill="#F0F0F0"/>
<path d="M148.25 117.805H130.644C130.251 117.805 129.932 118.124 129.932 118.517V120.547C129.932 120.94 130.251 121.259 130.644 121.259H148.25C148.644 121.259 148.963 120.94 148.963 120.547V118.517C148.963 118.124 148.644 117.805 148.25 117.805Z" fill="#E6E6E6"/>
<path d="M39.2145 83.0256H34.7793V100.219H39.2145V83.0256Z" fill="#E6E6E6"/>
<path d="M68.6687 100.219H36.5202L34.2959 80.0957H66.4444L68.6687 100.219Z" fill="#F0F0F0"/>
<path d="M70.2643 100.219H37.6286L35.4043 80.0957H68.04L70.2643 100.219Z" fill="#F5F5F5"/>
<path d="M38.727 98.6328L36.8555 81.6816H66.9409L68.8158 98.6328H38.727Z" fill="white"/>
<path d="M43.7838 94.5234L43.7065 93.8346C43.2361 89.5808 45.8905 85.7908 49.3412 85.7908L49.4185 86.4628C49.8889 90.7165 47.2311 94.5066 43.7838 94.5066V94.5234Z" fill="#F5F5F5"/>
<path d="M50.3629 94.5234L50.2856 93.8346C49.8152 89.5808 52.4696 85.7908 55.9203 85.7908L55.9976 86.4628C56.468 90.7165 53.8102 94.5066 50.3629 94.5066V94.5234Z" fill="#F5F5F5"/>
<path d="M56.9419 94.5234L56.8646 93.8346C56.3942 89.5808 59.052 85.7908 62.4994 85.7908L62.5766 86.4628C63.047 90.7165 60.3893 94.5066 56.9419 94.5066V94.5234Z" fill="#F5F5F5"/>
<path d="M91.876 100.219H72.8281V128.486H91.876V100.219Z" fill="#E6E6E6"/>
<path d="M89.9575 128.486H91.8727V123.036H87.9482L89.9575 128.486Z" fill="#F0F0F0"/>
<path d="M38.4922 100.219H19.4443V128.486H38.4922V100.219Z" fill="#E6E6E6"/>
<path d="M91.8729 100.219H36.8193V125.143H91.8729V100.219Z" fill="#F0F0F0"/>
<path d="M38.7345 128.486H36.8193V123.036H40.7438L38.7345 128.486Z" fill="#F0F0F0"/>
<path d="M90.3876 101.778H38.3076V111.834H90.3876V101.778Z" fill="#E6E6E6"/>
<path d="M67.8216 104.902H60.8731C59.3802 104.903 57.903 104.598 56.5315 104.009C55.1601 103.419 53.9232 102.556 52.8965 101.472H75.7982C74.7715 102.556 73.5346 103.419 72.1632 104.009C70.7918 104.598 69.3145 104.903 67.8216 104.902Z" fill="#F0F0F0"/>
<path d="M90.3876 113.46H38.3076V123.517H90.3876V113.46Z" fill="#E6E6E6"/>
<path d="M67.8216 116.592H60.8731C59.3802 116.592 57.903 116.288 56.5315 115.698C55.1601 115.108 53.9232 114.245 52.8965 113.161H75.7982C74.7715 114.245 73.5346 115.108 72.1632 115.698C70.7918 116.288 69.3145 116.592 67.8216 116.592Z" fill="#F0F0F0"/>
<path d="M143.656 27.3H21.0938V68.964H143.656V27.3Z" fill="#E6E6E6"/>
<path d="M144.877 27.3H21.6621V68.964H144.877V27.3Z" fill="#F0F0F0"/>
<path d="M143.656 68.9639H21.0938V71.2319H143.656V68.9639Z" fill="#E6E6E6"/>
<path d="M146.909 68.9639H23.6943V71.2319H146.909V68.9639Z" fill="#F0F0F0"/>
<path d="M143.17 67.2605V29.0103L23.3725 29.0103V67.2605H143.17Z" fill="#FAFAFA"/>
<path d="M126.014 67.2571L128.749 29.0068H133.48L130.745 67.2571H126.014Z" fill="white"/>
<path d="M32.1621 67.2571L34.8971 29.0068H39.628L36.8963 67.2571H32.1621Z" fill="white"/>
<path d="M24.1614 47.7759C24.144 47.7763 24.1268 47.7733 24.1107 47.7668C24.0946 47.7604 24.0799 47.7508 24.0677 47.7385C24.0554 47.7263 24.0458 47.7116 24.0394 47.6955C24.0329 47.6794 24.0299 47.6622 24.0303 47.6448V30.1191C24.0303 30.0843 24.0441 30.051 24.0687 30.0264C24.0933 30.0018 24.1266 29.988 24.1614 29.988C24.1958 29.9889 24.2287 30.003 24.2531 30.0274C24.2775 30.0518 24.2915 30.0846 24.2924 30.1191V47.6448C24.2924 47.6796 24.2786 47.7129 24.254 47.7375C24.2294 47.7621 24.1961 47.7759 24.1614 47.7759Z" fill="#F0F0F0"/>
<path d="M131.763 67.2571L134.498 29.0068H136.339L133.607 67.2571H131.763Z" fill="white"/>
<path d="M143.17 67.2571V29.0068H142.952V67.2571H143.17Z" fill="#E6E6E6"/>
<path opacity="0.5" d="M145.279 32.1048H22.7165L22.5586 29.6721H145.121L145.279 32.1048Z" fill="#E0E0E0"/>
<path opacity="0.5" d="M145.279 36.1033H22.7165L22.5586 33.6707H145.121L145.279 36.1033Z" fill="#E0E0E0"/>
<path opacity="0.5" d="M145.279 40.1016H22.7165L22.5586 37.6689H145.121L145.279 40.1016Z" fill="#E0E0E0"/>
<path opacity="0.5" d="M145.279 44.0999H22.7165L22.5586 41.6672H145.121L145.279 44.0999Z" fill="#E0E0E0"/>
<path opacity="0.5" d="M145.279 48.0984H22.7165L22.5586 45.6658H145.121L145.279 48.0984Z" fill="#E0E0E0"/>
<path opacity="0.5" d="M145.279 52.0933H22.7165L22.5586 49.6641H145.121L145.279 52.0933Z" fill="#E0E0E0"/>
<path d="M83.9996 143.66C119.979 143.66 149.147 141.957 149.147 139.857C149.147 137.756 119.979 136.053 83.9996 136.053C48.0199 136.053 18.8525 137.756 18.8525 139.857C18.8525 141.957 48.0199 143.66 83.9996 143.66Z" fill="#F5F5F5"/>
<path d="M54.3176 36.7114H51.5557V37.0474H54.3176V36.7114Z" fill="#4D96B9"/>
<path d="M49.1665 36.7114H39.6846V37.0474H49.1665V36.7114Z" fill="#4D96B9"/>
<path d="M37.8267 89.6013H105.464C105.819 89.6067 106.172 89.5364 106.499 89.3951C106.825 89.2538 107.118 89.0447 107.358 88.7816C107.597 88.5185 107.778 88.2075 107.888 87.8691C107.999 87.5308 108.036 87.1729 107.997 86.8192L103.884 40.6562C103.804 39.9044 103.453 39.2076 102.896 38.6957C102.34 38.1838 101.616 37.8918 100.86 37.8741H33.2201C32.8644 37.8686 32.5115 37.9389 32.1849 38.0802C31.8584 38.2216 31.5656 38.4307 31.326 38.6938C31.0864 38.9569 30.9056 39.2679 30.7953 39.6062C30.6851 39.9445 30.6481 40.3024 30.6867 40.6562L34.7993 86.8058C34.8755 87.561 35.2254 88.2623 35.7832 88.7773C36.3409 89.2923 37.0678 89.5854 37.8267 89.6013Z" fill="#4D96B9"/>
<path d="M38.0452 89.6011H105.679C106.035 89.6071 106.388 89.5372 106.715 89.396C107.041 89.2549 107.334 89.0458 107.574 88.7825C107.814 88.5193 107.995 88.2081 108.105 87.8695C108.215 87.531 108.251 87.1728 108.212 86.819L104.103 40.656C104.022 39.9045 103.67 39.2081 103.114 38.6964C102.558 38.1846 101.834 37.8923 101.079 37.8739H33.4353C33.0805 37.8704 32.729 37.9421 32.4039 38.0843C32.0788 38.2264 31.7875 38.4358 31.5491 38.6986C31.3108 38.9614 31.1307 39.2717 31.0209 39.609C30.9111 39.9464 30.8739 40.3032 30.9119 40.656L35.0245 86.8056C35.1019 87.5592 35.4513 88.2588 36.0073 88.7733C36.5633 89.2879 37.2878 89.5822 38.0452 89.6011Z" fill="#4D96B9"/>
<path opacity="0.2" d="M38.0452 89.6011H105.679C106.035 89.6071 106.388 89.5372 106.715 89.396C107.041 89.2549 107.334 89.0458 107.574 88.7825C107.814 88.5193 107.995 88.2081 108.105 87.8695C108.215 87.531 108.251 87.1728 108.212 86.819L104.103 40.656C104.022 39.9045 103.67 39.2081 103.114 38.6964C102.558 38.1846 101.834 37.8923 101.079 37.8739H33.4353C33.0805 37.8704 32.729 37.9421 32.4039 38.0843C32.0788 38.2264 31.7875 38.4358 31.5491 38.6986C31.3108 38.9614 31.1307 39.2717 31.0209 39.609C30.9111 39.9464 30.8739 40.3032 30.9119 40.656L35.0245 86.8056C35.1019 87.5592 35.4513 88.2588 36.0073 88.7733C36.5633 89.2879 37.2878 89.5822 38.0452 89.6011Z" fill="black"/>
<path d="M101.197 39.2786H33.5599C33.4859 39.2786 33.4087 39.2786 33.3347 39.2786C31.6077 39.4197 32.0075 42.0506 33.7514 42.0506H101.502C103.246 42.0506 103.182 39.4197 101.425 39.2786C101.348 39.2819 101.274 39.2786 101.197 39.2786Z" fill="#4D96B9"/>
<path d="M34.7662 41.4759C34.551 41.4715 34.3447 41.3889 34.1858 41.2436C34.0269 41.0984 33.9263 40.9003 33.9027 40.6863C33.893 40.5814 33.9049 40.4757 33.9379 40.3757C33.9708 40.2757 34.0241 40.1835 34.0942 40.105C34.165 40.0278 34.2512 39.9663 34.3473 39.9246C34.4434 39.883 34.5472 39.862 34.652 39.8631C34.8676 39.867 35.0743 39.9498 35.2328 40.096C35.3914 40.2422 35.4908 40.4415 35.5121 40.656C35.5236 40.7602 35.5127 40.8657 35.4803 40.9654C35.4479 41.065 35.3947 41.1567 35.3241 41.2342C35.2536 41.3118 35.1674 41.3734 35.0712 41.4151C34.975 41.4567 34.871 41.4775 34.7662 41.4759ZM34.652 40.1991C34.5942 40.1983 34.5369 40.2095 34.4836 40.2321C34.4304 40.2546 34.3825 40.288 34.3429 40.3301C34.3028 40.3756 34.2728 40.4291 34.2549 40.487C34.2369 40.5449 34.2314 40.6059 34.2387 40.6661C34.2526 40.7972 34.3139 40.9187 34.411 41.0078C34.5081 41.0969 34.6344 41.1474 34.7662 41.15C34.824 41.1508 34.8813 41.1395 34.9346 41.117C34.9878 41.0944 35.0357 41.061 35.0753 41.0189C35.1156 40.9735 35.1457 40.9201 35.1637 40.8622C35.1816 40.8042 35.187 40.7431 35.1795 40.6829C35.1649 40.5521 35.1034 40.431 35.0065 40.3421C34.9095 40.2531 34.7835 40.2023 34.652 40.1991Z" fill="#FAFAFA"/>
<path d="M36.9325 41.4759C36.7177 41.4714 36.5118 41.3887 36.3535 41.2434C36.1951 41.098 36.0952 40.9 36.0724 40.6863C36.0615 40.5817 36.0728 40.4761 36.1056 40.3762C36.1384 40.2764 36.1919 40.1846 36.2626 40.1069C36.3334 40.0291 36.4198 39.9672 36.5161 39.9252C36.6124 39.8832 36.7166 39.862 36.8217 39.8631C37.0368 39.8684 37.2427 39.9518 37.401 40.0977C37.5592 40.2435 37.6591 40.442 37.6818 40.656C37.6932 40.7605 37.682 40.8661 37.6489 40.9658C37.6159 41.0656 37.5618 41.157 37.4903 41.234C37.4195 41.3112 37.3333 41.3726 37.2372 41.4143C37.1411 41.456 37.0373 41.477 36.9325 41.4759ZM36.8217 40.1991C36.7638 40.1979 36.7063 40.2089 36.6531 40.2315C36.5998 40.2541 36.5519 40.2877 36.5125 40.3301C36.4713 40.375 36.4404 40.4283 36.4218 40.4863C36.4032 40.5443 36.3975 40.6057 36.405 40.6661C36.4196 40.7969 36.4811 40.918 36.5781 41.0069C36.675 41.0959 36.801 41.1467 36.9325 41.15C36.9904 41.1512 37.0478 41.1401 37.1011 41.1175C37.1544 41.0949 37.2023 41.0613 37.2417 41.0189C37.2833 40.9744 37.3143 40.9211 37.3323 40.8629C37.3504 40.8047 37.355 40.7432 37.3458 40.6829C37.332 40.5524 37.2712 40.4314 37.1748 40.3424C37.0784 40.2533 36.9528 40.2024 36.8217 40.1991Z" fill="#FAFAFA"/>
<path d="M39.1031 41.4759C38.8879 41.4715 38.6816 41.3889 38.5227 41.2436C38.3638 41.0984 38.2632 40.9003 38.2396 40.6863C38.2299 40.5814 38.2419 40.4757 38.2748 40.3757C38.3078 40.2757 38.361 40.1835 38.4311 40.105C38.5019 40.0278 38.5881 39.9663 38.6842 39.9246C38.7803 39.883 38.8841 39.862 38.9889 39.8631C39.2047 39.8676 39.4114 39.9506 39.5703 40.0966C39.7293 40.2425 39.8296 40.4414 39.8524 40.656C39.8621 40.7604 39.8501 40.8656 39.8171 40.965C39.7841 41.0645 39.731 41.1561 39.6609 41.234C39.5901 41.3112 39.5039 41.3726 39.4078 41.4143C39.3117 41.456 39.2079 41.477 39.1031 41.4759ZM38.9889 40.1991C38.9311 40.1983 38.8738 40.2095 38.8206 40.2321C38.7673 40.2546 38.7194 40.288 38.6798 40.3301C38.6397 40.3756 38.6097 40.4291 38.5918 40.487C38.5738 40.5449 38.5683 40.6059 38.5756 40.6661C38.5895 40.7972 38.6508 40.9187 38.7479 41.0078C38.845 41.0969 38.9714 41.1474 39.1031 41.15C39.1609 41.1508 39.2183 41.1395 39.2715 41.117C39.3247 41.0944 39.3726 41.061 39.4123 41.0189C39.4525 40.9735 39.4826 40.9201 39.5006 40.8622C39.5185 40.8042 39.5239 40.7431 39.5164 40.6829C39.5015 40.5499 39.4381 40.4269 39.3383 40.3377C39.2385 40.2484 39.1093 40.1991 38.9755 40.1991H38.9889Z" fill="#FAFAFA"/>
<path d="M39.0969 85.0081H103.824C103.953 85.0102 104.081 84.9849 104.2 84.9338C104.318 84.8827 104.424 84.807 104.512 84.7117C104.599 84.6164 104.664 84.5036 104.705 84.3809C104.745 84.2582 104.758 84.1284 104.745 84.0001L101.344 46.0321C101.316 45.7589 101.188 45.5057 100.986 45.32C100.783 45.1344 100.52 45.0291 100.245 45.0241H35.5353C35.4062 45.0219 35.2781 45.0472 35.1596 45.0983C35.041 45.1494 34.9347 45.2251 34.8476 45.3204C34.7605 45.4157 34.6947 45.5285 34.6546 45.6512C34.6144 45.7739 34.6008 45.9037 34.6146 46.0321L37.9981 84.0001C38.0268 84.2732 38.1543 84.5264 38.3567 84.7121C38.559 84.8977 38.8223 85.003 39.0969 85.0081Z" fill="white"/>
<path d="M61.5719 115.181C62.4724 117.933 61.2359 120.164 58.4941 120.164H104.284C107.039 120.164 108.262 117.933 107.362 115.181H61.5719Z" fill="#263238"/>
<path d="M41.9629 47.8296C51.7775 70.2811 44.1872 92.736 51.6027 115.181C52.5066 117.933 55.7456 120.164 58.4941 120.164C61.2426 120.164 62.4723 117.933 61.5718 115.181H102.379C94.9602 92.7293 102.55 70.2811 92.7359 47.8296H41.9629Z" fill="#4D96B9"/>
<path opacity="0.8" d="M41.9629 47.8296C51.7775 70.2811 44.1872 92.736 51.6027 115.181C52.5066 117.933 55.7456 120.164 58.4941 120.164C61.2426 120.164 62.4723 117.933 61.5718 115.181H102.379C94.9602 92.7293 102.55 70.2811 92.7359 47.8296H41.9629Z" fill="white"/>
<path d="M63.6152 64.848H51.2672C50.7169 60.6521 49.7708 56.5176 48.4414 52.5H60.7894C62.1188 56.5176 63.0649 60.6521 63.6152 64.848Z" fill="#4D96B9"/>
<path opacity="0.6" d="M96.8752 111.747H69.3232C68.1838 107.328 67.4339 102.817 67.082 98.2666H94.634C94.9859 102.817 95.7358 107.328 96.8752 111.747Z" fill="#4D96B9"/>
<g opacity="0.8">
<path d="M90.5014 53.8777H62.9494C62.8083 53.4297 62.6604 52.9728 62.5059 52.5068H90.0579C90.2124 52.9638 90.3603 53.4208 90.5014 53.8777Z" fill="#4D96B9"/>
<path d="M91.4896 57.4561H63.9376C63.8233 57.0081 63.7113 56.5511 63.6016 56.0852H91.1536C91.2633 56.5354 91.3753 56.9924 91.4896 57.4561Z" fill="#4D96B9"/>
<path d="M86.0629 61.011H64.7101C64.6227 60.5541 64.532 60.0971 64.4346 59.6401H85.7907C85.8848 60.0971 85.9755 60.5541 86.0629 61.011Z" fill="#4D96B9"/>
</g>
<g opacity="0.2">
<path d="M93.384 69.3035H65.832C65.8052 69.0045 65.7783 68.7021 65.748 68.3997H93.3C93.3303 68.7021 93.3572 69.0045 93.384 69.3035Z" fill="#4D96B9"/>
<path d="M93.5723 71.6555H66.0203C66.0002 71.3531 65.9766 71.0507 65.9531 70.7517H93.5051C93.5287 71.0507 93.5522 71.3531 93.5723 71.6555Z" fill="#4D96B9"/>
<path d="M86.063 74.0042H66.1617C66.1617 73.7018 66.1315 73.4027 66.1113 73.1003H86.016L86.063 74.0042Z" fill="#4D96B9"/>
<path d="M93.8204 76.3528H66.2684C66.2684 76.0538 66.2449 75.7514 66.2314 75.449H93.7834C93.7969 75.7514 93.8103 76.0538 93.8204 76.3528Z" fill="#4D96B9"/>
<path d="M93.9011 78.7049H66.3491C66.3491 78.4025 66.3323 78.1001 66.3223 77.801H93.8743C93.8843 78.1001 93.8944 78.4025 93.9011 78.7049Z" fill="#4D96B9"/>
<path d="M72.7031 81.0535H66.4132C66.4132 80.7511 66.4132 80.4521 66.3896 80.1497H72.6796C72.6896 80.4521 72.6964 80.7545 72.7031 81.0535Z" fill="#4D96B9"/>
<path d="M94.0161 83.4053H66.4641C66.4641 83.1029 66.4641 82.8005 66.4473 82.5015H93.9993C94.006 82.8005 94.0093 83.1029 94.0161 83.4053Z" fill="#4D96B9"/>
<path d="M94.08 85.7539H66.528L66.5078 84.8501H94.0598L94.08 85.7539Z" fill="#4D96B9"/>
<path d="M94.1234 88.1026H66.5714C66.5714 87.8035 66.5714 87.5011 66.5479 87.1987H94.0999C94.1066 87.5011 94.1133 87.8035 94.1234 88.1026Z" fill="#4D96B9"/>
<path d="M94.1936 90.4546H66.6416L66.6113 89.5508H94.1633L94.1936 90.4546Z" fill="#4D96B9"/>
<path d="M94.2843 92.8033H66.7323C66.7323 92.5042 66.7054 92.2018 66.6953 91.8994H94.2473C94.2574 92.2018 94.2708 92.5042 94.2843 92.8033Z" fill="#4D96B9"/>
<path d="M78.4861 95.1553H66.8639L66.8135 94.2515H78.4424L78.4861 95.1553Z" fill="#4D96B9"/>
</g>
<path d="M123.752 54.741C124.054 55.1072 124.31 55.4365 124.568 55.7926C124.827 56.1488 125.079 56.4949 125.324 56.8544C125.818 57.5701 126.285 58.2992 126.725 59.0552C127.166 59.8112 127.589 60.5806 127.962 61.387C128.353 62.2006 128.689 63.039 128.97 63.897L129.077 64.233L129.104 64.3136L129.145 64.4547C129.175 64.556 129.199 64.6593 129.215 64.7638C129.276 65.1248 129.284 65.4926 129.239 65.8558C129.162 66.4175 129.004 66.9651 128.772 67.4821C128.386 68.3344 127.907 69.1413 127.344 69.8878C126.294 71.2859 125.099 72.5687 123.779 73.7149L122.414 72.4616C123.327 71.1404 124.169 69.7721 124.938 68.3624C125.293 67.7197 125.585 67.0447 125.811 66.3464C125.896 66.0903 125.943 65.8231 125.949 65.5534C125.949 65.4627 125.949 65.3989 125.922 65.3989L125.895 65.335L125.785 65.0763C125.154 63.6548 124.41 62.2862 123.56 60.9838C123.137 60.3118 122.687 59.6398 122.216 58.9981C121.746 58.3563 121.272 57.6776 120.825 57.0795L123.752 54.741Z" fill="#FF8B7B"/>
<path d="M123.261 72.0417L121.01 72.6936L122.804 74.7936C122.804 74.7936 124.319 74.0745 124.165 72.8885L123.261 72.0417Z" fill="#FF8B7B"/>
<path d="M119.397 74.4979L121.437 76.1242L122.804 74.7936L121.01 72.6936L119.397 74.4979Z" fill="#FF8B7B"/>
<path d="M111.327 43.9118C111.327 44.1134 111.223 44.2746 111.092 44.2746C110.961 44.2746 110.856 44.1134 110.856 43.9118C110.856 43.7102 110.961 43.5522 111.092 43.5522C111.223 43.5522 111.327 43.7135 111.327 43.9118Z" fill="#263238"/>
<path d="M111.239 44.2747C111.001 44.882 110.681 45.454 110.288 45.9748C110.424 46.0722 110.579 46.1389 110.744 46.1702C110.908 46.2015 111.077 46.1968 111.239 46.1563V44.2747Z" fill="#A02724"/>
<path d="M112.032 42.8096C112.008 42.8099 111.984 42.8015 111.965 42.786C111.847 42.6979 111.711 42.6384 111.566 42.6122C111.421 42.5859 111.273 42.5937 111.132 42.6348C111.103 42.6458 111.07 42.6449 111.042 42.6323C111.014 42.6197 110.992 42.5965 110.98 42.5676C110.97 42.5386 110.972 42.5068 110.984 42.4788C110.997 42.4507 111.019 42.4284 111.048 42.4164C111.225 42.3602 111.412 42.3474 111.596 42.3789C111.779 42.4105 111.951 42.4856 112.099 42.5979C112.112 42.6066 112.123 42.6179 112.132 42.631C112.14 42.6442 112.146 42.6589 112.148 42.6744C112.151 42.6898 112.15 42.7056 112.146 42.7208C112.143 42.7359 112.136 42.7501 112.126 42.7625C112.115 42.7771 112.101 42.789 112.085 42.7971C112.068 42.8053 112.05 42.8096 112.032 42.8096Z" fill="#263238"/>
<path d="M117.751 46.2065C117.398 48.0142 117.046 51.3238 118.309 52.5267C118.309 52.5267 117.815 54.3579 114.458 54.3579C110.762 54.3579 112.698 52.5267 112.698 52.5267C114.714 52.0462 114.657 50.5544 114.307 49.1499L117.751 46.2065Z" fill="#FF8B7B"/>
<path d="M118.793 53.1552C119.058 52.5773 119.347 51.912 118.746 51.7037C118.074 51.4752 114.455 51.2433 113.205 51.6734C113.04 51.7191 112.886 51.7971 112.751 51.9028C112.617 52.0085 112.505 52.1398 112.421 52.2892C112.338 52.4386 112.285 52.603 112.265 52.773C112.246 52.943 112.26 53.1151 112.308 53.2795L118.793 53.1552Z" fill="#4D96B9"/>
<path d="M130.455 132.72C130.384 132.798 130.298 132.862 130.202 132.906C130.106 132.951 130.003 132.975 129.897 132.978C129.833 132.978 129.752 132.918 129.722 132.767C129.714 132.728 129.714 132.689 129.722 132.65C129.731 132.612 129.748 132.576 129.773 132.545C129.991 132.246 130.814 132.162 130.848 132.159C130.859 132.157 130.87 132.158 130.881 132.163C130.891 132.168 130.899 132.176 130.905 132.186C130.911 132.195 130.915 132.206 130.915 132.217C130.915 132.229 130.911 132.24 130.905 132.249C130.772 132.422 130.621 132.58 130.455 132.72ZM129.917 132.562L129.867 132.612C129.852 132.631 129.842 132.652 129.837 132.674C129.832 132.697 129.832 132.721 129.836 132.743C129.857 132.851 129.907 132.861 129.924 132.864C130.092 132.901 130.478 132.579 130.72 132.293C130.435 132.324 130.161 132.418 129.917 132.569V132.562Z" fill="#4D96B9"/>
<path d="M130.892 132.266H130.868C130.583 132.327 129.86 132.233 129.719 131.991C129.698 131.952 129.69 131.908 129.697 131.864C129.704 131.821 129.726 131.781 129.76 131.752C129.79 131.72 129.827 131.694 129.868 131.676C129.909 131.658 129.953 131.649 129.998 131.648C130.371 131.648 130.875 132.145 130.895 132.169C130.903 132.176 130.909 132.185 130.912 132.195C130.915 132.205 130.915 132.216 130.912 132.226C130.912 132.234 130.91 132.241 130.906 132.248C130.903 132.255 130.898 132.261 130.892 132.266ZM129.867 131.826L129.847 131.846C129.793 131.9 129.813 131.934 129.82 131.947C129.901 132.088 130.405 132.199 130.724 132.179C130.528 131.977 130.276 131.838 130.002 131.779C129.953 131.778 129.905 131.795 129.867 131.826Z" fill="#4D96B9"/>
<path d="M111.948 137.461C111.632 137.461 111.326 137.417 111.222 137.276C111.196 137.239 111.182 137.194 111.182 137.148C111.182 137.103 111.196 137.058 111.222 137.021C111.264 136.952 111.332 136.903 111.41 136.883C111.82 136.772 112.684 137.263 112.717 137.286C112.728 137.291 112.738 137.3 112.743 137.311C112.749 137.322 112.75 137.335 112.748 137.347C112.745 137.358 112.739 137.369 112.731 137.377C112.723 137.386 112.712 137.391 112.7 137.394C112.452 137.437 112.2 137.46 111.948 137.461ZM111.551 136.984C111.515 136.978 111.477 136.978 111.44 136.984C111.417 136.988 111.394 136.998 111.375 137.012C111.355 137.026 111.339 137.044 111.326 137.064C111.283 137.138 111.299 137.175 111.326 137.195C111.44 137.353 112.065 137.357 112.526 137.293C112.224 137.127 111.893 137.022 111.551 136.984Z" fill="#4D96B9"/>
<path d="M112.694 137.394H112.67C112.371 137.259 111.78 136.722 111.827 136.446C111.827 136.379 111.884 136.298 112.045 136.282C112.105 136.274 112.166 136.279 112.224 136.297C112.282 136.314 112.335 136.343 112.381 136.382C112.697 136.641 112.761 137.306 112.764 137.333C112.766 137.343 112.764 137.354 112.76 137.363C112.756 137.373 112.749 137.381 112.741 137.387C112.727 137.395 112.71 137.398 112.694 137.394ZM112.092 136.386H112.055C111.951 136.386 111.944 136.436 111.941 136.45C111.914 136.618 112.314 137.038 112.613 137.219C112.582 136.937 112.465 136.672 112.277 136.46C112.224 136.418 112.159 136.395 112.092 136.392V136.386Z" fill="#4D96B9"/>
<path d="M115.409 137.336H112.94L112.694 131.621H115.161L115.409 137.336Z" fill="#FF8B7B"/>
<path d="M133.385 131.547L130.996 132.169L128.352 126.954L130.741 126.329L133.385 131.547Z" fill="#FF8B7B"/>
<path d="M130.811 131.887L132.925 130.092C132.962 130.061 133.01 130.043 133.059 130.043C133.108 130.043 133.156 130.061 133.194 130.092L134.985 131.436C135.028 131.47 135.063 131.513 135.087 131.562C135.111 131.611 135.123 131.665 135.123 131.72C135.123 131.775 135.111 131.829 135.087 131.878C135.063 131.928 135.028 131.971 134.985 132.004C134.235 132.616 133.839 132.878 132.911 133.667C132.337 134.151 130.613 135.818 129.824 136.49C129.034 137.162 128.268 136.466 128.53 136.12C129.713 134.575 130.482 133.066 130.593 132.253C130.618 132.108 130.696 131.977 130.811 131.887Z" fill="#263238"/>
<path d="M112.957 137.051H115.645C115.694 137.051 115.741 137.068 115.779 137.098C115.818 137.129 115.845 137.171 115.856 137.219L116.343 139.413C116.355 139.466 116.355 139.521 116.342 139.574C116.33 139.626 116.305 139.676 116.271 139.718C116.237 139.76 116.193 139.793 116.144 139.816C116.095 139.839 116.041 139.851 115.987 139.85C115.016 139.85 113.608 139.779 112.389 139.779C110.957 139.779 110.336 139.857 108.659 139.857C107.651 139.857 107.366 138.832 107.789 138.738C109.718 138.318 110.685 138.271 112.355 137.243C112.534 137.124 112.742 137.057 112.957 137.051Z" fill="#263238"/>
<path d="M109.512 58.0102C108.692 59.4617 107.832 60.836 106.911 62.2068C105.991 63.5777 105.016 64.8948 103.948 66.2019C103.817 66.3665 103.676 66.5379 103.538 66.6857L103.333 66.9276L103.229 67.0486L103.054 67.23C102.649 67.6438 102.177 67.9848 101.656 68.238C100.822 68.6412 99.9401 68.9391 99.0321 69.1251C97.3665 69.4631 95.6672 69.6063 93.9686 69.5518L93.7871 67.7072C95.2836 67.3224 96.7585 66.858 98.2055 66.3161C98.853 66.0747 99.4743 65.7685 100.06 65.4022C100.257 65.2762 100.433 65.1197 100.581 64.9385L100.867 64.5488C100.978 64.3942 101.092 64.243 101.203 64.0817C102.093 62.8184 102.95 61.4945 103.786 60.1572C104.623 58.82 105.466 57.4692 106.27 56.1252L109.512 58.0102Z" fill="#FF8B7B"/>
<path d="M122.933 53.088C125.248 53.6189 127.899 59.9256 127.899 59.9256L123.252 63.1109C122.097 61.4528 121.071 59.7083 120.184 57.8928C118.813 55.0032 120.567 52.5437 122.933 53.088Z" fill="#263238"/>
<path opacity="0.3" d="M121.275 57.1199L123.473 62.9696L123.254 63.1208C123.254 63.1208 122.304 61.7768 121.275 59.986V57.1199Z" fill="black"/>
<path d="M109.105 53.2122C109.105 53.2122 106.478 56.1791 108.958 74.5482H122.159C122.25 72.5322 120.976 62.6336 122.932 53.0845C121.473 52.8035 119.997 52.6172 118.513 52.5267C116.645 52.4191 114.771 52.4191 112.902 52.5267C111.621 52.6559 110.351 52.885 109.105 53.2122Z" fill="#263238"/>
<path opacity="0.3" d="M110.571 58.5244C110.227 60.6089 109.326 62.5617 107.964 64.1759C107.91 62.9932 107.89 61.9315 107.893 60.9806L110.571 58.5244Z" fill="black"/>
<path d="M111.709 55.2148C112.045 57.55 107.429 63.5207 107.429 63.5207L102.815 60.3354C102.815 60.3354 104.096 57.046 106.259 54.8888C108.712 52.4159 111.353 52.6712 111.709 55.2148Z" fill="#263238"/>
<path d="M93.9349 67.7007L91.3477 67.3882L91.4182 70.5399C91.4182 70.5399 93.4544 70.7146 94.5632 69.2967L93.9349 67.7007Z" fill="#FF8B7B"/>
<path d="M88.7676 68.1576L89.7756 70.7079L91.4186 70.5399L91.3481 67.3882L88.7676 68.1576Z" fill="#FF8B7B"/>
<path opacity="0.2" d="M112.694 131.621L112.832 134.833H115.302L115.164 131.621H112.694Z" fill="black"/>
<path opacity="0.2" d="M130.741 126.333L128.352 126.954L129.817 129.844L132.105 129.021L130.741 126.333Z" fill="black"/>
<path d="M117.966 43.4919C117.818 45.9346 117.855 47.376 116.622 48.6293C114.764 50.5176 111.747 49.3987 111.162 46.9493C110.638 44.7519 110.971 41.1231 113.366 40.152C113.893 39.9355 114.467 39.8573 115.032 39.925C115.598 39.9927 116.137 40.2039 116.598 40.5386C117.059 40.8733 117.427 41.3204 117.666 41.8373C117.906 42.3542 118.009 42.9238 117.966 43.4919Z" fill="#FF8B7B"/>
<path d="M113.568 44.6308C112.274 44.3721 112.745 42.8197 113.064 42.3628C112.964 42.3326 112.873 42.2767 112.801 42.2006C112.729 42.1245 112.678 42.0309 112.653 41.929C112.628 41.8271 112.63 41.7205 112.659 41.6198C112.688 41.5191 112.743 41.4277 112.819 41.3548C112.278 41.3548 110.91 41.2607 110.988 39.6748C111.065 38.0889 112.073 38.2535 112.446 39.1708C112.61 38.6294 112.979 38.173 113.473 37.8978C113.968 37.6227 114.55 37.5502 115.097 37.6957C116.498 38.0317 115.265 38.7575 115.265 38.7575C115.265 38.7575 118.322 38.1426 117.896 39.7117C119.22 39.7857 121.145 41.0087 120.174 42.0637C120.752 43.1994 120.661 43.9756 119.932 44.278C119.68 45.6421 118.232 48.2562 117.13 48.2562C116.219 48.2529 113.628 47.0197 113.568 44.6308Z" fill="#263238"/>
<path d="M114.654 44.1571C114.543 44.7551 114.24 45.3004 113.79 45.7094C113.192 46.2403 112.671 45.8136 112.654 45.0878C112.654 44.4326 112.93 43.3641 113.619 43.1088C114.307 42.8534 114.774 43.4313 114.654 44.1571Z" fill="#FF8B7B"/>
<path d="M113.642 74.5483C113.642 74.5483 116.444 93.408 117.979 100.464C119.659 108.192 128.234 128.91 128.234 128.91L132.535 127.525C132.535 127.525 126.336 108.844 125.385 101.18C124.343 92.8637 122.159 74.5483 122.159 74.5483H113.642Z" fill="#4D96B9"/>
<path d="M127.321 128.016C127.304 128.016 128.308 129.521 128.308 129.521L133.14 127.928L132.565 126.487L127.321 128.016Z" fill="#263238"/>
<path opacity="0.3" d="M115.413 81.2682C118.652 81.9032 118.309 93.9824 117.919 100.195C116.985 95.8035 115.618 87.3531 114.684 81.3555C114.91 81.2442 115.167 81.2134 115.413 81.2682Z" fill="black"/>
<path d="M108.958 74.5483C108.958 74.5483 107.789 93.0048 108.058 100.531C108.337 108.36 111.902 133.997 111.902 133.997H116.081C116.081 133.997 115.409 108.817 115.591 101.129C115.796 92.7293 117.637 74.5483 117.637 74.5483H108.958Z" fill="#4D96B9"/>
<path d="M111.095 132.33C111.078 132.33 111.333 134.067 111.333 134.067H116.417L116.555 132.518L111.095 132.33Z" fill="#263238"/>
</svg>
