<svg width="168" height="168" viewBox="0 0 168 168" fill="none" xmlns="http://www.w3.org/2000/svg">
<path d="M168 128.486H0V128.57H168V128.486Z" fill="#E0E0E0"/>
<path d="M142.501 133.2H138.936V133.284H142.501V133.2Z" fill="#E0E0E0"/>
<path d="M136.47 133.241H121.972V133.325H136.47V133.241Z" fill="#E0E0E0"/>
<path d="M104.05 132.441H79.582V132.525H104.05V132.441Z" fill="#E0E0E0"/>
<path d="M65.5062 133.899H57.7412V133.983H65.5062V133.899Z" fill="#E0E0E0"/>
<path d="M39.631 132.481H28.9395V132.565H39.631V132.481Z" fill="#E0E0E0"/>
<path d="M51.4887 132.481H41.4961V132.565H51.4887V132.481Z" fill="#E0E0E0"/>
<path d="M32.1418 131.013H21.9375V131.097H32.1418V131.013Z" fill="#E0E0E0"/>
<path d="M79.6323 113.501H14.7541C14.2458 113.5 13.7587 113.297 13.3996 112.938C13.0405 112.578 12.8389 112.09 12.8389 111.582V20.3817C12.8433 19.8764 13.0469 19.3932 13.4055 19.0371C13.7641 18.6811 14.2487 18.4808 14.7541 18.48H79.6323C80.1411 18.48 80.6291 18.6821 80.9889 19.0419C81.3487 19.4017 81.5509 19.8897 81.5509 20.3985V111.582C81.5509 112.091 81.3487 112.579 80.9889 112.939C80.6291 113.299 80.1411 113.501 79.6323 113.501ZM14.7541 18.5472C14.2681 18.5481 13.8023 18.7417 13.459 19.0857C13.1157 19.4296 12.9229 19.8958 12.9229 20.3817V111.582C12.9229 112.068 13.1157 112.534 13.459 112.878C13.8023 113.222 14.2681 113.416 14.7541 113.417H79.6323C80.1186 113.416 80.5847 113.222 80.9286 112.878C81.2724 112.535 81.466 112.069 81.4669 111.582V20.3817C81.466 19.8955 81.2724 19.4293 80.9286 19.0855C80.5847 18.7416 80.1186 18.5481 79.6323 18.5472H14.7541Z" fill="#E0E0E0"/>
<path d="M152.312 113.501H87.4303C86.9217 113.5 86.4342 113.297 86.0746 112.938C85.715 112.578 85.5126 112.091 85.5117 111.582V20.3817C85.517 19.8761 85.7214 19.3929 86.0805 19.0369C86.4397 18.6809 86.9246 18.4808 87.4303 18.48H152.312C152.817 18.4817 153.3 18.6823 153.658 19.0383C154.016 19.3943 154.219 19.877 154.224 20.3817V111.582C154.224 112.09 154.023 112.577 153.664 112.936C153.306 113.296 152.82 113.499 152.312 113.501ZM87.4303 18.5472C86.944 18.5481 86.4779 18.7416 86.134 19.0855C85.7902 19.4293 85.5966 19.8955 85.5957 20.3817V111.582C85.5966 112.069 85.7902 112.535 86.134 112.878C86.4779 113.222 86.944 113.416 87.4303 113.417H152.312C152.798 113.416 153.264 113.222 153.608 112.878C153.952 112.535 154.146 112.069 154.146 111.582V20.3817C154.146 19.8955 153.952 19.4293 153.608 19.0855C153.264 18.7416 152.798 18.5481 152.312 18.5472H87.4303Z" fill="#E0E0E0"/>
<path d="M144.641 25.3579H22.6869C21.2914 25.3579 20.1602 26.4892 20.1602 27.8846V119.445C20.1602 120.84 21.2914 121.971 22.6869 121.971H144.641C146.037 121.971 147.168 120.84 147.168 119.445V27.8846C147.168 26.4892 146.037 25.3579 144.641 25.3579Z" fill="#E0E0E0"/>
<path d="M145.313 25.3579H23.3588C21.9633 25.3579 20.832 26.4892 20.832 27.8846V119.445C20.832 120.84 21.9633 121.971 23.3588 121.971H145.313C146.709 121.971 147.84 120.84 147.84 119.445V27.8846C147.84 26.4892 146.709 25.3579 145.313 25.3579Z" fill="#EBEBEB"/>
<path d="M20.832 31.8896V119.445C20.8347 120.114 21.1019 120.754 21.5752 121.227C22.0486 121.7 22.6897 121.966 23.3588 121.968H145.327C145.996 121.966 146.638 121.699 147.111 121.226C147.585 120.752 147.852 120.111 147.853 119.441V31.8896H20.832Z" fill="#E0E0E0"/>
<path d="M147.373 35.2498H21.2988V118.611H147.373V35.2498Z" fill="#FAFAFA"/>
<path d="M142.915 110.984H25.7581C25.7471 110.983 25.7368 110.978 25.7294 110.97C25.7219 110.962 25.7177 110.952 25.7178 110.941V40.656C25.7178 40.6507 25.7188 40.6455 25.7208 40.6406C25.7229 40.6357 25.7258 40.6313 25.7296 40.6275C25.7333 40.6238 25.7378 40.6208 25.7427 40.6188C25.7476 40.6168 25.7528 40.6157 25.7581 40.6157H142.915C142.925 40.6157 142.936 40.62 142.943 40.6275C142.951 40.6351 142.955 40.6454 142.955 40.656V110.941C142.955 110.946 142.955 110.952 142.953 110.957C142.951 110.962 142.948 110.967 142.944 110.971C142.941 110.975 142.936 110.979 142.931 110.981C142.926 110.983 142.92 110.984 142.915 110.984ZM25.8018 110.9H142.871V40.6997H25.8018V110.9Z" fill="#E0E0E0"/>
<path d="M26.3763 30.1561C26.0772 30.1561 25.7849 30.0674 25.5362 29.9013C25.2876 29.7351 25.0938 29.499 24.9794 29.2227C24.8649 28.9464 24.835 28.6424 24.8933 28.3491C24.9517 28.0558 25.0957 27.7864 25.3071 27.5749C25.5186 27.3635 25.788 27.2195 26.0813 27.1611C26.3746 27.1028 26.6786 27.1327 26.9549 27.2472C27.2312 27.3616 27.4673 27.5554 27.6334 27.8041C27.7996 28.0527 27.8883 28.345 27.8883 28.6441C27.8874 29.0448 27.7278 29.4289 27.4444 29.7122C27.1611 29.9956 26.777 30.1552 26.3763 30.1561ZM26.3763 27.4681C26.1437 27.4681 25.9163 27.5371 25.7229 27.6663C25.5295 27.7955 25.3788 27.9792 25.2898 28.194C25.2008 28.4089 25.1775 28.6454 25.2229 28.8735C25.2682 29.1016 25.3802 29.3112 25.5447 29.4756C25.7092 29.6401 25.9187 29.7521 26.1468 29.7975C26.375 29.8429 26.6114 29.8196 26.8263 29.7306C27.0412 29.6416 27.2248 29.4908 27.3541 29.2974C27.4833 29.104 27.5523 28.8767 27.5523 28.6441C27.5523 28.3322 27.4284 28.0331 27.2078 27.8125C26.9873 27.592 26.6882 27.4681 26.3763 27.4681Z" fill="#FAFAFA"/>
<path d="M31.137 30.1561C30.838 30.1561 30.5456 30.0674 30.297 29.9013C30.0483 29.7351 29.8545 29.499 29.7401 29.2227C29.6257 28.9464 29.5957 28.6424 29.6541 28.3491C29.7124 28.0558 29.8564 27.7864 30.0679 27.5749C30.2793 27.3635 30.5487 27.2195 30.842 27.1611C31.1353 27.1028 31.4393 27.1327 31.7156 27.2472C31.9919 27.3616 32.228 27.5554 32.3942 27.8041C32.5603 28.0527 32.649 28.345 32.649 28.6441C32.6481 29.0448 32.4885 29.4289 32.2052 29.7122C31.9218 29.9956 31.5377 30.1552 31.137 30.1561ZM31.137 27.4681C30.9044 27.4681 30.677 27.5371 30.4836 27.6663C30.2903 27.7955 30.1395 27.9792 30.0505 28.194C29.9615 28.4089 29.9382 28.6454 29.9836 28.8735C30.029 29.1016 30.141 29.3112 30.3054 29.4756C30.4699 29.6401 30.6795 29.7521 30.9076 29.7975C31.1357 29.8429 31.3721 29.8196 31.587 29.7306C31.8019 29.6416 31.9856 29.4908 32.1148 29.2974C32.244 29.104 32.313 28.8767 32.313 28.6441C32.313 28.3322 32.1891 28.0331 31.9686 27.8125C31.748 27.592 31.4489 27.4681 31.137 27.4681Z" fill="#FAFAFA"/>
<path d="M35.9016 30.1561C35.6026 30.1561 35.3103 30.0674 35.0616 29.9013C34.813 29.7351 34.6192 29.499 34.5047 29.2227C34.3903 28.9464 34.3604 28.6424 34.4187 28.3491C34.477 28.0558 34.621 27.7864 34.8325 27.5749C35.044 27.3635 35.3134 27.2195 35.6067 27.1611C35.9 27.1028 36.204 27.1327 36.4803 27.2472C36.7565 27.3616 36.9927 27.5554 37.1588 27.8041C37.325 28.0527 37.4136 28.345 37.4136 28.6441C37.4128 29.0448 37.2532 29.4289 36.9698 29.7122C36.6864 29.9956 36.3024 30.1552 35.9016 30.1561ZM35.9016 27.4681C35.6691 27.4681 35.4417 27.5371 35.2483 27.6663C35.0549 27.7955 34.9042 27.9792 34.8152 28.194C34.7262 28.4089 34.7029 28.6454 34.7482 28.8735C34.7936 29.1016 34.9056 29.3112 35.0701 29.4756C35.2346 29.6401 35.4441 29.7521 35.6722 29.7975C35.9003 29.8429 36.1368 29.8196 36.3517 29.7306C36.5666 29.6416 36.7502 29.4908 36.8795 29.2974C37.0087 29.104 37.0776 28.8767 37.0776 28.6441C37.0776 28.3322 36.9537 28.0331 36.7332 27.8125C36.5127 27.592 36.2135 27.4681 35.9016 27.4681Z" fill="#FAFAFA"/>
<path d="M147.84 31.7217H20.832V32.0577H147.84V31.7217Z" fill="#E0E0E0"/>
<path d="M90.2466 43.5322H32.1455V102.749H90.2466V43.5322Z" fill="#EBEBEB"/>
<path d="M140.038 43.5322H101.677V62.7951H140.038V43.5322Z" fill="#EBEBEB"/>
<path d="M108.864 55.1039C111.276 55.1039 113.232 53.1483 113.232 50.7359C113.232 48.3235 111.276 46.3679 108.864 46.3679C106.452 46.3679 104.496 48.3235 104.496 50.7359C104.496 53.1483 106.452 55.1039 108.864 55.1039Z" fill="#FAFAFA"/>
<path d="M136.191 46.3679H117.264V48.1588H136.191V46.3679Z" fill="#FAFAFA"/>
<path d="M129.548 49.6541H117.264V51.4449H129.548V49.6541Z" fill="#FAFAFA"/>
<path d="M140.038 69.9988H101.677V118.611H140.038V69.9988Z" fill="#EBEBEB"/>
<path d="M119.744 73.6646H103.381V90.0278H119.744V73.6646Z" fill="#FAFAFA"/>
<path d="M119.871 92.1077H103.508V108.471H119.871V92.1077Z" fill="#FAFAFA"/>
<path d="M138.338 73.6646H121.975V82.3434H138.338V73.6646Z" fill="#FAFAFA"/>
<path d="M138.338 84.4268H121.975V100.79H138.338V84.4268Z" fill="#FAFAFA"/>
<path d="M119.871 110.43H103.508V118.611H119.871V110.43Z" fill="#FAFAFA"/>
<path d="M138.338 102.749H121.975V118.611H138.338V102.749Z" fill="#FAFAFA"/>
<path d="M83.9996 143.66C119.979 143.66 149.147 141.957 149.147 139.857C149.147 137.756 119.979 136.053 83.9996 136.053C48.0199 136.053 18.8525 137.756 18.8525 139.857C18.8525 141.957 48.0199 143.66 83.9996 143.66Z" fill="#F5F5F5"/>
<path d="M91.1467 120.688H30.0283C28.3693 120.688 27.0244 122.033 27.0244 123.692V134.595C27.0244 136.254 28.3693 137.599 30.0283 137.599H91.1467C92.8056 137.599 94.1505 136.254 94.1505 134.595V123.692C94.1505 122.033 92.8056 120.688 91.1467 120.688Z" fill="#4D96B9"/>
<path d="M91.8556 121.397H30.7372C29.0783 121.397 27.7334 122.742 27.7334 124.401V135.304C27.7334 136.963 29.0783 138.308 30.7372 138.308H91.8556C93.5146 138.308 94.8595 136.963 94.8595 135.304V124.401C94.8595 122.742 93.5146 121.397 91.8556 121.397Z" fill="#4D96B9"/>
<path opacity="0.6" d="M91.8556 121.397H30.7372C29.0783 121.397 27.7334 122.742 27.7334 124.401V135.304C27.7334 136.963 29.0783 138.308 30.7372 138.308H91.8556C93.5146 138.308 94.8595 136.963 94.8595 135.304V124.401C94.8595 122.742 93.5146 121.397 91.8556 121.397Z" fill="#FAFAFA"/>
<path d="M92.5646 122.106H31.4462C29.7872 122.106 28.4424 123.451 28.4424 125.11V136.016C28.4424 137.675 29.7872 139.02 31.4462 139.02H92.5646C94.2236 139.02 95.5685 137.675 95.5685 136.016V125.11C95.5685 123.451 94.2236 122.106 92.5646 122.106Z" fill="#4D96B9"/>
<path opacity="0.8" d="M92.5646 122.106H31.4462C29.7872 122.106 28.4424 123.451 28.4424 125.11V136.016C28.4424 137.675 29.7872 139.02 31.4462 139.02H92.5646C94.2236 139.02 95.5685 137.675 95.5685 136.016V125.11C95.5685 123.451 94.2236 122.106 92.5646 122.106Z" fill="#FAFAFA"/>
<path d="M79.1584 124.965H46.5295C46.175 124.965 45.8877 125.252 45.8877 125.607V126.884C45.8877 127.238 46.175 127.525 46.5295 127.525H79.1584C79.5128 127.525 79.8002 127.238 79.8002 126.884V125.607C79.8002 125.252 79.5128 124.965 79.1584 124.965Z" fill="#4D96B9"/>
<path d="M61.1455 129.283H46.5295C46.175 129.283 45.8877 129.57 45.8877 129.924V131.201C45.8877 131.556 46.175 131.843 46.5295 131.843H61.1455C61.4999 131.843 61.7872 131.556 61.7872 131.201V129.924C61.7872 129.57 61.4999 129.283 61.1455 129.283Z" fill="#4D96B9"/>
<path d="M75.2573 129.283H64.0382C63.6838 129.283 63.3965 129.57 63.3965 129.924V131.201C63.3965 131.556 63.6838 131.843 64.0382 131.843H75.2573C75.6117 131.843 75.899 131.556 75.899 131.201V129.924C75.899 129.57 75.6117 129.283 75.2573 129.283Z" fill="#4D96B9"/>
<path d="M85.6802 133.6H46.2371C46.0441 133.6 45.8877 133.757 45.8877 133.95V134.215C45.8877 134.408 46.0441 134.565 46.2371 134.565H85.6802C85.8732 134.565 86.0296 134.408 86.0296 134.215V133.95C86.0296 133.757 85.8732 133.6 85.6802 133.6Z" fill="#4D96B9"/>
<path opacity="0.5" d="M85.6802 133.6H46.2371C46.0441 133.6 45.8877 133.757 45.8877 133.95V134.215C45.8877 134.408 46.0441 134.565 46.2371 134.565H85.6802C85.8732 134.565 86.0296 134.408 86.0296 134.215V133.95C86.0296 133.757 85.8732 133.6 85.6802 133.6Z" fill="#FAFAFA"/>
<path d="M42.4584 131.964C43.2289 128.727 41.2296 125.479 37.9928 124.708C34.756 123.938 31.5074 125.937 30.7369 129.174C29.9664 132.41 31.9657 135.659 35.2025 136.43C38.4393 137.2 41.6879 135.201 42.4584 131.964Z" fill="#4D96B9"/>
<path d="M41.5696 130.563C41.5696 131.546 41.278 132.508 40.7316 133.326C40.1851 134.143 39.4085 134.781 38.4998 135.157C37.5912 135.533 36.5913 135.632 35.6267 135.44C34.6621 135.248 33.776 134.775 33.0805 134.079C32.3851 133.384 31.9115 132.498 31.7196 131.533C31.5277 130.568 31.6262 129.568 32.0026 128.66C32.3789 127.751 33.0163 126.975 33.8341 126.428C34.6519 125.882 35.6133 125.59 36.5968 125.59C37.2515 125.584 37.9007 125.709 38.5067 125.957C39.1127 126.205 39.6632 126.571 40.1261 127.034C40.589 127.496 40.9551 128.047 41.203 128.653C41.4508 129.259 41.5755 129.908 41.5696 130.563Z" fill="#FAFAFA"/>
<path d="M40.9684 132.932C40.541 133.717 39.9097 134.373 39.141 134.83C38.3723 135.287 37.4946 135.528 36.6004 135.528C35.7062 135.528 34.8285 135.287 34.0598 134.83C33.2911 134.373 32.6598 133.717 32.2324 132.932C33.5262 132.07 35.0459 131.61 36.6004 131.61C38.1549 131.61 39.6747 132.07 40.9684 132.932Z" fill="#4D96B9"/>
<path opacity="0.7" d="M40.9684 132.932C40.541 133.717 39.9097 134.373 39.141 134.83C38.3723 135.287 37.4946 135.528 36.6004 135.528C35.7062 135.528 34.8285 135.287 34.0598 134.83C33.2911 134.373 32.6598 133.717 32.2324 132.932C33.5262 132.07 35.0459 131.61 36.6004 131.61C38.1549 131.61 39.6747 132.07 40.9684 132.932Z" fill="#FAFAFA"/>
<path d="M36.5971 131.077C37.8199 131.077 38.8113 130.086 38.8113 128.863C38.8113 127.64 37.8199 126.648 36.5971 126.648C35.3742 126.648 34.3828 127.64 34.3828 128.863C34.3828 130.086 35.3742 131.077 36.5971 131.077Z" fill="#4D96B9"/>
<path opacity="0.7" d="M36.5971 131.077C37.8199 131.077 38.8113 130.086 38.8113 128.863C38.8113 127.64 37.8199 126.648 36.5971 126.648C35.3742 126.648 34.3828 127.64 34.3828 128.863C34.3828 130.086 35.3742 131.077 36.5971 131.077Z" fill="#FAFAFA"/>
<path d="M91.1467 101.119H30.0283C28.3693 101.119 27.0244 102.464 27.0244 104.123V115.026C27.0244 116.685 28.3693 118.03 30.0283 118.03H91.1467C92.8056 118.03 94.1505 116.685 94.1505 115.026V104.123C94.1505 102.464 92.8056 101.119 91.1467 101.119Z" fill="#4D96B9"/>
<path d="M91.8556 101.828H30.7372C29.0783 101.828 27.7334 103.173 27.7334 104.832V115.739C27.7334 117.397 29.0783 118.742 30.7372 118.742H91.8556C93.5146 118.742 94.8595 117.397 94.8595 115.739V104.832C94.8595 103.173 93.5146 101.828 91.8556 101.828Z" fill="#4D96B9"/>
<path opacity="0.6" d="M91.8556 101.828H30.7372C29.0783 101.828 27.7334 103.173 27.7334 104.832V115.739C27.7334 117.397 29.0783 118.742 30.7372 118.742H91.8556C93.5146 118.742 94.8595 117.397 94.8595 115.739V104.832C94.8595 103.173 93.5146 101.828 91.8556 101.828Z" fill="#FAFAFA"/>
<path d="M92.5646 102.537H31.4462C29.7872 102.537 28.4424 103.882 28.4424 105.541V116.444C28.4424 118.103 29.7872 119.448 31.4462 119.448H92.5646C94.2236 119.448 95.5685 118.103 95.5685 116.444V105.541C95.5685 103.882 94.2236 102.537 92.5646 102.537Z" fill="#4D96B9"/>
<path opacity="0.8" d="M92.5646 102.537H31.4462C29.7872 102.537 28.4424 103.882 28.4424 105.541V116.444C28.4424 118.103 29.7872 119.448 31.4462 119.448H92.5646C94.2236 119.448 95.5685 118.103 95.5685 116.444V105.541C95.5685 103.882 94.2236 102.537 92.5646 102.537Z" fill="#FAFAFA"/>
<path d="M56.2533 105.396H46.5295C46.175 105.396 45.8877 105.684 45.8877 106.038V107.315C45.8877 107.669 46.175 107.957 46.5295 107.957H56.2533C56.6077 107.957 56.8951 107.669 56.8951 107.315V106.038C56.8951 105.684 56.6077 105.396 56.2533 105.396Z" fill="#4D96B9"/>
<path d="M66.4746 105.396H58.965C58.6106 105.396 58.3232 105.684 58.3232 106.038V107.315C58.3232 107.669 58.6106 107.957 58.965 107.957H66.4746C66.829 107.957 67.1164 107.669 67.1164 107.315V106.038C67.1164 105.684 66.829 105.396 66.4746 105.396Z" fill="#4D96B9"/>
<path d="M80.6704 109.714H46.5295C46.175 109.714 45.8877 110.001 45.8877 110.356V111.633C45.8877 111.987 46.175 112.274 46.5295 112.274H80.6704C81.0248 112.274 81.3122 111.987 81.3122 111.633V110.356C81.3122 110.001 81.0248 109.714 80.6704 109.714Z" fill="#4D96B9"/>
<path d="M70.0427 114.032H46.2371C46.0441 114.032 45.8877 114.188 45.8877 114.381V114.647C45.8877 114.84 46.0441 114.996 46.2371 114.996H70.0427C70.2357 114.996 70.3922 114.84 70.3922 114.647V114.381C70.3922 114.188 70.2357 114.032 70.0427 114.032Z" fill="#4D96B9"/>
<path opacity="0.5" d="M70.0427 114.032H46.2371C46.0441 114.032 45.8877 114.188 45.8877 114.381V114.647C45.8877 114.84 46.0441 114.996 46.2371 114.996H70.0427C70.2357 114.996 70.3922 114.84 70.3922 114.647V114.381C70.3922 114.188 70.2357 114.032 70.0427 114.032Z" fill="#FAFAFA"/>
<path d="M42.4593 112.396C43.2298 109.16 41.2305 105.911 37.9938 105.141C34.757 104.37 31.5084 106.369 30.7379 109.606C29.9674 112.843 31.9667 116.091 35.2035 116.862C38.4403 117.632 41.6888 115.633 42.4593 112.396Z" fill="#4D96B9"/>
<path d="M41.5696 110.994C41.5696 111.978 41.278 112.939 40.7316 113.757C40.1851 114.575 39.4085 115.212 38.4998 115.589C37.5912 115.965 36.5913 116.063 35.6267 115.871C34.6621 115.68 33.776 115.206 33.0805 114.511C32.3851 113.815 31.9115 112.929 31.7196 111.964C31.5277 111 31.6262 110 32.0026 109.091C32.3789 108.183 33.0163 107.406 33.8341 106.859C34.6519 106.313 35.6133 106.021 36.5968 106.021C37.2515 106.016 37.9007 106.14 38.5067 106.388C39.1127 106.636 39.6632 107.002 40.1261 107.465C40.589 107.928 40.9551 108.478 41.203 109.084C41.4508 109.69 41.5755 110.34 41.5696 110.994Z" fill="#FAFAFA"/>
<path d="M40.9684 113.363C40.541 114.149 39.9097 114.804 39.141 115.261C38.3723 115.718 37.4946 115.959 36.6004 115.959C35.7062 115.959 34.8285 115.718 34.0598 115.261C33.2911 114.804 32.6598 114.149 32.2324 113.363C33.5262 112.501 35.0459 112.042 36.6004 112.042C38.1549 112.042 39.6747 112.501 40.9684 113.363Z" fill="#4D96B9"/>
<path opacity="0.7" d="M40.9684 113.363C40.541 114.149 39.9097 114.804 39.141 115.261C38.3723 115.718 37.4946 115.959 36.6004 115.959C35.7062 115.959 34.8285 115.718 34.0598 115.261C33.2911 114.804 32.6598 114.149 32.2324 113.363C33.5262 112.501 35.0459 112.042 36.6004 112.042C38.1549 112.042 39.6747 112.501 40.9684 113.363Z" fill="#FAFAFA"/>
<path d="M36.5971 111.508C37.8199 111.508 38.8113 110.517 38.8113 109.294C38.8113 108.071 37.8199 107.08 36.5971 107.08C35.3742 107.08 34.3828 108.071 34.3828 109.294C34.3828 110.517 35.3742 111.508 36.5971 111.508Z" fill="#4D96B9"/>
<path opacity="0.7" d="M36.5971 111.508C37.8199 111.508 38.8113 110.517 38.8113 109.294C38.8113 108.071 37.8199 107.08 36.5971 107.08C35.3742 107.08 34.3828 108.071 34.3828 109.294C34.3828 110.517 35.3742 111.508 36.5971 111.508Z" fill="#FAFAFA"/>
<path d="M91.1467 81.5505H30.0283C28.3693 81.5505 27.0244 82.8954 27.0244 84.5544V95.4609C27.0244 97.1199 28.3693 98.4648 30.0283 98.4648H91.1467C92.8056 98.4648 94.1505 97.1199 94.1505 95.4609V84.5544C94.1505 82.8954 92.8056 81.5505 91.1467 81.5505Z" fill="#4D96B9"/>
<path d="M91.8556 82.2595H30.7372C29.0783 82.2595 27.7334 83.6044 27.7334 85.2634V96.1666C27.7334 97.8255 29.0783 99.1704 30.7372 99.1704H91.8556C93.5146 99.1704 94.8595 97.8255 94.8595 96.1666V85.2634C94.8595 83.6044 93.5146 82.2595 91.8556 82.2595Z" fill="#4D96B9"/>
<path opacity="0.6" d="M91.8556 82.2595H30.7372C29.0783 82.2595 27.7334 83.6044 27.7334 85.2634V96.1666C27.7334 97.8255 29.0783 99.1704 30.7372 99.1704H91.8556C93.5146 99.1704 94.8595 97.8255 94.8595 96.1666V85.2634C94.8595 83.6044 93.5146 82.2595 91.8556 82.2595Z" fill="#FAFAFA"/>
<path d="M92.5646 82.9685H31.4462C29.7872 82.9685 28.4424 84.3134 28.4424 85.9723V96.8789C28.4424 98.5379 29.7872 99.8827 31.4462 99.8827H92.5646C94.2236 99.8827 95.5685 98.5379 95.5685 96.8789V85.9723C95.5685 84.3134 94.2236 82.9685 92.5646 82.9685Z" fill="#4D96B9"/>
<path opacity="0.8" d="M92.5646 82.9685H31.4462C29.7872 82.9685 28.4424 84.3134 28.4424 85.9723V96.8789C28.4424 98.5379 29.7872 99.8827 31.4462 99.8827H92.5646C94.2236 99.8827 95.5685 98.5379 95.5685 96.8789V85.9723C95.5685 84.3134 94.2236 82.9685 92.5646 82.9685Z" fill="#FAFAFA"/>
<path d="M78.9165 85.8279H46.5295C46.175 85.8279 45.8877 86.1152 45.8877 86.4696V87.7464C45.8877 88.1009 46.175 88.3882 46.5295 88.3882H78.9165C79.2709 88.3882 79.5583 88.1009 79.5583 87.7464V86.4696C79.5583 86.1152 79.2709 85.8279 78.9165 85.8279Z" fill="#4D96B9"/>
<path d="M68.0133 90.1455H46.5295C46.175 90.1455 45.8877 90.4328 45.8877 90.7873V92.0641C45.8877 92.4185 46.175 92.7058 46.5295 92.7058H68.0133C68.3677 92.7058 68.6551 92.4185 68.6551 92.0641V90.7873C68.6551 90.4328 68.3677 90.1455 68.0133 90.1455Z" fill="#4D96B9"/>
<path d="M73.1942 90.1455H71.1984C70.844 90.1455 70.5566 90.4328 70.5566 90.7873V92.0641C70.5566 92.4185 70.844 92.7058 71.1984 92.7058H73.1942C73.5487 92.7058 73.836 92.4185 73.836 92.0641V90.7873C73.836 90.4328 73.5487 90.1455 73.1942 90.1455Z" fill="#4D96B9"/>
<path d="M63.5646 94.4631H46.2371C46.0441 94.4631 45.8877 94.6196 45.8877 94.8126V95.078C45.8877 95.271 46.0441 95.4275 46.2371 95.4275H63.5646C63.7576 95.4275 63.9141 95.271 63.9141 95.078V94.8126C63.9141 94.6196 63.7576 94.4631 63.5646 94.4631Z" fill="#4D96B9"/>
<path opacity="0.5" d="M63.5646 94.4631H46.2371C46.0441 94.4631 45.8877 94.6196 45.8877 94.8126V95.078C45.8877 95.271 46.0441 95.4275 46.2371 95.4275H63.5646C63.7576 95.4275 63.9141 95.271 63.9141 95.078V94.8126C63.9141 94.6196 63.7576 94.4631 63.5646 94.4631Z" fill="#FAFAFA"/>
<path d="M85.9652 94.4631H66.0975C65.9045 94.4631 65.748 94.6196 65.748 94.8126V95.078C65.748 95.271 65.9045 95.4275 66.0975 95.4275H85.9652C86.1582 95.4275 86.3146 95.271 86.3146 95.078V94.8126C86.3146 94.6196 86.1582 94.4631 85.9652 94.4631Z" fill="#4D96B9"/>
<path opacity="0.5" d="M85.9652 94.4631H66.0975C65.9045 94.4631 65.748 94.6196 65.748 94.8126V95.078C65.748 95.271 65.9045 95.4275 66.0975 95.4275H85.9652C86.1582 95.4275 86.3146 95.271 86.3146 95.078V94.8126C86.3146 94.6196 86.1582 94.4631 85.9652 94.4631Z" fill="#FAFAFA"/>
<path d="M40.858 95.684C43.2107 93.3313 43.2107 89.5168 40.858 87.1641C38.5053 84.8114 34.6908 84.8114 32.3381 87.1641C29.9854 89.5168 29.9854 93.3313 32.3381 95.684C34.6908 98.0367 38.5053 98.0367 40.858 95.684Z" fill="#4D96B9"/>
<path d="M41.5696 91.4256C41.5696 92.4092 41.278 93.3706 40.7316 94.1884C40.1851 95.0062 39.4085 95.6435 38.4998 96.0199C37.5912 96.3963 36.5913 96.4948 35.6267 96.3029C34.6621 96.111 33.776 95.6374 33.0805 94.9419C32.3851 94.2465 31.9115 93.3604 31.7196 92.3958C31.5277 91.4312 31.6262 90.4313 32.0026 89.5226C32.3789 88.614 33.0163 87.8373 33.8341 87.2909C34.6519 86.7445 35.6133 86.4528 36.5968 86.4528C37.2515 86.447 37.9007 86.5717 38.5067 86.8195C39.1127 87.0673 39.6632 87.4334 40.1261 87.8963C40.589 88.3593 40.9551 88.9098 41.203 89.5158C41.4508 90.1217 41.5755 90.771 41.5696 91.4256Z" fill="#FAFAFA"/>
<path d="M40.9684 93.7945C40.541 94.5799 39.9097 95.2356 39.141 95.6925C38.3723 96.1493 37.4946 96.3904 36.6004 96.3904C35.7062 96.3904 34.8285 96.1493 34.0598 95.6925C33.2911 95.2356 32.6598 94.5799 32.2324 93.7945C33.5262 92.9327 35.0459 92.4729 36.6004 92.4729C38.1549 92.4729 39.6747 92.9327 40.9684 93.7945Z" fill="#4D96B9"/>
<path opacity="0.7" d="M40.9684 93.7945C40.541 94.5799 39.9097 95.2356 39.141 95.6925C38.3723 96.1493 37.4946 96.3904 36.6004 96.3904C35.7062 96.3904 34.8285 96.1493 34.0598 95.6925C33.2911 95.2356 32.6598 94.5799 32.2324 93.7945C33.5262 92.9327 35.0459 92.4729 36.6004 92.4729C38.1549 92.4729 39.6747 92.9327 40.9684 93.7945Z" fill="#FAFAFA"/>
<path d="M38.8113 89.712C38.8106 90.1498 38.6802 90.5775 38.4365 90.9412C38.1928 91.3049 37.8467 91.5882 37.4421 91.7553C37.0374 91.9224 36.5923 91.9657 36.163 91.8799C35.7337 91.7941 35.3395 91.5829 35.0302 91.2731C34.7208 90.9633 34.5103 90.5688 34.4251 90.1394C34.3399 89.7099 34.384 89.2649 34.5517 88.8605C34.7194 88.4561 35.0032 88.1105 35.3672 87.8673C35.7313 87.6242 36.1593 87.4944 36.5971 87.4944C36.8881 87.4944 37.1763 87.5518 37.4452 87.6633C37.714 87.7747 37.9583 87.9381 38.1639 88.1441C38.3696 88.3501 38.5326 88.5946 38.6437 88.8636C38.7548 89.1326 38.8117 89.4209 38.8113 89.712Z" fill="#4D96B9"/>
<path opacity="0.7" d="M38.8113 89.712C38.8106 90.1498 38.6802 90.5775 38.4365 90.9412C38.1928 91.3049 37.8467 91.5882 37.4421 91.7553C37.0374 91.9224 36.5923 91.9657 36.163 91.8799C35.7337 91.7941 35.3395 91.5829 35.0302 91.2731C34.7208 90.9633 34.5103 90.5688 34.4251 90.1394C34.3399 89.7099 34.384 89.2649 34.5517 88.8605C34.7194 88.4561 35.0032 88.1105 35.3672 87.8673C35.7313 87.6242 36.1593 87.4944 36.5971 87.4944C36.8881 87.4944 37.1763 87.5518 37.4452 87.6633C37.714 87.7747 37.9583 87.9381 38.1639 88.1441C38.3696 88.3501 38.5326 88.5946 38.6437 88.8636C38.7548 89.1326 38.8117 89.4209 38.8113 89.712Z" fill="#FAFAFA"/>
<path d="M43.7939 41.2373H42.2617V41.5733H43.7939V41.2373Z" fill="#4D96B9"/>
<path d="M39.8359 41.2373H36.2139V41.5733H39.8359V41.2373Z" fill="#4D96B9"/>
<path d="M91.1467 42.4133H30.0283C28.3693 42.4133 27.0244 43.7582 27.0244 45.4172V56.3237C27.0244 57.9827 28.3693 59.3276 30.0283 59.3276H91.1467C92.8056 59.3276 94.1505 57.9827 94.1505 56.3237V45.4172C94.1505 43.7582 92.8056 42.4133 91.1467 42.4133Z" fill="#4D96B9"/>
<path d="M91.8556 43.1223H30.7372C29.0783 43.1223 27.7334 44.4672 27.7334 46.1262V57.0327C27.7334 58.6917 29.0783 60.0366 30.7372 60.0366H91.8556C93.5146 60.0366 94.8595 58.6917 94.8595 57.0327V46.1262C94.8595 44.4672 93.5146 43.1223 91.8556 43.1223Z" fill="#4D96B9"/>
<path opacity="0.6" d="M91.8556 43.1223H30.7372C29.0783 43.1223 27.7334 44.4672 27.7334 46.1262V57.0327C27.7334 58.6917 29.0783 60.0366 30.7372 60.0366H91.8556C93.5146 60.0366 94.8595 58.6917 94.8595 57.0327V46.1262C94.8595 44.4672 93.5146 43.1223 91.8556 43.1223Z" fill="#FAFAFA"/>
<path d="M92.5646 43.8313H31.4462C29.7872 43.8313 28.4424 45.1762 28.4424 46.8351V57.7417C28.4424 59.4007 29.7872 60.7455 31.4462 60.7455H92.5646C94.2236 60.7455 95.5685 59.4007 95.5685 57.7417V46.8351C95.5685 45.1762 94.2236 43.8313 92.5646 43.8313Z" fill="#4D96B9"/>
<path opacity="0.8" d="M92.5646 43.8313H31.4462C29.7872 43.8313 28.4424 45.1762 28.4424 46.8351V57.7417C28.4424 59.4007 29.7872 60.7455 31.4462 60.7455H92.5646C94.2236 60.7455 95.5685 59.4007 95.5685 57.7417V46.8351C95.5685 45.1762 94.2236 43.8313 92.5646 43.8313Z" fill="#FAFAFA"/>
<path d="M76.2453 46.6907H46.5295C46.175 46.6907 45.8877 46.978 45.8877 47.3324V48.6092C45.8877 48.9637 46.175 49.251 46.5295 49.251H76.2453C76.5997 49.251 76.8871 48.9637 76.8871 48.6092V47.3324C76.8871 46.978 76.5997 46.6907 76.2453 46.6907Z" fill="#4D96B9"/>
<path d="M86.4933 51.0083H46.5295C46.175 51.0083 45.8877 51.2956 45.8877 51.6501V52.9269C45.8877 53.2813 46.175 53.5686 46.5295 53.5686H86.4933C86.8477 53.5686 87.135 53.2813 87.135 52.9269V51.6501C87.135 51.2956 86.8477 51.0083 86.4933 51.0083Z" fill="#4D96B9"/>
<path d="M57.1437 55.3257H46.2371C46.0441 55.3257 45.8877 55.4821 45.8877 55.6751V55.9406C45.8877 56.1336 46.0441 56.29 46.2371 56.29H57.1437C57.3367 56.29 57.4931 56.1336 57.4931 55.9406V55.6751C57.4931 55.4821 57.3367 55.3257 57.1437 55.3257Z" fill="#4D96B9"/>
<path opacity="0.5" d="M57.1437 55.3257H46.2371C46.0441 55.3257 45.8877 55.4821 45.8877 55.6751V55.9406C45.8877 56.1336 46.0441 56.29 46.2371 56.29H57.1437C57.3367 56.29 57.4931 56.1336 57.4931 55.9406V55.6751C57.4931 55.4821 57.3367 55.3257 57.1437 55.3257Z" fill="#FAFAFA"/>
<path d="M42.4584 53.6864C43.2289 50.4496 41.2296 47.2011 37.9928 46.4305C34.756 45.66 31.5074 47.6593 30.7369 50.8961C29.9664 54.1329 31.9657 57.3815 35.2025 58.152C38.4393 58.9225 41.6878 56.9232 42.4584 53.6864Z" fill="#4D96B9"/>
<path d="M41.5696 52.2883C41.5696 53.2718 41.278 54.2332 40.7316 55.051C40.1851 55.8688 39.4085 56.5062 38.4998 56.8825C37.5912 57.2589 36.5913 57.3574 35.6267 57.1655C34.6621 56.9737 33.776 56.5 33.0805 55.8046C32.3851 55.1091 31.9115 54.2231 31.7196 53.2584C31.5277 52.2938 31.6262 51.2939 32.0026 50.3853C32.3789 49.4766 33.0163 48.7 33.8341 48.1536C34.6519 47.6071 35.6133 47.3155 36.5968 47.3155C37.2507 47.3124 37.8988 47.4389 38.5035 47.6877C39.1082 47.9365 39.6577 48.3027 40.1201 48.765C40.5825 49.2274 40.9486 49.7769 41.1974 50.3816C41.4462 50.9863 41.5727 51.6344 41.5696 52.2883Z" fill="#FAFAFA"/>
<path d="M40.9684 54.657C40.541 55.4425 39.9097 56.0982 39.141 56.555C38.3723 57.0119 37.4946 57.253 36.6004 57.253C35.7062 57.253 34.8285 57.0119 34.0598 56.555C33.2911 56.0982 32.6598 55.4425 32.2324 54.657C33.5262 53.7953 35.0459 53.3354 36.6004 53.3354C38.1549 53.3354 39.6747 53.7953 40.9684 54.657Z" fill="#4D96B9"/>
<path opacity="0.7" d="M40.9684 54.657C40.541 55.4425 39.9097 56.0982 39.141 56.555C38.3723 57.0119 37.4946 57.253 36.6004 57.253C35.7062 57.253 34.8285 57.0119 34.0598 56.555C33.2911 56.0982 32.6598 55.4425 32.2324 54.657C33.5262 53.7953 35.0459 53.3354 36.6004 53.3354C38.1549 53.3354 39.6747 53.7953 40.9684 54.657Z" fill="#FAFAFA"/>
<path d="M36.5971 52.7991C37.8199 52.7991 38.8113 51.8077 38.8113 50.5848C38.8113 49.362 37.8199 48.3706 36.5971 48.3706C35.3742 48.3706 34.3828 49.362 34.3828 50.5848C34.3828 51.8077 35.3742 52.7991 36.5971 52.7991Z" fill="#4D96B9"/>
<path opacity="0.7" d="M36.5971 52.7991C37.8199 52.7991 38.8113 51.8077 38.8113 50.5848C38.8113 49.362 37.8199 48.3706 36.5971 48.3706C35.3742 48.3706 34.3828 49.362 34.3828 50.5848C34.3828 51.8077 35.3742 52.7991 36.5971 52.7991Z" fill="#FAFAFA"/>
<path d="M134.108 87.7329L131.904 88.8787L134.374 90.7972C134.374 90.7972 136.034 89.4062 135.382 88.4452L134.108 87.7329Z" fill="#E4897B"/>
<path d="M130.644 91.2139L132.75 92.6788L134.373 90.7972L131.904 88.8787L130.644 91.2139Z" fill="#E4897B"/>
<path d="M134.962 68.6785C135.264 69.0749 135.523 69.4311 135.785 69.8175C136.047 70.2039 136.296 70.5769 136.544 70.9599C137.035 71.7327 137.502 72.5257 137.932 73.3388C138.373 74.1603 138.772 75.0036 139.128 75.8655L139.394 76.5375L139.632 77.2095C139.716 77.4313 139.78 77.6665 139.851 77.8983L139.955 78.2343L139.978 78.3217L140.019 78.4661C140.044 78.5703 140.065 78.6757 140.079 78.782C140.157 79.4186 140.112 80.0644 139.945 80.6838C139.821 81.1802 139.662 81.6674 139.471 82.142C139.116 83.012 138.703 83.8573 138.235 84.6721C137.337 86.2492 136.316 87.7525 135.18 89.1678L133.635 88.1598C134.377 86.6108 135.103 85.0148 135.738 83.4558C136.049 82.6945 136.319 81.9172 136.548 81.1273C136.653 80.7728 136.733 80.4112 136.786 80.0453C136.83 79.8077 136.83 79.564 136.786 79.3263L136.759 79.2591L136.649 78.9802C136.578 78.7954 136.511 78.614 136.423 78.4292L136.182 77.8781L135.916 77.3238C135.549 76.5913 135.155 75.8633 134.733 75.1398C134.307 74.4207 133.867 73.7017 133.389 72.9961C132.912 72.2905 132.439 71.5748 131.988 70.9263L134.962 68.6785Z" fill="#E4897B"/>
<path d="M139.551 73.8361L134.017 77.7169C134.017 77.7169 133.681 76.9911 133.214 75.9327C132.834 75.0894 132.361 74.0377 131.89 72.9759C131.699 72.5459 131.511 72.1158 131.326 71.6958C130.046 68.7793 131.541 66.6793 134.168 67.0691C136.483 67.4151 139.551 73.8361 139.551 73.8361Z" fill="#263238"/>
<path d="M133.48 69.7974C133.587 70.839 133.598 74.0612 133.214 75.9327C132.835 75.0894 132.361 74.0377 131.891 72.9759L133.48 69.7974Z" fill="#4D96B9"/>
<path opacity="0.8" d="M133.48 69.7974C133.587 70.839 133.598 74.0612 133.214 75.9327C132.835 75.0894 132.361 74.0377 131.891 72.9759L133.48 69.7974Z" fill="#4D96B9"/>
<g opacity="0.8">
<path d="M133.48 69.7974C133.587 70.839 133.598 74.0612 133.214 75.9327C132.835 75.0894 132.361 74.0377 131.891 72.9759L133.48 69.7974Z" fill="black"/>
<path opacity="0.8" d="M133.48 69.7974C133.587 70.839 133.598 74.0612 133.214 75.9327C132.835 75.0894 132.361 74.0377 131.891 72.9759L133.48 69.7974Z" fill="black"/>
</g>
<path d="M141.759 96.2204L82.6967 80.509C81.9297 80.2994 81.276 79.7962 80.8773 79.1082C80.4786 78.4202 80.367 77.6029 80.5665 76.8332L83.3687 66.2962C83.5804 65.531 84.0846 64.8798 84.7723 64.4831C85.4601 64.0864 86.2762 63.9761 87.0446 64.176L146.107 79.884C146.874 80.0936 147.529 80.5974 147.927 81.2861C148.326 81.9749 148.437 82.793 148.237 83.5632L145.435 94.08C145.227 94.8489 144.725 95.505 144.037 95.9057C143.348 96.3064 142.53 96.4195 141.759 96.2204Z" fill="#4D96B9"/>
<path opacity="0.8" d="M141.759 96.2204L82.6967 80.509C81.9297 80.2994 81.276 79.7962 80.8773 79.1082C80.4786 78.4202 80.367 77.6029 80.5665 76.8332L83.3687 66.2962C83.5804 65.531 84.0846 64.8798 84.7723 64.4831C85.4601 64.0864 86.2762 63.9761 87.0446 64.176L146.107 79.884C146.874 80.0936 147.529 80.5974 147.927 81.2861C148.326 81.9749 148.437 82.793 148.237 83.5632L145.435 94.08C145.227 94.8489 144.725 95.505 144.037 95.9057C143.348 96.3064 142.53 96.4195 141.759 96.2204Z" fill="#FAFAFA"/>
<path d="M142.26 97.104L83.2008 81.3758C82.4332 81.167 81.7787 80.664 81.3794 79.976C80.98 79.2879 80.8678 78.4702 81.0672 77.7L83.8728 67.1664C84.0817 66.3987 84.5846 65.7443 85.2727 65.3449C85.9608 64.9456 86.7785 64.8334 87.5487 65.0328L146.607 80.7442C147.375 80.953 148.029 81.456 148.429 82.144C148.828 82.8321 148.94 83.6498 148.741 84.42L145.939 94.957C145.733 95.7278 145.231 96.3861 144.541 96.7883C143.852 97.1904 143.032 97.3039 142.26 97.104Z" fill="#4D96B9"/>
<path opacity="0.4" d="M142.26 97.104L83.2008 81.3758C82.4332 81.167 81.7787 80.664 81.3794 79.976C80.98 79.2879 80.8678 78.4702 81.0672 77.7L83.8728 67.1664C84.0817 66.3987 84.5846 65.7443 85.2727 65.3449C85.9608 64.9456 86.7785 64.8334 87.5487 65.0328L146.607 80.7442C147.375 80.953 148.029 81.456 148.429 82.144C148.828 82.8321 148.94 83.6498 148.741 84.42L145.939 94.957C145.733 95.7278 145.231 96.3861 144.541 96.7883C143.852 97.1904 143.032 97.3039 142.26 97.104Z" fill="#FAFAFA"/>
<path d="M142.763 97.9574L83.7047 82.246C82.9371 82.0372 82.2826 81.5342 81.8833 80.8461C81.4839 80.1581 81.3717 79.3404 81.5711 78.5702L84.3734 68.0332C84.5829 67.2654 85.0867 66.6112 85.7754 66.2124C86.4642 65.8137 87.2824 65.7025 88.0526 65.903L147.111 81.611C147.883 81.8197 148.541 82.3257 148.941 83.0184C149.341 83.7111 149.45 84.534 149.245 85.307L146.439 95.8406C146.227 96.6051 145.722 97.2556 145.035 97.6516C144.347 98.0476 143.531 98.1574 142.763 97.9574Z" fill="#4D96B9"/>
<path opacity="0.2" d="M142.763 97.9574L83.7047 82.246C82.9371 82.0372 82.2826 81.5342 81.8833 80.8461C81.4839 80.1581 81.3717 79.3404 81.5711 78.5702L84.3734 68.0332C84.5829 67.2654 85.0867 66.6112 85.7754 66.2124C86.4642 65.8137 87.2824 65.7025 88.0526 65.903L147.111 81.611C147.883 81.8197 148.541 82.3257 148.941 83.0184C149.341 83.7111 149.45 84.534 149.245 85.307L146.439 95.8406C146.227 96.6051 145.722 97.2556 145.035 97.6516C144.347 98.0476 143.531 98.1574 142.763 97.9574Z" fill="black"/>
<path d="M139.437 82.5408L101.885 72.549C101.542 72.4579 101.191 72.6617 101.1 73.0042L100.771 74.2381C100.68 74.5806 100.884 74.9321 101.226 75.0233L138.778 85.0151C139.121 85.1062 139.472 84.9024 139.564 84.5599L139.892 83.326C139.983 82.9835 139.779 82.632 139.437 82.5408Z" fill="#4D96B9"/>
<path opacity="0.7" d="M139.437 82.5408L101.885 72.549C101.542 72.4579 101.191 72.6617 101.1 73.0042L100.771 74.2381C100.68 74.5806 100.884 74.9321 101.226 75.0233L138.778 85.0151C139.121 85.1062 139.472 84.9024 139.564 84.5599L139.892 83.326C139.983 82.9835 139.779 82.632 139.437 82.5408Z" fill="#FAFAFA"/>
<path d="M124.496 83.0302L100.776 76.719C100.434 76.6278 100.082 76.8316 99.9912 77.1741L99.6629 78.408C99.5718 78.7505 99.7756 79.1021 100.118 79.1932L123.838 85.5045C124.18 85.5956 124.532 85.3918 124.623 85.0493L124.951 83.8154C125.042 83.4729 124.838 83.1214 124.496 83.0302Z" fill="#4D96B9"/>
<path opacity="0.7" d="M124.496 83.0302L100.776 76.719C100.434 76.6278 100.082 76.8316 99.9912 77.1741L99.6629 78.408C99.5718 78.7505 99.7756 79.1021 100.118 79.1932L123.838 85.5045C124.18 85.5956 124.532 85.3918 124.623 85.0493L124.951 83.8154C125.042 83.4729 124.838 83.1214 124.496 83.0302Z" fill="#FAFAFA"/>
<path d="M133.994 90.0232L99.3836 80.8142C99.1971 80.7646 99.0057 80.8756 98.956 81.0621L98.8878 81.3186C98.8382 81.5051 98.9491 81.6965 99.1356 81.7461L133.746 90.9551C133.932 91.0048 134.124 90.8938 134.173 90.7073L134.241 90.4508C134.291 90.2643 134.18 90.0729 133.994 90.0232Z" fill="#FAFAFA"/>
<path d="M95.5621 78.5904C97.4587 75.8621 96.7843 72.1129 94.056 70.2164C91.3277 68.3199 87.5785 68.9942 85.682 71.7225C83.7855 74.4509 84.4598 78.2 87.1881 80.0965C89.9164 81.9931 93.6656 81.3188 95.5621 78.5904Z" fill="#4D96B9"/>
<path d="M95.6592 76.6752C95.4062 77.6256 94.8771 78.4796 94.1388 79.1293C93.4005 79.779 92.4862 80.1952 91.5114 80.3253C90.5365 80.4553 89.545 80.2934 88.6622 79.86C87.7794 79.4266 87.0449 78.7412 86.5516 77.8904C86.0584 77.0396 85.8284 76.0616 85.8909 75.0802C85.9534 74.0987 86.3055 73.1578 86.9027 72.3764C87.4999 71.5951 88.3154 71.0083 89.246 70.6904C90.1767 70.3724 91.1807 70.3376 92.1312 70.5902C92.7645 70.7544 93.359 71.0428 93.8801 71.4385C94.4011 71.8342 94.8384 72.3295 95.1666 72.8955C95.4948 73.4616 95.7074 74.0871 95.7919 74.736C95.8765 75.3848 95.8313 76.0439 95.6592 76.6752Z" fill="#FAFAFA"/>
<path d="M94.4704 78.8088C93.8562 79.4621 93.0766 79.9371 92.2144 80.1833C91.3521 80.4296 90.4393 80.4379 89.5727 80.2075C88.7061 79.9771 87.918 79.5165 87.292 78.8745C86.6659 78.2325 86.2252 77.4331 86.0166 76.561C87.4898 76.0602 89.0782 76.0064 90.5819 76.4064C92.0856 76.8064 93.4373 77.6422 94.467 78.8088H94.4704Z" fill="#4D96B9"/>
<path opacity="0.7" d="M94.4704 78.8088C93.8562 79.4621 93.0766 79.9371 92.2144 80.1833C91.3521 80.4296 90.4393 80.4379 89.5727 80.2075C88.7061 79.9771 87.918 79.5165 87.292 78.8745C86.6659 78.2325 86.2252 77.4331 86.0166 76.561C87.4898 76.0602 89.0782 76.0064 90.5819 76.4064C92.0856 76.8064 93.4373 77.6422 94.467 78.8088H94.4704Z" fill="#FAFAFA"/>
<path d="M93.4317 74.3231C93.3188 74.7461 93.0831 75.1261 92.7543 75.4151C92.4255 75.7041 92.0185 75.8892 91.5845 75.947C91.1506 76.0047 90.7093 75.9326 90.3164 75.7396C89.9234 75.5467 89.5965 75.2416 89.3769 74.8629C89.1573 74.4842 89.0549 74.0489 89.0826 73.6121C89.1102 73.1752 89.2668 72.7563 89.5324 72.4084C89.7981 72.0605 90.1609 71.7991 90.575 71.6573C90.9892 71.5154 91.4361 71.4996 91.8592 71.6116C92.1407 71.6862 92.4046 71.8155 92.636 71.9921C92.8675 72.1688 93.0618 72.3894 93.2078 72.6413C93.3539 72.8931 93.4488 73.1713 93.4872 73.4599C93.5257 73.7485 93.5068 74.0419 93.4317 74.3231Z" fill="#4D96B9"/>
<path opacity="0.7" d="M93.4317 74.3231C93.3188 74.7461 93.0831 75.1261 92.7543 75.4151C92.4255 75.7041 92.0185 75.8892 91.5845 75.947C91.1506 76.0047 90.7093 75.9326 90.3164 75.7396C89.9234 75.5467 89.5965 75.2416 89.3769 74.8629C89.1573 74.4842 89.0549 74.0489 89.0826 73.6121C89.1102 73.1752 89.2668 72.7563 89.5324 72.4084C89.7981 72.0605 90.1609 71.7991 90.575 71.6573C90.9892 71.5154 91.4361 71.4996 91.8592 71.6116C92.1407 71.6862 92.4046 71.8155 92.636 71.9921C92.8675 72.1688 93.0618 72.3894 93.2078 72.6413C93.3539 72.8931 93.4488 73.1713 93.4872 73.4599C93.5257 73.7485 93.5068 74.0419 93.4317 74.3231Z" fill="#FAFAFA"/>
<path d="M130.685 59.8484C130.056 61.562 129.189 64.7473 130.238 66.1249C130.238 66.1249 129.468 67.8418 126.182 67.3143C122.567 66.733 124.741 65.2445 124.741 65.2445C126.79 65.09 126.972 63.6183 126.851 62.187L130.685 59.8484Z" fill="#E4897B"/>
<path d="M123.984 65.8158C124.169 65.5033 124.005 64.2836 124.005 64.2836C124.005 64.2836 129.233 63.8972 131.061 64.67C132.038 65.0833 131.061 66.8238 131.061 66.8238L123.984 65.8158Z" fill="#4D96B9"/>
<path opacity="0.1" d="M123.984 65.8158C124.169 65.5033 124.005 64.2836 124.005 64.2836C124.005 64.2836 129.233 63.8972 131.061 64.67C132.038 65.0833 131.061 66.8238 131.061 66.8238L123.984 65.8158Z" fill="black"/>
<path d="M124.657 56.8377C124.623 57.0326 124.495 57.1737 124.368 57.1536C124.24 57.1334 124.163 56.9587 124.193 56.7638C124.223 56.5689 124.354 56.4278 124.482 56.448C124.61 56.4681 124.677 56.6428 124.657 56.8377Z" fill="#263238"/>
<path d="M124.633 56.9353C124.306 57.4936 123.902 58.0037 123.434 58.4507C123.55 58.5696 123.692 58.6613 123.848 58.7194C124.004 58.7774 124.171 58.8004 124.337 58.7867L124.633 56.9353Z" fill="#DE5753"/>
<path d="M125.443 56.2329C125.422 56.2339 125.4 56.2288 125.382 56.218C125.363 56.2073 125.348 56.1915 125.339 56.1724C125.275 56.0416 125.18 55.9279 125.063 55.8409C124.946 55.7538 124.81 55.6959 124.667 55.6718C124.639 55.6653 124.615 55.6491 124.598 55.6262C124.582 55.6034 124.574 55.5753 124.577 55.5472C124.579 55.519 124.592 55.4927 124.612 55.473C124.632 55.4533 124.659 55.4416 124.687 55.4399C124.869 55.4678 125.042 55.5388 125.191 55.6469C125.34 55.755 125.461 55.8972 125.544 56.0615C125.558 56.0888 125.561 56.1206 125.552 56.1501C125.544 56.1796 125.524 56.2046 125.497 56.2195C125.48 56.2286 125.462 56.2332 125.443 56.2329Z" fill="#263238"/>
<path d="M109.399 134.141L106.973 133.815L107.087 128.11L109.513 128.436L109.399 134.141Z" fill="#E4897B"/>
<path d="M127.509 136.823H125.059L123.154 131.151H125.6L127.509 136.823Z" fill="#E4897B"/>
<path d="M124.733 136.537H127.721C127.769 136.538 127.816 136.555 127.853 136.585C127.891 136.616 127.918 136.658 127.929 136.705L128.413 138.882C128.424 138.935 128.423 138.99 128.41 139.043C128.397 139.095 128.372 139.144 128.338 139.186C128.303 139.227 128.259 139.261 128.21 139.283C128.161 139.306 128.107 139.317 128.053 139.316C127.092 139.299 126.393 139.245 125.184 139.245C124.438 139.245 122.906 139.322 121.877 139.322C120.849 139.322 120.715 138.314 121.135 138.214C123.023 137.8 123.732 137.232 124.337 136.688C124.446 136.591 124.587 136.537 124.733 136.537Z" fill="#263238"/>
<path d="M106.888 133.261L109.54 133.617C109.587 133.624 109.632 133.647 109.665 133.682C109.698 133.718 109.718 133.764 109.721 133.812L109.909 136.033C109.914 136.087 109.906 136.14 109.887 136.191C109.868 136.241 109.838 136.286 109.799 136.323C109.759 136.36 109.712 136.387 109.661 136.403C109.61 136.419 109.556 136.424 109.503 136.416C108.548 136.268 107.177 136.026 105.975 135.865C104.57 135.673 103.623 135.569 101.986 135.348C100.978 135.213 100.851 134.168 101.281 134.131C103.233 133.973 104.503 134.158 106.277 133.368C106.467 133.277 106.679 133.24 106.888 133.261Z" fill="#263238"/>
<path d="M107.087 128.11L107.026 131.053L109.456 131.379L109.513 128.439L107.087 128.11Z" fill="#CE6F64"/>
<path d="M125.604 131.154H123.154L124.139 134.078H126.588L125.604 131.154Z" fill="#CE6F64"/>
<path d="M120.961 65.4898C120.961 65.4898 117.107 72.4282 117.987 86.4394L130.96 88.1899C131.32 86.2109 131.38 76.3258 134.569 67.2C133.172 66.7284 131.745 66.3491 130.298 66.0643C128.476 65.7084 126.635 65.4594 124.784 65.3184C123.507 65.2756 122.229 65.3329 120.961 65.4898Z" fill="#263238"/>
<path d="M122.452 69.0245C121.915 69.9552 121.343 70.8557 120.772 71.7696L119.035 74.4576C118.457 75.3581 117.852 76.2451 117.244 77.1456C116.942 77.5891 116.629 78.0293 116.317 78.4694L115.843 79.1414C115.668 79.38 115.463 79.6521 115.268 79.8773C114.503 80.7519 113.66 81.5549 112.748 82.2763C111.871 82.9752 110.981 83.6203 110.06 84.2251C108.243 85.4281 106.347 86.5079 104.385 87.4574L103.488 85.8614C105.168 84.6283 106.848 83.328 108.448 82.0075C109.244 81.3355 110.023 80.6635 110.753 79.9613C111.463 79.2979 112.117 78.5763 112.708 77.8041C112.849 77.6193 112.957 77.4681 113.084 77.2565L113.498 76.5845L114.321 75.2405L115.967 72.5289L117.614 69.8073C118.175 68.9069 118.723 67.9929 119.294 67.1025L122.452 69.0245Z" fill="#E4897B"/>
<path d="M123.648 68.4701C123.336 70.7885 119.28 76.3057 119.28 76.3057L113.632 71.5378C113.632 71.5378 116.585 68.2349 119.008 66.35C121.43 64.465 123.984 65.9233 123.648 68.4701Z" fill="#263238"/>
<path d="M104.704 85.1626L102.591 85.8816L104.708 88.0892C104.708 88.0892 105.998 87.9346 105.88 86.1538L104.704 85.1626Z" fill="#E4897B"/>
<path d="M101.19 87.5616L103.606 88.7477L104.708 88.0891L102.592 85.8816L101.19 87.5616Z" fill="#E4897B"/>
<path d="M131.323 57.2208C130.792 59.5929 130.6 61.0075 129.196 62.0424C127.079 63.5981 124.3 62.0424 124.112 59.5459C123.941 57.3115 124.838 53.8104 127.338 53.2325C127.888 53.1026 128.462 53.1156 129.005 53.2701C129.548 53.4246 130.043 53.7155 130.443 54.1151C130.842 54.5148 131.132 55.01 131.286 55.5535C131.441 56.0971 131.453 56.671 131.323 57.2208Z" fill="#E4897B"/>
<path d="M134.606 57.1402C134.574 56.9576 134.504 56.7838 134.401 56.6303C134.297 56.4768 134.162 56.3471 134.004 56.2498C135.153 55.7458 134.579 55.1612 133.598 54.3077C132.331 53.1754 131.803 50.8839 131.86 50.3933C131.461 51.0015 131.568 51.8986 131.908 52.705C131.485 52.2394 131.144 51.7054 130.9 51.1258C129.918 48.6629 127.798 50.8167 125.752 50.8872C122.315 51.0048 125.036 49.2072 127.56 49.261C123.8 48.1085 120.05 49.5365 120.662 52.0498C121.273 54.5631 125.48 51.3778 125.456 53.6962C125.456 54.1666 125.97 54.6303 126.733 54.9965C125.675 57.1738 128.255 61.5485 129.757 61.6896C131.259 61.8308 133.89 59.2167 134.001 56.952C134.213 56.9758 134.418 57.0397 134.606 57.1402Z" fill="#263238"/>
<path d="M127.909 57.7618C127.759 58.3538 127.383 58.8631 126.861 59.1798C126.162 59.5897 125.608 59.0185 125.624 58.249C125.641 57.5602 126.028 56.5119 126.81 56.4145C126.982 56.3963 127.156 56.4212 127.315 56.4869C127.475 56.5526 127.615 56.657 127.724 56.7908C127.834 56.9245 127.908 57.0834 127.94 57.2529C127.972 57.4225 127.962 57.5974 127.909 57.7618Z" fill="#E4897B"/>
<path d="M127.472 133.51H122.977C122.977 133.51 117.056 118.413 116.428 110.581C116.294 108.901 116.562 106.687 117.06 104.304C117.906 100.232 119.412 95.6389 120.621 92.2084C121.707 89.1844 122.577 87.0508 122.577 87.0508L130.953 88.1831C130.13 94.2613 123.484 103.928 123.407 112.241C123.343 119.908 127.472 133.51 127.472 133.51Z" fill="#4D96B9"/>
<path opacity="0.1" d="M127.472 133.51H122.977C122.977 133.51 117.056 118.413 116.428 110.581C116.294 108.901 116.562 106.687 117.06 104.304C117.906 100.232 119.412 95.6389 120.621 92.2084C121.707 89.1844 122.577 87.0508 122.577 87.0508L130.953 88.1831C130.13 94.2613 123.484 103.928 123.407 112.241C123.343 119.908 127.472 133.51 127.472 133.51Z" fill="black"/>
<path d="M122.751 94.117C122.459 98.1792 119.334 102.5 117.069 104.304C117.916 100.232 119.421 95.6391 120.631 92.2085C121.266 92.1312 122.271 93.3845 122.751 94.117Z" fill="#4D96B9"/>
<path opacity="0.2" d="M122.751 94.117C122.459 98.1792 119.334 102.5 117.069 104.304C117.916 100.232 119.421 95.6391 120.631 92.2085C121.266 92.1312 122.271 93.3845 122.751 94.117Z" fill="black"/>
<path d="M117.987 86.4395C117.987 86.4395 106.469 101.778 105.733 109.2C104.967 116.928 106.194 130.368 106.194 130.368L110.303 130.922C110.303 130.922 111.543 118.302 112.749 110.762C114.059 102.551 126.525 94.0599 127.395 87.7028L117.987 86.4395Z" fill="#4D96B9"/>
<path opacity="0.1" d="M117.987 86.4395C117.987 86.4395 106.469 101.778 105.733 109.2C104.967 116.928 106.194 130.368 106.194 130.368L110.303 130.922C110.303 130.922 111.543 118.302 112.749 110.762C114.059 102.551 126.525 94.0599 127.395 87.7028L117.987 86.4395Z" fill="black"/>
<path d="M122.194 133.607H128.057V132.028L121.505 131.927L122.194 133.607Z" fill="#4D96B9"/>
<path opacity="0.4" d="M122.194 133.607H128.057V132.028L121.505 131.927L122.194 133.607Z" fill="#FAFAFA"/>
<path d="M105.364 130.341L111.072 131.124L111.284 129.545L104.903 128.584L105.364 130.341Z" fill="#4D96B9"/>
<path opacity="0.4" d="M105.364 130.341L111.072 131.124L111.284 129.545L104.903 128.584L105.364 130.341Z" fill="#FAFAFA"/>
<path d="M123.924 136.967C123.757 136.979 123.591 136.934 123.453 136.839C123.408 136.803 123.374 136.756 123.353 136.702C123.331 136.649 123.324 136.591 123.332 136.534C123.332 136.5 123.342 136.466 123.359 136.437C123.377 136.408 123.403 136.384 123.433 136.369C123.702 136.235 124.495 136.705 124.582 136.772C124.591 136.778 124.599 136.787 124.604 136.797C124.608 136.807 124.61 136.818 124.609 136.829C124.608 136.841 124.603 136.852 124.595 136.86C124.587 136.869 124.577 136.874 124.565 136.876C124.356 136.932 124.14 136.962 123.924 136.967ZM123.561 136.46C123.536 136.454 123.511 136.454 123.487 136.46C123.487 136.46 123.453 136.483 123.45 136.527C123.444 136.566 123.448 136.606 123.462 136.642C123.475 136.679 123.498 136.712 123.527 136.739C123.801 136.863 124.112 136.878 124.397 136.782C124.142 136.622 123.858 136.513 123.561 136.46Z" fill="#4D96B9"/>
<path d="M124.552 136.88H124.525C124.27 136.742 123.782 136.208 123.833 135.932C123.841 135.89 123.864 135.851 123.898 135.824C123.932 135.796 123.974 135.781 124.018 135.781C124.061 135.775 124.106 135.778 124.148 135.791C124.191 135.803 124.23 135.825 124.263 135.855C124.548 136.087 124.599 136.792 124.599 136.823C124.601 136.833 124.599 136.844 124.594 136.854C124.589 136.864 124.582 136.871 124.572 136.876L124.552 136.88ZM124.058 135.872H124.031C123.957 135.872 123.95 135.915 123.947 135.929C123.917 136.09 124.229 136.497 124.481 136.688C124.463 136.41 124.362 136.143 124.192 135.922C124.153 135.894 124.106 135.881 124.058 135.885V135.872Z" fill="#4D96B9"/>
<path d="M106.27 133.577C105.887 133.577 105.43 133.526 105.262 133.321C105.228 133.281 105.204 133.233 105.192 133.182C105.18 133.131 105.18 133.077 105.192 133.026C105.199 132.995 105.213 132.966 105.234 132.941C105.254 132.916 105.28 132.897 105.309 132.885C105.625 132.764 106.533 133.389 106.637 133.459C106.647 133.466 106.654 133.476 106.658 133.487C106.662 133.499 106.663 133.511 106.66 133.523C106.657 133.535 106.65 133.545 106.64 133.552C106.63 133.559 106.618 133.563 106.606 133.563C106.512 133.57 106.391 133.577 106.27 133.577ZM105.404 132.985C105.383 132.98 105.361 132.98 105.34 132.985C105.328 132.989 105.318 132.996 105.31 133.006C105.302 133.015 105.297 133.027 105.296 133.039C105.287 133.073 105.287 133.108 105.294 133.142C105.302 133.176 105.317 133.207 105.34 133.234C105.471 133.385 105.871 133.466 106.415 133.446C106.112 133.226 105.768 133.07 105.404 132.985Z" fill="#4D96B9"/>
<path d="M106.593 133.567H106.562C106.287 133.395 105.78 132.794 105.86 132.525C105.877 132.465 105.931 132.391 106.079 132.391H106.095C106.153 132.393 106.21 132.408 106.263 132.432C106.315 132.457 106.362 132.492 106.401 132.535C106.586 132.829 106.673 133.173 106.65 133.52C106.65 133.53 106.647 133.54 106.642 133.549C106.637 133.558 106.629 133.565 106.62 133.57L106.593 133.567ZM106.079 132.498C105.984 132.498 105.974 132.535 105.971 132.549C105.921 132.71 106.26 133.174 106.536 133.395C106.545 133.114 106.467 132.838 106.314 132.602C106.286 132.57 106.252 132.545 106.214 132.527C106.176 132.509 106.134 132.499 106.092 132.498H106.079Z" fill="#4D96B9"/>
</svg>
