<svg width="389" height="844" viewBox="0 0 389 844" fill="none" xmlns="http://www.w3.org/2000/svg">
<g clip-path="url(#clip0_909_1158)">
<path d="M167.863 698.857C167.863 698.857 173.051 690.891 173.254 681.427L195.393 682.13C196.07 688.171 198.005 694.004 201.072 699.254C199.58 701.946 184.518 722.496 167.863 698.857Z" fill="#ECA8B9"/>
<path d="M172.887 681.232C172.887 681.232 178.074 688.254 184.456 688.254C190.838 688.254 195.096 682.605 195.096 682.605L211.712 665.145L210.313 649.939L197.681 636.809L184.456 625.886L159.989 647.271L158.661 667.252L172.887 681.232Z" fill="#F2CBD3"/>
<path d="M169.895 692.436C169.895 692.436 104.204 677.292 131.866 611.711C133.991 606.928 156.083 569.479 140.373 555.935C137.983 553.01 135.319 542.672 100.751 535.487C87.9868 531.765 33.0329 532.625 19.2215 498.094C17.3622 491.985 10.2215 471.594 23.7215 452.094C37.2215 432.594 16.7215 415.094 -0.278534 412H391.221C391.221 412 335.569 440.664 358.974 494.317C362.2 503.063 382.113 550.076 336.64 581.416C330.523 585.668 277.863 594.43 258.45 616.212C251.271 623.117 248.881 623.382 241.694 641.178C239.303 650.47 233.187 682.606 198.353 692.436C197.189 688.98 197.986 693.161 195.893 682.808C197.385 681.708 202.97 674.835 204.267 668.664C205.962 668.266 208.556 667.766 209.056 661.79C209.352 660.23 207.657 657.008 206.259 660.394C205.267 654.722 202.173 644.463 195.791 641.872C193.494 640.374 185.917 636.294 184.917 632.112C181.831 635.795 184.62 636.099 169.16 646.054C166.871 650.236 165.371 650.938 163.692 659.801C162.301 659.598 161.403 658.607 160.801 661.361C160.903 665.145 162.301 669.163 165.387 668.734C167.387 674.094 168.879 677.097 173.269 682.176C172.754 685.594 171.848 692.966 169.895 692.436Z" fill="#263238"/>
<path d="M30.2215 536.594C30.7737 536.594 31.2215 536.147 31.2215 535.594C31.2215 535.042 30.7737 534.594 30.2215 534.594C29.6692 534.594 29.2215 535.042 29.2215 535.594C29.2215 536.147 29.6692 536.594 30.2215 536.594Z" fill="white"/>
<path opacity="0.5" d="M31.1979 535.821L35.2215 535.094L31.1979 534.363L31.9903 533.149L30.8865 534.02L30.2215 529.594L29.5611 534.02L28.4526 533.149L29.245 534.363L25.2215 535.094L29.245 535.821L28.4526 537.04L29.5611 536.168L30.2215 540.594L30.8865 536.168L31.9903 537.04L31.1979 535.821Z" fill="white"/>
<path d="M41.2215 741.594C41.7737 741.594 42.2215 741.147 42.2215 740.594C42.2215 740.042 41.7737 739.594 41.2215 739.594C40.6692 739.594 40.2215 740.042 40.2215 740.594C40.2215 741.147 40.6692 741.594 41.2215 741.594Z" fill="white"/>
<path opacity="0.4" d="M32.2026 535.749L39.2215 534.594L32.2026 533.439L34.2933 530.522L31.3763 532.613L30.2214 525.594L29.0666 532.613L26.1495 530.522L28.2402 533.439L21.2215 534.594L28.2402 535.749L26.1495 538.666L29.0666 536.575L30.2214 543.594L31.3763 536.575L34.2933 538.666L32.2026 535.749Z" fill="#4D96B9"/>
<path opacity="0.4" d="M43.4228 741.877L51.2215 740.594L43.4228 739.311L45.7458 736.07L42.5046 738.393L41.2214 730.594L39.9383 738.393L36.6971 736.07L39.0201 739.311L31.2215 740.594L39.0201 741.877L36.6971 745.119L39.9383 742.796L41.2214 750.594L42.5046 742.796L45.7458 745.119L43.4228 741.877Z" fill="#4D96B9"/>
<path opacity="0.5" d="M42.3932 741.387L47.2215 740.594L42.3932 739.796L43.3441 738.472L42.0196 739.423L41.2215 734.594L40.429 739.423L39.0988 738.472L40.0497 739.796L35.2215 740.594L40.0497 741.387L39.0988 742.717L40.429 741.766L41.2215 746.594L42.0196 741.766L43.3441 742.717L42.3932 741.387Z" fill="white"/>
<path d="M39.3186 616.758C39.3186 616.758 26.554 612.491 19.3748 624.724C19.3748 629.506 14.3205 628.711 28.1476 663.733C35.3267 678.876 48.896 708.086 72.5583 721.903C81.3388 727.481 94.6347 738.63 128.406 751.644C128.406 775.283 129.187 835.24 132.929 844.173H265.895L244.623 754.335C244.623 754.335 294.619 754.866 341.42 709.717C350.998 700.947 369.348 681.295 370.41 669.873C368.286 662.703 369.879 658.724 352.591 654.207C340.624 666.69 320.414 685.867 301.267 691.656C294.088 695.081 254.193 709.693 201.806 698.802C197.283 705.176 184.253 718.455 167.238 699.067C149.154 698.802 132.397 699.067 93.8066 679.415C85.0573 674.655 60.5904 658.989 39.3186 616.758Z" fill="#4D96B9"/>
<path d="M23.0933 620.472C23.0933 620.472 10.3287 610.977 10.8677 608.059C10.0865 604.868 8.07103 596.575 12.1254 585.216C12.9925 585.216 14.719 587.143 16.3829 594.648C16.9141 595.639 20.6404 600.554 24.4292 602.848C23.3667 598.494 22.2965 596.606 23.1636 594.976C25.2885 596.903 26.6868 597.901 30.3428 604.47C31.2724 606.468 32.6863 606.265 33.405 616.29C29.1475 616.953 24.562 618.818 23.0933 620.472Z" fill="#F2CBD3"/>
<path d="M368.348 661.899C368.348 661.899 382.488 654.605 382.409 651.632C383.714 648.613 387.034 640.749 384.878 628.89C384.027 628.75 382.011 630.372 379.144 637.472C378.457 638.369 373.988 642.613 369.879 644.26C371.629 640.14 373.004 638.416 372.402 636.7C369.989 638.26 368.45 639.04 363.77 644.907C362.528 646.725 361.185 646.296 358.833 656.072C362.981 657.452 367.176 660.027 368.348 661.899Z" fill="#F2CBD3"/>
<path d="M-6.68565 682.886C-6.68565 682.886 -43.9172 635.615 23.0933 600.289C35.3268 594.71 45.701 580.901 141.701 588.336C166.434 587.556 172.019 589.117 197.549 583.289C223.078 577.461 229.999 572.702 229.999 572.702C229.999 572.702 247.412 566.593 261.778 549.296C276.144 532 266.293 501.619 266.293 501.619C266.293 501.619 261.513 485.423 247.279 476.388C244.358 474.266 216.969 456.736 190.768 478.386C185.987 483.691 175.878 486.882 172.019 511.715C168.16 536.548 197.799 558.588 197.799 558.588C197.799 558.588 228.781 576.914 243.28 554.742C246.068 550.622 255.646 534.161 233.835 524.596C228.648 522.474 207.11 515.038 206.845 512.245C204.181 510.685 193.416 500.824 202.158 489.534C210.899 478.245 228.085 476.388 228.085 476.388C228.085 476.388 234.202 475.725 241.78 475.725C241.78 475.725 275.215 478.682 281.034 504.163" stroke="#E8EBF0" stroke-width="2" stroke-miterlimit="10"/>
<path d="M207.454 582.227C207.454 582.227 229.999 610.517 265.895 618.287C282.253 620.277 306.189 619.676 324.539 625.254C327.132 626.035 353.857 632.229 374.801 651.781C376.262 654.168 377.191 652.974 388.557 670.505" stroke="#E8EBF0" stroke-width="2" stroke-miterlimit="10"/>
<path d="M205.532 579.973C205.532 579.973 167.903 538.374 197.017 499.895C200.611 496.579 213.376 479.049 245.154 484.892C249.678 486.453 270.285 491.399 285.175 512.776C286.776 516.365 299.939 537.609 281.589 563.105C278.925 566.164 266.52 583.46 237.71 583.694C234.78 583.694 203.533 579.575 192.104 555.803" stroke="#E8EBF0" stroke-width="2" stroke-miterlimit="10"/>
<path d="M265.879 576.657C265.879 576.657 237.991 605.469 206.329 588.305C174.668 571.141 188.776 544.381 188.776 544.381C188.776 544.381 210.579 511.613 255.13 525.657C258.185 526.983 273.879 534.824 256.06 545.707C253.13 547.268 218.961 569.027 200.595 533.927C199.033 529.511 189.557 500.028 233.405 480.508C237.796 479.049 288.987 459.926 280.081 512.495C279.011 516.614 277.285 530.158 268.91 537.328L267.559 538.374" stroke="#E8EBF0" stroke-width="2" stroke-miterlimit="10"/>
<path d="M192.549 556.708C192.549 556.708 179.066 532.429 198.486 514.765C201.673 511.847 229.734 483.831 260.849 493.123C263.356 494.683 289.167 509.062 281.855 538.803C279.058 548.368 276.269 583.827 224.679 577.18C221.375 576.532 196.471 572.171 197.892 534.855" stroke="#E8EBF0" stroke-width="2" stroke-miterlimit="10"/>
<path d="M231.054 522.2C230.453 519.179 229.273 516.301 227.578 513.728C223.914 508.056 216.571 501.619 202.072 501.619C199.205 501.619 176.41 498.436 169.363 522.871C169.363 527.248 160.989 546.378 219.094 582.228C221.883 583.694 233.155 588.999 244.623 583.694C256.091 578.389 242.569 555.795 242.569 555.795C242.569 555.795 219.359 521.007 229.062 507.166C238.764 493.326 242.733 491.563 242.733 491.563" stroke="#E8EBF0" stroke-width="2" stroke-miterlimit="10"/>
<path d="M192.041 576.79C192.041 576.79 145.217 554.539 180.027 489.105C182.05 486.531 198.494 469.64 229.468 482.38C260.442 495.12 269.309 517.387 269.309 517.387" stroke="#E8EBF0" stroke-width="2" stroke-miterlimit="10"/>
<path d="M217.633 500.246C245.295 493.42 253.794 511.847 255.661 516.763C261.911 539.333 245.154 536.033 241.967 535.487C223 528.871 223.75 536.415 224.414 537.344C230.398 542.922 236.382 534.621 236.382 534.621C250.74 515.171 236.647 511.996 234.78 511.996C208.056 513.556 222.414 544.264 222.414 544.264C222.414 544.264 227.976 558.042 252.255 558.978C257.044 558.978 276.246 553.829 271.605 534.637C266.965 515.444 247.943 510.537 247.943 510.537C247.943 510.537 234.116 503.897 214.305 512.526C194.494 521.155 199.119 528.067 199.119 528.067" stroke="#E8EBF0" stroke-width="2" stroke-miterlimit="10"/>
<path d="M273.221 661.594C273.774 661.594 274.221 661.147 274.221 660.594C274.221 660.042 273.774 659.594 273.221 659.594C272.669 659.594 272.221 660.042 272.221 660.594C272.221 661.147 272.669 661.594 273.221 661.594Z" fill="white"/>
<path opacity="0.4" d="M275.423 661.877L283.221 660.594L275.423 659.311L277.746 656.07L274.505 658.393L273.221 650.594L271.938 658.393L268.697 656.07L271.02 659.311L263.221 660.594L271.02 661.877L268.697 665.119L271.938 662.796L273.221 670.594L274.505 662.796L277.746 665.119L275.423 661.877Z" fill="#4D96B9"/>
<path opacity="0.5" d="M274.393 661.387L279.221 660.594L274.393 659.796L275.344 658.472L274.02 659.423L273.221 654.594L272.429 659.423L271.099 658.472L272.05 659.796L267.221 660.594L272.05 661.387L271.099 662.717L272.429 661.766L273.221 666.594L274.02 661.766L275.344 662.717L274.393 661.387Z" fill="white"/>
<path d="M347.721 745.594C348.55 745.594 349.221 744.923 349.221 744.094C349.221 743.266 348.55 742.594 347.721 742.594C346.893 742.594 346.221 743.266 346.221 744.094C346.221 744.923 346.893 745.594 347.721 745.594Z" fill="white"/>
<path opacity="0.4" d="M350.693 745.827L361.221 744.094L350.693 742.362L353.829 737.986L349.454 741.123L347.721 730.594L345.989 741.123L341.614 737.986L344.75 742.362L334.221 744.094L344.75 745.827L341.614 750.202L345.989 747.066L347.721 757.594L349.454 747.066L353.829 750.202L350.693 745.827Z" fill="#4D96B9"/>
<path opacity="0.5" d="M349.186 745.085L355.221 744.094L349.186 743.097L350.375 741.441L348.719 742.63L347.721 736.594L346.731 742.63L345.068 741.441L346.257 743.097L340.221 744.094L346.257 745.085L345.068 746.748L346.731 745.559L347.721 751.594L348.719 745.559L350.375 746.748L349.186 745.085Z" fill="white"/>
<path d="M66.2215 613.594C66.7737 613.594 67.2215 613.147 67.2215 612.594C67.2215 612.042 66.7737 611.594 66.2215 611.594C65.6692 611.594 65.2215 612.042 65.2215 612.594C65.2215 613.147 65.6692 613.594 66.2215 613.594Z" fill="white"/>
<path opacity="0.4" d="M68.4228 613.877L76.2215 612.594L68.4228 611.311L70.7458 608.07L67.5046 610.393L66.2214 602.594L64.9383 610.393L61.6971 608.07L64.0201 611.311L56.2215 612.594L64.0201 613.877L61.6971 617.119L64.9383 614.796L66.2214 622.594L67.5046 614.796L70.7458 617.119L68.4228 613.877Z" fill="#4D96B9"/>
<path opacity="0.5" d="M67.3932 613.387L72.2215 612.594L67.3932 611.796L68.3441 610.472L67.0196 611.423L66.2215 606.594L65.429 611.423L64.0988 610.472L65.0497 611.796L60.2215 612.594L65.0497 613.387L64.0988 614.717L65.429 613.766L66.2215 618.594L67.0196 613.766L68.3441 614.717L67.3932 613.387Z" fill="white"/>
<path d="M328.721 599.594C328.998 599.594 329.221 599.37 329.221 599.094C329.221 598.818 328.998 598.594 328.721 598.594C328.445 598.594 328.221 598.818 328.221 599.094C328.221 599.37 328.445 599.594 328.721 599.594Z" fill="white"/>
<path opacity="0.4" d="M329.542 600.364L334.221 599.594L329.542 598.824L330.936 596.88L328.991 598.274L328.221 593.594L327.452 598.274L325.507 596.88L326.901 598.824L322.221 599.594L326.901 600.364L325.507 602.309L327.452 600.915L328.221 605.594L328.991 600.915L330.936 602.309L329.542 600.364Z" fill="#4D96B9"/>
<path opacity="0.5" d="M329.405 599.557L332.221 599.094L329.405 598.629L329.96 597.856L329.187 598.411L328.721 595.594L328.259 598.411L327.483 597.856L328.038 598.629L325.221 599.094L328.038 599.557L327.483 600.333L328.259 599.778L328.721 602.594L329.187 599.778L329.96 600.333L329.405 599.557Z" fill="white"/>
<path d="M87.2215 557.594C87.7737 557.594 88.2215 556.923 88.2215 556.094C88.2215 555.266 87.7737 554.594 87.2215 554.594C86.6692 554.594 86.2215 555.266 86.2215 556.094C86.2215 556.923 86.6692 557.594 87.2215 557.594Z" fill="white"/>
<path opacity="0.4" d="M90.5234 557.955L102.221 556.094L90.5234 554.234L94.0079 549.534L89.1462 552.902L87.2214 541.594L85.2967 552.902L80.4349 549.534L83.9194 554.234L72.2215 556.094L83.9194 557.955L80.4349 562.655L85.2967 559.286L87.2214 570.594L89.1462 559.286L94.0079 562.655L90.5234 557.955Z" fill="#4D96B9"/>
<path opacity="0.5" d="M88.979 557.217L96.2215 556.094L88.979 554.964L90.4054 553.087L88.4186 554.434L87.2215 547.594L86.0328 554.434L84.0375 553.087L85.4639 554.964L78.2215 556.094L85.4639 557.217L84.0375 559.101L86.0328 557.754L87.2215 564.594L88.4186 557.754L90.4054 559.101L88.979 557.217Z" fill="white"/>
<path d="M377.721 555.594C377.998 555.594 378.221 555.37 378.221 555.094C378.221 554.818 377.998 554.594 377.721 554.594C377.445 554.594 377.221 554.818 377.221 555.094C377.221 555.37 377.445 555.594 377.721 555.594Z" fill="white"/>
<path d="M103.721 646.594C103.998 646.594 104.221 646.37 104.221 646.094C104.221 645.818 103.998 645.594 103.721 645.594C103.445 645.594 103.221 645.818 103.221 646.094C103.221 646.37 103.445 646.594 103.721 646.594Z" fill="white"/>
<path d="M368.721 494.594C368.998 494.594 369.221 494.37 369.221 494.094C369.221 493.818 368.998 493.594 368.721 493.594C368.445 493.594 368.221 493.818 368.221 494.094C368.221 494.37 368.445 494.594 368.721 494.594Z" fill="white"/>
<path d="M20.7215 562.594C20.9976 562.594 21.2215 562.37 21.2215 562.094C21.2215 561.818 20.9976 561.594 20.7215 561.594C20.4453 561.594 20.2215 561.818 20.2215 562.094C20.2215 562.37 20.4453 562.594 20.7215 562.594Z" fill="white"/>
<path d="M264.721 768.594C264.998 768.594 265.221 768.37 265.221 768.094C265.221 767.818 264.998 767.594 264.721 767.594C264.445 767.594 264.221 767.818 264.221 768.094C264.221 768.37 264.445 768.594 264.721 768.594Z" fill="white"/>
<path d="M92.7215 765.594C92.9976 765.594 93.2215 765.37 93.2215 765.094C93.2215 764.818 92.9976 764.594 92.7215 764.594C92.4453 764.594 92.2215 764.818 92.2215 765.094C92.2215 765.37 92.4453 765.594 92.7215 765.594Z" fill="white"/>
<path d="M18.7215 689.594C18.9976 689.594 19.2215 689.37 19.2215 689.094C19.2215 688.818 18.9976 688.594 18.7215 688.594C18.4453 688.594 18.2215 688.818 18.2215 689.094C18.2215 689.37 18.4453 689.594 18.7215 689.594Z" fill="white"/>
<path opacity="0.4" d="M378.712 555.672L382.221 555.094L378.712 554.517L379.757 553.058L378.299 554.104L377.721 550.594L377.144 554.104L375.685 553.058L376.731 554.517L373.221 555.094L376.731 555.672L375.685 557.13L377.144 556.085L377.721 559.594L378.299 556.085L379.757 557.13L378.712 555.672Z" fill="#4D96B9"/>
<path opacity="0.4" d="M104.712 646.672L108.221 646.094L104.712 645.517L105.757 644.058L104.299 645.104L103.721 641.594L103.144 645.104L101.685 644.058L102.731 645.517L99.2215 646.094L102.731 646.672L101.685 648.13L103.144 647.085L103.721 650.594L104.299 647.085L105.757 648.13L104.712 646.672Z" fill="#4D96B9"/>
<path opacity="0.4" d="M369.712 494.672L373.221 494.094L369.712 493.517L370.757 492.058L369.299 493.104L368.721 489.594L368.144 493.104L366.685 492.058L367.731 493.517L364.221 494.094L367.731 494.672L366.685 496.13L368.144 495.085L368.721 498.594L369.299 495.085L370.757 496.13L369.712 494.672Z" fill="#4D96B9"/>
<path opacity="0.4" d="M21.712 562.672L25.2215 562.094L21.712 561.517L22.7574 560.058L21.2989 561.104L20.7214 557.594L20.144 561.104L18.6855 560.058L19.7308 561.517L16.2215 562.094L19.7308 562.672L18.6855 564.13L20.144 563.085L20.7214 566.594L21.2989 563.085L22.7574 564.13L21.712 562.672Z" fill="#4D96B9"/>
<path opacity="0.4" d="M265.712 768.672L269.221 768.094L265.712 767.517L266.757 766.058L265.299 767.104L264.721 763.594L264.144 767.104L262.685 766.058L263.731 767.517L260.221 768.094L263.731 768.672L262.685 770.13L264.144 769.085L264.721 772.594L265.299 769.085L266.757 770.13L265.712 768.672Z" fill="#4D96B9"/>
<path opacity="0.4" d="M93.712 765.672L97.2215 765.094L93.712 764.517L94.7574 763.058L93.2989 764.104L92.7214 760.594L92.144 764.104L90.6855 763.058L91.7308 764.517L88.2215 765.094L91.7308 765.672L90.6855 767.13L92.144 766.085L92.7214 769.594L93.2989 766.085L94.7574 767.13L93.712 765.672Z" fill="#4D96B9"/>
<path opacity="0.4" d="M19.712 689.672L23.2215 689.094L19.712 688.517L20.7574 687.058L19.2989 688.104L18.7214 684.594L18.144 688.104L16.6855 687.058L17.7308 688.517L14.2215 689.094L17.7308 689.672L16.6855 691.13L18.144 690.085L18.7214 693.594L19.2989 690.085L20.7574 691.13L19.712 689.672Z" fill="#4D96B9"/>
<path opacity="0.5" d="M378.21 554.991L380.221 554.594L378.21 554.195L378.606 553.533L378.054 554.008L377.721 551.594L377.391 554.008L376.837 553.533L377.233 554.195L375.221 554.594L377.233 554.991L376.837 555.656L377.391 555.18L377.721 557.594L378.054 555.18L378.606 555.656L378.21 554.991Z" fill="white"/>
<path opacity="0.5" d="M104.21 645.991L106.221 645.594L104.21 645.195L104.606 644.533L104.054 645.008L103.721 642.594L103.391 645.008L102.837 644.533L103.233 645.195L101.221 645.594L103.233 645.991L102.837 646.656L103.391 646.18L103.721 648.594L104.054 646.18L104.606 646.656L104.21 645.991Z" fill="white"/>
<path opacity="0.5" d="M369.21 493.991L371.221 493.594L369.21 493.195L369.606 492.533L369.054 493.008L368.721 490.594L368.391 493.008L367.837 492.533L368.233 493.195L366.221 493.594L368.233 493.991L367.837 494.656L368.391 494.18L368.721 496.594L369.054 494.18L369.606 494.656L369.21 493.991Z" fill="white"/>
<path opacity="0.5" d="M21.2097 561.991L23.2215 561.594L21.2097 561.195L21.6059 560.533L21.054 561.008L20.7215 558.594L20.3913 561.008L19.837 560.533L20.2332 561.195L18.2215 561.594L20.2332 561.991L19.837 562.656L20.3913 562.18L20.7215 564.594L21.054 562.18L21.6059 562.656L21.2097 561.991Z" fill="white"/>
<path opacity="0.5" d="M265.21 767.991L267.221 767.594L265.21 767.195L265.606 766.533L265.054 767.008L264.721 764.594L264.391 767.008L263.837 766.533L264.233 767.195L262.221 767.594L264.233 767.991L263.837 768.656L264.391 768.18L264.721 770.594L265.054 768.18L265.606 768.656L265.21 767.991Z" fill="white"/>
<path opacity="0.5" d="M93.2097 764.991L95.2215 764.594L93.2097 764.195L93.6059 763.533L93.054 764.008L92.7215 761.594L92.3913 764.008L91.837 763.533L92.2332 764.195L90.2215 764.594L92.2332 764.991L91.837 765.656L92.3913 765.18L92.7215 767.594L93.054 765.18L93.6059 765.656L93.2097 764.991Z" fill="white"/>
<path opacity="0.5" d="M19.2097 688.991L21.2215 688.594L19.2097 688.195L19.6059 687.533L19.054 688.008L18.7215 685.594L18.3913 688.008L17.837 687.533L18.2332 688.195L16.2215 688.594L18.2332 688.991L17.837 689.656L18.3913 689.18L18.7215 691.594L19.054 689.18L19.6059 689.656L19.2097 688.991Z" fill="white"/>
<rect y="1" width="389" height="412" fill="#263238"/>
</g>
<defs>
<clipPath id="clip0_909_1158">
<rect width="389" height="844" fill="white"/>
</clipPath>
</defs>
</svg>
