<svg width="218" height="31" viewBox="0 0 218 31" fill="none" xmlns="http://www.w3.org/2000/svg">
<path d="M18.9697 12.263V19.602H10.6057V31H0.765664V0.249998H20.9377L19.7077 8.122H10.6057V12.263H18.9697ZM32.3542 26.121L31.2472 31H20.8742L28.8282 0.249998H44.0392L51.9932 31H41.6202L40.4722 26.121H32.3542ZM36.7002 9.68H36.1672L34.1582 18.29H38.6682L36.7002 9.68ZM67.6735 31H53.8975V0.249998H67.6735C70.4342 0.249998 72.7438 0.536998 74.6025 1.111C76.4612 1.65766 77.9508 2.546 79.0715 3.776C80.1922 5.006 80.9848 6.59133 81.4495 8.532C81.9415 10.4727 82.1875 12.8233 82.1875 15.584C82.1875 18.3447 81.9415 20.709 81.4495 22.677C80.9848 24.6177 80.1922 26.203 79.0715 27.433C77.9508 28.663 76.4612 29.565 74.6025 30.139C72.7438 30.713 70.4342 31 67.6735 31ZM67.8375 8.122H63.7375V23.128H67.8375C69.2042 23.128 70.1745 22.9777 70.7485 22.677C71.3498 22.349 71.6505 21.6247 71.6505 20.504V10.746C71.6505 9.62533 71.3498 8.91467 70.7485 8.614C70.1745 8.286 69.2042 8.122 67.8375 8.122ZM103.852 12.263V19.602H95.4885V31H85.6485V0.249998H105.82L104.59 8.122H95.4885V12.263H103.852ZM117.237 26.121L116.13 31H105.757L113.711 0.249998H128.922L136.876 31H126.503L125.355 26.121H117.237ZM121.583 9.68H121.05L119.041 18.29H123.551L121.583 9.68ZM152.556 31H138.78V0.249998H152.556C155.317 0.249998 157.627 0.536998 159.485 1.111C161.344 1.65766 162.834 2.546 163.954 3.776C165.075 5.006 165.868 6.59133 166.332 8.532C166.824 10.4727 167.07 12.8233 167.07 15.584C167.07 18.3447 166.824 20.709 166.332 22.677C165.868 24.6177 165.075 26.203 163.954 27.433C162.834 28.663 161.344 29.565 159.485 30.139C157.627 30.713 155.317 31 152.556 31ZM152.72 8.122H148.62V23.128H152.72C154.087 23.128 155.057 22.9777 155.631 22.677C156.233 22.349 156.533 21.6247 156.533 20.504V10.746C156.533 9.62533 156.233 8.91467 155.631 8.614C155.057 8.286 154.087 8.122 152.72 8.122ZM190.211 23.128V31H170.531V0.249998H180.371V23.128H190.211ZM190.453 0.249998H201.318L204.024 11.074H204.393L207.14 0.249998H218.005L209.149 22.636V31H199.309V22.636L190.453 0.249998Z" fill="#295163"/>
</svg>
