<svg width="190" height="165" viewBox="0 0 190 165" fill="none" xmlns="http://www.w3.org/2000/svg">
<g clip-path="url(#clip0_715_6598)">
<path d="M89.4485 29.542C89.4485 29.542 90.5879 21.7285 99.2095 16.9962C102.514 10.6931 115.014 -9.05389 141.879 5.34455C146.905 4.94179 168.022 4.24906 170.322 27.4195C175.496 30.2991 197.617 43.5981 176.5 66.6315C178.078 70.3328 183.396 97.8932 152.078 104.748C151.792 108.86 156.387 130.25 127.366 133.404C127.653 137.105 126.218 148.894 109.84 149.72C107.688 153.421 102.961 161.919 89.4485 164.662V29.542Z" fill="url(#paint0_linear_715_6598)" stroke="#231F20" stroke-miterlimit="10"/>
<path d="M90.9677 29.1311C90.9677 29.1311 70.9267 -5.41704 33.0009 8.56656C-4.9248 22.5502 3.69258 60.1874 3.69258 60.1874C3.69258 60.1874 6.70992 75.8183 14.4664 86.0925C22.2229 96.3668 49.1638 139.159 90.0984 164.662C90.9424 159.728 90.9424 67.1954 90.9424 67.1954C90.9424 67.1954 109.688 83.4424 119.601 85.9113C129.514 88.3802 178.433 84.4131 178.433 84.4131C178.433 84.4131 186.189 83.4424 188.666 75.9351C189.532 73.0554 192.009 67.0947 184.573 64.0096C184.995 61.6414 185.974 56.2969 181.34 54.7463C176.707 53.1957 172.056 58.8584 172.056 58.8584L168.288 63.7921C168.288 63.7921 147.609 68.7298 126.159 65.4394C124.475 64.6097 108.422 54.0173 90.9677 29.1311Z" fill="url(#paint1_linear_715_6598)" stroke="#231F20" stroke-miterlimit="10"/>
<path d="M91.9638 68.7983C91.9638 68.7983 65.5293 93.0642 59.3511 91.8318C57.4859 92.9273 45.1295 94.9854 21.4254 88.9521C18.2646 84.7031 14.3863 77.4374 9.36023 79.3545C4.33413 81.2716 5.91243 88.5413 5.91243 88.5413C5.91243 88.5413 -1.84827 89.3468 0.738632 99.9231C1.89915 105.268 8.65125 108.01 15.9688 107.326C27.0296 110.068 50.4468 116.513 61.938 116.102C71.851 112.948 71.277 114.318 103.295 90.8732" fill="#E8EBF0"/>
<path d="M91.9638 68.7983C91.9638 68.7983 65.5293 93.0642 59.3511 91.8318C57.4859 92.9273 45.1295 94.9854 21.4254 88.9521C18.2646 84.7031 14.3863 77.4374 9.36023 79.3545C4.33413 81.2716 5.91243 88.5413 5.91243 88.5413C5.91243 88.5413 -1.84827 89.3468 0.738632 99.9231C1.89915 105.268 8.65125 108.01 15.9688 107.326C27.0296 110.068 50.4468 116.513 61.938 116.102C71.851 112.948 71.277 114.318 103.295 90.8732" stroke="#231F20" stroke-miterlimit="10"/>
<path d="M104.143 26.5575C102.071 25.5225 100.269 24.0403 99.5681 21.8373C99.0828 20.3149 99.374 18.6636 99.5132 17.113C99.5428 16.7908 99.0153 16.7908 98.9857 17.113C98.8338 18.8327 98.5637 20.5606 99.1461 22.232C99.931 24.435 101.775 25.9413 103.873 26.9925C104.176 27.1456 104.442 26.7106 104.143 26.5575Z" fill="#231F20"/>
<path d="M170.651 60.2157C169.621 58.8908 168.276 57.8188 166.726 57.0883C165.176 56.3579 163.467 55.99 161.738 56.0149C161.674 56.0227 161.615 56.0526 161.572 56.0989C161.529 56.1452 161.506 56.2049 161.506 56.2667C161.506 56.3284 161.529 56.3881 161.572 56.4344C161.615 56.4808 161.674 56.5106 161.738 56.5184C163.372 56.4939 164.989 56.8391 166.456 57.5259C167.923 58.2127 169.199 59.2214 170.178 60.4694C170.377 60.7272 170.837 60.4694 170.634 60.2157H170.651Z" fill="#231F20"/>
<path d="M109.705 149.353C106.924 149.945 104.151 148.974 101.872 147.48C100.782 146.777 99.7725 145.967 98.8593 145.064C97.9435 144.133 97.1712 143.002 97.3443 141.673C97.3865 141.35 96.859 141.354 96.8168 141.673C96.648 142.949 97.2936 144.089 98.1376 145.048C99.1157 146.103 100.23 147.035 101.455 147.823C103.885 149.434 106.861 150.481 109.844 149.836C110.177 149.768 110.038 149.281 109.705 149.353Z" fill="#231F20"/>
<path d="M127.125 132.989C123.336 133.782 119.377 133.344 115.879 131.745C114.145 130.916 112.533 129.873 111.085 128.643C109.696 127.543 108.463 126.274 107.417 124.87C106.261 123.259 105.485 121.321 105.839 119.336C105.898 119.018 105.388 118.881 105.333 119.199C104.679 122.848 107.32 126.046 109.975 128.358C112.98 131.004 116.486 133.042 120.58 133.662C122.806 133.999 125.079 133.936 127.281 133.477C127.615 133.408 127.475 132.921 127.142 132.989H127.125Z" fill="#231F20"/>
<path d="M90.6091 111.78C91.9721 113.299 93.2761 114.906 94.7574 116.315C96.1535 117.599 97.9148 118.462 99.8215 118.796C103.62 119.602 107.84 120.214 111.545 118.703C113.291 118.035 114.769 116.853 115.765 115.328C115.79 115.272 115.793 115.208 115.773 115.149C115.752 115.09 115.71 115.041 115.654 115.01C115.598 114.978 115.532 114.968 115.469 114.98C115.405 114.992 115.348 115.026 115.309 115.075C113.473 117.999 109.823 119.126 106.409 119.126C104.399 119.084 102.399 118.842 100.442 118.405C98.5343 118.003 96.7957 117.451 95.3777 116.142C93.8036 114.704 92.4532 113.005 91.0353 111.426C90.8158 111.18 90.4445 111.539 90.6639 111.78H90.6091Z" fill="#231F20"/>
<path d="M151.711 104.531C148.478 104.92 145.196 104.696 142.054 103.872C138.911 103.047 135.971 101.638 133.401 99.7258C131.966 98.653 130.665 97.4274 129.522 96.0728C129.307 95.819 128.936 96.1775 129.147 96.4272C131.257 98.8805 133.855 100.912 136.79 102.405C139.725 103.898 142.94 104.823 146.251 105.127C148.116 105.297 149.995 105.259 151.851 105.014C152.188 104.97 152.045 104.486 151.711 104.531Z" fill="#231F20"/>
<path d="M123.374 22.5582C123.289 27.21 125.268 31.6604 128.332 35.2167C131.615 39.0268 136.118 41.6608 140.908 43.4007C143.736 44.4011 146.653 45.1586 149.622 45.6642C149.956 45.7246 150.095 45.2373 149.762 45.1809C140.018 43.449 129.881 39.1798 125.572 30.0696C124.434 27.7157 123.858 25.1503 123.884 22.5582C123.876 22.4969 123.845 22.4406 123.796 22.3998C123.748 22.3589 123.685 22.3364 123.62 22.3364C123.556 22.3364 123.493 22.3589 123.445 22.3998C123.396 22.4406 123.365 22.4969 123.357 22.5582H123.374Z" fill="#231F20"/>
<path d="M129.577 36.5821C127.889 43.0261 124.374 49.5105 117.74 52.374C115.976 53.1367 114.068 53.5478 112.131 53.5823C112.067 53.5901 112.008 53.6199 111.965 53.6663C111.923 53.7126 111.899 53.7723 111.899 53.834C111.899 53.8958 111.923 53.9554 111.965 54.0018C112.008 54.0481 112.067 54.078 112.131 54.0857C115.579 53.9665 118.894 52.7821 121.576 50.7107C124.462 48.56 126.589 45.6158 128.066 42.4381C128.913 40.5848 129.588 38.6644 130.084 36.6989C130.168 36.3847 129.662 36.2478 129.577 36.566V36.5821Z" fill="#231F20"/>
<path d="M103.657 91.1431C106.776 90.6759 110.338 90.1805 113.123 91.9808C115.389 93.4428 116.449 96.0527 117.027 98.5014C117.103 98.8155 117.609 98.6826 117.537 98.3685C116.925 95.7828 115.778 93.0803 113.389 91.5458C110.477 89.669 106.776 90.1725 103.514 90.6598C103.181 90.7081 103.324 91.1955 103.657 91.1431Z" fill="#231F20"/>
</g>
<defs>
<linearGradient id="paint0_linear_715_6598" x1="137.29" y1="81.8889" x2="137.457" y2="164.662" gradientUnits="userSpaceOnUse">
<stop stop-color="#E8EBEF"/>
<stop offset="1" stop-color="#858789"/>
</linearGradient>
<linearGradient id="paint1_linear_715_6598" x1="96.8386" y1="22" x2="96.3105" y2="164.662" gradientUnits="userSpaceOnUse">
<stop stop-color="#4D96B9"/>
<stop offset="1" stop-color="#234353"/>
</linearGradient>
<clipPath id="clip0_715_6598">
<rect width="190" height="165" fill="white"/>
</clipPath>
</defs>
</svg>
